<?xml version="1.0" encoding="UTF-8" standalone="no"?>
<!-- Created with Inkscape (http://www.inkscape.org/) -->

<svg
   width="2000"
   height="2000"
   viewBox="0 0 529.16665 529.16668"
   version="1.1"
   id="svg5"
   inkscape:version="1.1.2 (b8e25be833, 2022-02-05)"
   sodipodi:docname="bitwise-and-fb-schematic.svg"
   xmlns:inkscape="http://www.inkscape.org/namespaces/inkscape"
   xmlns:sodipodi="http://sodipodi.sourceforge.net/DTD/sodipodi-0.dtd"
   xmlns="http://www.w3.org/2000/svg"
   xmlns:svg="http://www.w3.org/2000/svg">
  <sodipodi:namedview
     id="namedview7"
     pagecolor="#ffffff"
     bordercolor="#666666"
     borderopacity="1.0"
     inkscape:pageshadow="2"
     inkscape:pageopacity="0.0"
     inkscape:pagecheckerboard="0"
     inkscape:document-units="px"
     showgrid="true"
     units="px"
     width="2000px"
     inkscape:zoom="1.4142136"
     inkscape:cx="438.75976"
     inkscape:cy="1880.904"
     inkscape:window-width="1920"
     inkscape:window-height="1137"
     inkscape:window-x="-8"
     inkscape:window-y="-8"
     inkscape:window-maximized="1"
     inkscape:current-layer="layer1"
     inkscape:snap-center="true"
     inkscape:snap-others="true">
    <inkscape:grid
       type="xygrid"
       id="grid824" />
  </sodipodi:namedview>
  <defs
     id="defs2" />
  <g
     inkscape:label="Layer 1"
     inkscape:groupmode="layer"
     id="layer1">
    <path
       style="fill:none;stroke:#000000;stroke-width:0.529167;stroke-linecap:butt;stroke-linejoin:miter;stroke-miterlimit:4;stroke-dasharray:none;stroke-opacity:1"
       d="m 127,529.16666 0,-54.23958"
       id="path864-08"
       sodipodi:nodetypes="cc" />
    <path
       style="fill:none;stroke:#000000;stroke-width:0.529167;stroke-linecap:butt;stroke-linejoin:miter;stroke-miterlimit:4;stroke-dasharray:none;stroke-opacity:1"
       d="m 142.875,529.16666 0,-54.23958"
       id="path864-2-7"
       sodipodi:nodetypes="cc" />
    <path
       style="fill:none;stroke:#000000;stroke-width:0.529167;stroke-linecap:butt;stroke-linejoin:miter;stroke-miterlimit:4;stroke-dasharray:none;stroke-opacity:1"
       d="m 158.75,529.16666 0,-54.23958"
       id="path864-0-59"
       sodipodi:nodetypes="cc" />
    <path
       style="fill:none;stroke:#000000;stroke-width:0.529167;stroke-linecap:butt;stroke-linejoin:miter;stroke-miterlimit:4;stroke-dasharray:none;stroke-opacity:1"
       d="m 174.625,529.16666 0,-54.23958"
       id="path864-2-6-7"
       sodipodi:nodetypes="cc" />
    <path
       style="fill:none;stroke:#000000;stroke-width:0.529167;stroke-linecap:butt;stroke-linejoin:miter;stroke-miterlimit:4;stroke-dasharray:none;stroke-opacity:1"
       d="m 190.5,529.16666 0,-54.23958"
       id="path864-5-4"
       sodipodi:nodetypes="cc" />
    <path
       style="fill:none;stroke:#000000;stroke-width:0.529167;stroke-linecap:butt;stroke-linejoin:miter;stroke-miterlimit:4;stroke-dasharray:none;stroke-opacity:1"
       d="m 206.375,529.16666 0,-54.23958"
       id="path864-2-5-2"
       sodipodi:nodetypes="cc" />
    <path
       style="fill:none;stroke:#000000;stroke-width:0.529167;stroke-linecap:butt;stroke-linejoin:miter;stroke-miterlimit:4;stroke-dasharray:none;stroke-opacity:1"
       d="m 222.25,529.16666 0,-54.23958"
       id="path864-0-5-0"
       sodipodi:nodetypes="cc" />
    <path
       style="fill:none;stroke:#000000;stroke-width:0.529167;stroke-linecap:butt;stroke-linejoin:miter;stroke-miterlimit:4;stroke-dasharray:none;stroke-opacity:1"
       d="m 238.125,529.16666 0,-54.23958"
       id="path864-2-6-3-5"
       sodipodi:nodetypes="cc" />
    <path
       id="path6851"
       d="m -0.009873,479.16042 0,-4.23333"
       style="fill:none;stroke:#000000;stroke-width:0.529167;stroke-linecap:butt;stroke-linejoin:miter;stroke-opacity:1"
       sodipodi:nodetypes="cc" />
    <path
       id="path8978-6"
       d="m -2.655933,489.21458 0.0101,35.98333 H 0 v 3.96875"
       style="display:inline;overflow:visible;visibility:visible;fill:none;fill-opacity:1;stroke:#000000;stroke-width:0.529167;stroke-linejoin:miter;stroke-miterlimit:4;stroke-dasharray:none;stroke-opacity:1;marker:none;enable-background:accumulate"
       sodipodi:nodetypes="cccc" />
    <path
       id="path8978-6-1"
       d="m 13.219067,489.21458 0.0101,35.98333 H 15.875 v 3.96875"
       style="display:inline;overflow:visible;visibility:visible;fill:none;fill-opacity:1;stroke:#000000;stroke-width:0.529167;stroke-linejoin:miter;stroke-miterlimit:4;stroke-dasharray:none;stroke-opacity:1;marker:none;enable-background:accumulate"
       sodipodi:nodetypes="cccc" />
    <path
       id="path8978-6-6"
       d="m 29.094067,489.21458 0.0101,35.98333 H 31.75 v 3.96875"
       style="display:inline;overflow:visible;visibility:visible;fill:none;fill-opacity:1;stroke:#000000;stroke-width:0.529167;stroke-linejoin:miter;stroke-miterlimit:4;stroke-dasharray:none;stroke-opacity:1;marker:none;enable-background:accumulate"
       sodipodi:nodetypes="cccc" />
    <path
       id="path8978-6-17"
       d="m 44.969067,489.21458 0.0101,35.98333 H 47.625 v 3.96875"
       style="display:inline;overflow:visible;visibility:visible;fill:none;fill-opacity:1;stroke:#000000;stroke-width:0.529167;stroke-linejoin:miter;stroke-miterlimit:4;stroke-dasharray:none;stroke-opacity:1;marker:none;enable-background:accumulate"
       sodipodi:nodetypes="cccc" />
    <path
       id="path8978-6-13"
       d="m 60.844067,489.21458 0.0101,35.98333 H 63.5 v 3.96875"
       style="display:inline;overflow:visible;visibility:visible;fill:none;fill-opacity:1;stroke:#000000;stroke-width:0.529167;stroke-linejoin:miter;stroke-miterlimit:4;stroke-dasharray:none;stroke-opacity:1;marker:none;enable-background:accumulate"
       sodipodi:nodetypes="cccc" />
    <path
       id="path8978-6-2"
       d="m 76.719067,489.21458 0.0101,35.98333 H 79.375 v 3.96875"
       style="display:inline;overflow:visible;visibility:visible;fill:none;fill-opacity:1;stroke:#000000;stroke-width:0.529167;stroke-linejoin:miter;stroke-miterlimit:4;stroke-dasharray:none;stroke-opacity:1;marker:none;enable-background:accumulate"
       sodipodi:nodetypes="cccc" />
    <path
       id="path8978-6-7"
       d="m 92.594067,489.21458 0.0101,35.98333 H 95.25 v 3.96875"
       style="display:inline;overflow:visible;visibility:visible;fill:none;fill-opacity:1;stroke:#000000;stroke-width:0.529167;stroke-linejoin:miter;stroke-miterlimit:4;stroke-dasharray:none;stroke-opacity:1;marker:none;enable-background:accumulate"
       sodipodi:nodetypes="cccc" />
    <path
       id="path8978-6-27"
       d="m 108.46907,489.21458 0.0101,35.98333 h 2.64583 v 3.96875"
       style="display:inline;overflow:visible;visibility:visible;fill:none;fill-opacity:1;stroke:#000000;stroke-width:0.529167;stroke-linejoin:miter;stroke-miterlimit:4;stroke-dasharray:none;stroke-opacity:1;marker:none;enable-background:accumulate"
       sodipodi:nodetypes="cccc" />
    <path
       id="path8980-6"
       d="m 2.6359571,489.21458 0,32.01458 H 127"
       style="display:inline;overflow:visible;visibility:visible;fill:none;fill-opacity:1;stroke:#000000;stroke-width:0.529167;stroke-linejoin:miter;stroke-miterlimit:4;stroke-dasharray:none;stroke-opacity:1;marker:none;enable-background:accumulate"
       sodipodi:nodetypes="ccc" />
    <text
       xml:space="preserve"
       style="font-size:6.70277px;line-height:1.25;font-family:Bentham;-inkscape-font-specification:Bentham;letter-spacing:0px;word-spacing:0px;stroke-width:0.264583"
       x="-2.3553348"
       y="534.62695"
       id="text4405"><tspan
         sodipodi:role="line"
         id="tspan4403"
         style="stroke-width:0.264583"
         x="-2.3553348"
         y="534.62695">A</tspan></text>
    <text
       xml:space="preserve"
       style="font-size:6.70277px;line-height:1.25;font-family:Bentham;-inkscape-font-specification:Bentham;letter-spacing:0px;word-spacing:0px;stroke-width:0.264583"
       x="13.519629"
       y="534.62695"
       id="text5047"><tspan
         sodipodi:role="line"
         id="tspan5045"
         style="stroke-width:0.264583"
         x="13.519629"
         y="534.62695">A</tspan></text>
    <text
       xml:space="preserve"
       style="font-size:6.70277px;line-height:1.25;font-family:Bentham;-inkscape-font-specification:Bentham;letter-spacing:0px;word-spacing:0px;stroke-width:0.264583"
       x="29.394594"
       y="534.62695"
       id="text5931"><tspan
         sodipodi:role="line"
         id="tspan5929"
         style="stroke-width:0.264583"
         x="29.394594"
         y="534.62695">A</tspan></text>
    <text
       xml:space="preserve"
       style="font-size:6.70277px;line-height:1.25;font-family:Bentham;-inkscape-font-specification:Bentham;letter-spacing:0px;word-spacing:0px;stroke-width:0.264583"
       x="45.269558"
       y="534.62695"
       id="text6837"><tspan
         sodipodi:role="line"
         id="tspan6835"
         style="stroke-width:0.264583"
         x="45.269558"
         y="534.62695">A</tspan></text>
    <text
       xml:space="preserve"
       style="font-size:6.70277px;line-height:1.25;font-family:Bentham;-inkscape-font-specification:Bentham;letter-spacing:0px;word-spacing:0px;stroke-width:0.264583"
       x="61.144524"
       y="534.62695"
       id="text7875"><tspan
         sodipodi:role="line"
         id="tspan7873"
         style="stroke-width:0.264583"
         x="61.144524"
         y="534.62695">A</tspan></text>
    <text
       xml:space="preserve"
       style="font-size:6.70277px;line-height:1.25;font-family:Bentham;-inkscape-font-specification:Bentham;letter-spacing:0px;word-spacing:0px;stroke-width:0.264583"
       x="77.019493"
       y="534.62695"
       id="text8297"><tspan
         sodipodi:role="line"
         id="tspan8295"
         style="stroke-width:0.264583"
         x="77.019493"
         y="534.62695">A</tspan></text>
    <text
       xml:space="preserve"
       style="font-size:6.70277px;line-height:1.25;font-family:Bentham;-inkscape-font-specification:Bentham;letter-spacing:0px;word-spacing:0px;stroke-width:0.264583"
       x="92.894455"
       y="534.62695"
       id="text9071"><tspan
         sodipodi:role="line"
         id="tspan9069"
         style="stroke-width:0.264583"
         x="92.894455"
         y="534.62695">A</tspan></text>
    <text
       xml:space="preserve"
       style="font-size:6.70277px;line-height:1.25;font-family:Bentham;-inkscape-font-specification:Bentham;letter-spacing:0px;word-spacing:0px;stroke-width:0.264583"
       x="108.76941"
       y="534.62695"
       id="text9405"><tspan
         sodipodi:role="line"
         id="tspan9403"
         style="stroke-width:0.264583"
         x="108.76941"
         y="534.62695">A</tspan></text>
    <text
       xml:space="preserve"
       style="font-size:6.70277px;line-height:1.25;font-family:Bentham;-inkscape-font-specification:Bentham;letter-spacing:0px;word-spacing:0px;stroke-width:0.264583"
       x="125.06575"
       y="534.67255"
       id="text12480"><tspan
         sodipodi:role="line"
         id="tspan12478"
         style="stroke-width:0.264583"
         x="125.06575"
         y="534.67255">B</tspan></text>
    <text
       xml:space="preserve"
       style="font-size:6.70277px;line-height:1.25;font-family:Bentham;-inkscape-font-specification:Bentham;letter-spacing:0px;word-spacing:0px;stroke-width:0.264583"
       x="140.94081"
       y="534.67255"
       id="text12990"><tspan
         sodipodi:role="line"
         id="tspan12988"
         style="stroke-width:0.264583"
         x="140.94081"
         y="534.67255">B</tspan></text>
    <text
       xml:space="preserve"
       style="font-size:6.70277px;line-height:1.25;font-family:Bentham;-inkscape-font-specification:Bentham;letter-spacing:0px;word-spacing:0px;stroke-width:0.264583"
       x="156.81586"
       y="534.67255"
       id="text13786"><tspan
         sodipodi:role="line"
         id="tspan13784"
         style="stroke-width:0.264583"
         x="156.81586"
         y="534.67255">B</tspan></text>
    <text
       xml:space="preserve"
       style="font-size:6.70277px;line-height:1.25;font-family:Bentham;-inkscape-font-specification:Bentham;letter-spacing:0px;word-spacing:0px;stroke-width:0.264583"
       x="172.69092"
       y="534.67255"
       id="text14384"><tspan
         sodipodi:role="line"
         id="tspan14382"
         style="stroke-width:0.264583"
         x="172.69092"
         y="534.67255">B</tspan></text>
    <text
       xml:space="preserve"
       style="font-size:6.70277px;line-height:1.25;font-family:Bentham;-inkscape-font-specification:Bentham;letter-spacing:0px;word-spacing:0px;stroke-width:0.264583"
       x="188.56596"
       y="534.67255"
       id="text14894"><tspan
         sodipodi:role="line"
         id="tspan14892"
         style="stroke-width:0.264583"
         x="188.56596"
         y="534.67255">B</tspan></text>
    <text
       xml:space="preserve"
       style="font-size:6.70277px;line-height:1.25;font-family:Bentham;-inkscape-font-specification:Bentham;letter-spacing:0px;word-spacing:0px;stroke-width:0.264583"
       x="204.44102"
       y="534.67255"
       id="text15382"><tspan
         sodipodi:role="line"
         id="tspan15380"
         style="stroke-width:0.264583"
         x="204.44102"
         y="534.67255">B</tspan></text>
    <text
       xml:space="preserve"
       style="font-size:6.70277px;line-height:1.25;font-family:Bentham;-inkscape-font-specification:Bentham;letter-spacing:0px;word-spacing:0px;stroke-width:0.264583"
       x="220.31607"
       y="534.67255"
       id="text15774"><tspan
         sodipodi:role="line"
         id="tspan15772"
         style="stroke-width:0.264583"
         x="220.31607"
         y="534.67255">B</tspan></text>
    <text
       xml:space="preserve"
       style="font-size:6.70277px;line-height:1.25;font-family:Bentham;-inkscape-font-specification:Bentham;letter-spacing:0px;word-spacing:0px;stroke-width:0.264583"
       x="236.19113"
       y="534.67255"
       id="text16338"><tspan
         sodipodi:role="line"
         id="tspan16336"
         style="stroke-width:0.264583"
         x="236.19113"
         y="534.67255">B</tspan></text>
    <text
       xml:space="preserve"
       style="font-size:6.70277px;line-height:1.25;font-family:Bentham;-inkscape-font-specification:Bentham;letter-spacing:0px;word-spacing:0px;stroke-width:0.264583"
       x="125.06575"
       y="473.58453"
       id="text12480-3"><tspan
         sodipodi:role="line"
         id="tspan12478-0"
         style="stroke-width:0.264583"
         x="125.06575"
         y="473.58453">B</tspan></text>
    <text
       xml:space="preserve"
       style="font-size:6.70277px;line-height:1.25;font-family:Bentham;-inkscape-font-specification:Bentham;letter-spacing:0px;word-spacing:0px;stroke-width:0.264583"
       x="140.94081"
       y="473.58453"
       id="text12990-4"><tspan
         sodipodi:role="line"
         id="tspan12988-6"
         style="stroke-width:0.264583"
         x="140.94081"
         y="473.58453">B</tspan></text>
    <text
       xml:space="preserve"
       style="font-size:6.70277px;line-height:1.25;font-family:Bentham;-inkscape-font-specification:Bentham;letter-spacing:0px;word-spacing:0px;stroke-width:0.264583"
       x="156.81586"
       y="473.58453"
       id="text13786-4"><tspan
         sodipodi:role="line"
         id="tspan13784-5"
         style="stroke-width:0.264583"
         x="156.81586"
         y="473.58453">B</tspan></text>
    <text
       xml:space="preserve"
       style="font-size:6.70277px;line-height:1.25;font-family:Bentham;-inkscape-font-specification:Bentham;letter-spacing:0px;word-spacing:0px;stroke-width:0.264583"
       x="172.69092"
       y="473.58453"
       id="text14384-0"><tspan
         sodipodi:role="line"
         id="tspan14382-7"
         style="stroke-width:0.264583"
         x="172.69092"
         y="473.58453">B</tspan></text>
    <text
       xml:space="preserve"
       style="font-size:6.70277px;line-height:1.25;font-family:Bentham;-inkscape-font-specification:Bentham;letter-spacing:0px;word-spacing:0px;stroke-width:0.264583"
       x="188.56596"
       y="473.58453"
       id="text14894-7"><tspan
         sodipodi:role="line"
         id="tspan14892-0"
         style="stroke-width:0.264583"
         x="188.56596"
         y="473.58453">B</tspan></text>
    <text
       xml:space="preserve"
       style="font-size:6.70277px;line-height:1.25;font-family:Bentham;-inkscape-font-specification:Bentham;letter-spacing:0px;word-spacing:0px;stroke-width:0.264583"
       x="204.44102"
       y="473.58453"
       id="text15382-6"><tspan
         sodipodi:role="line"
         id="tspan15380-7"
         style="stroke-width:0.264583"
         x="204.44102"
         y="473.58453">B</tspan></text>
    <text
       xml:space="preserve"
       style="font-size:6.70277px;line-height:1.25;font-family:Bentham;-inkscape-font-specification:Bentham;letter-spacing:0px;word-spacing:0px;stroke-width:0.264583"
       x="220.31607"
       y="473.58453"
       id="text15774-1"><tspan
         sodipodi:role="line"
         id="tspan15772-0"
         style="stroke-width:0.264583"
         x="220.31607"
         y="473.58453">B</tspan></text>
    <text
       xml:space="preserve"
       style="font-size:6.70277px;line-height:1.25;font-family:Bentham;-inkscape-font-specification:Bentham;letter-spacing:0px;word-spacing:0px;stroke-width:0.264583"
       x="236.19113"
       y="473.58453"
       id="text16338-1"><tspan
         sodipodi:role="line"
         id="tspan16336-4"
         style="stroke-width:0.264583"
         x="236.19113"
         y="473.58453">B</tspan></text>
    <path
       style="display:inline;overflow:visible;visibility:visible;fill:#000000;fill-opacity:1;stroke:none;stroke-width:0.661458;stroke-linejoin:miter;stroke-miterlimit:4;stroke-dasharray:none;stroke-opacity:1;marker:none;enable-background:accumulate"
       id="path8343"
       d="m 127,520.5677 a 0.66146,0.66146 0 1 1 0,1.32292 0.66146,0.66146 0 1 1 0,-1.32292 z" />
    <path
       id="path6851-8"
       d="m 15.865127,479.16042 0,-4.23333"
       style="fill:none;stroke:#000000;stroke-width:0.529167;stroke-linecap:butt;stroke-linejoin:miter;stroke-opacity:1"
       sodipodi:nodetypes="cc" />
    <path
       id="path8980-6-8"
       d="m 18.510957,489.21458 0,28.04584 H 142.875"
       style="display:inline;overflow:visible;visibility:visible;fill:none;fill-opacity:1;stroke:#000000;stroke-width:0.529167;stroke-linejoin:miter;stroke-miterlimit:4;stroke-dasharray:none;stroke-opacity:1;marker:none;enable-background:accumulate"
       sodipodi:nodetypes="ccc" />
    <path
       style="display:inline;overflow:visible;visibility:visible;fill:#000000;fill-opacity:1;stroke:none;stroke-width:0.661458;stroke-linejoin:miter;stroke-miterlimit:4;stroke-dasharray:none;stroke-opacity:1;marker:none;enable-background:accumulate"
       id="path8343-7"
       d="m 142.875,516.59895 a 0.66146,0.66146 0 1 1 0,1.32292 0.66146,0.66146 0 1 1 0,-1.32292 z" />
    <path
       id="path6851-1"
       d="m 31.740127,479.16042 v -4.23333"
       style="fill:none;stroke:#000000;stroke-width:0.529167;stroke-linecap:butt;stroke-linejoin:miter;stroke-opacity:1"
       sodipodi:nodetypes="cc" />
    <path
       id="path8980-6-7"
       d="m 34.385957,489.21458 0,24.07709 H 158.75"
       style="display:inline;overflow:visible;visibility:visible;fill:none;fill-opacity:1;stroke:#000000;stroke-width:0.529167;stroke-linejoin:miter;stroke-miterlimit:4;stroke-dasharray:none;stroke-opacity:1;marker:none;enable-background:accumulate"
       sodipodi:nodetypes="ccc" />
    <path
       style="display:inline;overflow:visible;visibility:visible;fill:#000000;fill-opacity:1;stroke:none;stroke-width:0.661458;stroke-linejoin:miter;stroke-miterlimit:4;stroke-dasharray:none;stroke-opacity:1;marker:none;enable-background:accumulate"
       id="path8343-4"
       d="m 158.75,512.63021 a 0.66146,0.66146 0 1 1 0,1.32292 0.66146,0.66146 0 1 1 0,-1.32292 z" />
    <path
       id="path6851-8-6"
       d="m 47.615127,479.16042 0,-4.23333"
       style="fill:none;stroke:#000000;stroke-width:0.529167;stroke-linecap:butt;stroke-linejoin:miter;stroke-opacity:1"
       sodipodi:nodetypes="cc" />
    <path
       id="path8980-6-8-1"
       d="m 50.260957,489.21458 0,20.10834 H 174.625"
       style="display:inline;overflow:visible;visibility:visible;fill:none;fill-opacity:1;stroke:#000000;stroke-width:0.529167;stroke-linejoin:miter;stroke-miterlimit:4;stroke-dasharray:none;stroke-opacity:1;marker:none;enable-background:accumulate"
       sodipodi:nodetypes="ccc" />
    <path
       style="display:inline;overflow:visible;visibility:visible;fill:#000000;fill-opacity:1;stroke:none;stroke-width:0.661458;stroke-linejoin:miter;stroke-miterlimit:4;stroke-dasharray:none;stroke-opacity:1;marker:none;enable-background:accumulate"
       id="path8343-7-7"
       d="m 174.625,508.66145 a 0.66146,0.66146 0 1 1 0,1.32292 0.66146,0.66146 0 1 1 0,-1.32292 z" />
    <path
       id="path6851-3"
       d="m 63.490127,479.16042 v -4.23333"
       style="fill:none;stroke:#000000;stroke-width:0.529167;stroke-linecap:butt;stroke-linejoin:miter;stroke-opacity:1"
       sodipodi:nodetypes="cc" />
    <path
       id="path8980-6-9"
       d="m 66.135957,489.21458 0,16.13959 H 190.5"
       style="display:inline;overflow:visible;visibility:visible;fill:none;fill-opacity:1;stroke:#000000;stroke-width:0.529167;stroke-linejoin:miter;stroke-miterlimit:4;stroke-dasharray:none;stroke-opacity:1;marker:none;enable-background:accumulate"
       sodipodi:nodetypes="ccc" />
    <path
       style="display:inline;overflow:visible;visibility:visible;fill:#000000;fill-opacity:1;stroke:none;stroke-width:0.661458;stroke-linejoin:miter;stroke-miterlimit:4;stroke-dasharray:none;stroke-opacity:1;marker:none;enable-background:accumulate"
       id="path8343-6"
       d="m 190.5,504.69271 a 0.66146,0.66146 0 1 1 0,1.32292 0.66146,0.66146 0 1 1 0,-1.32292 z" />
    <path
       id="path6851-8-5"
       d="m 79.365127,479.16042 0,-4.23333"
       style="fill:none;stroke:#000000;stroke-width:0.529167;stroke-linecap:butt;stroke-linejoin:miter;stroke-opacity:1"
       sodipodi:nodetypes="cc" />
    <path
       id="path8980-6-8-15"
       d="m 82.010957,489.21458 0,12.17085 H 206.375"
       style="display:inline;overflow:visible;visibility:visible;fill:none;fill-opacity:1;stroke:#000000;stroke-width:0.529167;stroke-linejoin:miter;stroke-miterlimit:4;stroke-dasharray:none;stroke-opacity:1;marker:none;enable-background:accumulate"
       sodipodi:nodetypes="ccc" />
    <path
       style="display:inline;overflow:visible;visibility:visible;fill:#000000;fill-opacity:1;stroke:none;stroke-width:0.661458;stroke-linejoin:miter;stroke-miterlimit:4;stroke-dasharray:none;stroke-opacity:1;marker:none;enable-background:accumulate"
       id="path8343-7-1"
       d="m 206.375,500.72396 a 0.66146,0.66146 0 1 1 0,1.32292 0.66146,0.66146 0 1 1 0,-1.32292 z" />
    <path
       id="path6851-1-4"
       d="m 95.240127,479.16042 0,-4.23333"
       style="fill:none;stroke:#000000;stroke-width:0.529167;stroke-linecap:butt;stroke-linejoin:miter;stroke-opacity:1"
       sodipodi:nodetypes="cc" />
    <path
       id="path8980-6-7-4"
       d="m 97.885957,489.21458 0,8.20209 H 222.25"
       style="display:inline;overflow:visible;visibility:visible;fill:none;fill-opacity:1;stroke:#000000;stroke-width:0.529167;stroke-linejoin:miter;stroke-miterlimit:4;stroke-dasharray:none;stroke-opacity:1;marker:none;enable-background:accumulate"
       sodipodi:nodetypes="ccc" />
    <path
       style="display:inline;overflow:visible;visibility:visible;fill:#000000;fill-opacity:1;stroke:none;stroke-width:0.661458;stroke-linejoin:miter;stroke-miterlimit:4;stroke-dasharray:none;stroke-opacity:1;marker:none;enable-background:accumulate"
       id="path8343-4-7"
       d="m 222.25,496.75521 a 0.66146,0.66146 0 1 1 0,1.32292 0.66146,0.66146 0 1 1 0,-1.32292 z" />
    <path
       id="path6851-8-6-9"
       d="m 111.11513,479.16042 v -4.23334"
       style="fill:none;stroke:#000000;stroke-width:0.529167;stroke-linecap:butt;stroke-linejoin:miter;stroke-opacity:1"
       sodipodi:nodetypes="cc" />
    <path
       id="path8980-6-8-1-3"
       d="m 113.76096,488.94999 v 4.49793 H 238.125"
       style="display:inline;overflow:visible;visibility:visible;fill:none;fill-opacity:1;stroke:#000000;stroke-width:0.529167;stroke-linejoin:miter;stroke-miterlimit:4;stroke-dasharray:none;stroke-opacity:1;marker:none;enable-background:accumulate"
       sodipodi:nodetypes="ccc" />
    <path
       style="display:inline;overflow:visible;visibility:visible;fill:#000000;fill-opacity:1;stroke:none;stroke-width:0.661458;stroke-linejoin:miter;stroke-miterlimit:4;stroke-dasharray:none;stroke-opacity:1;marker:none;enable-background:accumulate"
       id="path8343-7-7-1"
       d="m 238.125,492.78645 a 0.66146,0.66146 0 1 1 0,1.32292 0.66146,0.66146 0 1 1 0,-1.32292 z" />
    <text
       xml:space="preserve"
       style="font-size:6.70277px;line-height:1.25;font-family:Bentham;-inkscape-font-specification:Bentham;letter-spacing:0px;word-spacing:0px;stroke-width:0.264583"
       x="-2.5358143"
       y="473.66302"
       id="text9895"><tspan
         sodipodi:role="line"
         id="tspan9893"
         style="stroke-width:0.264583"
         x="-2.5358143"
         y="473.66302">Q</tspan></text>
    <text
       xml:space="preserve"
       style="font-size:6.70277px;line-height:1.25;font-family:Bentham;-inkscape-font-specification:Bentham;letter-spacing:0px;word-spacing:0px;stroke-width:0.264583"
       x="13.339219"
       y="473.66302"
       id="text10537"><tspan
         sodipodi:role="line"
         id="tspan10535"
         style="stroke-width:0.264583"
         x="13.339219"
         y="473.66302">Q</tspan></text>
    <text
       xml:space="preserve"
       style="font-size:6.70277px;line-height:1.25;font-family:Bentham;-inkscape-font-specification:Bentham;letter-spacing:0px;word-spacing:0px;stroke-width:0.264583"
       x="29.214252"
       y="473.66302"
       id="text11069"><tspan
         sodipodi:role="line"
         id="tspan11067"
         style="stroke-width:0.264583"
         x="29.214252"
         y="473.66302">Q</tspan></text>
    <text
       xml:space="preserve"
       style="font-size:6.70277px;line-height:1.25;font-family:Bentham;-inkscape-font-specification:Bentham;letter-spacing:0px;word-spacing:0px;stroke-width:0.264583"
       x="45.089283"
       y="473.66302"
       id="text11359"><tspan
         sodipodi:role="line"
         id="tspan11357"
         style="stroke-width:0.264583"
         x="45.089283"
         y="473.66302">Q</tspan></text>
    <text
       xml:space="preserve"
       style="font-size:6.70277px;line-height:1.25;font-family:Bentham;-inkscape-font-specification:Bentham;letter-spacing:0px;word-spacing:0px;stroke-width:0.264583"
       x="60.964317"
       y="473.66302"
       id="text12329"><tspan
         sodipodi:role="line"
         id="tspan12327"
         style="stroke-width:0.264583"
         x="60.964317"
         y="473.66302">Q</tspan></text>
    <text
       xml:space="preserve"
       style="font-size:6.70277px;line-height:1.25;font-family:Bentham;-inkscape-font-specification:Bentham;letter-spacing:0px;word-spacing:0px;stroke-width:0.264583"
       x="76.839348"
       y="473.66302"
       id="text13477"><tspan
         sodipodi:role="line"
         id="tspan13475"
         style="stroke-width:0.264583"
         x="76.839348"
         y="473.66302">Q</tspan></text>
    <text
       xml:space="preserve"
       style="font-size:6.70277px;line-height:1.25;font-family:Bentham;-inkscape-font-specification:Bentham;letter-spacing:0px;word-spacing:0px;stroke-width:0.264583"
       x="92.714386"
       y="473.66302"
       id="text14075"><tspan
         sodipodi:role="line"
         id="tspan14073"
         style="stroke-width:0.264583"
         x="92.714386"
         y="473.66302">Q</tspan></text>
    <text
       xml:space="preserve"
       style="font-size:6.70277px;line-height:1.25;font-family:Bentham;-inkscape-font-specification:Bentham;letter-spacing:0px;word-spacing:0px;stroke-width:0.264583"
       x="108.58942"
       y="473.66302"
       id="text14673"><tspan
         sodipodi:role="line"
         id="tspan14671"
         style="stroke-width:0.264583"
         x="108.58942"
         y="473.66302">Q</tspan></text>
    <path
       style="font-style:normal;font-variant:normal;font-weight:normal;font-stretch:normal;font-size:medium;line-height:normal;font-family:'Bitstream Vera Sans';-inkscape-font-specification:'Bitstream Vera Sans';text-indent:0;text-align:start;text-decoration:none;text-decoration-line:none;letter-spacing:normal;word-spacing:normal;text-transform:none;writing-mode:lr-tb;direction:ltr;text-anchor:start;display:inline;overflow:visible;visibility:visible;fill:#000000;fill-opacity:1;stroke:none;stroke-width:0.79375;marker:none;enable-background:accumulate"
       d="m 5.281797,489.47917 h -0.37798 -9.82738 -0.37798 v -0.37798 -5.03968 c 0,-2.9813 2.38126,-5.29167 5.29167,-5.29167 2.9104,0 5.29167,2.31037 5.29167,5.29167 0,0 0,0 0,5.03968 z m -0.75595,-0.75595 c 0,-2.11062 0,-3.45579 0,-4.03175 0,-0.31498 0,-0.47247 0,-0.55122 0,-0.0394 0,-0.061 0,-0.0709 0,-0.005 0,-0.007 0,-0.008 0,-2.58251 -2.02141,-4.40972 -4.53572,-4.40972 -2.51431,0 -4.53571,1.9532 -4.53571,4.53571 v 4.53571 z"
       id="path2884" />
    <path
       style="font-style:normal;font-variant:normal;font-weight:normal;font-stretch:normal;font-size:medium;line-height:normal;font-family:'Bitstream Vera Sans';-inkscape-font-specification:'Bitstream Vera Sans';text-indent:0;text-align:start;text-decoration:none;text-decoration-line:none;letter-spacing:normal;word-spacing:normal;text-transform:none;writing-mode:lr-tb;direction:ltr;text-anchor:start;display:inline;overflow:visible;visibility:visible;fill:#000000;fill-opacity:1;stroke:none;stroke-width:0.79375;marker:none;enable-background:accumulate"
       d="m 21.156797,489.47917 h -0.37798 -9.82738 -0.37798 v -0.37798 -5.03968 c 0,-2.9813 2.38126,-5.29167 5.29167,-5.29167 2.9104,0 5.29167,2.31037 5.29167,5.29167 0,0 0,0 0,5.03968 z m -0.75595,-0.75595 c 0,-2.11062 0,-3.45579 0,-4.03175 0,-0.31498 0,-0.47247 0,-0.55122 0,-0.0394 0,-0.061 0,-0.0709 0,-0.005 0,-0.007 0,-0.008 0,-2.58251 -2.02141,-4.40972 -4.53572,-4.40972 -2.51431,0 -4.53571,1.9532 -4.53571,4.53571 v 4.53571 z"
       id="path2884-5" />
    <path
       style="font-style:normal;font-variant:normal;font-weight:normal;font-stretch:normal;font-size:medium;line-height:normal;font-family:'Bitstream Vera Sans';-inkscape-font-specification:'Bitstream Vera Sans';text-indent:0;text-align:start;text-decoration:none;text-decoration-line:none;letter-spacing:normal;word-spacing:normal;text-transform:none;writing-mode:lr-tb;direction:ltr;text-anchor:start;display:inline;overflow:visible;visibility:visible;fill:#000000;fill-opacity:1;stroke:none;stroke-width:0.79375;marker:none;enable-background:accumulate"
       d="m 37.031797,489.47917 h -0.37798 -9.82738 -0.37798 v -0.37798 -5.03968 c 0,-2.9813 2.38126,-5.29167 5.29167,-5.29167 2.9104,0 5.29167,2.31037 5.29167,5.29167 0,0 0,0 0,5.03968 z m -0.75595,-0.75595 c 0,-2.11062 0,-3.45579 0,-4.03175 0,-0.31498 0,-0.47247 0,-0.55122 0,-0.0394 0,-0.061 0,-0.0709 0,-0.005 0,-0.007 0,-0.008 0,-2.58251 -2.02141,-4.40972 -4.53572,-4.40972 -2.51431,0 -4.53571,1.9532 -4.53571,4.53571 v 4.53571 z"
       id="path2884-9" />
    <path
       style="font-style:normal;font-variant:normal;font-weight:normal;font-stretch:normal;font-size:medium;line-height:normal;font-family:'Bitstream Vera Sans';-inkscape-font-specification:'Bitstream Vera Sans';text-indent:0;text-align:start;text-decoration:none;text-decoration-line:none;letter-spacing:normal;word-spacing:normal;text-transform:none;writing-mode:lr-tb;direction:ltr;text-anchor:start;display:inline;overflow:visible;visibility:visible;fill:#000000;fill-opacity:1;stroke:none;stroke-width:0.79375;marker:none;enable-background:accumulate"
       d="m 52.906797,489.47917 h -0.37798 -9.82738 -0.37798 v -0.37798 -5.03968 c 0,-2.9813 2.38126,-5.29167 5.29167,-5.29167 2.9104,0 5.29167,2.31037 5.29167,5.29167 0,0 0,0 0,5.03968 z m -0.75595,-0.75595 c 0,-2.11062 0,-3.45579 0,-4.03175 0,-0.31498 0,-0.47247 0,-0.55122 0,-0.0394 0,-0.061 0,-0.0709 0,-0.005 0,-0.007 0,-0.008 0,-2.58251 -2.02141,-4.40972 -4.53572,-4.40972 -2.51431,0 -4.53571,1.9532 -4.53571,4.53571 v 4.53571 z"
       id="path2884-0" />
    <path
       style="font-style:normal;font-variant:normal;font-weight:normal;font-stretch:normal;font-size:medium;line-height:normal;font-family:'Bitstream Vera Sans';-inkscape-font-specification:'Bitstream Vera Sans';text-indent:0;text-align:start;text-decoration:none;text-decoration-line:none;letter-spacing:normal;word-spacing:normal;text-transform:none;writing-mode:lr-tb;direction:ltr;text-anchor:start;display:inline;overflow:visible;visibility:visible;fill:#000000;fill-opacity:1;stroke:none;stroke-width:0.79375;marker:none;enable-background:accumulate"
       d="m 68.781797,489.47917 h -0.37798 -9.82738 -0.37798 v -0.37798 -5.03968 c 0,-2.9813 2.38126,-5.29167 5.29167,-5.29167 2.9104,0 5.29167,2.31037 5.29167,5.29167 0,0 0,0 0,5.03968 z m -0.75595,-0.75595 c 0,-2.11062 0,-3.45579 0,-4.03175 0,-0.31498 0,-0.47247 0,-0.55122 0,-0.0394 0,-0.061 0,-0.0709 0,-0.005 0,-0.007 0,-0.008 0,-2.58251 -2.02141,-4.40972 -4.53572,-4.40972 -2.51431,0 -4.53571,1.9532 -4.53571,4.53571 v 4.53571 z"
       id="path2884-90" />
    <path
       style="font-style:normal;font-variant:normal;font-weight:normal;font-stretch:normal;font-size:medium;line-height:normal;font-family:'Bitstream Vera Sans';-inkscape-font-specification:'Bitstream Vera Sans';text-indent:0;text-align:start;text-decoration:none;text-decoration-line:none;letter-spacing:normal;word-spacing:normal;text-transform:none;writing-mode:lr-tb;direction:ltr;text-anchor:start;display:inline;overflow:visible;visibility:visible;fill:#000000;fill-opacity:1;stroke:none;stroke-width:0.79375;marker:none;enable-background:accumulate"
       d="m 84.656797,489.47917 h -0.37798 -9.82738 -0.37798 v -0.37798 -5.03968 c 0,-2.9813 2.38126,-5.29167 5.29167,-5.29167 2.9104,0 5.29167,2.31037 5.29167,5.29167 0,0 0,0 0,5.03968 z m -0.75595,-0.75595 c 0,-2.11062 0,-3.45579 0,-4.03175 0,-0.31498 0,-0.47247 0,-0.55122 0,-0.0394 0,-0.061 0,-0.0709 0,-0.005 0,-0.007 0,-0.008 0,-2.58251 -2.02141,-4.40972 -4.53572,-4.40972 -2.51431,0 -4.53571,1.9532 -4.53571,4.53571 v 4.53571 z"
       id="path2884-04" />
    <path
       style="font-style:normal;font-variant:normal;font-weight:normal;font-stretch:normal;font-size:medium;line-height:normal;font-family:'Bitstream Vera Sans';-inkscape-font-specification:'Bitstream Vera Sans';text-indent:0;text-align:start;text-decoration:none;text-decoration-line:none;letter-spacing:normal;word-spacing:normal;text-transform:none;writing-mode:lr-tb;direction:ltr;text-anchor:start;display:inline;overflow:visible;visibility:visible;fill:#000000;fill-opacity:1;stroke:none;stroke-width:0.79375;marker:none;enable-background:accumulate"
       d="m 100.5318,489.47917 h -0.37798 -9.827383 -0.37798 v -0.37798 -5.03968 c 0,-2.9813 2.38126,-5.29167 5.29167,-5.29167 2.9104,0 5.291673,2.31037 5.291673,5.29167 0,0 0,0 0,5.03968 z m -0.755953,-0.75595 c 0,-2.11062 0,-3.45579 0,-4.03175 0,-0.31498 0,-0.47247 0,-0.55122 0,-0.0394 0,-0.061 0,-0.0709 0,-0.005 0,-0.007 0,-0.008 0,-2.58251 -2.02141,-4.40972 -4.53572,-4.40972 -2.51431,0 -4.53571,1.9532 -4.53571,4.53571 v 4.53571 z"
       id="path2884-3" />
    <path
       style="font-style:normal;font-variant:normal;font-weight:normal;font-stretch:normal;font-size:medium;line-height:normal;font-family:'Bitstream Vera Sans';-inkscape-font-specification:'Bitstream Vera Sans';text-indent:0;text-align:start;text-decoration:none;text-decoration-line:none;letter-spacing:normal;word-spacing:normal;text-transform:none;writing-mode:lr-tb;direction:ltr;text-anchor:start;display:inline;overflow:visible;visibility:visible;fill:#000000;fill-opacity:1;stroke:none;stroke-width:0.79375;marker:none;enable-background:accumulate"
       d="m 116.4068,489.47917 h -0.37798 -9.82738 -0.37798 v -0.37798 -5.03968 c 0,-2.9813 2.38126,-5.29167 5.29167,-5.29167 2.9104,0 5.29167,2.31037 5.29167,5.29167 0,0 0,0 0,5.03968 z m -0.75595,-0.75595 c 0,-2.11062 0,-3.45579 0,-4.03175 0,-0.31498 0,-0.47247 0,-0.55122 0,-0.0394 0,-0.061 0,-0.0709 0,-0.005 0,-0.007 0,-0.008 0,-2.58251 -2.02141,-4.40972 -4.53572,-4.40972 -2.51431,0 -4.53571,1.9532 -4.53571,4.53571 v 4.53571 z"
       id="path2884-7" />
  </g>
</svg>
