<?xml version="1.0"?>
<!--<?xml-stylesheet type="text/css" href="svg.css"?>-->
<svg width="1491" height="751" xmlns="http://www.w3.org/2000/svg" xmlns:xlink="http://www.w3.org/1999/xlink">
<style>
svg {
    background-color: #2B2B2B;
}

text.math {
    font-family: 'Bentham', serif;
    fill: #FFFFF0;
}

text.braces {    
    font-family: 'Work Sans', sans-serif;
    fill: #FFFFF0;
}

text.component {
    font-family: 'Source Code Pro', monospace;
    fill: #FFFFF0;
}

text.axes {
    font-family: 'Source Code Pro', monospace;
    fill: #FFFFF0;
}

text.terminals {
    font-family: 'Source Code Pro', monospace;
    fill: #FFFFF0;
}

text.label {
    font-family: 'Roboto Mono', monospace;
    fill: #FFFFF0;
}

text.descriptions {
    font-family: 'Open Sans', monospace;
    fill: #FFFFF0;
}

rect.component {
    opacity: 0.5;
    fill: #000000;
    stroke: #000000;  
    stroke-width: 1; 
    stroke-linecap: square;
}

rect.terminal-fill {
    fill: #FFFFF0;
    stroke: #FFFFF0;
    stroke-width: 1; 
    stroke-linecap: square;
}

rect.terminal-stroke {
    fill: none;
    stroke: #B2B2A8;
    stroke-width: 1; 
    stroke-linecap: square;
}

line.grid {
    stroke: #555555;
    stroke-width: 1; 
    stroke-linecap: square;
}

line.grid-axis {
    stroke: #A9B7C6;
    stroke-width: 1; 
    stroke-linecap: square;
}

circle.grid-center {
    fill: #FFFFF0;
    stroke: none;
}

polygon.t {
    fill: #BA08FF;
    stroke: #8D00D3;
    stroke-width: 1; 
    stroke-linecap: square;
}

polygon.j {
    fill: #0072FF;
    stroke: #004ED3;
    stroke-width: 1; 
    stroke-linecap: square;
}

polygon.z {
    fill: #FF113C;
    stroke: #C9001A;
    stroke-width: 1; 
    stroke-linecap: square;
}

polygon.o {
    fill: #FFDE00;
    stroke: #AD9600;
    stroke-width: 1; 
    stroke-linecap: square;
}

polygon.s {
    fill: #68FF06;
    stroke: #00B100;
    stroke-width: 1; 
    stroke-linecap: square;
}

polygon.l {
    fill: #FF7308;
    stroke: #C03F00;
    stroke-width: 1; 
    stroke-linecap: square;
}

polygon.i {
    fill: #04E6FF;
    stroke: #00A0B7;
    stroke-width: 1; 
    stroke-linecap: square;
}

line.arrow {
    fill: #FFFFF0;
    stroke: #FFFFF0;
    stroke-width: 3.5; 
    stroke-linecap: square;
}

path.arrowhead {
    fill: #FFFFF0;
    stroke: none;
}

text.array {
    font-family: 'Source Code Pro', monospace;
    fill: #000000;
    font-size: 19px;
}

line.array {
    stroke: #000000;
    stroke-width: 1; 
    stroke-linecap: square;
}

rect.array-register {
    fill: #CEFFCE;
    stroke: none;
}

rect.array-tape {
    fill: #FFCECE;
    stroke: none;
}
</style>


    <line x1="15.5" y1="35.5" x2="1475.5" y2="35.5" class="grid"/>
    <line x1="15.5" y1="55.5" x2="1475.5" y2="55.5" class="grid"/>
    <line x1="15.5" y1="75.5" x2="1475.5" y2="75.5" class="grid"/>
    <line x1="15.5" y1="95.5" x2="1475.5" y2="95.5" class="grid"/>
    <line x1="15.5" y1="115.5" x2="1475.5" y2="115.5" class="grid"/>
    <line x1="15.5" y1="135.5" x2="1475.5" y2="135.5" class="grid"/>
    <line x1="15.5" y1="155.5" x2="1475.5" y2="155.5" class="grid"/>
    <line x1="15.5" y1="175.5" x2="1475.5" y2="175.5" class="grid"/>
    <line x1="15.5" y1="195.5" x2="1475.5" y2="195.5" class="grid"/>
    <line x1="15.5" y1="215.5" x2="1475.5" y2="215.5" class="grid"/>
    <line x1="15.5" y1="235.5" x2="1475.5" y2="235.5" class="grid"/>
    <line x1="15.5" y1="255.5" x2="1475.5" y2="255.5" class="grid"/>
    <line x1="15.5" y1="275.5" x2="1475.5" y2="275.5" class="grid"/>
    <line x1="15.5" y1="295.5" x2="1475.5" y2="295.5" class="grid"/>
    <line x1="15.5" y1="315.5" x2="1475.5" y2="315.5" class="grid"/>
    <line x1="15.5" y1="335.5" x2="1475.5" y2="335.5" class="grid"/>
    <line x1="15.5" y1="355.5" x2="1475.5" y2="355.5" class="grid"/>
    <line x1="15.5" y1="375.5" x2="1475.5" y2="375.5" class="grid"/>
    <line x1="15.5" y1="395.5" x2="1475.5" y2="395.5" class="grid"/>
    <line x1="15.5" y1="415.5" x2="1475.5" y2="415.5" class="grid"/>
    <line x1="15.5" y1="435.5" x2="1475.5" y2="435.5" class="grid"/>
    <line x1="15.5" y1="455.5" x2="1475.5" y2="455.5" class="grid"/>
    <line x1="15.5" y1="475.5" x2="1475.5" y2="475.5" class="grid"/>
    <line x1="15.5" y1="495.5" x2="1475.5" y2="495.5" class="grid"/>
    <line x1="15.5" y1="515.5" x2="1475.5" y2="515.5" class="grid"/>
    <line x1="15.5" y1="535.5" x2="1475.5" y2="535.5" class="grid"/>
    <line x1="15.5" y1="555.5" x2="1475.5" y2="555.5" class="grid"/>
    <line x1="15.5" y1="575.5" x2="1475.5" y2="575.5" class="grid"/>
    <line x1="15.5" y1="595.5" x2="1475.5" y2="595.5" class="grid"/>
    <line x1="15.5" y1="615.5" x2="1475.5" y2="615.5" class="grid"/>
    <line x1="15.5" y1="635.5" x2="1475.5" y2="635.5" class="grid"/>
    <line x1="15.5" y1="655.5" x2="1475.5" y2="655.5" class="grid"/>
    <line x1="15.5" y1="675.5" x2="1475.5" y2="675.5" class="grid"/>
    <line x1="15.5" y1="695.5" x2="1475.5" y2="695.5" class="grid"/>
    <line x1="15.5" y1="715.5" x2="1475.5" y2="715.5" class="grid"/>
    <line x1="15.5" y1="36.5" x2="15.5" y2="714.5" class="grid"/>
    <line x1="35.5" y1="36.5" x2="35.5" y2="714.5" class="grid"/>
    <line x1="55.5" y1="36.5" x2="55.5" y2="714.5" class="grid"/>
    <line x1="75.5" y1="36.5" x2="75.5" y2="714.5" class="grid"/>
    <line x1="95.5" y1="36.5" x2="95.5" y2="714.5" class="grid"/>
    <line x1="115.5" y1="36.5" x2="115.5" y2="714.5" class="grid"/>
    <line x1="135.5" y1="36.5" x2="135.5" y2="714.5" class="grid"/>
    <line x1="155.5" y1="36.5" x2="155.5" y2="714.5" class="grid"/>
    <line x1="175.5" y1="36.5" x2="175.5" y2="714.5" class="grid"/>
    <line x1="195.5" y1="36.5" x2="195.5" y2="714.5" class="grid"/>
    <line x1="215.5" y1="36.5" x2="215.5" y2="714.5" class="grid"/>
    <line x1="235.5" y1="36.5" x2="235.5" y2="714.5" class="grid"/>
    <line x1="255.5" y1="36.5" x2="255.5" y2="714.5" class="grid"/>
    <line x1="275.5" y1="36.5" x2="275.5" y2="714.5" class="grid"/>
    <line x1="295.5" y1="36.5" x2="295.5" y2="714.5" class="grid"/>
    <line x1="315.5" y1="36.5" x2="315.5" y2="714.5" class="grid"/>
    <line x1="335.5" y1="36.5" x2="335.5" y2="714.5" class="grid"/>
    <line x1="355.5" y1="36.5" x2="355.5" y2="714.5" class="grid"/>
    <line x1="375.5" y1="36.5" x2="375.5" y2="714.5" class="grid"/>
    <line x1="395.5" y1="36.5" x2="395.5" y2="714.5" class="grid"/>
    <line x1="415.5" y1="36.5" x2="415.5" y2="714.5" class="grid"/>
    <line x1="435.5" y1="36.5" x2="435.5" y2="714.5" class="grid"/>
    <line x1="455.5" y1="36.5" x2="455.5" y2="714.5" class="grid"/>
    <line x1="475.5" y1="36.5" x2="475.5" y2="714.5" class="grid"/>
    <line x1="495.5" y1="36.5" x2="495.5" y2="714.5" class="grid"/>
    <line x1="515.5" y1="36.5" x2="515.5" y2="714.5" class="grid"/>
    <line x1="535.5" y1="36.5" x2="535.5" y2="714.5" class="grid"/>
    <line x1="555.5" y1="36.5" x2="555.5" y2="714.5" class="grid"/>
    <line x1="575.5" y1="36.5" x2="575.5" y2="714.5" class="grid"/>
    <line x1="595.5" y1="36.5" x2="595.5" y2="714.5" class="grid"/>
    <line x1="615.5" y1="36.5" x2="615.5" y2="714.5" class="grid"/>
    <line x1="635.5" y1="36.5" x2="635.5" y2="714.5" class="grid"/>
    <line x1="655.5" y1="36.5" x2="655.5" y2="714.5" class="grid"/>
    <line x1="675.5" y1="36.5" x2="675.5" y2="714.5" class="grid"/>
    <line x1="695.5" y1="36.5" x2="695.5" y2="714.5" class="grid"/>
    <line x1="715.5" y1="36.5" x2="715.5" y2="714.5" class="grid"/>
    <line x1="735.5" y1="36.5" x2="735.5" y2="714.5" class="grid"/>
    <line x1="755.5" y1="36.5" x2="755.5" y2="714.5" class="grid"/>
    <line x1="775.5" y1="36.5" x2="775.5" y2="714.5" class="grid"/>
    <line x1="795.5" y1="36.5" x2="795.5" y2="714.5" class="grid"/>
    <line x1="815.5" y1="36.5" x2="815.5" y2="714.5" class="grid"/>
    <line x1="835.5" y1="36.5" x2="835.5" y2="714.5" class="grid"/>
    <line x1="855.5" y1="36.5" x2="855.5" y2="714.5" class="grid"/>
    <line x1="875.5" y1="36.5" x2="875.5" y2="714.5" class="grid"/>
    <line x1="895.5" y1="36.5" x2="895.5" y2="714.5" class="grid"/>
    <line x1="915.5" y1="36.5" x2="915.5" y2="714.5" class="grid"/>
    <line x1="935.5" y1="36.5" x2="935.5" y2="714.5" class="grid"/>
    <line x1="955.5" y1="36.5" x2="955.5" y2="714.5" class="grid"/>
    <line x1="975.5" y1="36.5" x2="975.5" y2="714.5" class="grid"/>
    <line x1="995.5" y1="36.5" x2="995.5" y2="714.5" class="grid"/>
    <line x1="1015.5" y1="36.5" x2="1015.5" y2="714.5" class="grid"/>
    <line x1="1035.5" y1="36.5" x2="1035.5" y2="714.5" class="grid"/>
    <line x1="1055.5" y1="36.5" x2="1055.5" y2="714.5" class="grid"/>
    <line x1="1075.5" y1="36.5" x2="1075.5" y2="714.5" class="grid"/>
    <line x1="1095.5" y1="36.5" x2="1095.5" y2="714.5" class="grid"/>
    <line x1="1115.5" y1="36.5" x2="1115.5" y2="714.5" class="grid"/>
    <line x1="1135.5" y1="36.5" x2="1135.5" y2="714.5" class="grid"/>
    <line x1="1155.5" y1="36.5" x2="1155.5" y2="714.5" class="grid"/>
    <line x1="1175.5" y1="36.5" x2="1175.5" y2="714.5" class="grid"/>
    <line x1="1195.5" y1="36.5" x2="1195.5" y2="714.5" class="grid"/>
    <line x1="1215.5" y1="36.5" x2="1215.5" y2="714.5" class="grid"/>
    <line x1="1235.5" y1="36.5" x2="1235.5" y2="714.5" class="grid"/>
    <line x1="1255.5" y1="36.5" x2="1255.5" y2="714.5" class="grid"/>
    <line x1="1275.5" y1="36.5" x2="1275.5" y2="714.5" class="grid"/>
    <line x1="1295.5" y1="36.5" x2="1295.5" y2="714.5" class="grid"/>
    <line x1="1315.5" y1="36.5" x2="1315.5" y2="714.5" class="grid"/>
    <line x1="1335.5" y1="36.5" x2="1335.5" y2="714.5" class="grid"/>
    <line x1="1355.5" y1="36.5" x2="1355.5" y2="714.5" class="grid"/>
    <line x1="1375.5" y1="36.5" x2="1375.5" y2="714.5" class="grid"/>
    <line x1="1395.5" y1="36.5" x2="1395.5" y2="714.5" class="grid"/>
    <line x1="1415.5" y1="36.5" x2="1415.5" y2="714.5" class="grid"/>
    <line x1="1435.5" y1="36.5" x2="1435.5" y2="714.5" class="grid"/>
    <line x1="1455.5" y1="36.5" x2="1455.5" y2="714.5" class="grid"/>
    <line x1="1475.5" y1="36.5" x2="1475.5" y2="714.5" class="grid"/>
    <g style="font-size: 13px;">
        <g>
            <rect x="35.5" y="55.5" width="1419" height="639" class="component"/>
            <rect x="35.5" y="55.5" width="1419" height="639" class="terminal-stroke"/>
            <text transform="translate(745.5 375.5)" class="component" dy="0.25em" text-anchor="middle">f</text>
        </g>
    </g>
        <rect x="1435.5" y="675.5" width="19" height="39" class="terminal-stroke"/>
        <rect x="1235.5" y="675.5" width="19" height="39" class="terminal-stroke"/>
        <rect x="1035.5" y="675.5" width="19" height="39" class="terminal-stroke"/>
        <rect x="835.5" y="675.5" width="19" height="39" class="terminal-stroke"/>
        <rect x="635.5" y="675.5" width="19" height="39" class="terminal-stroke"/>
        <rect x="435.5" y="675.5" width="19" height="39" class="terminal-stroke"/>
        <rect x="235.5" y="675.5" width="19" height="39" class="terminal-stroke"/>
        <rect x="35.5" y="675.5" width="19" height="39" class="terminal-stroke"/>
        <rect x="1435.5" y="35.5" width="19" height="39" class="terminal-fill"/>
        <rect x="1435.5" y="35.5" width="19" height="39" class="terminal-stroke"/>
        <rect x="1235.5" y="35.5" width="19" height="39" class="terminal-fill"/>
        <rect x="1235.5" y="35.5" width="19" height="39" class="terminal-stroke"/>
        <rect x="1035.5" y="35.5" width="19" height="39" class="terminal-fill"/>
        <rect x="1035.5" y="35.5" width="19" height="39" class="terminal-stroke"/>
        <rect x="835.5" y="55.5" width="19" height="19" class="terminal-fill"/>
        <rect x="835.5" y="35.5" width="19" height="39" class="terminal-stroke"/>
        <rect x="635.5" y="55.5" width="19" height="19" class="terminal-fill"/>
        <rect x="635.5" y="35.5" width="19" height="39" class="terminal-stroke"/>
        <rect x="435.5" y="35.5" width="19" height="39" class="terminal-fill"/>
        <rect x="435.5" y="35.5" width="19" height="39" class="terminal-stroke"/>
        <rect x="235.5" y="35.5" width="19" height="39" class="terminal-fill"/>
        <rect x="235.5" y="35.5" width="19" height="39" class="terminal-stroke"/>
        <rect x="35.5" y="55.5" width="19" height="19" class="terminal-fill"/>
        <rect x="35.5" y="35.5" width="19" height="39" class="terminal-stroke"/>
    <g style="font-size: 20px;">
        <rect x="1435.5" y="695.5" width="19" height="19" class="terminal-fill"/>
        <rect x="1435.5" y="675.5" width="19" height="39" class="terminal-stroke"/>
        <text x="1445.5" y="728" class="terminals" dy="0.25em" text-anchor="middle">0</text>
        <rect x="1235.5" y="675.5" width="19" height="39" class="terminal-fill"/>
        <rect x="1235.5" y="675.5" width="19" height="39" class="terminal-stroke"/>
        <text x="1245.5" y="728" class="terminals" dy="0.25em" text-anchor="middle">1</text>
        <rect x="1035.5" y="675.5" width="19" height="39" class="terminal-fill"/>
        <rect x="1035.5" y="675.5" width="19" height="39" class="terminal-stroke"/>
        <text x="1045.5" y="728" class="terminals" dy="0.25em" text-anchor="middle">1</text>
        <rect x="835.5" y="695.5" width="19" height="19" class="terminal-fill"/>
        <rect x="835.5" y="675.5" width="19" height="39" class="terminal-stroke"/>
        <text x="845.5" y="728" class="terminals" dy="0.25em" text-anchor="middle">0</text>
        <rect x="635.5" y="695.5" width="19" height="19" class="terminal-fill"/>
        <rect x="635.5" y="675.5" width="19" height="39" class="terminal-stroke"/>
        <text x="645.5" y="728" class="terminals" dy="0.25em" text-anchor="middle">0</text>
        <rect x="435.5" y="675.5" width="19" height="39" class="terminal-fill"/>
        <rect x="435.5" y="675.5" width="19" height="39" class="terminal-stroke"/>
        <text x="445.5" y="728" class="terminals" dy="0.25em" text-anchor="middle">1</text>
        <rect x="235.5" y="675.5" width="19" height="39" class="terminal-fill"/>
        <rect x="235.5" y="675.5" width="19" height="39" class="terminal-stroke"/>
        <text x="245.5" y="728" class="terminals" dy="0.25em" text-anchor="middle">1</text>
        <rect x="35.5" y="695.5" width="19" height="19" class="terminal-fill"/>
        <rect x="35.5" y="675.5" width="19" height="39" class="terminal-stroke"/>
        <text x="45.5" y="728" class="terminals" dy="0.25em" text-anchor="middle">0</text>
        <rect x="1435.5" y="35.5" width="19" height="39" class="terminal-stroke"/>
        <text x="1445.5" y="25.5" class="terminals" dy="0.25em" text-anchor="middle">1</text>
        <rect x="1235.5" y="35.5" width="19" height="39" class="terminal-stroke"/>
        <text x="1245.5" y="25.5" class="terminals" dy="0.25em" text-anchor="middle">1</text>
        <rect x="1035.5" y="35.5" width="19" height="39" class="terminal-stroke"/>
        <text x="1045.5" y="25.5" class="terminals" dy="0.25em" text-anchor="middle">1</text>
        <rect x="835.5" y="35.5" width="19" height="39" class="terminal-stroke"/>
        <text x="845.5" y="25.5" class="terminals" dy="0.25em" text-anchor="middle">0</text>
        <rect x="635.5" y="35.5" width="19" height="39" class="terminal-stroke"/>
        <text x="645.5" y="25.5" class="terminals" dy="0.25em" text-anchor="middle">0</text>
        <rect x="435.5" y="35.5" width="19" height="39" class="terminal-stroke"/>
        <text x="445.5" y="25.5" class="terminals" dy="0.25em" text-anchor="middle">1</text>
        <rect x="235.5" y="35.5" width="19" height="39" class="terminal-stroke"/>
        <text x="245.5" y="25.5" class="terminals" dy="0.25em" text-anchor="middle">1</text>
        <rect x="35.5" y="35.5" width="19" height="39" class="terminal-stroke"/>
        <text x="45.5" y="25.5" class="terminals" dy="0.25em" text-anchor="middle">0</text>
    </g>
</svg>