<?xml version="1.0"?>
<?xml-stylesheet type="text/css" href="svg.css"?>
<svg width="497" height="281" xmlns="http://www.w3.org/2000/svg" xmlns:xlink="http://www.w3.org/1999/xlink">
    <defs>
        <polygon id="td" points="-30,-10 29,-10 29,9 9,9 9,29 -10,29 -10,9 -30,9" class="t"/>
        <polygon id="tl" points="-10,-30 9,-30 9,29 -10,29 -10,9 -30,9 -30,-10 -10,-10" class="t"/>
        <polygon id="tu" points="-10,-30 9,-30 9,-10 29,-10 29,9 -30,9 -30,-10 -10,-10" class="t"/>
        <polygon id="tr" points="-10,-30 9,-30 9,-10 29,-10 29,9 9,9 9,29 -10,29" class="t"/>
        <polygon id="jd" points="-30,-10 29,-10 29,29 10,29 10,9 -30,9" class="j"/>
        <polygon id="jl" points="-10,-30 9,-30 9,29 -30,29 -30,10 -10,10" class="j"/>
        <polygon id="ju" points="-30,-30 -11,-30 -11,-10 29,-10 29,9 -30,9" class="j"/>
        <polygon id="jr" points="-10,-30 29,-30 29,-11 9,-11 9,29 -10,29" class="j"/>
        <polygon id="zh" points="-30,-10 9,-10 9,10 29,10 29,29 -10,29 -10,9 -30,9" class="z"/>
        <polygon id="zv" points="10,-30 29,-30 29,9 9,9 9,29 -10,29 -10,-10 10,-10" class="z"/>
        <polygon id="o" points="-30,-10 9,-10 9,29 -30,29" class="o"/>
        <polygon id="sh" points="-10,-10 29,-10 29,9 9,9 9,29 -30,29 -30,10 -10,10" class="s"/>
        <polygon id="sv" points="-10,-30 9,-30 9,-10 29,-10 29,29 10,29 10,9 -10,9" class="s"/>
        <polygon id="ld" points="-30,-10 29,-10 29,9 -11,9 -11,29 -30,29" class="l"/>
        <polygon id="ll" points="-30,-30 9,-30 9,29 -10,29 -10,-11 -30,-11" class="l"/>
        <polygon id="lu" points="10,-30 29,-30 29,9 -30,9 -30,-10 10,-10" class="l"/>
        <polygon id="lr" points="-10,-30 9,-30 9,10 29,10 29,29 -10,29" class="l"/>
        <polygon id="ih" points="-50,-10 29,-10 29,9 -50,9" class="i"/>
        <polygon id="iv" points="-10,-50 9,-50 9,29 -10,29" class="i"/>
        <g id="grid">
            <line x1="15.5" y1="25.5" x2="235.5" y2="25.5" class="grid" vector-effect="non-scaling-stroke"/>
            <line x1="15.5" y1="45.5" x2="235.5" y2="45.5" class="grid" vector-effect="non-scaling-stroke"/>
            <line x1="15.5" y1="65.5" x2="235.5" y2="65.5" class="grid" vector-effect="non-scaling-stroke"/>
            <line x1="15.5" y1="85.5" x2="235.5" y2="85.5" class="grid" vector-effect="non-scaling-stroke"/>
            <line x1="15.5" y1="105.5" x2="235.5" y2="105.5" class="grid" vector-effect="non-scaling-stroke"/>
            <line x1="15.5" y1="125.5" x2="235.5" y2="125.5" class="grid" vector-effect="non-scaling-stroke"/>
            <line x1="15.5" y1="145.5" x2="235.5" y2="145.5" class="grid" vector-effect="non-scaling-stroke"/>
            <line x1="15.5" y1="165.5" x2="235.5" y2="165.5" class="grid" vector-effect="non-scaling-stroke"/>
            <line x1="15.5" y1="185.5" x2="235.5" y2="185.5" class="grid" vector-effect="non-scaling-stroke"/>
            <line x1="15.5" y1="205.5" x2="235.5" y2="205.5" class="grid" vector-effect="non-scaling-stroke"/>
            <line x1="15.5" y1="225.5" x2="235.5" y2="225.5" class="grid" vector-effect="non-scaling-stroke"/>
            <line x1="15.5" y1="245.5" x2="235.5" y2="245.5" class="grid" vector-effect="non-scaling-stroke"/>
            <line x1="15.5" y1="16.5" x2="15.5" y2="244.5" class="grid" vector-effect="non-scaling-stroke"/>
            <line x1="35.5" y1="16.5" x2="35.5" y2="244.5" class="grid" vector-effect="non-scaling-stroke"/>
            <line x1="55.5" y1="16.5" x2="55.5" y2="244.5" class="grid" vector-effect="non-scaling-stroke"/>
            <line x1="75.5" y1="16.5" x2="75.5" y2="244.5" class="grid" vector-effect="non-scaling-stroke"/>
            <line x1="95.5" y1="16.5" x2="95.5" y2="244.5" class="grid" vector-effect="non-scaling-stroke"/>
            <line x1="115.5" y1="16.5" x2="115.5" y2="244.5" class="grid" vector-effect="non-scaling-stroke"/>
            <line x1="135.5" y1="16.5" x2="135.5" y2="244.5" class="grid" vector-effect="non-scaling-stroke"/>
            <line x1="155.5" y1="16.5" x2="155.5" y2="244.5" class="grid" vector-effect="non-scaling-stroke"/>
            <line x1="175.5" y1="16.5" x2="175.5" y2="244.5" class="grid" vector-effect="non-scaling-stroke"/>
            <line x1="195.5" y1="16.5" x2="195.5" y2="244.5" class="grid" vector-effect="non-scaling-stroke"/>
            <line x1="215.5" y1="16.5" x2="215.5" y2="244.5" class="grid" vector-effect="non-scaling-stroke"/>
            <line x1="235.5" y1="16.5" x2="235.5" y2="244.5" class="grid" vector-effect="non-scaling-stroke"/>
            <g style="font-size: 20px;">
                <rect x="95.5" y="205.5" width="59" height="39" class="terminal-stroke"/>
                <rect x="95.5" y="105.5" width="59" height="39" class="terminal-stroke"/>
            </g>
        </g>
    </defs>
    
    <use href="#grid" x="0" y="0"/>
    <rect x="95.5" y="225.5" width="59" height="19" class="terminal-fill"/>
    <text x="125.5" y="258" class="terminals" dy="0.25em" text-anchor="middle" style="font-size: 20px;">0</text>
    
    <use href="#grid" x="245" y="0"/>
    <rect x="340.5" y="205.5" width="59" height="39" class="terminal-fill"/>
    <text x="370.5" y="258" class="terminals" dy="0.25em" text-anchor="middle" style="font-size: 20px;">1</text>

    <use href="#lu" x="125.5" y="-100">
        <animate id="left1" begin="0s;left7.end" attributeName="y" values="55.5; 75.5; 95.5; 115.5; 135.5; 155.5; 175.5; 195.5; 215.5" dur="4s" calcMode="discrete" fill="freeze"/>
        <animate id="left7" begin="left6.end" attributeName="y" values="-100" dur="0.5s" calcMode="discrete" fill="freeze"/>
    </use>
    <use href="#lu" x="370.5" y="-100">
        <animate id="right1" begin="left1.begin" attributeName="y" values="55.5; 75.5; 95.5; 115.5; 135.5; 155.5; 175.5; 195.5; 195.5" dur="4s" calcMode="discrete" fill="freeze"/>        
        <animate id="right7" begin="left6.end" attributeName="y" values="-100" dur="0.5s" calcMode="discrete" fill="freeze"/>
    </use>
    
    <use href="#o" x="125.5" y="-100">
        <animate id="left2" begin="left1.end" attributeName="y" values="35.5; 55.5; 75.5; 95.5; 115.5; 135.5; 155.5" dur="3.1111111111111111111111111111111s" calcMode="discrete" fill="freeze"/>
        <animate id="left3" begin="left2.end" attributeName="x" values="145.5" dur="0.44444444444444444444444444444444s" calcMode="discrete" fill="freeze"/>
        <animate id="left8" begin="left6.end" attributeName="y" values="-100" dur="0.00001s" calcMode="discrete" fill="freeze"/>
        <animate id="left9" begin="left6.end" attributeName="x" values="125.5" dur="0.00001s" calcMode="discrete" fill="freeze"/>
    </use>
    <use href="#o" x="370.5" y="-100">
        <animate id="right2" begin="left1.end" attributeName="y" values="35.5; 55.5; 75.5; 95.5; 115.5; 135.5; 155.5" dur="3.1111111111111111111111111111111s" calcMode="discrete" fill="freeze"/>
        <animate id="right3" begin="right2.end" attributeName="x" values="370.5; 373.5; 370.5" keyTimes="0; 0.5; 1" keySplines="0 0.5 0.5 1; 0.5 0 1 0.5" dur="0.15s" calcMode="spline"/>
        <animate id="right8" begin="left6.end" attributeName="y" values="-100" dur="0.00001s" calcMode="discrete" fill="freeze"/>
    </use>
    
    <use href="#jd" x="125.5" y="-100">
        <animate id="left4" begin="left3.end" attributeName="y" values="35.5; 55.5; 75.5; 95.5; 115.5" dur="2.2222222222222222222222222222222s" calcMode="discrete" fill="freeze"/>
        <animate id="left10" begin="left6.end" attributeName="y" values="-100" dur="0s" calcMode="discrete" fill="freeze"/>
    </use>
    <use href="#jd" x="370.5" y="-100">
        <animate id="right4" begin="left3.end" attributeName="y" values="35.5; 55.5; 75.5; 95.5; 115.5; 135.5" dur="2.6666666666666666666666666666667s" calcMode="discrete" fill="freeze"/>
        <animate id="right10" begin="left6.end" attributeName="y" values="-100" dur="0s" calcMode="discrete" fill="freeze"/>
    </use>
       
    <text x="125.5" y="95.5" class="terminals" dy="0.25em" text-anchor="middle" style="font-size: 20px;" visibility="visible">?
        <animate id="left5" begin="left3.end + 1.7777777777777777777777777777778s" attributeName="visibility" values="hidden" dur="2.5s" calcMode="discrete" fill="freeze"/>
        <animate id="left11" begin="left6.end" attributeName="visibility" values="visible" dur="0.00001s" calcMode="discrete" fill="freeze"/>
    </text>
    <text x="125.5" y="95.5" class="terminals" dy="0.25em" text-anchor="middle" style="font-size: 20px;" visibility="hidden">1
        <animate id="left6" begin="left3.end + 1.7777777777777777777777777777778s" attributeName="visibility" values="visible" dur="2.5s" calcMode="discrete" fill="freeze"/>
        <animate id="left12" begin="left6.end" attributeName="visibility" values="hidden" dur="0.00001s" calcMode="discrete" fill="freeze"/>
    </text>
    
    <text x="370.5" y="95.5" class="terminals" dy="0.25em" text-anchor="middle" style="font-size: 20px;" visibility="visible">?
        <animate id="right5" begin="left3.end + 2.2222222222222222222222222222222s" attributeName="visibility" values="hidden" dur="2.5s" calcMode="discrete" fill="freeze"/>
        <animate id="right11" begin="left6.end" attributeName="visibility" values="visible" dur="0.00001s" calcMode="discrete" fill="freeze"/>
    </text>
    <text x="370.5" y="95.5" class="terminals" dy="0.25em" text-anchor="middle" style="font-size: 20px;" visibility="hidden">0
        <animate id="right5" begin="left3.end + 2.2222222222222222222222222222222s" attributeName="visibility" values="visible" dur="2.5s" calcMode="discrete" fill="freeze"/>
        <animate id="right12" begin="left6.end" attributeName="visibility" values="hidden" dur="0.00001s" calcMode="discrete" fill="freeze"/>
    </text>    
</svg>