<?xml version="1.0"?>
<?xml-stylesheet type="text/css" href="svg.css"?>
<svg width="456" height="201" xmlns="http://www.w3.org/2000/svg" xmlns:xlink="http://www.w3.org/1999/xlink">
    <defs>
        <polygon id="td" points="-30,-10 29,-10 29,9 9,9 9,29 -10,29 -10,9 -30,9" class="t"/>
        <polygon id="tl" points="-10,-30 9,-30 9,29 -10,29 -10,9 -30,9 -30,-10 -10,-10" class="t"/>
        <polygon id="tu" points="-10,-30 9,-30 9,-10 29,-10 29,9 -30,9 -30,-10 -10,-10" class="t"/>
        <polygon id="tr" points="-10,-30 9,-30 9,-10 29,-10 29,9 9,9 9,29 -10,29" class="t"/>
        <polygon id="jd" points="-30,-10 29,-10 29,29 10,29 10,9 -30,9" class="j"/>
        <polygon id="jl" points="-10,-30 9,-30 9,29 -30,29 -30,10 -10,10" class="j"/>
        <polygon id="ju" points="-30,-30 -11,-30 -11,-10 29,-10 29,9 -30,9" class="j"/>
        <polygon id="jr" points="-10,-30 29,-30 29,-11 9,-11 9,29 -10,29" class="j"/>
        <polygon id="zh" points="-30,-10 9,-10 9,10 29,10 29,29 -10,29 -10,9 -30,9" class="z"/>
        <polygon id="zv" points="10,-30 29,-30 29,9 9,9 9,29 -10,29 -10,-10 10,-10" class="z"/>
        <polygon id="o" points="-30,-10 9,-10 9,29 -30,29" class="o"/>
        <polygon id="sh" points="-10,-10 29,-10 29,9 9,9 9,29 -30,29 -30,10 -10,10" class="s"/>
        <polygon id="sv" points="-10,-30 9,-30 9,-10 29,-10 29,29 10,29 10,9 -10,9" class="s"/>
        <polygon id="ld" points="-30,-10 29,-10 29,9 -11,9 -11,29 -30,29" class="l"/>
        <polygon id="ll" points="-30,-30 9,-30 9,29 -10,29 -10,-11 -30,-11" class="l"/>
        <polygon id="lu" points="10,-30 29,-30 29,9 -30,9 -30,-10 10,-10" class="l"/>
        <polygon id="lr" points="-10,-30 9,-30 9,10 29,10 29,29 -10,29" class="l"/>
        <polygon id="ih" points="-50,-10 29,-10 29,9 -50,9" class="i"/>
        <polygon id="iv" points="-10,-50 9,-50 9,29 -10,29" class="i"/>
    </defs>
    <line x1="15.5" y1="25.5" x2="215.5" y2="25.5" class="grid" vector-effect="non-scaling-stroke"/>
    <line x1="15.5" y1="45.5" x2="215.5" y2="45.5" class="grid" vector-effect="non-scaling-stroke"/>
    <line x1="15.5" y1="65.5" x2="215.5" y2="65.5" class="grid" vector-effect="non-scaling-stroke"/>
    <line x1="15.5" y1="85.5" x2="215.5" y2="85.5" class="grid" vector-effect="non-scaling-stroke"/>
    <line x1="15.5" y1="105.5" x2="215.5" y2="105.5" class="grid" vector-effect="non-scaling-stroke"/>
    <line x1="15.5" y1="125.5" x2="215.5" y2="125.5" class="grid" vector-effect="non-scaling-stroke"/>
    <line x1="15.5" y1="145.5" x2="215.5" y2="145.5" class="grid" vector-effect="non-scaling-stroke"/>
    <line x1="15.5" y1="165.5" x2="215.5" y2="165.5" class="grid" vector-effect="non-scaling-stroke"/>
    <line x1="15.5" y1="16.5" x2="15.5" y2="164.5" class="grid" vector-effect="non-scaling-stroke"/>
    <line x1="35.5" y1="16.5" x2="35.5" y2="164.5" class="grid" vector-effect="non-scaling-stroke"/>
    <line x1="55.5" y1="16.5" x2="55.5" y2="164.5" class="grid" vector-effect="non-scaling-stroke"/>
    <line x1="75.5" y1="16.5" x2="75.5" y2="164.5" class="grid" vector-effect="non-scaling-stroke"/>
    <line x1="95.5" y1="16.5" x2="95.5" y2="164.5" class="grid" vector-effect="non-scaling-stroke"/>
    <line x1="115.5" y1="16.5" x2="115.5" y2="164.5" class="grid" vector-effect="non-scaling-stroke"/>
    <line x1="135.5" y1="16.5" x2="135.5" y2="164.5" class="grid" vector-effect="non-scaling-stroke"/>
    <line x1="155.5" y1="16.5" x2="155.5" y2="164.5" class="grid" vector-effect="non-scaling-stroke"/>
    <line x1="175.5" y1="16.5" x2="175.5" y2="164.5" class="grid" vector-effect="non-scaling-stroke"/>
    <line x1="195.5" y1="16.5" x2="195.5" y2="164.5" class="grid" vector-effect="non-scaling-stroke"/>
    <line x1="215.5" y1="16.5" x2="215.5" y2="164.5" class="grid" vector-effect="non-scaling-stroke"/>
    <g style="font-size: 20px;">
        <rect x="115.5" y="145.5" width="19" height="19" class="terminal-fill"/>
        <rect x="115.5" y="125.5" width="19" height="39" class="terminal-stroke"/>
        <text x="125.5" y="178" class="terminals" dy="0.25em" text-anchor="middle">0</text>
        <rect x="115.5" y="105.5" width="19" height="39" class="terminal-stroke"/>        
    </g>    
    <line x1="240.5" y1="25.5" x2="440.5" y2="25.5" class="grid" vector-effect="non-scaling-stroke"/>
    <line x1="240.5" y1="45.5" x2="440.5" y2="45.5" class="grid" vector-effect="non-scaling-stroke"/>
    <line x1="240.5" y1="65.5" x2="440.5" y2="65.5" class="grid" vector-effect="non-scaling-stroke"/>
    <line x1="240.5" y1="85.5" x2="440.5" y2="85.5" class="grid" vector-effect="non-scaling-stroke"/>
    <line x1="240.5" y1="105.5" x2="440.5" y2="105.5" class="grid" vector-effect="non-scaling-stroke"/>
    <line x1="240.5" y1="125.5" x2="440.5" y2="125.5" class="grid" vector-effect="non-scaling-stroke"/>
    <line x1="240.5" y1="145.5" x2="440.5" y2="145.5" class="grid" vector-effect="non-scaling-stroke"/>
    <line x1="240.5" y1="165.5" x2="440.5" y2="165.5" class="grid" vector-effect="non-scaling-stroke"/>
    <line x1="240.5" y1="16.5" x2="240.5" y2="164.5" class="grid" vector-effect="non-scaling-stroke"/>
    <line x1="260.5" y1="16.5" x2="260.5" y2="164.5" class="grid" vector-effect="non-scaling-stroke"/>
    <line x1="280.5" y1="16.5" x2="280.5" y2="164.5" class="grid" vector-effect="non-scaling-stroke"/>
    <line x1="300.5" y1="16.5" x2="300.5" y2="164.5" class="grid" vector-effect="non-scaling-stroke"/>
    <line x1="320.5" y1="16.5" x2="320.5" y2="164.5" class="grid" vector-effect="non-scaling-stroke"/>
    <line x1="340.5" y1="16.5" x2="340.5" y2="164.5" class="grid" vector-effect="non-scaling-stroke"/>
    <line x1="360.5" y1="16.5" x2="360.5" y2="164.5" class="grid" vector-effect="non-scaling-stroke"/>
    <line x1="380.5" y1="16.5" x2="380.5" y2="164.5" class="grid" vector-effect="non-scaling-stroke"/>
    <line x1="400.5" y1="16.5" x2="400.5" y2="164.5" class="grid" vector-effect="non-scaling-stroke"/>
    <line x1="420.5" y1="16.5" x2="420.5" y2="164.5" class="grid" vector-effect="non-scaling-stroke"/>
    <line x1="440.5" y1="16.5" x2="440.5" y2="164.5" class="grid" vector-effect="non-scaling-stroke"/>
    <g style="font-size: 20px;">
        <rect x="340.5" y="125.5" width="19" height="39" class="terminal-fill"/>
        <rect x="340.5" y="125.5" width="19" height="39" class="terminal-stroke"/>
        <text x="350.5" y="178" class="terminals" dy="0.25em" text-anchor="middle">1</text>
        <rect x="340.5" y="105.5" width="19" height="39" class="terminal-stroke"/>
        <text x="350.5" y="95.5" class="terminals" dy="0.25em" text-anchor="middle">0</text>
    </g>
    
    <use href="#o" x="105.5" y="-100">
        <animate id="left1" begin="0s;right4.end" attributeName="y" values="35.5; 55.5; 75.5; 95.5; 115.5" dur="2.2222222222222222222222222222222s" calcMode="discrete" fill="freeze"/>
        <animate id="left2" begin="left1.end" attributeName="x" values="125.5" dur="0.44444444444444444444444444444444s" calcMode="discrete" fill="freeze"/>
        <animate id="left2a" begin="left2.end" attributeName="x" values="145.5" dur="0.44444444444444444444444444444444s" calcMode="discrete" fill="freeze"/>
        <animate id="left3" begin="right3.end + 2s" attributeName="y" values="-100" dur="0.5s" calcMode="discrete" fill="freeze"/>
        <animate id="left4" begin="right3.end + 2s" attributeName="x" values="105.5" dur="0.5s" calcMode="discrete" fill="freeze"/>
    </use>

    <use href="#o" x="330.5" y="-100">
        <animate id="right1" begin="left1.begin" attributeName="y" values="35.5; 55.5; 75.5; 95.5; 115.5" dur="2.2222222222222222222222222222222s" calcMode="discrete" fill="freeze"/>
        <animate id="right2" begin="right1.end" attributeName="x" values="330.5; 333.5; 330.5" keyTimes="0; 0.5; 1" keySplines="0 0.5 0.5 1; 0.5 0 1 0.5" dur="0.15s" calcMode="spline"/>
        <animate id="right2a" begin="left2.end" attributeName="x" values="330.5; 333.5; 330.5" keyTimes="0; 0.5; 1" keySplines="0 0.5 0.5 1; 0.5 0 1 0.5" dur="0.15s" calcMode="spline"/>
        <animate id="right3" begin="left2a.end" attributeName="y" values="135.5" dur="0.44444444444444444444444444444444s" calcMode="discrete" fill="freeze"/>                
        <animate id="right4" begin="right3.end + 2s" attributeName="y" values="-100" dur="0.5s" calcMode="discrete" fill="freeze"/>
    </use>

    <text x="125.5" y="95.5" class="terminals" dy="0.25em" text-anchor="middle" style="font-size: 20px;" visibility="visible">?
        <animate id="question1" begin="left1.end" attributeName="visibility" values="hidden" dur="2s" calcMode="discrete" fill="freeze"/>
        <animate id="question2" begin="right3.end + 2s" attributeName="visibility" values="visible" dur="0.5s" calcMode="discrete" fill="freeze"/>
    </text>      
    
    <text x="125.5" y="95.5" class="terminals" dy="0.25em" text-anchor="middle" style="font-size: 20px;" visibility="hidden">1
        <animate id="one1" begin="left1.end" attributeName="visibility" values="visible" dur="2s" calcMode="discrete" fill="freeze"/>
        <animate id="one2" begin="right3.end + 2s" attributeName="visibility" values="hidden" dur="0.5s" calcMode="discrete" fill="freeze"/>
    </text> 

</svg>