<?xml version="1.0"?>
<?xml-stylesheet type="text/css" href="svg.css"?>
<svg width="672" height="245" viewBox="-10 -8 672 245" xmlns="http://www.w3.org/2000/svg" xmlns:xlink="http://www.w3.org/1999/xlink">
    <defs>
        <polygon id="td" points="-30,-10 29,-10 29,9 9,9 9,29 -10,29 -10,9 -30,9" class="t"/>
        <polygon id="tl" points="-10,-30 9,-30 9,29 -10,29 -10,9 -30,9 -30,-10 -10,-10" class="t"/>
        <polygon id="tu" points="-10,-30 9,-30 9,-10 29,-10 29,9 -30,9 -30,-10 -10,-10" class="t"/>
        <polygon id="tr" points="-10,-30 9,-30 9,-10 29,-10 29,9 9,9 9,29 -10,29" class="t"/>
        <polygon id="jd" points="-30,-10 29,-10 29,29 10,29 10,9 -30,9" class="j"/>
        <polygon id="jl" points="-10,-30 9,-30 9,29 -30,29 -30,10 -10,10" class="j"/>
        <polygon id="ju" points="-30,-30 -11,-30 -11,-10 29,-10 29,9 -30,9" class="j"/>
        <polygon id="jr" points="-10,-30 29,-30 29,-11 9,-11 9,29 -10,29" class="j"/>
        <polygon id="zh" points="-30,-10 9,-10 9,10 29,10 29,29 -10,29 -10,9 -30,9" class="z"/>
        <polygon id="zv" points="10,-30 29,-30 29,9 9,9 9,29 -10,29 -10,-10 10,-10" class="z"/>
        <polygon id="o" points="-30,-10 9,-10 9,29 -30,29" class="o"/>
        <polygon id="sh" points="-10,-10 29,-10 29,9 9,9 9,29 -30,29 -30,10 -10,10" class="s"/>
        <polygon id="sv" points="-10,-30 9,-30 9,-10 29,-10 29,29 10,29 10,9 -10,9" class="s"/>
        <polygon id="ld" points="-30,-10 29,-10 29,9 -11,9 -11,29 -30,29" class="l"/>
        <polygon id="ll" points="-30,-30 9,-30 9,29 -10,29 -10,-11 -30,-11" class="l"/>
        <polygon id="lu" points="10,-30 29,-30 29,9 -30,9 -30,-10 10,-10" class="l"/>
        <polygon id="lr" points="-10,-30 9,-30 9,10 29,10 29,29 -10,29" class="l"/>
        <polygon id="ih" points="-50,-10 29,-10 29,9 -50,9" class="i"/>
        <polygon id="iv" points="-10,-50 9,-50 9,29 -10,29" class="i"/>
        <marker id="arrow" viewBox="0 -7 16 14" refX="5" refY="0" markerWidth="4" markerHeight="4" orient="auto">
            <path d="M0,-7 L16,0 L0,7" class="arrowhead"/>
        </marker>
    </defs>
    <line x1="87" y1="22" x2="117.5" y2="22" class="arrow" marker-end="url(#arrow)"/>
    <text x="75" y="22" dy="0.25em" class="descriptions" text-anchor="end" style="font-size: 20px;">output</text>
    <text x="130" y="120.5" class="braces" dy="0.25em" text-anchor="end" style="font-size: 178.5px;">{</text>
    <text x="75" y="115" dy="0.25em" class="descriptions" text-anchor="end" style="font-size: 20px;">circuit</text>
    <text x="75" y="206" dy="0.25em" class="descriptions" text-anchor="end" style="font-size: 20px;">input</text>
    <line x1="87" y1="206" x2="117.5" y2="206" class="arrow" marker-end="url(#arrow)"/>
    <g transform="translate(125 0) scale(0.4)">
        <line x1="15.5" y1="35.5" x2="1295.5" y2="35.5" class="grid" vector-effect="non-scaling-stroke"/>
        <line x1="15.5" y1="55.5" x2="1295.5" y2="55.5" class="grid" vector-effect="non-scaling-stroke"/>
        <line x1="15.5" y1="75.5" x2="1295.5" y2="75.5" class="grid" vector-effect="non-scaling-stroke"/>
        <line x1="15.5" y1="95.5" x2="1295.5" y2="95.5" class="grid" vector-effect="non-scaling-stroke"/>
        <line x1="15.5" y1="115.5" x2="1295.5" y2="115.5" class="grid" vector-effect="non-scaling-stroke"/>
        <line x1="15.5" y1="135.5" x2="1295.5" y2="135.5" class="grid" vector-effect="non-scaling-stroke"/>
        <line x1="15.5" y1="155.5" x2="1295.5" y2="155.5" class="grid" vector-effect="non-scaling-stroke"/>
        <line x1="15.5" y1="175.5" x2="1295.5" y2="175.5" class="grid" vector-effect="non-scaling-stroke"/>
        <line x1="15.5" y1="195.5" x2="1295.5" y2="195.5" class="grid" vector-effect="non-scaling-stroke"/>
        <line x1="15.5" y1="215.5" x2="1295.5" y2="215.5" class="grid" vector-effect="non-scaling-stroke"/>
        <line x1="15.5" y1="235.5" x2="1295.5" y2="235.5" class="grid" vector-effect="non-scaling-stroke"/>
        <line x1="15.5" y1="255.5" x2="1295.5" y2="255.5" class="grid" vector-effect="non-scaling-stroke"/>
        <line x1="15.5" y1="275.5" x2="1295.5" y2="275.5" class="grid" vector-effect="non-scaling-stroke"/>
        <line x1="15.5" y1="295.5" x2="1295.5" y2="295.5" class="grid" vector-effect="non-scaling-stroke"/>
        <line x1="15.5" y1="315.5" x2="1295.5" y2="315.5" class="grid" vector-effect="non-scaling-stroke"/>
        <line x1="15.5" y1="335.5" x2="1295.5" y2="335.5" class="grid" vector-effect="non-scaling-stroke"/>
        <line x1="15.5" y1="355.5" x2="1295.5" y2="355.5" class="grid" vector-effect="non-scaling-stroke"/>
        <line x1="15.5" y1="375.5" x2="1295.5" y2="375.5" class="grid" vector-effect="non-scaling-stroke"/>
        <line x1="15.5" y1="395.5" x2="1295.5" y2="395.5" class="grid" vector-effect="non-scaling-stroke"/>
        <line x1="15.5" y1="415.5" x2="1295.5" y2="415.5" class="grid" vector-effect="non-scaling-stroke"/>
        <line x1="15.5" y1="435.5" x2="1295.5" y2="435.5" class="grid" vector-effect="non-scaling-stroke"/>
        <line x1="15.5" y1="455.5" x2="1295.5" y2="455.5" class="grid" vector-effect="non-scaling-stroke"/>
        <line x1="15.5" y1="475.5" x2="1295.5" y2="475.5" class="grid" vector-effect="non-scaling-stroke"/>
        <line x1="15.5" y1="495.5" x2="1295.5" y2="495.5" class="grid" vector-effect="non-scaling-stroke"/>
        <line x1="15.5" y1="515.5" x2="1295.5" y2="515.5" class="grid" vector-effect="non-scaling-stroke"/>
        <line x1="15.5" y1="535.5" x2="1295.5" y2="535.5" class="grid" vector-effect="non-scaling-stroke"/>
        <line x1="15.5" y1="36.5" x2="15.5" y2="534.5" class="grid" vector-effect="non-scaling-stroke"/>
        <line x1="35.5" y1="36.5" x2="35.5" y2="534.5" class="grid" vector-effect="non-scaling-stroke"/>
        <line x1="55.5" y1="36.5" x2="55.5" y2="534.5" class="grid" vector-effect="non-scaling-stroke"/>
        <line x1="75.5" y1="36.5" x2="75.5" y2="534.5" class="grid" vector-effect="non-scaling-stroke"/>
        <line x1="95.5" y1="36.5" x2="95.5" y2="534.5" class="grid" vector-effect="non-scaling-stroke"/>
        <line x1="115.5" y1="36.5" x2="115.5" y2="534.5" class="grid" vector-effect="non-scaling-stroke"/>
        <line x1="135.5" y1="36.5" x2="135.5" y2="534.5" class="grid" vector-effect="non-scaling-stroke"/>
        <line x1="155.5" y1="36.5" x2="155.5" y2="534.5" class="grid" vector-effect="non-scaling-stroke"/>
        <line x1="175.5" y1="36.5" x2="175.5" y2="534.5" class="grid" vector-effect="non-scaling-stroke"/>
        <line x1="195.5" y1="36.5" x2="195.5" y2="534.5" class="grid" vector-effect="non-scaling-stroke"/>
        <line x1="215.5" y1="36.5" x2="215.5" y2="534.5" class="grid" vector-effect="non-scaling-stroke"/>
        <line x1="235.5" y1="36.5" x2="235.5" y2="534.5" class="grid" vector-effect="non-scaling-stroke"/>
        <line x1="255.5" y1="36.5" x2="255.5" y2="534.5" class="grid" vector-effect="non-scaling-stroke"/>
        <line x1="275.5" y1="36.5" x2="275.5" y2="534.5" class="grid" vector-effect="non-scaling-stroke"/>
        <line x1="295.5" y1="36.5" x2="295.5" y2="534.5" class="grid" vector-effect="non-scaling-stroke"/>
        <line x1="315.5" y1="36.5" x2="315.5" y2="534.5" class="grid" vector-effect="non-scaling-stroke"/>
        <line x1="335.5" y1="36.5" x2="335.5" y2="534.5" class="grid" vector-effect="non-scaling-stroke"/>
        <line x1="355.5" y1="36.5" x2="355.5" y2="534.5" class="grid" vector-effect="non-scaling-stroke"/>
        <line x1="375.5" y1="36.5" x2="375.5" y2="534.5" class="grid" vector-effect="non-scaling-stroke"/>
        <line x1="395.5" y1="36.5" x2="395.5" y2="534.5" class="grid" vector-effect="non-scaling-stroke"/>
        <line x1="415.5" y1="36.5" x2="415.5" y2="534.5" class="grid" vector-effect="non-scaling-stroke"/>
        <line x1="435.5" y1="36.5" x2="435.5" y2="534.5" class="grid" vector-effect="non-scaling-stroke"/>
        <line x1="455.5" y1="36.5" x2="455.5" y2="534.5" class="grid" vector-effect="non-scaling-stroke"/>
        <line x1="475.5" y1="36.5" x2="475.5" y2="534.5" class="grid" vector-effect="non-scaling-stroke"/>
        <line x1="495.5" y1="36.5" x2="495.5" y2="534.5" class="grid" vector-effect="non-scaling-stroke"/>
        <line x1="515.5" y1="36.5" x2="515.5" y2="534.5" class="grid" vector-effect="non-scaling-stroke"/>
        <line x1="535.5" y1="36.5" x2="535.5" y2="534.5" class="grid" vector-effect="non-scaling-stroke"/>
        <line x1="555.5" y1="36.5" x2="555.5" y2="534.5" class="grid" vector-effect="non-scaling-stroke"/>
        <line x1="575.5" y1="36.5" x2="575.5" y2="534.5" class="grid" vector-effect="non-scaling-stroke"/>
        <line x1="595.5" y1="36.5" x2="595.5" y2="534.5" class="grid" vector-effect="non-scaling-stroke"/>
        <line x1="615.5" y1="36.5" x2="615.5" y2="534.5" class="grid" vector-effect="non-scaling-stroke"/>
        <line x1="635.5" y1="36.5" x2="635.5" y2="534.5" class="grid" vector-effect="non-scaling-stroke"/>
        <line x1="655.5" y1="36.5" x2="655.5" y2="534.5" class="grid" vector-effect="non-scaling-stroke"/>
        <line x1="675.5" y1="36.5" x2="675.5" y2="534.5" class="grid" vector-effect="non-scaling-stroke"/>
        <line x1="695.5" y1="36.5" x2="695.5" y2="534.5" class="grid" vector-effect="non-scaling-stroke"/>
        <line x1="715.5" y1="36.5" x2="715.5" y2="534.5" class="grid" vector-effect="non-scaling-stroke"/>
        <line x1="735.5" y1="36.5" x2="735.5" y2="534.5" class="grid" vector-effect="non-scaling-stroke"/>
        <line x1="755.5" y1="36.5" x2="755.5" y2="534.5" class="grid" vector-effect="non-scaling-stroke"/>
        <line x1="775.5" y1="36.5" x2="775.5" y2="534.5" class="grid" vector-effect="non-scaling-stroke"/>
        <line x1="795.5" y1="36.5" x2="795.5" y2="534.5" class="grid" vector-effect="non-scaling-stroke"/>
        <line x1="815.5" y1="36.5" x2="815.5" y2="534.5" class="grid" vector-effect="non-scaling-stroke"/>
        <line x1="835.5" y1="36.5" x2="835.5" y2="534.5" class="grid" vector-effect="non-scaling-stroke"/>
        <line x1="855.5" y1="36.5" x2="855.5" y2="534.5" class="grid" vector-effect="non-scaling-stroke"/>
        <line x1="875.5" y1="36.5" x2="875.5" y2="534.5" class="grid" vector-effect="non-scaling-stroke"/>
        <line x1="895.5" y1="36.5" x2="895.5" y2="534.5" class="grid" vector-effect="non-scaling-stroke"/>
        <line x1="915.5" y1="36.5" x2="915.5" y2="534.5" class="grid" vector-effect="non-scaling-stroke"/>
        <line x1="935.5" y1="36.5" x2="935.5" y2="534.5" class="grid" vector-effect="non-scaling-stroke"/>
        <line x1="955.5" y1="36.5" x2="955.5" y2="534.5" class="grid" vector-effect="non-scaling-stroke"/>
        <line x1="975.5" y1="36.5" x2="975.5" y2="534.5" class="grid" vector-effect="non-scaling-stroke"/>
        <line x1="995.5" y1="36.5" x2="995.5" y2="534.5" class="grid" vector-effect="non-scaling-stroke"/>
        <line x1="1015.5" y1="36.5" x2="1015.5" y2="534.5" class="grid" vector-effect="non-scaling-stroke"/>
        <line x1="1035.5" y1="36.5" x2="1035.5" y2="534.5" class="grid" vector-effect="non-scaling-stroke"/>
        <line x1="1055.5" y1="36.5" x2="1055.5" y2="534.5" class="grid" vector-effect="non-scaling-stroke"/>
        <line x1="1075.5" y1="36.5" x2="1075.5" y2="534.5" class="grid" vector-effect="non-scaling-stroke"/>
        <line x1="1095.5" y1="36.5" x2="1095.5" y2="534.5" class="grid" vector-effect="non-scaling-stroke"/>
        <line x1="1115.5" y1="36.5" x2="1115.5" y2="534.5" class="grid" vector-effect="non-scaling-stroke"/>
        <line x1="1135.5" y1="36.5" x2="1135.5" y2="534.5" class="grid" vector-effect="non-scaling-stroke"/>
        <line x1="1155.5" y1="36.5" x2="1155.5" y2="534.5" class="grid" vector-effect="non-scaling-stroke"/>
        <line x1="1175.5" y1="36.5" x2="1175.5" y2="534.5" class="grid" vector-effect="non-scaling-stroke"/>
        <line x1="1195.5" y1="36.5" x2="1195.5" y2="534.5" class="grid" vector-effect="non-scaling-stroke"/>
        <line x1="1215.5" y1="36.5" x2="1215.5" y2="534.5" class="grid" vector-effect="non-scaling-stroke"/>
        <line x1="1235.5" y1="36.5" x2="1235.5" y2="534.5" class="grid" vector-effect="non-scaling-stroke"/>
        <line x1="1255.5" y1="36.5" x2="1255.5" y2="534.5" class="grid" vector-effect="non-scaling-stroke"/>
        <line x1="1275.5" y1="36.5" x2="1275.5" y2="534.5" class="grid" vector-effect="non-scaling-stroke"/>
        <line x1="1295.5" y1="36.5" x2="1295.5" y2="534.5" class="grid" vector-effect="non-scaling-stroke"/>
        <g style="font-size: 20px;">
            <rect x="1195.5" y="495.5" width="19" height="39" class="terminal-fill"/>
            <rect x="1195.5" y="495.5" width="19" height="39" class="terminal-stroke"/>
            <text x="1205.5" y="548" class="terminals" dy="0.25em"  text-anchor="middle">1</text>
            <rect x="1055.5" y="495.5" width="19" height="39" class="terminal-fill"/>
            <rect x="1055.5" y="495.5" width="19" height="39" class="terminal-stroke"/>
            <text x="1065.5" y="548" class="terminals" dy="0.25em"  text-anchor="middle">1</text>
            <rect x="875.5" y="515.5" width="19" height="19" class="terminal-fill"/>
            <rect x="875.5" y="495.5" width="19" height="39" class="terminal-stroke"/>
            <text x="885.5" y="548" class="terminals" dy="0.25em"  text-anchor="middle">0</text>
            <rect x="735.5" y="495.5" width="19" height="39" class="terminal-fill"/>
            <rect x="735.5" y="495.5" width="19" height="39" class="terminal-stroke"/>
            <text x="745.5" y="548" class="terminals" dy="0.25em"  text-anchor="middle">1</text>
            <rect x="555.5" y="495.5" width="19" height="39" class="terminal-fill"/>
            <rect x="555.5" y="495.5" width="19" height="39" class="terminal-stroke"/>
            <text x="565.5" y="548" class="terminals" dy="0.25em"  text-anchor="middle">1</text>
            <rect x="415.5" y="515.5" width="19" height="19" class="terminal-fill"/>
            <rect x="415.5" y="495.5" width="19" height="39" class="terminal-stroke"/>
            <text x="425.5" y="548" class="terminals" dy="0.25em"  text-anchor="middle">0</text>
            <rect x="235.5" y="515.5" width="19" height="19" class="terminal-fill"/>
            <rect x="235.5" y="495.5" width="19" height="39" class="terminal-stroke"/>
            <text x="245.5" y="548" class="terminals" dy="0.25em"  text-anchor="middle">0</text>
            <rect x="95.5" y="515.5" width="19" height="19" class="terminal-fill"/>
            <rect x="95.5" y="495.5" width="19" height="39" class="terminal-stroke"/>
            <text x="105.5" y="548" class="terminals" dy="0.25em"  text-anchor="middle">0</text>
            <rect x="1195.5" y="35.5" width="19" height="39" class="terminal-stroke"/>
            <text x="1205.5" y="25.5" class="terminals" dy="0.25em"  text-anchor="middle">1</text>
            <rect x="1055.5" y="35.5" width="19" height="39" class="terminal-stroke"/>
            <text x="1065.5" y="25.5" class="terminals" dy="0.25em"  text-anchor="middle">1</text>
            <rect x="875.5" y="35.5" width="19" height="39" class="terminal-stroke"/>
            <text x="885.5" y="25.5" class="terminals" dy="0.25em"  text-anchor="middle">1</text>
            <rect x="735.5" y="35.5" width="19" height="39" class="terminal-stroke"/>
            <text x="745.5" y="25.5" class="terminals" dy="0.25em"  text-anchor="middle">0</text>
            <rect x="555.5" y="35.5" width="19" height="39" class="terminal-stroke"/>
            <text x="565.5" y="25.5" class="terminals" dy="0.25em"  text-anchor="middle">0</text>
            <rect x="415.5" y="35.5" width="19" height="39" class="terminal-stroke"/>
            <text x="425.5" y="25.5" class="terminals" dy="0.25em"  text-anchor="middle">1</text>
            <rect x="235.5" y="35.5" width="19" height="39" class="terminal-stroke"/>
            <text x="245.5" y="25.5" class="terminals" dy="0.25em"  text-anchor="middle">0</text>
            <rect x="95.5" y="35.5" width="19" height="39" class="terminal-stroke"/>
            <text x="105.5" y="25.5" class="terminals" dy="0.25em"  text-anchor="middle">0</text>
        </g>
        <use href="#tu" x="1205.5" y="65.5"/>
        <use href="#tu" x="1065.5" y="65.5"/>
        <use href="#tu" x="885.5" y="65.5"/>
        <use href="#tu" x="745.5" y="85.5"/>
        <use href="#tu" x="565.5" y="85.5"/>
        <use href="#tu" x="425.5" y="65.5"/>
        <use href="#tu" x="245.5" y="85.5"/>
        <use href="#tu" x="105.5" y="85.5"/>
        <use href="#ih" x="1225.5" y="85.5"/>
        <use href="#ld" x="1165.5" y="105.5"/>
        <use href="#o" x="1165.5" y="145.5"/>
        <use href="#ju" x="1165.5" y="205.5"/>
        <use href="#jd" x="1265.5" y="125.5"/>
        <use href="#o" x="1265.5" y="145.5"/>
        <use href="#lu" x="1265.5" y="185.5"/>
        <use href="#ju" x="1245.5" y="225.5"/>
        <use href="#lu" x="1185.5" y="225.5"/>
        <use href="#o" x="1185.5" y="265.5"/>
        <use href="#o" x="1225.5" y="245.5"/>
        <use href="#iv" x="1285.5" y="245.5"/>
        <use href="#iv" x="1145.5" y="265.5"/>
        <use href="#ih" x="1265.5" y="285.5"/>
        <use href="#ih" x="1185.5" y="305.5"/>
        <use href="#ih" x="1065.5" y="85.5"/>
        <use href="#ld" x="1005.5" y="125.5"/>
        <use href="#o" x="1025.5" y="145.5"/>
        <use href="#ju" x="1005.5" y="185.5"/>
        <use href="#jd" x="1105.5" y="105.5"/>
        <use href="#o" x="1125.5" y="145.5"/>
        <use href="#lu" x="1105.5" y="205.5"/>
        <use href="#ju" x="1085.5" y="225.5"/>
        <use href="#lu" x="1025.5" y="225.5"/>
        <use href="#o" x="1025.5" y="245.5"/>
        <use href="#o" x="1065.5" y="245.5"/>
        <use href="#iv" x="1125.5" y="265.5"/>
        <use href="#iv" x="985.5" y="245.5"/>
        <use href="#ih" x="1105.5" y="305.5"/>
        <use href="#ih" x="1025.5" y="285.5"/>
        <use href="#ld" x="1245.5" y="305.5"/>
        <use href="#jd" x="1025.5" y="305.5"/>
        <use href="#ih" x="1145.5" y="325.5"/>
        <use href="#iv" x="1265.5" y="365.5"/>
        <use href="#iv" x="1005.5" y="365.5"/>
        <use href="#ih" x="1185.5" y="345.5"/>
        <use href="#ih" x="1105.5" y="345.5"/>
        <use href="#o" x="1245.5" y="365.5"/>
        <use href="#o" x="1205.5" y="365.5"/>
        <use href="#o" x="1045.5" y="365.5"/>
        <use href="#o" x="1085.5" y="365.5"/>
        <use href="#ju" x="1165.5" y="425.5"/>
        <use href="#lu" x="1105.5" y="425.5"/>
        <use href="#o" x="1105.5" y="445.5"/>
        <use href="#o" x="1145.5" y="445.5"/>
        <use href="#ih" x="1245.5" y="405.5"/>
        <use href="#ih" x="1045.5" y="405.5"/>
        <use href="#jr" x="1205.5" y="445.5"/>
        <use href="#ll" x="1065.5" y="445.5"/>
        <use href="#ih" x="1185.5" y="485.5"/>
        <use href="#ih" x="1105.5" y="485.5"/>
        <use href="#ih" x="265.5" y="105.5"/>
        <use href="#ld" x="205.5" y="125.5"/>
        <use href="#o" x="225.5" y="145.5"/>
        <use href="#ju" x="205.5" y="185.5"/>
        <use href="#jd" x="305.5" y="125.5"/>
        <use href="#o" x="305.5" y="145.5"/>
        <use href="#lu" x="305.5" y="185.5"/>
        <use href="#ju" x="285.5" y="205.5"/>
        <use href="#lu" x="225.5" y="205.5"/>
        <use href="#o" x="265.5" y="225.5"/>
        <use href="#o" x="265.5" y="265.5"/>
        <use href="#iv" x="325.5" y="265.5"/>
        <use href="#iv" x="185.5" y="265.5"/>
        <use href="#ih" x="305.5" y="305.5"/>
        <use href="#ih" x="225.5" y="305.5"/>
        <use href="#ih" x="105.5" y="105.5"/>
        <use href="#ld" x="45.5" y="125.5"/>
        <use href="#o" x="65.5" y="145.5"/>
        <use href="#ju" x="45.5" y="185.5"/>
        <use href="#jd" x="145.5" y="125.5"/>
        <use href="#o" x="145.5" y="145.5"/>
        <use href="#lu" x="145.5" y="185.5"/>
        <use href="#ju" x="125.5" y="205.5"/>
        <use href="#lu" x="65.5" y="205.5"/>
        <use href="#o" x="105.5" y="225.5"/>
        <use href="#o" x="105.5" y="265.5"/>
        <use href="#iv" x="165.5" y="265.5"/>
        <use href="#iv" x="25.5" y="265.5"/>
        <use href="#ih" x="145.5" y="305.5"/>
        <use href="#ih" x="65.5" y="305.5"/>
        <use href="#ld" x="285.5" y="325.5"/>
        <use href="#jd" x="65.5" y="325.5"/>
        <use href="#ih" x="185.5" y="325.5"/>
        <use href="#iv" x="305.5" y="385.5"/>
        <use href="#iv" x="45.5" y="385.5"/>
        <use href="#ih" x="225.5" y="345.5"/>
        <use href="#ih" x="145.5" y="345.5"/>
        <use href="#o" x="285.5" y="385.5"/>
        <use href="#o" x="245.5" y="365.5"/>
        <use href="#o" x="85.5" y="385.5"/>
        <use href="#o" x="125.5" y="365.5"/>
        <use href="#ju" x="205.5" y="405.5"/>
        <use href="#lu" x="145.5" y="405.5"/>
        <use href="#o" x="185.5" y="425.5"/>
        <use href="#o" x="185.5" y="465.5"/>
        <use href="#ih" x="285.5" y="425.5"/>
        <use href="#ih" x="85.5" y="425.5"/>
        <use href="#jr" x="245.5" y="465.5"/>
        <use href="#ll" x="105.5" y="465.5"/>
        <use href="#ih" x="225.5" y="505.5"/>
        <use href="#ih" x="145.5" y="505.5"/>
        <use href="#ih" x="905.5" y="85.5"/>
        <use href="#ld" x="845.5" y="125.5"/>
        <use href="#o" x="865.5" y="145.5"/>
        <use href="#ju" x="845.5" y="185.5"/>
        <use href="#jd" x="945.5" y="105.5"/>
        <use href="#o" x="965.5" y="145.5"/>
        <use href="#lu" x="945.5" y="205.5"/>
        <use href="#ju" x="925.5" y="225.5"/>
        <use href="#lu" x="865.5" y="225.5"/>
        <use href="#o" x="865.5" y="245.5"/>
        <use href="#o" x="905.5" y="245.5"/>
        <use href="#iv" x="965.5" y="265.5"/>
        <use href="#iv" x="825.5" y="245.5"/>
        <use href="#ih" x="945.5" y="305.5"/>
        <use href="#ih" x="865.5" y="285.5"/>
        <use href="#ih" x="745.5" y="105.5"/>
        <use href="#ld" x="685.5" y="125.5"/>
        <use href="#o" x="705.5" y="145.5"/>
        <use href="#ju" x="685.5" y="185.5"/>
        <use href="#jd" x="785.5" y="125.5"/>
        <use href="#o" x="785.5" y="145.5"/>
        <use href="#lu" x="785.5" y="185.5"/>
        <use href="#ju" x="765.5" y="225.5"/>
        <use href="#lu" x="705.5" y="225.5"/>
        <use href="#o" x="705.5" y="245.5"/>
        <use href="#o" x="745.5" y="245.5"/>
        <use href="#iv" x="805.5" y="245.5"/>
        <use href="#iv" x="665.5" y="245.5"/>
        <use href="#ih" x="785.5" y="285.5"/>
        <use href="#ih" x="705.5" y="285.5"/>
        <use href="#ld" x="925.5" y="325.5"/>
        <use href="#jd" x="705.5" y="305.5"/>
        <use href="#ih" x="825.5" y="305.5"/>
        <use href="#iv" x="945.5" y="385.5"/>
        <use href="#iv" x="685.5" y="365.5"/>
        <use href="#ih" x="865.5" y="325.5"/>
        <use href="#ih" x="785.5" y="345.5"/>
        <use href="#o" x="885.5" y="345.5"/>
        <use href="#o" x="885.5" y="385.5"/>
        <use href="#o" x="725.5" y="365.5"/>
        <use href="#o" x="765.5" y="365.5"/>
        <use href="#ju" x="845.5" y="425.5"/>
        <use href="#lu" x="785.5" y="425.5"/>
        <use href="#o" x="785.5" y="445.5"/>
        <use href="#o" x="825.5" y="445.5"/>
        <use href="#ih" x="925.5" y="425.5"/>
        <use href="#ih" x="725.5" y="405.5"/>
        <use href="#jr" x="885.5" y="465.5"/>
        <use href="#ll" x="745.5" y="445.5"/>
        <use href="#ih" x="865.5" y="505.5"/>
        <use href="#ih" x="785.5" y="485.5"/>
        <use href="#ih" x="585.5" y="105.5"/>
        <use href="#ld" x="525.5" y="125.5"/>
        <use href="#o" x="545.5" y="145.5"/>
        <use href="#ju" x="525.5" y="185.5"/>
        <use href="#jd" x="625.5" y="125.5"/>
        <use href="#o" x="625.5" y="145.5"/>
        <use href="#lu" x="625.5" y="185.5"/>
        <use href="#ju" x="605.5" y="225.5"/>
        <use href="#lu" x="545.5" y="225.5"/>
        <use href="#o" x="545.5" y="245.5"/>
        <use href="#o" x="585.5" y="245.5"/>
        <use href="#iv" x="645.5" y="245.5"/>
        <use href="#iv" x="505.5" y="245.5"/>
        <use href="#ih" x="625.5" y="285.5"/>
        <use href="#ih" x="545.5" y="285.5"/>
        <use href="#ih" x="425.5" y="85.5"/>
        <use href="#ld" x="365.5" y="105.5"/>
        <use href="#o" x="365.5" y="145.5"/>
        <use href="#ju" x="365.5" y="205.5"/>
        <use href="#jd" x="465.5" y="125.5"/>
        <use href="#o" x="465.5" y="145.5"/>
        <use href="#lu" x="465.5" y="185.5"/>
        <use href="#ju" x="445.5" y="225.5"/>
        <use href="#lu" x="385.5" y="225.5"/>
        <use href="#o" x="385.5" y="265.5"/>
        <use href="#o" x="425.5" y="245.5"/>
        <use href="#iv" x="485.5" y="245.5"/>
        <use href="#iv" x="345.5" y="265.5"/>
        <use href="#ih" x="465.5" y="285.5"/>
        <use href="#ih" x="385.5" y="305.5"/>
        <use href="#ld" x="605.5" y="305.5"/>
        <use href="#jd" x="385.5" y="325.5"/>
        <use href="#ih" x="505.5" y="305.5"/>
        <use href="#iv" x="625.5" y="365.5"/>
        <use href="#iv" x="365.5" y="385.5"/>
        <use href="#ih" x="545.5" y="345.5"/>
        <use href="#ih" x="465.5" y="325.5"/>
        <use href="#o" x="605.5" y="365.5"/>
        <use href="#o" x="565.5" y="365.5"/>
        <use href="#o" x="445.5" y="345.5"/>
        <use href="#o" x="445.5" y="385.5"/>
        <use href="#ju" x="525.5" y="425.5"/>
        <use href="#lu" x="465.5" y="425.5"/>
        <use href="#o" x="465.5" y="465.5"/>
        <use href="#o" x="505.5" y="445.5"/>
        <use href="#ih" x="605.5" y="405.5"/>
        <use href="#ih" x="405.5" y="425.5"/>
        <use href="#jr" x="565.5" y="445.5"/>
        <use href="#ll" x="425.5" y="465.5"/>
        <use href="#ih" x="545.5" y="485.5"/>
        <use href="#ih" x="465.5" y="505.5"/>
    </g>
</svg>