<?xml version="1.0"?>
<?xml-stylesheet type="text/css" href="svg.css"?>
<svg width="815.5" height="175.5" xmlns="http://www.w3.org/2000/svg" xmlns:xlink="http://www.w3.org/1999/xlink">
    <defs>
        <polygon id="td" points="-30,-10 29,-10 29,9 9,9 9,29 -10,29 -10,9 -30,9" class="t"/>
        <polygon id="tl" points="-10,-30 9,-30 9,29 -10,29 -10,9 -30,9 -30,-10 -10,-10" class="t"/>
        <polygon id="tu" points="-10,-30 9,-30 9,-10 29,-10 29,9 -30,9 -30,-10 -10,-10" class="t"/>
        <polygon id="tr" points="-10,-30 9,-30 9,-10 29,-10 29,9 9,9 9,29 -10,29" class="t"/>
        <polygon id="jd" points="-30,-10 29,-10 29,29 10,29 10,9 -30,9" class="j"/>
        <polygon id="jl" points="-10,-30 9,-30 9,29 -30,29 -30,10 -10,10" class="j"/>
        <polygon id="ju" points="-30,-30 -11,-30 -11,-10 29,-10 29,9 -30,9" class="j"/>
        <polygon id="jr" points="-10,-30 29,-30 29,-11 9,-11 9,29 -10,29" class="j"/>
        <polygon id="zh" points="-30,-10 9,-10 9,10 29,10 29,29 -10,29 -10,9 -30,9" class="z"/>
        <polygon id="zv" points="10,-30 29,-30 29,9 9,9 9,29 -10,29 -10,-10 10,-10" class="z"/>
        <polygon id="o" points="-30,-10 9,-10 9,29 -30,29" class="o"/>
        <polygon id="sh" points="-10,-10 29,-10 29,9 9,9 9,29 -30,29 -30,10 -10,10" class="s"/>
        <polygon id="sv" points="-10,-30 9,-30 9,-10 29,-10 29,29 10,29 10,9 -10,9" class="s"/>
        <polygon id="ld" points="-30,-10 29,-10 29,9 -11,9 -11,29 -30,29" class="l"/>
        <polygon id="ll" points="-30,-30 9,-30 9,29 -10,29 -10,-11 -30,-11" class="l"/>
        <polygon id="lu" points="10,-30 29,-30 29,9 -30,9 -30,-10 10,-10" class="l"/>
        <polygon id="lr" points="-10,-30 9,-30 9,10 29,10 29,29 -10,29" class="l"/>
        <polygon id="ih" points="-50,-10 29,-10 29,9 -50,9" class="i"/>
        <polygon id="iv" points="-10,-50 9,-50 9,29 -10,29" class="i"/>
    </defs>
    <g transform="scale(0.5)">
        <line x1="15.5" y1="35.5" x2="1615.5" y2="35.5" class="grid" vector-effect="non-scaling-stroke"/>
        <line x1="15.5" y1="55.5" x2="1615.5" y2="55.5" class="grid" vector-effect="non-scaling-stroke"/>
        <line x1="15.5" y1="75.5" x2="1615.5" y2="75.5" class="grid" vector-effect="non-scaling-stroke"/>
        <line x1="15.5" y1="95.5" x2="1615.5" y2="95.5" class="grid" vector-effect="non-scaling-stroke"/>
        <line x1="15.5" y1="115.5" x2="1615.5" y2="115.5" class="grid" vector-effect="non-scaling-stroke"/>
        <line x1="15.5" y1="135.5" x2="1615.5" y2="135.5" class="grid" vector-effect="non-scaling-stroke"/>
        <line x1="15.5" y1="155.5" x2="1615.5" y2="155.5" class="grid" vector-effect="non-scaling-stroke"/>
        <line x1="15.5" y1="175.5" x2="1615.5" y2="175.5" class="grid" vector-effect="non-scaling-stroke"/>
        <line x1="15.5" y1="195.5" x2="1615.5" y2="195.5" class="grid" vector-effect="non-scaling-stroke"/>
        <line x1="15.5" y1="215.5" x2="1615.5" y2="215.5" class="grid" vector-effect="non-scaling-stroke"/>
        <line x1="15.5" y1="235.5" x2="1615.5" y2="235.5" class="grid" vector-effect="non-scaling-stroke"/>
        <line x1="15.5" y1="255.5" x2="1615.5" y2="255.5" class="grid" vector-effect="non-scaling-stroke"/>
        <line x1="15.5" y1="275.5" x2="1615.5" y2="275.5" class="grid" vector-effect="non-scaling-stroke"/>
        <line x1="15.5" y1="295.5" x2="1615.5" y2="295.5" class="grid" vector-effect="non-scaling-stroke"/>
        <line x1="15.5" y1="315.5" x2="1615.5" y2="315.5" class="grid" vector-effect="non-scaling-stroke"/>
        <line x1="15.5" y1="36.5" x2="15.5" y2="314.5" class="grid" vector-effect="non-scaling-stroke"/>
        <line x1="35.5" y1="36.5" x2="35.5" y2="314.5" class="grid" vector-effect="non-scaling-stroke"/>
        <line x1="55.5" y1="36.5" x2="55.5" y2="314.5" class="grid" vector-effect="non-scaling-stroke"/>
        <line x1="75.5" y1="36.5" x2="75.5" y2="314.5" class="grid" vector-effect="non-scaling-stroke"/>
        <line x1="95.5" y1="36.5" x2="95.5" y2="314.5" class="grid" vector-effect="non-scaling-stroke"/>
        <line x1="115.5" y1="36.5" x2="115.5" y2="314.5" class="grid" vector-effect="non-scaling-stroke"/>
        <line x1="135.5" y1="36.5" x2="135.5" y2="314.5" class="grid" vector-effect="non-scaling-stroke"/>
        <line x1="155.5" y1="36.5" x2="155.5" y2="314.5" class="grid" vector-effect="non-scaling-stroke"/>
        <line x1="175.5" y1="36.5" x2="175.5" y2="314.5" class="grid" vector-effect="non-scaling-stroke"/>
        <line x1="195.5" y1="36.5" x2="195.5" y2="314.5" class="grid" vector-effect="non-scaling-stroke"/>
        <line x1="215.5" y1="36.5" x2="215.5" y2="314.5" class="grid" vector-effect="non-scaling-stroke"/>
        <line x1="235.5" y1="36.5" x2="235.5" y2="314.5" class="grid" vector-effect="non-scaling-stroke"/>
        <line x1="255.5" y1="36.5" x2="255.5" y2="314.5" class="grid" vector-effect="non-scaling-stroke"/>
        <line x1="275.5" y1="36.5" x2="275.5" y2="314.5" class="grid" vector-effect="non-scaling-stroke"/>
        <line x1="295.5" y1="36.5" x2="295.5" y2="314.5" class="grid" vector-effect="non-scaling-stroke"/>
        <line x1="315.5" y1="36.5" x2="315.5" y2="314.5" class="grid" vector-effect="non-scaling-stroke"/>
        <line x1="335.5" y1="36.5" x2="335.5" y2="314.5" class="grid" vector-effect="non-scaling-stroke"/>
        <line x1="355.5" y1="36.5" x2="355.5" y2="314.5" class="grid" vector-effect="non-scaling-stroke"/>
        <line x1="375.5" y1="36.5" x2="375.5" y2="314.5" class="grid" vector-effect="non-scaling-stroke"/>
        <line x1="395.5" y1="36.5" x2="395.5" y2="314.5" class="grid" vector-effect="non-scaling-stroke"/>
        <line x1="415.5" y1="36.5" x2="415.5" y2="314.5" class="grid" vector-effect="non-scaling-stroke"/>
        <line x1="435.5" y1="36.5" x2="435.5" y2="314.5" class="grid" vector-effect="non-scaling-stroke"/>
        <line x1="455.5" y1="36.5" x2="455.5" y2="314.5" class="grid" vector-effect="non-scaling-stroke"/>
        <line x1="475.5" y1="36.5" x2="475.5" y2="314.5" class="grid" vector-effect="non-scaling-stroke"/>
        <line x1="495.5" y1="36.5" x2="495.5" y2="314.5" class="grid" vector-effect="non-scaling-stroke"/>
        <line x1="515.5" y1="36.5" x2="515.5" y2="314.5" class="grid" vector-effect="non-scaling-stroke"/>
        <line x1="535.5" y1="36.5" x2="535.5" y2="314.5" class="grid" vector-effect="non-scaling-stroke"/>
        <line x1="555.5" y1="36.5" x2="555.5" y2="314.5" class="grid" vector-effect="non-scaling-stroke"/>
        <line x1="575.5" y1="36.5" x2="575.5" y2="314.5" class="grid" vector-effect="non-scaling-stroke"/>
        <line x1="595.5" y1="36.5" x2="595.5" y2="314.5" class="grid" vector-effect="non-scaling-stroke"/>
        <line x1="615.5" y1="36.5" x2="615.5" y2="314.5" class="grid" vector-effect="non-scaling-stroke"/>
        <line x1="635.5" y1="36.5" x2="635.5" y2="314.5" class="grid" vector-effect="non-scaling-stroke"/>
        <line x1="655.5" y1="36.5" x2="655.5" y2="314.5" class="grid" vector-effect="non-scaling-stroke"/>
        <line x1="675.5" y1="36.5" x2="675.5" y2="314.5" class="grid" vector-effect="non-scaling-stroke"/>
        <line x1="695.5" y1="36.5" x2="695.5" y2="314.5" class="grid" vector-effect="non-scaling-stroke"/>
        <line x1="715.5" y1="36.5" x2="715.5" y2="314.5" class="grid" vector-effect="non-scaling-stroke"/>
        <line x1="735.5" y1="36.5" x2="735.5" y2="314.5" class="grid" vector-effect="non-scaling-stroke"/>
        <line x1="755.5" y1="36.5" x2="755.5" y2="314.5" class="grid" vector-effect="non-scaling-stroke"/>
        <line x1="775.5" y1="36.5" x2="775.5" y2="314.5" class="grid" vector-effect="non-scaling-stroke"/>
        <line x1="795.5" y1="36.5" x2="795.5" y2="314.5" class="grid" vector-effect="non-scaling-stroke"/>
        <line x1="815.5" y1="36.5" x2="815.5" y2="314.5" class="grid" vector-effect="non-scaling-stroke"/>
        <line x1="835.5" y1="36.5" x2="835.5" y2="314.5" class="grid" vector-effect="non-scaling-stroke"/>
        <line x1="855.5" y1="36.5" x2="855.5" y2="314.5" class="grid" vector-effect="non-scaling-stroke"/>
        <line x1="875.5" y1="36.5" x2="875.5" y2="314.5" class="grid" vector-effect="non-scaling-stroke"/>
        <line x1="895.5" y1="36.5" x2="895.5" y2="314.5" class="grid" vector-effect="non-scaling-stroke"/>
        <line x1="915.5" y1="36.5" x2="915.5" y2="314.5" class="grid" vector-effect="non-scaling-stroke"/>
        <line x1="935.5" y1="36.5" x2="935.5" y2="314.5" class="grid" vector-effect="non-scaling-stroke"/>
        <line x1="955.5" y1="36.5" x2="955.5" y2="314.5" class="grid" vector-effect="non-scaling-stroke"/>
        <line x1="975.5" y1="36.5" x2="975.5" y2="314.5" class="grid" vector-effect="non-scaling-stroke"/>
        <line x1="995.5" y1="36.5" x2="995.5" y2="314.5" class="grid" vector-effect="non-scaling-stroke"/>
        <line x1="1015.5" y1="36.5" x2="1015.5" y2="314.5" class="grid" vector-effect="non-scaling-stroke"/>
        <line x1="1035.5" y1="36.5" x2="1035.5" y2="314.5" class="grid" vector-effect="non-scaling-stroke"/>
        <line x1="1055.5" y1="36.5" x2="1055.5" y2="314.5" class="grid" vector-effect="non-scaling-stroke"/>
        <line x1="1075.5" y1="36.5" x2="1075.5" y2="314.5" class="grid" vector-effect="non-scaling-stroke"/>
        <line x1="1095.5" y1="36.5" x2="1095.5" y2="314.5" class="grid" vector-effect="non-scaling-stroke"/>
        <line x1="1115.5" y1="36.5" x2="1115.5" y2="314.5" class="grid" vector-effect="non-scaling-stroke"/>
        <line x1="1135.5" y1="36.5" x2="1135.5" y2="314.5" class="grid" vector-effect="non-scaling-stroke"/>
        <line x1="1155.5" y1="36.5" x2="1155.5" y2="314.5" class="grid" vector-effect="non-scaling-stroke"/>
        <line x1="1175.5" y1="36.5" x2="1175.5" y2="314.5" class="grid" vector-effect="non-scaling-stroke"/>
        <line x1="1195.5" y1="36.5" x2="1195.5" y2="314.5" class="grid" vector-effect="non-scaling-stroke"/>
        <line x1="1215.5" y1="36.5" x2="1215.5" y2="314.5" class="grid" vector-effect="non-scaling-stroke"/>
        <line x1="1235.5" y1="36.5" x2="1235.5" y2="314.5" class="grid" vector-effect="non-scaling-stroke"/>
        <line x1="1255.5" y1="36.5" x2="1255.5" y2="314.5" class="grid" vector-effect="non-scaling-stroke"/>
        <line x1="1275.5" y1="36.5" x2="1275.5" y2="314.5" class="grid" vector-effect="non-scaling-stroke"/>
        <line x1="1295.5" y1="36.5" x2="1295.5" y2="314.5" class="grid" vector-effect="non-scaling-stroke"/>
        <line x1="1315.5" y1="36.5" x2="1315.5" y2="314.5" class="grid" vector-effect="non-scaling-stroke"/>
        <line x1="1335.5" y1="36.5" x2="1335.5" y2="314.5" class="grid" vector-effect="non-scaling-stroke"/>
        <line x1="1355.5" y1="36.5" x2="1355.5" y2="314.5" class="grid" vector-effect="non-scaling-stroke"/>
        <line x1="1375.5" y1="36.5" x2="1375.5" y2="314.5" class="grid" vector-effect="non-scaling-stroke"/>
        <line x1="1395.5" y1="36.5" x2="1395.5" y2="314.5" class="grid" vector-effect="non-scaling-stroke"/>
        <line x1="1415.5" y1="36.5" x2="1415.5" y2="314.5" class="grid" vector-effect="non-scaling-stroke"/>
        <line x1="1435.5" y1="36.5" x2="1435.5" y2="314.5" class="grid" vector-effect="non-scaling-stroke"/>
        <line x1="1455.5" y1="36.5" x2="1455.5" y2="314.5" class="grid" vector-effect="non-scaling-stroke"/>
        <line x1="1475.5" y1="36.5" x2="1475.5" y2="314.5" class="grid" vector-effect="non-scaling-stroke"/>
        <line x1="1495.5" y1="36.5" x2="1495.5" y2="314.5" class="grid" vector-effect="non-scaling-stroke"/>
        <line x1="1515.5" y1="36.5" x2="1515.5" y2="314.5" class="grid" vector-effect="non-scaling-stroke"/>
        <line x1="1535.5" y1="36.5" x2="1535.5" y2="314.5" class="grid" vector-effect="non-scaling-stroke"/>
        <line x1="1555.5" y1="36.5" x2="1555.5" y2="314.5" class="grid" vector-effect="non-scaling-stroke"/>
        <line x1="1575.5" y1="36.5" x2="1575.5" y2="314.5" class="grid" vector-effect="non-scaling-stroke"/>
        <line x1="1595.5" y1="36.5" x2="1595.5" y2="314.5" class="grid" vector-effect="non-scaling-stroke"/>
        <line x1="1615.5" y1="36.5" x2="1615.5" y2="314.5" class="grid" vector-effect="non-scaling-stroke"/>
        <g style="font-size: 20px;">
            <rect x="1515.5" y="275.5" width="19" height="39" class="terminal-fill"/>
            <rect x="1515.5" y="275.5" width="19" height="39" class="terminal-stroke"/>
            <text x="1525.5" y="328" class="terminals" dy="0.25em" text-anchor="middle">1</text>
            <rect x="1315.5" y="295.5" width="19" height="19" class="terminal-fill"/>
            <rect x="1315.5" y="275.5" width="19" height="39" class="terminal-stroke"/>
            <text x="1325.5" y="328" class="terminals" dy="0.25em" text-anchor="middle">0</text>
            <rect x="1115.5" y="275.5" width="19" height="39" class="terminal-fill"/>
            <rect x="1115.5" y="275.5" width="19" height="39" class="terminal-stroke"/>
            <text x="1125.5" y="328" class="terminals" dy="0.25em" text-anchor="middle">1</text>
            <rect x="915.5" y="295.5" width="19" height="19" class="terminal-fill"/>
            <rect x="915.5" y="275.5" width="19" height="39" class="terminal-stroke"/>
            <text x="925.5" y="328" class="terminals" dy="0.25em" text-anchor="middle">0</text>
            <rect x="715.5" y="275.5" width="19" height="39" class="terminal-fill"/>
            <rect x="715.5" y="275.5" width="19" height="39" class="terminal-stroke"/>
            <text x="725.5" y="328" class="terminals" dy="0.25em" text-anchor="middle">1</text>
            <rect x="515.5" y="295.5" width="19" height="19" class="terminal-fill"/>
            <rect x="515.5" y="275.5" width="19" height="39" class="terminal-stroke"/>
            <text x="525.5" y="328" class="terminals" dy="0.25em" text-anchor="middle">0</text>
            <rect x="315.5" y="275.5" width="19" height="39" class="terminal-fill"/>
            <rect x="315.5" y="275.5" width="19" height="39" class="terminal-stroke"/>
            <text x="325.5" y="328" class="terminals" dy="0.25em" text-anchor="middle">1</text>
            <rect x="115.5" y="295.5" width="19" height="19" class="terminal-fill"/>
            <rect x="115.5" y="275.5" width="19" height="39" class="terminal-stroke"/>
            <text x="125.5" y="328" class="terminals" dy="0.25em" text-anchor="middle">0</text>
            <rect x="1475.5" y="35.5" width="79" height="39" class="terminal-stroke"/>
            <text x="1515.5" y="25.5" class="terminals" dy="0.25em" text-anchor="middle">0</text>
            <rect x="1275.5" y="35.5" width="79" height="39" class="terminal-stroke"/>
            <text x="1315.5" y="25.5" class="terminals" dy="0.25em" text-anchor="middle">0</text>
            <rect x="1075.5" y="35.5" width="79" height="39" class="terminal-stroke"/>
            <text x="1115.5" y="25.5" class="terminals" dy="0.25em" text-anchor="middle">0</text>
            <rect x="875.5" y="35.5" width="79" height="39" class="terminal-stroke"/>
            <text x="915.5" y="25.5" class="terminals" dy="0.25em" text-anchor="middle">0</text>
            <rect x="675.5" y="35.5" width="79" height="39" class="terminal-stroke"/>
            <text x="715.5" y="25.5" class="terminals" dy="0.25em" text-anchor="middle">0</text>
            <rect x="475.5" y="35.5" width="79" height="39" class="terminal-stroke"/>
            <text x="515.5" y="25.5" class="terminals" dy="0.25em" text-anchor="middle">0</text>
            <rect x="275.5" y="35.5" width="79" height="39" class="terminal-stroke"/>
            <text x="315.5" y="25.5" class="terminals" dy="0.25em" text-anchor="middle">0</text>
            <rect x="75.5" y="35.5" width="79" height="39" class="terminal-stroke"/>
            <text x="115.5" y="25.5" class="terminals" dy="0.25em" text-anchor="middle">0</text>
        </g>
        <use href="#ih" x="1525.5" y="65.5"/>
        <use href="#ld" x="1465.5" y="85.5"/>
        <use href="#o" x="1485.5" y="105.5"/>
        <use href="#ju" x="1465.5" y="145.5"/>
        <use href="#jd" x="1565.5" y="85.5"/>
        <use href="#o" x="1565.5" y="105.5"/>
        <use href="#lu" x="1565.5" y="145.5"/>
        <use href="#ju" x="1545.5" y="185.5"/>
        <use href="#lu" x="1485.5" y="185.5"/>
        <use href="#o" x="1485.5" y="205.5"/>
        <use href="#o" x="1525.5" y="205.5"/>
        <use href="#iv" x="1585.5" y="205.5"/>
        <use href="#iv" x="1445.5" y="205.5"/>
        <use href="#ih" x="1565.5" y="245.5"/>
        <use href="#ih" x="1485.5" y="245.5"/>
        <use href="#ih" x="1525.5" y="265.5"/>
        <use href="#ih" x="1325.5" y="65.5"/>
        <use href="#ld" x="1265.5" y="85.5"/>
        <use href="#o" x="1285.5" y="105.5"/>
        <use href="#ju" x="1265.5" y="145.5"/>
        <use href="#jd" x="1365.5" y="85.5"/>
        <use href="#o" x="1365.5" y="105.5"/>
        <use href="#lu" x="1365.5" y="145.5"/>
        <use href="#ju" x="1345.5" y="165.5"/>
        <use href="#lu" x="1285.5" y="165.5"/>
        <use href="#o" x="1325.5" y="185.5"/>
        <use href="#o" x="1325.5" y="225.5"/>
        <use href="#iv" x="1385.5" y="225.5"/>
        <use href="#iv" x="1245.5" y="225.5"/>
        <use href="#ih" x="1365.5" y="265.5"/>
        <use href="#ih" x="1285.5" y="265.5"/>
        <use href="#ih" x="1325.5" y="285.5"/>
        <use href="#ih" x="1125.5" y="65.5"/>
        <use href="#ld" x="1065.5" y="85.5"/>
        <use href="#o" x="1085.5" y="105.5"/>
        <use href="#ju" x="1065.5" y="145.5"/>
        <use href="#jd" x="1165.5" y="85.5"/>
        <use href="#o" x="1165.5" y="105.5"/>
        <use href="#lu" x="1165.5" y="145.5"/>
        <use href="#ju" x="1145.5" y="185.5"/>
        <use href="#lu" x="1085.5" y="185.5"/>
        <use href="#o" x="1085.5" y="205.5"/>
        <use href="#o" x="1125.5" y="205.5"/>
        <use href="#iv" x="1185.5" y="205.5"/>
        <use href="#iv" x="1045.5" y="205.5"/>
        <use href="#ih" x="1165.5" y="245.5"/>
        <use href="#ih" x="1085.5" y="245.5"/>
        <use href="#ih" x="1125.5" y="265.5"/>
        <use href="#ih" x="925.5" y="65.5"/>
        <use href="#ld" x="865.5" y="85.5"/>
        <use href="#o" x="885.5" y="105.5"/>
        <use href="#ju" x="865.5" y="145.5"/>
        <use href="#jd" x="965.5" y="85.5"/>
        <use href="#o" x="965.5" y="105.5"/>
        <use href="#lu" x="965.5" y="145.5"/>
        <use href="#ju" x="945.5" y="165.5"/>
        <use href="#lu" x="885.5" y="165.5"/>
        <use href="#o" x="925.5" y="185.5"/>
        <use href="#o" x="925.5" y="225.5"/>
        <use href="#iv" x="985.5" y="225.5"/>
        <use href="#iv" x="845.5" y="225.5"/>
        <use href="#ih" x="965.5" y="265.5"/>
        <use href="#ih" x="885.5" y="265.5"/>
        <use href="#ih" x="925.5" y="285.5"/>
        <use href="#ih" x="725.5" y="65.5"/>
        <use href="#ld" x="665.5" y="85.5"/>
        <use href="#o" x="685.5" y="105.5"/>
        <use href="#ju" x="665.5" y="145.5"/>
        <use href="#jd" x="765.5" y="85.5"/>
        <use href="#o" x="765.5" y="105.5"/>
        <use href="#lu" x="765.5" y="145.5"/>
        <use href="#ju" x="745.5" y="185.5"/>
        <use href="#lu" x="685.5" y="185.5"/>
        <use href="#o" x="685.5" y="205.5"/>
        <use href="#o" x="725.5" y="205.5"/>
        <use href="#iv" x="785.5" y="205.5"/>
        <use href="#iv" x="645.5" y="205.5"/>
        <use href="#ih" x="765.5" y="245.5"/>
        <use href="#ih" x="685.5" y="245.5"/>
        <use href="#ih" x="725.5" y="265.5"/>
        <use href="#ih" x="525.5" y="65.5"/>
        <use href="#ld" x="465.5" y="85.5"/>
        <use href="#o" x="485.5" y="105.5"/>
        <use href="#ju" x="465.5" y="145.5"/>
        <use href="#jd" x="565.5" y="85.5"/>
        <use href="#o" x="565.5" y="105.5"/>
        <use href="#lu" x="565.5" y="145.5"/>
        <use href="#ju" x="545.5" y="165.5"/>
        <use href="#lu" x="485.5" y="165.5"/>
        <use href="#o" x="525.5" y="185.5"/>
        <use href="#o" x="525.5" y="225.5"/>
        <use href="#iv" x="585.5" y="225.5"/>
        <use href="#iv" x="445.5" y="225.5"/>
        <use href="#ih" x="565.5" y="265.5"/>
        <use href="#ih" x="485.5" y="265.5"/>
        <use href="#ih" x="525.5" y="285.5"/>
        <use href="#ih" x="325.5" y="65.5"/>
        <use href="#ld" x="265.5" y="85.5"/>
        <use href="#o" x="285.5" y="105.5"/>
        <use href="#ju" x="265.5" y="145.5"/>
        <use href="#jd" x="365.5" y="85.5"/>
        <use href="#o" x="365.5" y="105.5"/>
        <use href="#lu" x="365.5" y="145.5"/>
        <use href="#ju" x="345.5" y="185.5"/>
        <use href="#lu" x="285.5" y="185.5"/>
        <use href="#o" x="285.5" y="205.5"/>
        <use href="#o" x="325.5" y="205.5"/>
        <use href="#iv" x="385.5" y="205.5"/>
        <use href="#iv" x="245.5" y="205.5"/>
        <use href="#ih" x="365.5" y="245.5"/>
        <use href="#ih" x="285.5" y="245.5"/>
        <use href="#ih" x="325.5" y="265.5"/>
        <use href="#ih" x="125.5" y="65.5"/>
        <use href="#ld" x="65.5" y="85.5"/>
        <use href="#o" x="85.5" y="105.5"/>
        <use href="#ju" x="65.5" y="145.5"/>
        <use href="#jd" x="165.5" y="85.5"/>
        <use href="#o" x="165.5" y="105.5"/>
        <use href="#lu" x="165.5" y="145.5"/>
        <use href="#ju" x="145.5" y="165.5"/>
        <use href="#lu" x="85.5" y="165.5"/>
        <use href="#o" x="125.5" y="185.5"/>
        <use href="#o" x="125.5" y="225.5"/>
        <use href="#iv" x="185.5" y="225.5"/>
        <use href="#iv" x="45.5" y="225.5"/>
        <use href="#ih" x="165.5" y="265.5"/>
        <use href="#ih" x="85.5" y="265.5"/>
        <use href="#ih" x="125.5" y="285.5"/>
    </g>    
</svg>