<?xml version="1.0" encoding="UTF-8" standalone="no"?>
<!-- Created with Inkscape (http://www.inkscape.org/) -->

<svg
   width="3000"
   height="3000"
   viewBox="0 0 793.74998 793.75002"
   version="1.1"
   id="svg5"
   inkscape:version="1.1.2 (b8e25be833, 2022-02-05)"
   sodipodi:docname="equal-a-b-e-schematic.svg"
   xmlns:inkscape="http://www.inkscape.org/namespaces/inkscape"
   xmlns:sodipodi="http://sodipodi.sourceforge.net/DTD/sodipodi-0.dtd"
   xmlns="http://www.w3.org/2000/svg"
   xmlns:svg="http://www.w3.org/2000/svg">
  <sodipodi:namedview
     id="namedview7"
     pagecolor="#ffffff"
     bordercolor="#666666"
     borderopacity="1.0"
     inkscape:pageshadow="2"
     inkscape:pageopacity="0.0"
     inkscape:pagecheckerboard="0"
     inkscape:document-units="px"
     showgrid="true"
     inkscape:zoom="0.5"
     inkscape:cx="115"
     inkscape:cy="2370"
     inkscape:window-width="1920"
     inkscape:window-height="1137"
     inkscape:window-x="-8"
     inkscape:window-y="-8"
     inkscape:window-maximized="1"
     inkscape:current-layer="layer1"
     units="px"
     inkscape:snap-others="false"
     inkscape:snap-nodes="true"
     inkscape:snap-object-midpoints="true">
    <inkscape:grid
       type="xygrid"
       id="grid841" />
  </sodipodi:namedview>
  <defs
     id="defs2" />
  <g
     inkscape:label="Layer 1"
     inkscape:groupmode="layer"
     id="layer1">
    <path
       style="display:inline;overflow:visible;visibility:visible;fill:none;fill-opacity:1;stroke:#000000;stroke-width:0.52916667;stroke-linecap:butt;stroke-linejoin:miter;stroke-miterlimit:4;stroke-dasharray:none;stroke-dashoffset:0;stroke-opacity:1;marker:none;enable-background:accumulate"
       d="M 0,52.916667 V 793.75"
       id="path2642-9-5"
       sodipodi:nodetypes="cc" />
    <path
       style="display:inline;overflow:visible;visibility:visible;fill:none;fill-opacity:1;stroke:#000000;stroke-width:0.52916667;stroke-linecap:butt;stroke-linejoin:miter;stroke-miterlimit:4;stroke-dasharray:none;stroke-dashoffset:0;stroke-opacity:1;marker:none;enable-background:accumulate"
       d="M 15.875,52.916614 V 793.75"
       id="path2642-9-5-4"
       sodipodi:nodetypes="cc" />
    <path
       style="display:inline;overflow:visible;visibility:visible;fill:none;fill-opacity:1;stroke:#000000;stroke-width:0.52916667;stroke-linecap:butt;stroke-linejoin:miter;stroke-miterlimit:4;stroke-dasharray:none;stroke-dashoffset:0;stroke-opacity:1;marker:none;enable-background:accumulate"
       d="M 31.75,52.91667 V 793.75"
       id="path2642-9-5-9"
       sodipodi:nodetypes="cc" />
    <path
       style="display:inline;overflow:visible;visibility:visible;fill:none;fill-opacity:1;stroke:#000000;stroke-width:0.52916667;stroke-linecap:butt;stroke-linejoin:miter;stroke-miterlimit:4;stroke-dasharray:none;stroke-dashoffset:0;stroke-opacity:1;marker:none;enable-background:accumulate"
       d="M 47.625,52.91661 V 793.75"
       id="path2642-9-5-4-0"
       sodipodi:nodetypes="cc" />
    <path
       style="display:inline;overflow:visible;visibility:visible;fill:none;fill-opacity:1;stroke:#000000;stroke-width:0.52916667;stroke-linecap:butt;stroke-linejoin:miter;stroke-miterlimit:4;stroke-dasharray:none;stroke-dashoffset:0;stroke-opacity:1;marker:none;enable-background:accumulate"
       d="M 63.500005,52.91667 V 793.75"
       id="path2642-9-5-2"
       sodipodi:nodetypes="cc" />
    <path
       style="display:inline;overflow:visible;visibility:visible;fill:none;fill-opacity:1;stroke:#000000;stroke-width:0.52916667;stroke-linecap:butt;stroke-linejoin:miter;stroke-miterlimit:4;stroke-dasharray:none;stroke-dashoffset:0;stroke-opacity:1;marker:none;enable-background:accumulate"
       d="M 79.375,52.91661 V 793.75"
       id="path2642-9-5-4-2"
       sodipodi:nodetypes="cc" />
    <path
       style="display:inline;overflow:visible;visibility:visible;fill:none;fill-opacity:1;stroke:#000000;stroke-width:0.52916667;stroke-linecap:butt;stroke-linejoin:miter;stroke-miterlimit:4;stroke-dasharray:none;stroke-dashoffset:0;stroke-opacity:1;marker:none;enable-background:accumulate"
       d="M 95.25,52.91667 V 793.75"
       id="path2642-9-5-9-6"
       sodipodi:nodetypes="cc" />
    <path
       style="display:inline;overflow:visible;visibility:visible;fill:none;fill-opacity:1;stroke:#000000;stroke-width:0.52916667;stroke-linecap:butt;stroke-linejoin:miter;stroke-miterlimit:4;stroke-dasharray:none;stroke-dashoffset:0;stroke-opacity:1;marker:none;enable-background:accumulate"
       d="M 111.125,52.91661 V 793.75"
       id="path2642-9-5-4-0-9"
       sodipodi:nodetypes="cc" />
    <path
       style="display:inline;overflow:visible;visibility:visible;fill:none;fill-opacity:1;stroke:#000000;stroke-width:0.52916667;stroke-linecap:butt;stroke-linejoin:miter;stroke-miterlimit:4;stroke-dasharray:none;stroke-dashoffset:0;stroke-opacity:1;marker:none;enable-background:accumulate"
       d="M 127,52.916664 V 793.75"
       id="path2642-9-5-7"
       sodipodi:nodetypes="cc" />
    <path
       style="display:inline;overflow:visible;visibility:visible;fill:none;fill-opacity:1;stroke:#000000;stroke-width:0.52916667;stroke-linecap:butt;stroke-linejoin:miter;stroke-miterlimit:4;stroke-dasharray:none;stroke-dashoffset:0;stroke-opacity:1;marker:none;enable-background:accumulate"
       d="M 142.875,52.916611 V 793.75"
       id="path2642-9-5-4-1"
       sodipodi:nodetypes="cc" />
    <path
       style="display:inline;overflow:visible;visibility:visible;fill:none;fill-opacity:1;stroke:#000000;stroke-width:0.52916667;stroke-linecap:butt;stroke-linejoin:miter;stroke-miterlimit:4;stroke-dasharray:none;stroke-dashoffset:0;stroke-opacity:1;marker:none;enable-background:accumulate"
       d="M 158.75,52.916667 V 793.75"
       id="path2642-9-5-9-0"
       sodipodi:nodetypes="cc" />
    <path
       style="display:inline;overflow:visible;visibility:visible;fill:none;fill-opacity:1;stroke:#000000;stroke-width:0.52916667;stroke-linecap:butt;stroke-linejoin:miter;stroke-miterlimit:4;stroke-dasharray:none;stroke-dashoffset:0;stroke-opacity:1;marker:none;enable-background:accumulate"
       d="M 174.625,52.916607 V 793.75"
       id="path2642-9-5-4-0-6"
       sodipodi:nodetypes="cc" />
    <path
       style="display:inline;overflow:visible;visibility:visible;fill:none;fill-opacity:1;stroke:#000000;stroke-width:0.52916667;stroke-linecap:butt;stroke-linejoin:miter;stroke-miterlimit:4;stroke-dasharray:none;stroke-dashoffset:0;stroke-opacity:1;marker:none;enable-background:accumulate"
       d="M 190.5,52.916667 V 793.75"
       id="path2642-9-5-2-7"
       sodipodi:nodetypes="cc" />
    <path
       style="display:inline;overflow:visible;visibility:visible;fill:none;fill-opacity:1;stroke:#000000;stroke-width:0.52916667;stroke-linecap:butt;stroke-linejoin:miter;stroke-miterlimit:4;stroke-dasharray:none;stroke-dashoffset:0;stroke-opacity:1;marker:none;enable-background:accumulate"
       d="M 206.375,52.916607 V 793.75"
       id="path2642-9-5-4-2-3"
       sodipodi:nodetypes="cc" />
    <path
       style="display:inline;overflow:visible;visibility:visible;fill:none;fill-opacity:1;stroke:#000000;stroke-width:0.52916667;stroke-linecap:butt;stroke-linejoin:miter;stroke-miterlimit:4;stroke-dasharray:none;stroke-dashoffset:0;stroke-opacity:1;marker:none;enable-background:accumulate"
       d="M 222.25,52.916667 V 793.75"
       id="path2642-9-5-9-6-0"
       sodipodi:nodetypes="cc" />
    <path
       style="display:inline;overflow:visible;visibility:visible;fill:none;fill-opacity:1;stroke:#000000;stroke-width:0.52916667;stroke-linecap:butt;stroke-linejoin:miter;stroke-miterlimit:4;stroke-dasharray:none;stroke-dashoffset:0;stroke-opacity:1;marker:none;enable-background:accumulate"
       d="M 238.125,52.916607 V 793.75"
       id="path2642-9-5-4-0-9-1"
       sodipodi:nodetypes="cc" />
    <path
       style="display:inline;overflow:visible;visibility:visible;fill:none;fill-opacity:1;stroke:#000000;stroke-width:0.529167;stroke-linecap:butt;stroke-linejoin:miter;stroke-miterlimit:4;stroke-dasharray:none;stroke-dashoffset:0;stroke-opacity:1;marker:none;enable-background:accumulate"
       d="M 254,789.78125 V 793.75"
       id="path2642-9-5-26"
       sodipodi:nodetypes="cc" />
    <path
       style="display:inline;overflow:visible;visibility:visible;fill:none;fill-opacity:1;stroke:#000000;stroke-width:0.529167;stroke-linecap:butt;stroke-linejoin:miter;stroke-miterlimit:4;stroke-dasharray:none;stroke-dashoffset:0;stroke-opacity:1;marker:none;enable-background:accumulate"
       d="M 269.875,789.78125 V 793.75"
       id="path2642-9-5-4-7"
       sodipodi:nodetypes="cc" />
    <path
       style="display:inline;overflow:visible;visibility:visible;fill:none;fill-opacity:1;stroke:#000000;stroke-width:0.529167;stroke-linecap:butt;stroke-linejoin:miter;stroke-miterlimit:4;stroke-dasharray:none;stroke-dashoffset:0;stroke-opacity:1;marker:none;enable-background:accumulate"
       d="M 285.75,789.78125 V 793.75"
       id="path2642-9-5-9-04"
       sodipodi:nodetypes="cc" />
    <path
       style="display:inline;overflow:visible;visibility:visible;fill:none;fill-opacity:1;stroke:#000000;stroke-width:0.529167;stroke-linecap:butt;stroke-linejoin:miter;stroke-miterlimit:4;stroke-dasharray:none;stroke-dashoffset:0;stroke-opacity:1;marker:none;enable-background:accumulate"
       d="M 301.625,789.78125 V 793.75"
       id="path2642-9-5-4-0-8"
       sodipodi:nodetypes="cc" />
    <path
       style="display:inline;overflow:visible;visibility:visible;fill:none;fill-opacity:1;stroke:#000000;stroke-width:0.529167;stroke-linecap:butt;stroke-linejoin:miter;stroke-miterlimit:4;stroke-dasharray:none;stroke-dashoffset:0;stroke-opacity:1;marker:none;enable-background:accumulate"
       d="M 317.5,789.78125 V 793.75"
       id="path2642-9-5-2-9"
       sodipodi:nodetypes="cc" />
    <path
       style="display:inline;overflow:visible;visibility:visible;fill:none;fill-opacity:1;stroke:#000000;stroke-width:0.529167;stroke-linecap:butt;stroke-linejoin:miter;stroke-miterlimit:4;stroke-dasharray:none;stroke-dashoffset:0;stroke-opacity:1;marker:none;enable-background:accumulate"
       d="M 333.375,789.78125 V 793.75"
       id="path2642-9-5-4-2-0"
       sodipodi:nodetypes="cc" />
    <path
       style="display:inline;overflow:visible;visibility:visible;fill:none;fill-opacity:1;stroke:#000000;stroke-width:0.529167;stroke-linecap:butt;stroke-linejoin:miter;stroke-miterlimit:4;stroke-dasharray:none;stroke-dashoffset:0;stroke-opacity:1;marker:none;enable-background:accumulate"
       d="M 349.25,789.78125 V 793.75"
       id="path2642-9-5-9-6-2"
       sodipodi:nodetypes="cc" />
    <path
       style="display:inline;overflow:visible;visibility:visible;fill:none;fill-opacity:1;stroke:#000000;stroke-width:0.529167;stroke-linecap:butt;stroke-linejoin:miter;stroke-miterlimit:4;stroke-dasharray:none;stroke-dashoffset:0;stroke-opacity:1;marker:none;enable-background:accumulate"
       d="M 365.125,789.78125 V 793.75"
       id="path2642-9-5-4-0-9-8"
       sodipodi:nodetypes="cc" />
    <circle
       style="display:inline;overflow:visible;visibility:visible;fill:#000000;fill-opacity:1;stroke:none;stroke-width:0.718586;stroke-linejoin:miter;stroke-miterlimit:4;stroke-dasharray:none;stroke-opacity:1;marker:none;enable-background:accumulate"
       id="path8944-1"
       cx="-789.78125"
       cy="111.125"
       r="0.66145831"
       transform="rotate(-90)" />
    <circle
       style="display:inline;overflow:visible;visibility:visible;fill:#000000;fill-opacity:1;stroke:none;stroke-width:0.718586;stroke-linejoin:miter;stroke-miterlimit:4;stroke-dasharray:none;stroke-opacity:1;marker:none;enable-background:accumulate"
       id="path8944-1-7"
       cx="-767.29169"
       cy="95.25"
       r="0.66145831"
       transform="rotate(-90)" />
    <circle
       style="display:inline;overflow:visible;visibility:visible;fill:#000000;fill-opacity:1;stroke:none;stroke-width:0.718585;stroke-linejoin:miter;stroke-miterlimit:4;stroke-dasharray:none;stroke-opacity:1;marker:none;enable-background:accumulate"
       id="path8944-1-2"
       cx="-789.78125"
       cy="238.125"
       transform="rotate(-90)"
       r="0.66145831" />
    <path
       style="fill:none;stroke:#000000;stroke-width:0.529167;stroke-linecap:butt;stroke-linejoin:miter;stroke-opacity:1"
       d="m 230.1875,771.34999 v -4.05832 h 21.16667 l 0.0237,-3.87526"
       id="path3059"
       sodipodi:nodetypes="cccc" />
    <path
       style="fill:none;stroke:#000000;stroke-width:0.529167;stroke-linecap:butt;stroke-linejoin:miter;stroke-opacity:1"
       d="m 227.54167,784.03613 v 5.74512 l -116.41667,0"
       id="path3061"
       sodipodi:nodetypes="cc" />
    <path
       style="fill:none;stroke:#000000;stroke-width:0.529167;stroke-linecap:butt;stroke-linejoin:miter;stroke-opacity:1"
       d="m 232.83334,783.7778 -1e-5,6.00345 5.29167,0 v 0"
       id="path3944"
       sodipodi:nodetypes="cc" />
    <path
       id="path3516"
       style="fill:#000000;fill-opacity:1;fill-rule:evenodd;stroke:none;stroke-width:0.79375;stroke-linecap:butt;stroke-linejoin:miter;stroke-opacity:1"
       d="m 234.68542,785.65954 c 0.69967,0.42264 0.79375,0.59531 0.79375,0.59531 v 0.96739 l -0.64492,-0.52917 c 0,0 -1.8521,-1.49655 -4.64675,-1.49655 -2.79464,0 -4.64674,1.49655 -4.64674,1.49655 l -0.64492,0.52917 v -0.96739 c 0.24805,-0.2067 0.43821,-0.3762 0.79375,-0.58704 0.82016,-0.49549 2.3883,-1.26504 4.49791,-1.26504 2.10361,0 3.67227,0.76642 4.49792,1.25677 z"
       sodipodi:nodetypes="ccccsccccsc" />
    <path
       style="fill:#000000;fill-opacity:1;fill-rule:evenodd;stroke:none;stroke-width:0.79375;stroke-linecap:butt;stroke-linejoin:miter;stroke-opacity:1"
       d="m 224.89584,785.70088 0.64492,-0.52916 c 0,0 1.8521,-1.49655 4.64674,-1.49655 2.79465,0 4.64675,1.49655 4.64675,1.49655 l 0.64492,0.52916 v -0.83509 -3.70417 c 0,-0.63713 0.006,-2.03456 -0.63665,-3.60494 -0.59047,-1.44177 -1.73442,-3.03206 -3.86951,-4.33756 l -0.78551,0.26959 -0.8722,-0.21546 c -4.36768,2.72914 -4.41946,6.68932 -4.41946,7.88837 v 3.70417 z m 0.79375,-1.55442 v -2.98484 c 0,-1.23935 -0.0345,-4.83839 4.49791,-7.40006 2.2302,1.26121 3.35596,2.78375 3.91915,4.15892 0.58087,1.41834 0.57877,2.60401 0.57877,3.24114 v 2.97657 c -0.82244,-0.49572 -2.39431,-1.25677 -4.49792,-1.25677 -2.10961,0 -3.67775,0.76954 -4.49791,1.26504 z"
       id="path4973"
       sodipodi:nodetypes="ccsccccscccccccccsccsc" />
    <circle
       style="display:inline;overflow:visible;visibility:visible;fill:none;fill-opacity:1;stroke:#000000;stroke-width:0.529167;stroke-linejoin:miter;stroke-opacity:1;marker:none;enable-background:accumulate"
       id="path3551"
       transform="rotate(-90)"
       cx="-772.49652"
       cy="230.1875"
       r="1.0583333" />
    <circle
       style="display:inline;overflow:visible;visibility:visible;fill:#000000;fill-opacity:1;stroke:none;stroke-width:0.718585;stroke-linejoin:miter;stroke-miterlimit:4;stroke-dasharray:none;stroke-opacity:1;marker:none;enable-background:accumulate"
       id="path8944-1-2-7"
       cx="-767.29163"
       cy="222.24998"
       transform="rotate(-90)"
       r="0.66145831" />
    <path
       style="fill:none;stroke:#000000;stroke-width:0.529167;stroke-linecap:butt;stroke-linejoin:miter;stroke-opacity:1"
       d="m 214.3125,748.86041 v -4.05832 l 37.04167,0 v -3.87526"
       id="path3059-6"
       sodipodi:nodetypes="cccc" />
    <path
       style="fill:none;stroke:#000000;stroke-width:0.529167;stroke-linecap:butt;stroke-linejoin:miter;stroke-opacity:1"
       d="m 211.66667,761.54655 v 5.74512 H 95.249997"
       id="path3061-3"
       sodipodi:nodetypes="ccc" />
    <path
       style="fill:none;stroke:#000000;stroke-width:0.529167;stroke-linecap:butt;stroke-linejoin:miter;stroke-opacity:1"
       d="m 216.95834,761.28822 -1e-5,6.00345 H 222.25 v 0"
       id="path3944-4"
       sodipodi:nodetypes="cccc" />
    <path
       id="path3516-3"
       style="fill:#000000;fill-opacity:1;fill-rule:evenodd;stroke:none;stroke-width:0.79375;stroke-linecap:butt;stroke-linejoin:miter;stroke-opacity:1"
       d="m 218.81042,763.16996 c 0.69967,0.42264 0.79375,0.59531 0.79375,0.59531 v 0.96739 l -0.64492,-0.52917 c 0,0 -1.8521,-1.49655 -4.64675,-1.49655 -2.79464,0 -4.64674,1.49655 -4.64674,1.49655 l -0.64492,0.52917 v -0.96739 c 0.24805,-0.2067 0.43821,-0.3762 0.79375,-0.58704 0.82016,-0.49549 2.3883,-1.26504 4.49791,-1.26504 2.10361,0 3.67227,0.76642 4.49792,1.25677 z"
       sodipodi:nodetypes="ccccsccccsc" />
    <path
       style="fill:#000000;fill-opacity:1;fill-rule:evenodd;stroke:none;stroke-width:0.79375;stroke-linecap:butt;stroke-linejoin:miter;stroke-opacity:1"
       d="m 209.02084,763.2113 0.64492,-0.52916 c 0,0 1.8521,-1.49655 4.64674,-1.49655 2.79465,0 4.64675,1.49655 4.64675,1.49655 l 0.64492,0.52916 v -0.83509 -3.70417 c 0,-0.63713 0.006,-2.03456 -0.63665,-3.60494 -0.59047,-1.44177 -1.73442,-3.03206 -3.86951,-4.33756 l -0.78551,0.26959 -0.8722,-0.21546 c -4.36768,2.72914 -4.41946,6.68932 -4.41946,7.88837 v 3.70417 z m 0.79375,-1.55442 v -2.98484 c 0,-1.23935 -0.0345,-4.83839 4.49791,-7.40006 2.2302,1.26121 3.35596,2.78375 3.91915,4.15892 0.58087,1.41834 0.57877,2.60401 0.57877,3.24114 v 2.97657 c -0.82244,-0.49572 -2.39431,-1.25677 -4.49792,-1.25677 -2.10961,0 -3.67775,0.76954 -4.49791,1.26504 z"
       id="path4973-6"
       sodipodi:nodetypes="ccsccccscccccccccsccsc" />
    <circle
       style="display:inline;overflow:visible;visibility:visible;fill:none;fill-opacity:1;stroke:#000000;stroke-width:0.529167;stroke-linejoin:miter;stroke-opacity:1;marker:none;enable-background:accumulate"
       id="path3551-8"
       transform="rotate(-90)"
       cx="-750.0069"
       cy="214.31248"
       r="1.0583333" />
    <path
       style="display:inline;overflow:visible;visibility:visible;fill:none;fill-opacity:1;stroke:#000000;stroke-width:0.529167;stroke-linecap:butt;stroke-linejoin:miter;stroke-miterlimit:4;stroke-dasharray:none;stroke-dashoffset:0;stroke-opacity:1;marker:none;enable-background:accumulate"
       d="m 256.65468,771.26042 0,-7.84401"
       id="path8319"
       sodipodi:nodetypes="cc" />
    <path
       id="path8980-6"
       d="m 254,753.31292 v -4.54209 h 2.64583 l 0,-7.9375"
       style="display:inline;overflow:visible;visibility:visible;fill:none;fill-opacity:1;stroke:#000000;stroke-width:0.529167;stroke-linejoin:miter;stroke-miterlimit:4;stroke-dasharray:none;stroke-opacity:1;marker:none;enable-background:accumulate"
       sodipodi:nodetypes="cccc" />
    <path
       style="font-style:normal;font-variant:normal;font-weight:normal;font-stretch:normal;font-size:medium;line-height:normal;font-family:'Bitstream Vera Sans';-inkscape-font-specification:'Bitstream Vera Sans';text-indent:0;text-align:start;text-decoration:none;text-decoration-line:none;letter-spacing:normal;word-spacing:normal;text-transform:none;writing-mode:lr-tb;direction:ltr;text-anchor:start;display:inline;overflow:visible;visibility:visible;fill:#000000;fill-opacity:1;stroke:none;stroke-width:0.79375;marker:none;enable-background:accumulate"
       d="m 248.68002,763.58751 h 0.37798 9.82738 0.37798 v -0.37798 -5.03968 c 0,-2.9813 -2.38126,-5.29167 -5.29167,-5.29167 -2.9104,0 -5.29167,2.31037 -5.29167,5.29167 v 5.03968 z m 0.75595,-0.75595 v -4.03175 -0.55122 -0.0709 -0.008 c 0,-2.58251 2.02141,-4.40972 4.53572,-4.40972 2.51431,0 4.53571,1.9532 4.53571,4.53571 v 4.53571 z"
       id="path2884"
       sodipodi:nodetypes="cccccsssccccccssscc" />
    <path
       id="path8980-6-8"
       d="m 254,730.43794 0,-4.15669 h 2.64583 v -8.0665"
       style="display:inline;overflow:visible;visibility:visible;fill:none;fill-opacity:1;stroke:#000000;stroke-width:0.529167;stroke-linejoin:miter;stroke-miterlimit:4;stroke-dasharray:none;stroke-opacity:1;marker:none;enable-background:accumulate"
       sodipodi:nodetypes="cccc" />
    <path
       style="font-style:normal;font-variant:normal;font-weight:normal;font-stretch:normal;font-size:medium;line-height:normal;font-family:'Bitstream Vera Sans';-inkscape-font-specification:'Bitstream Vera Sans';text-indent:0;text-align:start;text-decoration:none;text-decoration-line:none;letter-spacing:normal;word-spacing:normal;text-transform:none;writing-mode:lr-tb;direction:ltr;text-anchor:start;display:inline;overflow:visible;visibility:visible;fill:#000000;fill-opacity:1;stroke:none;stroke-width:0.79375;marker:none;enable-background:accumulate"
       d="m 248.7084,741.1054 h 0.37798 9.82738 0.37798 v -0.37798 -5.03968 c 0,-2.9813 -2.38126,-5.29167 -5.29167,-5.29167 -2.9104,0 -5.29167,2.31037 -5.29167,5.29167 v 5.03968 z m 0.75595,-0.75595 v -4.03175 -0.55122 -0.0709 -0.008 c 0,-2.58251 2.02141,-4.40972 4.53572,-4.40972 2.51431,0 4.53571,1.9532 4.53571,4.53571 v 4.53571 z"
       id="path2884-1"
       sodipodi:nodetypes="cccccsssccccccssscc" />
    <circle
       style="display:inline;overflow:visible;visibility:visible;fill:#000000;fill-opacity:1;stroke:none;stroke-width:0.718586;stroke-linejoin:miter;stroke-miterlimit:4;stroke-dasharray:none;stroke-opacity:1;marker:none;enable-background:accumulate"
       id="path8944-1-7-6"
       cx="-744.80212"
       cy="79.374992"
       r="0.66145831"
       transform="rotate(-90)" />
    <circle
       style="display:inline;overflow:visible;visibility:visible;fill:#000000;fill-opacity:1;stroke:none;stroke-width:0.718585;stroke-linejoin:miter;stroke-miterlimit:4;stroke-dasharray:none;stroke-opacity:1;marker:none;enable-background:accumulate"
       id="path8944-1-2-7-5"
       cx="-744.80206"
       cy="206.375"
       transform="rotate(-90)"
       r="0.66145831" />
    <path
       style="fill:none;stroke:#000000;stroke-width:0.529167;stroke-linecap:butt;stroke-linejoin:miter;stroke-opacity:1"
       d="m 198.43752,726.37086 v -4.05832 h 52.91665 l 0,-3.87526"
       id="path3059-6-1"
       sodipodi:nodetypes="cccc" />
    <path
       style="fill:none;stroke:#000000;stroke-width:0.529167;stroke-linecap:butt;stroke-linejoin:miter;stroke-opacity:1"
       d="m 195.79169,739.057 v 5.74512 H 79.375001"
       id="path3061-3-8"
       sodipodi:nodetypes="ccc" />
    <path
       style="fill:none;stroke:#000000;stroke-width:0.529167;stroke-linecap:butt;stroke-linejoin:miter;stroke-opacity:1"
       d="m 201.08336,738.79867 -1e-5,6.00345 h 5.29167 v 0"
       id="path3944-4-7"
       sodipodi:nodetypes="cccc" />
    <path
       id="path3516-3-2"
       style="fill:#000000;fill-opacity:1;fill-rule:evenodd;stroke:none;stroke-width:0.79375;stroke-linecap:butt;stroke-linejoin:miter;stroke-opacity:1"
       d="m 202.93544,740.68041 c 0.69967,0.42264 0.79375,0.59531 0.79375,0.59531 v 0.96739 l -0.64492,-0.52917 c 0,0 -1.8521,-1.49655 -4.64675,-1.49655 -2.79464,0 -4.64674,1.49655 -4.64674,1.49655 l -0.64492,0.52917 v -0.96739 c 0.24805,-0.2067 0.43821,-0.3762 0.79375,-0.58704 0.82016,-0.49549 2.3883,-1.26504 4.49791,-1.26504 2.10361,0 3.67227,0.76642 4.49792,1.25677 z"
       sodipodi:nodetypes="ccccsccccsc" />
    <path
       style="fill:#000000;fill-opacity:1;fill-rule:evenodd;stroke:none;stroke-width:0.79375;stroke-linecap:butt;stroke-linejoin:miter;stroke-opacity:1"
       d="m 193.14586,740.72175 0.64492,-0.52916 c 0,0 1.8521,-1.49655 4.64674,-1.49655 2.79465,0 4.64675,1.49655 4.64675,1.49655 l 0.64492,0.52916 v -0.83509 -3.70417 c 0,-0.63713 0.006,-2.03456 -0.63665,-3.60494 -0.59047,-1.44177 -1.73442,-3.03206 -3.86951,-4.33756 l -0.78551,0.26959 -0.8722,-0.21546 c -4.36768,2.72914 -4.41946,6.68932 -4.41946,7.88837 v 3.70417 z m 0.79375,-1.55442 v -2.98484 c 0,-1.23935 -0.0345,-4.83839 4.49791,-7.40006 2.2302,1.26121 3.35596,2.78375 3.91915,4.15892 0.58087,1.41834 0.57877,2.60401 0.57877,3.24114 v 2.97657 c -0.82244,-0.49572 -2.39431,-1.25677 -4.49792,-1.25677 -2.10961,0 -3.67775,0.76954 -4.49791,1.26504 z"
       id="path4973-6-0"
       sodipodi:nodetypes="ccsccccscccccccccsccsc" />
    <circle
       style="display:inline;overflow:visible;visibility:visible;fill:none;fill-opacity:1;stroke:#000000;stroke-width:0.529167;stroke-linejoin:miter;stroke-opacity:1;marker:none;enable-background:accumulate"
       id="path3551-8-2"
       transform="rotate(-90)"
       cx="-727.51733"
       cy="198.4375"
       r="1.0583333" />
    <path
       id="path8980-6-8-5"
       d="m 254,707.94839 v -4.15669 h 2.64583 v -8.20212"
       style="display:inline;overflow:visible;visibility:visible;fill:none;fill-opacity:1;stroke:#000000;stroke-width:0.529167;stroke-linejoin:miter;stroke-miterlimit:4;stroke-dasharray:none;stroke-opacity:1;marker:none;enable-background:accumulate"
       sodipodi:nodetypes="cccc" />
    <path
       style="font-style:normal;font-variant:normal;font-weight:normal;font-stretch:normal;font-size:medium;line-height:normal;font-family:'Bitstream Vera Sans';-inkscape-font-specification:'Bitstream Vera Sans';text-indent:0;text-align:start;text-decoration:none;text-decoration-line:none;letter-spacing:normal;word-spacing:normal;text-transform:none;writing-mode:lr-tb;direction:ltr;text-anchor:start;display:inline;overflow:visible;visibility:visible;fill:#000000;fill-opacity:1;stroke:none;stroke-width:0.79375;marker:none;enable-background:accumulate"
       d="m 248.70833,718.61585 h 0.37798 9.82738 0.37798 v -0.37798 -5.03968 c 0,-2.9813 -2.38126,-5.29167 -5.29167,-5.29167 -2.9104,0 -5.29167,2.31037 -5.29167,5.29167 v 5.03968 z m 0.75595,-0.75595 v -4.03175 -0.55122 -0.0709 -0.008 c 0,-2.58251 2.02141,-4.40972 4.53572,-4.40972 2.51431,0 4.53571,1.9532 4.53571,4.53571 v 4.53571 z"
       id="path2884-1-2"
       sodipodi:nodetypes="cccccsssccccccssscc" />
    <circle
       style="display:inline;overflow:visible;visibility:visible;fill:#000000;fill-opacity:1;stroke:none;stroke-width:0.718586;stroke-linejoin:miter;stroke-miterlimit:4;stroke-dasharray:none;stroke-opacity:1;marker:none;enable-background:accumulate"
       id="path8944-1-7-9"
       cx="-722.3125"
       cy="63.499989"
       r="0.66145831"
       transform="rotate(-90)" />
    <circle
       style="display:inline;overflow:visible;visibility:visible;fill:#000000;fill-opacity:1;stroke:none;stroke-width:0.718585;stroke-linejoin:miter;stroke-miterlimit:4;stroke-dasharray:none;stroke-opacity:1;marker:none;enable-background:accumulate"
       id="path8944-1-2-7-1"
       cx="-722.31244"
       cy="190.49998"
       transform="rotate(-90)"
       r="0.66145831" />
    <path
       style="fill:none;stroke:#000000;stroke-width:0.529167;stroke-linecap:butt;stroke-linejoin:miter;stroke-opacity:1"
       d="m 182.56249,703.88123 v -4.05832 h 68.79168 v -3.87526"
       id="path3059-6-2"
       sodipodi:nodetypes="cccc" />
    <path
       style="fill:none;stroke:#000000;stroke-width:0.529167;stroke-linecap:butt;stroke-linejoin:miter;stroke-opacity:1"
       d="m 179.91666,716.56737 v 5.74512 H 63.499989"
       id="path3061-3-5"
       sodipodi:nodetypes="ccc" />
    <path
       style="fill:none;stroke:#000000;stroke-width:0.529167;stroke-linecap:butt;stroke-linejoin:miter;stroke-opacity:1"
       d="m 185.20833,716.30904 -1e-5,6.00345 h 5.29167 v 0"
       id="path3944-4-3"
       sodipodi:nodetypes="cccc" />
    <path
       id="path3516-3-9"
       style="fill:#000000;fill-opacity:1;fill-rule:evenodd;stroke:none;stroke-width:0.79375;stroke-linecap:butt;stroke-linejoin:miter;stroke-opacity:1"
       d="m 187.06041,718.19078 c 0.69967,0.42264 0.79375,0.59531 0.79375,0.59531 v 0.96739 l -0.64492,-0.52917 c 0,0 -1.8521,-1.49655 -4.64675,-1.49655 -2.79464,0 -4.64674,1.49655 -4.64674,1.49655 l -0.64492,0.52917 v -0.96739 c 0.24805,-0.2067 0.43821,-0.3762 0.79375,-0.58704 0.82016,-0.49549 2.3883,-1.26504 4.49791,-1.26504 2.10361,0 3.67227,0.76642 4.49792,1.25677 z"
       sodipodi:nodetypes="ccccsccccsc" />
    <path
       style="fill:#000000;fill-opacity:1;fill-rule:evenodd;stroke:none;stroke-width:0.79375;stroke-linecap:butt;stroke-linejoin:miter;stroke-opacity:1"
       d="m 177.27083,718.23212 0.64492,-0.52916 c 0,0 1.8521,-1.49655 4.64674,-1.49655 2.79465,0 4.64675,1.49655 4.64675,1.49655 l 0.64492,0.52916 v -0.83509 -3.70417 c 0,-0.63713 0.006,-2.03456 -0.63665,-3.60494 -0.59047,-1.44177 -1.73442,-3.03206 -3.86951,-4.33756 l -0.78551,0.26959 -0.8722,-0.21546 c -4.36768,2.72914 -4.41946,6.68932 -4.41946,7.88837 v 3.70417 z m 0.79375,-1.55442 v -2.98484 c 0,-1.23935 -0.0345,-4.83839 4.49791,-7.40006 2.2302,1.26121 3.35596,2.78375 3.91915,4.15892 0.58087,1.41834 0.57877,2.60401 0.57877,3.24114 v 2.97657 c -0.82244,-0.49572 -2.39431,-1.25677 -4.49792,-1.25677 -2.10961,0 -3.67775,0.76954 -4.49791,1.26504 z"
       id="path4973-6-4"
       sodipodi:nodetypes="ccsccccscccccccccsccsc" />
    <circle
       style="display:inline;overflow:visible;visibility:visible;fill:none;fill-opacity:1;stroke:#000000;stroke-width:0.529167;stroke-linejoin:miter;stroke-opacity:1;marker:none;enable-background:accumulate"
       id="path3551-8-26"
       transform="rotate(-90)"
       cx="-705.02771"
       cy="182.56248"
       r="1.0583333" />
    <path
       id="path8980-6-8-0"
       d="m 254,685.45876 0,-4.15669 h 2.64583 V 673.1"
       style="display:inline;overflow:visible;visibility:visible;fill:none;fill-opacity:1;stroke:#000000;stroke-width:0.529167;stroke-linejoin:miter;stroke-miterlimit:4;stroke-dasharray:none;stroke-opacity:1;marker:none;enable-background:accumulate"
       sodipodi:nodetypes="cccc" />
    <path
       style="font-style:normal;font-variant:normal;font-weight:normal;font-stretch:normal;font-size:medium;line-height:normal;font-family:'Bitstream Vera Sans';-inkscape-font-specification:'Bitstream Vera Sans';text-indent:0;text-align:start;text-decoration:none;text-decoration-line:none;letter-spacing:normal;word-spacing:normal;text-transform:none;writing-mode:lr-tb;direction:ltr;text-anchor:start;display:inline;overflow:visible;visibility:visible;fill:#000000;fill-opacity:1;stroke:none;stroke-width:0.79375;marker:none;enable-background:accumulate"
       d="m 248.70833,696.12622 h 0.37798 9.82738 0.37798 v -0.37798 -5.03968 c 0,-2.9813 -2.38126,-5.29167 -5.29167,-5.29167 -2.9104,0 -5.29167,2.31037 -5.29167,5.29167 v 5.03968 z m 0.75595,-0.75595 v -4.03175 -0.55122 -0.0709 -0.008 c 0,-2.58251 2.02141,-4.40972 4.53572,-4.40972 2.51431,0 4.53571,1.9532 4.53571,4.53571 v 4.53571 z"
       id="path2884-1-0"
       sodipodi:nodetypes="cccccsssccccccssscc" />
    <circle
       style="display:inline;overflow:visible;visibility:visible;fill:#000000;fill-opacity:1;stroke:none;stroke-width:0.718586;stroke-linejoin:miter;stroke-miterlimit:4;stroke-dasharray:none;stroke-opacity:1;marker:none;enable-background:accumulate"
       id="path8944-1-7-3"
       cx="-699.82288"
       cy="47.624996"
       r="0.66145831"
       transform="rotate(-90)" />
    <circle
       style="display:inline;overflow:visible;visibility:visible;fill:#000000;fill-opacity:1;stroke:none;stroke-width:0.718585;stroke-linejoin:miter;stroke-miterlimit:4;stroke-dasharray:none;stroke-opacity:1;marker:none;enable-background:accumulate"
       id="path8944-1-2-7-14"
       cx="-699.82281"
       cy="174.62498"
       transform="rotate(-90)"
       r="0.66145831" />
    <path
       style="fill:none;stroke:#000000;stroke-width:0.529167;stroke-linecap:butt;stroke-linejoin:miter;stroke-opacity:1"
       d="m 166.68749,681.39165 v -4.05832 h 84.66668 v -3.87526"
       id="path3059-6-16"
       sodipodi:nodetypes="cccc" />
    <path
       style="fill:none;stroke:#000000;stroke-width:0.529167;stroke-linecap:butt;stroke-linejoin:miter;stroke-opacity:1"
       d="m 164.04166,694.07779 v 5.74512 H 47.624992"
       id="path3061-3-4"
       sodipodi:nodetypes="ccc" />
    <path
       style="fill:none;stroke:#000000;stroke-width:0.529167;stroke-linecap:butt;stroke-linejoin:miter;stroke-opacity:1"
       d="m 169.33333,693.81946 -1e-5,6.00345 h 5.29167 v 0"
       id="path3944-4-6"
       sodipodi:nodetypes="cccc" />
    <path
       id="path3516-3-91"
       style="fill:#000000;fill-opacity:1;fill-rule:evenodd;stroke:none;stroke-width:0.79375;stroke-linecap:butt;stroke-linejoin:miter;stroke-opacity:1"
       d="m 171.18541,695.7012 c 0.69967,0.42264 0.79375,0.59531 0.79375,0.59531 v 0.96739 l -0.64492,-0.52917 c 0,0 -1.8521,-1.49655 -4.64675,-1.49655 -2.79464,0 -4.64674,1.49655 -4.64674,1.49655 l -0.64492,0.52917 v -0.96739 c 0.24805,-0.2067 0.43821,-0.3762 0.79375,-0.58704 0.82016,-0.49549 2.3883,-1.26504 4.49791,-1.26504 2.10361,0 3.67227,0.76642 4.49792,1.25677 z"
       sodipodi:nodetypes="ccccsccccsc" />
    <path
       style="fill:#000000;fill-opacity:1;fill-rule:evenodd;stroke:none;stroke-width:0.79375;stroke-linecap:butt;stroke-linejoin:miter;stroke-opacity:1"
       d="m 161.39583,695.74254 0.64492,-0.52916 c 0,0 1.8521,-1.49655 4.64674,-1.49655 2.79465,0 4.64675,1.49655 4.64675,1.49655 l 0.64492,0.52916 v -0.83509 -3.70417 c 0,-0.63713 0.006,-2.03456 -0.63665,-3.60494 -0.59047,-1.44177 -1.73442,-3.03206 -3.86951,-4.33756 l -0.78551,0.26959 -0.8722,-0.21546 c -4.36768,2.72914 -4.41946,6.68932 -4.41946,7.88837 v 3.70417 z m 0.79375,-1.55442 v -2.98484 c 0,-1.23935 -0.0345,-4.83839 4.49791,-7.40006 2.2302,1.26121 3.35596,2.78375 3.91915,4.15892 0.58087,1.41834 0.57877,2.60401 0.57877,3.24114 v 2.97657 c -0.82244,-0.49572 -2.39431,-1.25677 -4.49792,-1.25677 -2.10961,0 -3.67775,0.76954 -4.49791,1.26504 z"
       id="path4973-6-3"
       sodipodi:nodetypes="ccsccccscccccccccsccsc" />
    <circle
       style="display:inline;overflow:visible;visibility:visible;fill:none;fill-opacity:1;stroke:#000000;stroke-width:0.529167;stroke-linejoin:miter;stroke-opacity:1;marker:none;enable-background:accumulate"
       id="path3551-8-6"
       transform="rotate(-90)"
       cx="-682.53809"
       cy="166.68748"
       r="1.0583333" />
    <path
       id="path8980-6-8-1"
       d="m 254,662.96918 0,-4.15669 h 2.64583 v -8.20207"
       style="display:inline;overflow:visible;visibility:visible;fill:none;fill-opacity:1;stroke:#000000;stroke-width:0.529167;stroke-linejoin:miter;stroke-miterlimit:4;stroke-dasharray:none;stroke-opacity:1;marker:none;enable-background:accumulate"
       sodipodi:nodetypes="cccc" />
    <path
       style="font-style:normal;font-variant:normal;font-weight:normal;font-stretch:normal;font-size:medium;line-height:normal;font-family:'Bitstream Vera Sans';-inkscape-font-specification:'Bitstream Vera Sans';text-indent:0;text-align:start;text-decoration:none;text-decoration-line:none;letter-spacing:normal;word-spacing:normal;text-transform:none;writing-mode:lr-tb;direction:ltr;text-anchor:start;display:inline;overflow:visible;visibility:visible;fill:#000000;fill-opacity:1;stroke:none;stroke-width:0.79375;marker:none;enable-background:accumulate"
       d="m 248.70833,673.63664 h 0.37798 9.82738 0.37798 v -0.37798 -5.03968 c 0,-2.9813 -2.38126,-5.29167 -5.29167,-5.29167 -2.9104,0 -5.29167,2.31037 -5.29167,5.29167 v 5.03968 z m 0.75595,-0.75595 v -4.03175 -0.55122 -0.0709 -0.008 c 0,-2.58251 2.02141,-4.40972 4.53572,-4.40972 2.51431,0 4.53571,1.9532 4.53571,4.53571 v 4.53571 z"
       id="path2884-1-8"
       sodipodi:nodetypes="cccccsssccccccssscc" />
    <circle
       style="display:inline;overflow:visible;visibility:visible;fill:#000000;fill-opacity:1;stroke:none;stroke-width:0.718586;stroke-linejoin:miter;stroke-miterlimit:4;stroke-dasharray:none;stroke-opacity:1;marker:none;enable-background:accumulate"
       id="path8944-1-7-39"
       cx="-677.33337"
       cy="31.750019"
       r="0.66145831"
       transform="rotate(-90)" />
    <circle
       style="display:inline;overflow:visible;visibility:visible;fill:#000000;fill-opacity:1;stroke:none;stroke-width:0.718585;stroke-linejoin:miter;stroke-miterlimit:4;stroke-dasharray:none;stroke-opacity:1;marker:none;enable-background:accumulate"
       id="path8944-1-2-7-6"
       cx="-677.33331"
       cy="158.75"
       transform="rotate(-90)"
       r="0.66145831" />
    <path
       style="fill:none;stroke:#000000;stroke-width:0.529167;stroke-linecap:butt;stroke-linejoin:miter;stroke-opacity:1"
       d="m 150.81251,658.90212 v -4.05832 h 100.54166 v -3.87526"
       id="path3059-6-0"
       sodipodi:nodetypes="cccc" />
    <path
       style="fill:none;stroke:#000000;stroke-width:0.529167;stroke-linecap:butt;stroke-linejoin:miter;stroke-opacity:1"
       d="m 148.16668,671.58826 v 5.74512 H 31.750018"
       id="path3061-3-7"
       sodipodi:nodetypes="ccc" />
    <path
       style="fill:none;stroke:#000000;stroke-width:0.529167;stroke-linecap:butt;stroke-linejoin:miter;stroke-opacity:1"
       d="m 153.45835,671.32993 -1e-5,6.00345 h 5.29167 v 0"
       id="path3944-4-1"
       sodipodi:nodetypes="cccc" />
    <path
       id="path3516-3-3"
       style="fill:#000000;fill-opacity:1;fill-rule:evenodd;stroke:none;stroke-width:0.79375;stroke-linecap:butt;stroke-linejoin:miter;stroke-opacity:1"
       d="m 155.31043,673.21167 c 0.69967,0.42264 0.79375,0.59531 0.79375,0.59531 v 0.96739 l -0.64492,-0.52917 c 0,0 -1.8521,-1.49655 -4.64675,-1.49655 -2.79464,0 -4.64674,1.49655 -4.64674,1.49655 l -0.64492,0.52917 v -0.96739 c 0.24805,-0.2067 0.43821,-0.3762 0.79375,-0.58704 0.82016,-0.49549 2.3883,-1.26504 4.49791,-1.26504 2.10361,0 3.67227,0.76642 4.49792,1.25677 z"
       sodipodi:nodetypes="ccccsccccsc" />
    <path
       style="fill:#000000;fill-opacity:1;fill-rule:evenodd;stroke:none;stroke-width:0.79375;stroke-linecap:butt;stroke-linejoin:miter;stroke-opacity:1"
       d="m 145.52085,673.25301 0.64492,-0.52916 c 0,0 1.8521,-1.49655 4.64674,-1.49655 2.79465,0 4.64675,1.49655 4.64675,1.49655 l 0.64492,0.52916 v -0.83509 -3.70417 c 0,-0.63713 0.006,-2.03456 -0.63665,-3.60494 -0.59047,-1.44177 -1.73442,-3.03206 -3.86951,-4.33756 l -0.78551,0.26959 -0.8722,-0.21546 c -4.36768,2.72914 -4.41946,6.68932 -4.41946,7.88837 v 3.70417 z m 0.79375,-1.55442 v -2.98484 c 0,-1.23935 -0.0345,-4.83839 4.49791,-7.40006 2.2302,1.26121 3.35596,2.78375 3.91915,4.15892 0.58087,1.41834 0.57877,2.60401 0.57877,3.24114 v 2.97657 c -0.82244,-0.49572 -2.39431,-1.25677 -4.49792,-1.25677 -2.10961,0 -3.67775,0.76954 -4.49791,1.26504 z"
       id="path4973-6-7"
       sodipodi:nodetypes="ccsccccscccccccccsccsc" />
    <circle
       style="display:inline;overflow:visible;visibility:visible;fill:none;fill-opacity:1;stroke:#000000;stroke-width:0.529167;stroke-linejoin:miter;stroke-opacity:1;marker:none;enable-background:accumulate"
       id="path3551-8-68"
       transform="rotate(-90)"
       cx="-660.04858"
       cy="150.8125"
       r="1.0583333" />
    <path
       id="path8980-6-8-9"
       d="m 254,640.47965 0,-4.15669 h 2.64583 l 0,-7.93754"
       style="display:inline;overflow:visible;visibility:visible;fill:none;fill-opacity:1;stroke:#000000;stroke-width:0.529167;stroke-linejoin:miter;stroke-miterlimit:4;stroke-dasharray:none;stroke-opacity:1;marker:none;enable-background:accumulate"
       sodipodi:nodetypes="cccc" />
    <path
       style="font-style:normal;font-variant:normal;font-weight:normal;font-stretch:normal;font-size:medium;line-height:normal;font-family:'Bitstream Vera Sans';-inkscape-font-specification:'Bitstream Vera Sans';text-indent:0;text-align:start;text-decoration:none;text-decoration-line:none;letter-spacing:normal;word-spacing:normal;text-transform:none;writing-mode:lr-tb;direction:ltr;text-anchor:start;display:inline;overflow:visible;visibility:visible;fill:#000000;fill-opacity:1;stroke:none;stroke-width:0.79375;marker:none;enable-background:accumulate"
       d="m 248.70833,651.14711 h 0.37798 9.82738 0.37798 v -0.37798 -5.03968 c 0,-2.9813 -2.38126,-5.29167 -5.29167,-5.29167 -2.9104,0 -5.29167,2.31037 -5.29167,5.29167 v 5.03968 z m 0.75595,-0.75595 v -4.03175 -0.55122 -0.0709 -0.008 c 0,-2.58251 2.02141,-4.40972 4.53572,-4.40972 2.51431,0 4.53571,1.9532 4.53571,4.53571 v 4.53571 z"
       id="path2884-1-83"
       sodipodi:nodetypes="cccccsssccccccssscc" />
    <circle
       style="display:inline;overflow:visible;visibility:visible;fill:#000000;fill-opacity:1;stroke:none;stroke-width:0.718586;stroke-linejoin:miter;stroke-miterlimit:4;stroke-dasharray:none;stroke-opacity:1;marker:none;enable-background:accumulate"
       id="path8944-1-7-94"
       cx="-654.84381"
       cy="15.87502"
       r="0.66145831"
       transform="rotate(-90)" />
    <circle
       style="display:inline;overflow:visible;visibility:visible;fill:#000000;fill-opacity:1;stroke:none;stroke-width:0.718585;stroke-linejoin:miter;stroke-miterlimit:4;stroke-dasharray:none;stroke-opacity:1;marker:none;enable-background:accumulate"
       id="path8944-1-2-7-2"
       cx="-654.84375"
       cy="142.875"
       transform="rotate(-90)"
       r="0.66145831" />
    <path
       style="fill:none;stroke:#000000;stroke-width:0.529167;stroke-linecap:butt;stroke-linejoin:miter;stroke-opacity:1"
       d="m 134.93752,636.41254 v -4.05832 h 116.41665 v -3.87526"
       id="path3059-6-7"
       sodipodi:nodetypes="cccc" />
    <path
       style="fill:none;stroke:#000000;stroke-width:0.529167;stroke-linecap:butt;stroke-linejoin:miter;stroke-opacity:1"
       d="m 132.29169,649.09868 v 5.74512 H 15.875018"
       id="path3061-3-6"
       sodipodi:nodetypes="ccc" />
    <path
       style="fill:none;stroke:#000000;stroke-width:0.529167;stroke-linecap:butt;stroke-linejoin:miter;stroke-opacity:1"
       d="m 137.58336,648.84035 -1e-5,6.00345 h 5.29167 v 0"
       id="path3944-4-78"
       sodipodi:nodetypes="cccc" />
    <path
       id="path3516-3-7"
       style="fill:#000000;fill-opacity:1;fill-rule:evenodd;stroke:none;stroke-width:0.79375;stroke-linecap:butt;stroke-linejoin:miter;stroke-opacity:1"
       d="m 139.43544,650.72209 c 0.69967,0.42264 0.79375,0.59531 0.79375,0.59531 v 0.96739 l -0.64492,-0.52917 c 0,0 -1.8521,-1.49655 -4.64675,-1.49655 -2.79464,0 -4.64674,1.49655 -4.64674,1.49655 l -0.64492,0.52917 v -0.96739 c 0.24805,-0.2067 0.43821,-0.3762 0.79375,-0.58704 0.82016,-0.49549 2.3883,-1.26504 4.49791,-1.26504 2.10361,0 3.67227,0.76642 4.49792,1.25677 z"
       sodipodi:nodetypes="ccccsccccsc" />
    <path
       style="fill:#000000;fill-opacity:1;fill-rule:evenodd;stroke:none;stroke-width:0.79375;stroke-linecap:butt;stroke-linejoin:miter;stroke-opacity:1"
       d="m 129.64586,650.76343 0.64492,-0.52916 c 0,0 1.8521,-1.49655 4.64674,-1.49655 2.79465,0 4.64675,1.49655 4.64675,1.49655 l 0.64492,0.52916 v -0.83509 -3.70417 c 0,-0.63713 0.006,-2.03456 -0.63665,-3.60494 -0.59047,-1.44177 -1.73442,-3.03206 -3.86951,-4.33756 l -0.78551,0.26959 -0.8722,-0.21546 c -4.36768,2.72914 -4.41946,6.68932 -4.41946,7.88837 v 3.70417 z m 0.79375,-1.55442 v -2.98484 c 0,-1.23935 -0.0345,-4.83839 4.49791,-7.40006 2.2302,1.26121 3.35596,2.78375 3.91915,4.15892 0.58087,1.41834 0.57877,2.60401 0.57877,3.24114 v 2.97657 c -0.82244,-0.49572 -2.39431,-1.25677 -4.49792,-1.25677 -2.10961,0 -3.67775,0.76954 -4.49791,1.26504 z"
       id="path4973-6-1"
       sodipodi:nodetypes="ccsccccscccccccccsccsc" />
    <circle
       style="display:inline;overflow:visible;visibility:visible;fill:none;fill-opacity:1;stroke:#000000;stroke-width:0.529167;stroke-linejoin:miter;stroke-opacity:1;marker:none;enable-background:accumulate"
       id="path3551-8-5"
       transform="rotate(-90)"
       cx="-637.55902"
       cy="134.9375"
       r="1.0583333" />
    <path
       id="path8980-6-8-8"
       d="m 254,617.99007 0,-4.15669 h 2.64583 v -8.20213"
       style="display:inline;overflow:visible;visibility:visible;fill:none;fill-opacity:1;stroke:#000000;stroke-width:0.529167;stroke-linejoin:miter;stroke-miterlimit:4;stroke-dasharray:none;stroke-opacity:1;marker:none;enable-background:accumulate"
       sodipodi:nodetypes="cccc" />
    <path
       style="font-style:normal;font-variant:normal;font-weight:normal;font-stretch:normal;font-size:medium;line-height:normal;font-family:'Bitstream Vera Sans';-inkscape-font-specification:'Bitstream Vera Sans';text-indent:0;text-align:start;text-decoration:none;text-decoration-line:none;letter-spacing:normal;word-spacing:normal;text-transform:none;writing-mode:lr-tb;direction:ltr;text-anchor:start;display:inline;overflow:visible;visibility:visible;fill:#000000;fill-opacity:1;stroke:none;stroke-width:0.79375;marker:none;enable-background:accumulate"
       d="m 248.70833,628.65753 h 0.37798 9.82738 0.37798 v -0.37798 -5.03968 c 0,-2.9813 -2.38126,-5.29167 -5.29167,-5.29167 -2.9104,0 -5.29167,2.31037 -5.29167,5.29167 v 5.03968 z m 0.75595,-0.75595 v -4.03175 -0.55122 -0.0709 -0.008 c 0,-2.58251 2.02141,-4.40972 4.53572,-4.40972 2.51431,0 4.53571,1.9532 4.53571,4.53571 v 4.53571 z"
       id="path2884-1-5"
       sodipodi:nodetypes="cccccsssccccccssscc" />
    <circle
       style="display:inline;overflow:visible;visibility:visible;fill:#000000;fill-opacity:1;stroke:none;stroke-width:0.718586;stroke-linejoin:miter;stroke-miterlimit:4;stroke-dasharray:none;stroke-opacity:1;marker:none;enable-background:accumulate"
       id="path8944-1-7-7"
       cx="-632.35413"
       cy="-2.9382325e-06"
       r="0.66145831"
       transform="rotate(-90)" />
    <circle
       style="display:inline;overflow:visible;visibility:visible;fill:#000000;fill-opacity:1;stroke:none;stroke-width:0.718585;stroke-linejoin:miter;stroke-miterlimit:4;stroke-dasharray:none;stroke-opacity:1;marker:none;enable-background:accumulate"
       id="path8944-1-2-7-11"
       cx="-632.35406"
       cy="126.99998"
       transform="rotate(-90)"
       r="0.66145831" />
    <path
       style="fill:none;stroke:#000000;stroke-width:0.529167;stroke-linecap:butt;stroke-linejoin:miter;stroke-opacity:1"
       d="m 119.06249,613.9229 v -4.05832 h 132.29168 v -3.87526"
       id="path3059-6-4"
       sodipodi:nodetypes="cccc" />
    <path
       style="fill:none;stroke:#000000;stroke-width:0.529167;stroke-linecap:butt;stroke-linejoin:miter;stroke-opacity:1"
       d="m 116.41666,626.60904 v 5.74512 H -5e-6"
       id="path3061-3-1"
       sodipodi:nodetypes="ccc" />
    <path
       style="fill:none;stroke:#000000;stroke-width:0.529167;stroke-linecap:butt;stroke-linejoin:miter;stroke-opacity:1"
       d="m 121.70833,626.35071 -1e-5,6.00345 h 5.29167 v 0"
       id="path3944-4-11"
       sodipodi:nodetypes="cccc" />
    <path
       id="path3516-3-1"
       style="fill:#000000;fill-opacity:1;fill-rule:evenodd;stroke:none;stroke-width:0.79375;stroke-linecap:butt;stroke-linejoin:miter;stroke-opacity:1"
       d="m 123.56041,628.23245 c 0.69967,0.42264 0.79375,0.59531 0.79375,0.59531 v 0.96739 l -0.64492,-0.52917 c 0,0 -1.8521,-1.49655 -4.64675,-1.49655 -2.79464,0 -4.64674,1.49655 -4.64674,1.49655 l -0.64492,0.52917 v -0.96739 c 0.24805,-0.2067 0.43821,-0.3762 0.79375,-0.58704 0.82016,-0.49549 2.3883,-1.26504 4.49791,-1.26504 2.10361,0 3.67227,0.76642 4.49792,1.25677 z"
       sodipodi:nodetypes="ccccsccccsc" />
    <path
       style="fill:#000000;fill-opacity:1;fill-rule:evenodd;stroke:none;stroke-width:0.79375;stroke-linecap:butt;stroke-linejoin:miter;stroke-opacity:1"
       d="m 113.77083,628.27379 0.64492,-0.52916 c 0,0 1.8521,-1.49655 4.64674,-1.49655 2.79465,0 4.64675,1.49655 4.64675,1.49655 l 0.64492,0.52916 v -0.83509 -3.70417 c 0,-0.63713 0.006,-2.03456 -0.63665,-3.60494 -0.59047,-1.44177 -1.73442,-3.03206 -3.8695,-4.33756 l -0.78551,0.26959 -0.8722,-0.21546 c -4.36768,2.72914 -4.41946,6.68932 -4.41946,7.88837 v 3.70417 z m 0.79375,-1.55442 v -2.98484 c 0,-1.23935 -0.0345,-4.83839 4.49791,-7.40006 2.2302,1.26121 3.35596,2.78375 3.91915,4.15892 0.58087,1.41834 0.57877,2.60401 0.57877,3.24114 v 2.97657 c -0.82244,-0.49572 -2.39431,-1.25677 -4.49792,-1.25677 -2.10961,0 -3.67775,0.76954 -4.49791,1.26504 z"
       id="path4973-6-41"
       sodipodi:nodetypes="ccsccccscccccccccsccsc" />
    <circle
       style="display:inline;overflow:visible;visibility:visible;fill:none;fill-opacity:1;stroke:#000000;stroke-width:0.529167;stroke-linejoin:miter;stroke-opacity:1;marker:none;enable-background:accumulate"
       id="path3551-8-28"
       transform="rotate(-90)"
       cx="-615.06934"
       cy="119.06248"
       r="1.0583333" />
    <path
       style="font-style:normal;font-variant:normal;font-weight:normal;font-stretch:normal;font-size:medium;line-height:normal;font-family:'Bitstream Vera Sans';-inkscape-font-specification:'Bitstream Vera Sans';text-indent:0;text-align:start;text-decoration:none;text-decoration-line:none;letter-spacing:normal;word-spacing:normal;text-transform:none;writing-mode:lr-tb;direction:ltr;text-anchor:start;display:inline;overflow:visible;visibility:visible;fill:#000000;fill-opacity:1;stroke:none;stroke-width:0.79375;marker:none;enable-background:accumulate"
       d="m 248.70833,606.16789 h 0.37798 9.82738 0.37798 v -0.37798 -5.03968 c 0,-2.9813 -2.38126,-5.29167 -5.29167,-5.29167 -2.9104,0 -5.29167,2.31037 -5.29167,5.29167 v 5.03968 z m 0.75595,-0.75595 v -4.03175 -0.55122 -0.0709 -0.008 c 0,-2.58251 2.02141,-4.40972 4.53572,-4.40972 2.51431,0 4.53571,1.9532 4.53571,4.53571 v 4.53571 z"
       id="path2884-1-05"
       sodipodi:nodetypes="cccccsssccccccssscc" />
  </g>
</svg>
