<?xml version="1.0"?>
<?xml-stylesheet type="text/css" href="svg.css"?>
<svg width="166" height="304" xmlns="http://www.w3.org/2000/svg" xmlns:xlink="http://www.w3.org/1999/xlink">
    
<!--
td 1 15 2 
jd 1 15 2 
zh 1 15 2 
o 1 15 2 
sh 1 15 2 
ld 1 15 2 
ih 1 15 2
-->
    
    <defs>
        <polygon id="td" points="-30,-10 29,-10 29,9 9,9 9,29 -10,29 -10,9 -30,9" class="t"/>
        <polygon id="tl" points="-10,-30 9,-30 9,29 -10,29 -10,9 -30,9 -30,-10 -10,-10" class="t"/>
        <polygon id="tu" points="-10,-30 9,-30 9,-10 29,-10 29,9 -30,9 -30,-10 -10,-10" class="t"/>
        <polygon id="tr" points="-10,-30 9,-30 9,-10 29,-10 29,9 9,9 9,29 -10,29" class="t"/>
        <polygon id="jd" points="-30,-10 29,-10 29,29 10,29 10,9 -30,9" class="j"/>
        <polygon id="jl" points="-10,-30 9,-30 9,29 -30,29 -30,10 -10,10" class="j"/>
        <polygon id="ju" points="-30,-30 -11,-30 -11,-10 29,-10 29,9 -30,9" class="j"/>
        <polygon id="jr" points="-10,-30 29,-30 29,-11 9,-11 9,29 -10,29" class="j"/>
        <polygon id="zh" points="-30,-10 9,-10 9,10 29,10 29,29 -10,29 -10,9 -30,9" class="z"/>
        <polygon id="zv" points="10,-30 29,-30 29,9 9,9 9,29 -10,29 -10,-10 10,-10" class="z"/>
        <polygon id="o" points="-30,-10 9,-10 9,29 -30,29" class="o"/>
        <polygon id="sh" points="-10,-10 29,-10 29,9 9,9 9,29 -30,29 -30,10 -10,10" class="s"/>
        <polygon id="sv" points="-10,-30 9,-30 9,-10 29,-10 29,29 10,29 10,9 -10,9" class="s"/>
        <polygon id="ld" points="-30,-10 29,-10 29,9 -11,9 -11,29 -30,29" class="l"/>
        <polygon id="ll" points="-30,-30 9,-30 9,29 -10,29 -10,-11 -30,-11" class="l"/>
        <polygon id="lu" points="10,-30 29,-30 29,9 -30,9 -30,-10 10,-10" class="l"/>
        <polygon id="lr" points="-10,-30 9,-30 9,10 29,10 29,29 -10,29" class="l"/>
        <polygon id="ih" points="-50,-10 29,-10 29,9 -50,9" class="i"/>
        <polygon id="iv" points="-10,-50 9,-50 9,29 -10,29" class="i"/>
    </defs>
    <line x1="30.5" y1="15.5" x2="150.5" y2="15.5" class="grid" vector-effect="non-scaling-stroke"/>
    <line x1="30.5" y1="35.5" x2="150.5" y2="35.5" class="grid" vector-effect="non-scaling-stroke"/>
    <line x1="30.5" y1="55.5" x2="150.5" y2="55.5" class="grid" vector-effect="non-scaling-stroke"/>
    <line x1="30.5" y1="75.5" x2="150.5" y2="75.5" class="grid" vector-effect="non-scaling-stroke"/>
    <line x1="30.5" y1="95.5" x2="150.5" y2="95.5" class="grid" vector-effect="non-scaling-stroke"/>
    <line x1="30.5" y1="115.5" x2="150.5" y2="115.5" class="grid" vector-effect="non-scaling-stroke"/>
    <line x1="30.5" y1="135.5" x2="150.5" y2="135.5" class="grid" vector-effect="non-scaling-stroke"/>
    <line x1="30.5" y1="155.5" x2="150.5" y2="155.5" class="grid" vector-effect="non-scaling-stroke"/>
    <line x1="30.5" y1="175.5" x2="150.5" y2="175.5" class="grid" vector-effect="non-scaling-stroke"/>
    <line x1="30.5" y1="195.5" x2="150.5" y2="195.5" class="grid" vector-effect="non-scaling-stroke"/>
    <line x1="30.5" y1="215.5" x2="150.5" y2="215.5" class="grid" vector-effect="non-scaling-stroke"/>
    <line x1="30.5" y1="235.5" x2="150.5" y2="235.5" class="grid" vector-effect="non-scaling-stroke"/>
    <line x1="30.5" y1="255.5" x2="150.5" y2="255.5" class="grid" vector-effect="non-scaling-stroke"/>
    <line x1="30.5" y1="275.5" x2="150.5" y2="275.5" class="grid" vector-effect="non-scaling-stroke"/>
    <line x1="30.5" y1="16.5" x2="30.5" y2="274.5" class="grid" vector-effect="non-scaling-stroke"/>
    <line x1="50.5" y1="16.5" x2="50.5" y2="274.5" class="grid" vector-effect="non-scaling-stroke"/>
    <line x1="70.5" y1="16.5" x2="70.5" y2="274.5" class="grid" vector-effect="non-scaling-stroke"/>
    <line x1="90.5" y1="16.5" x2="90.5" y2="274.5" class="grid" vector-effect="non-scaling-stroke"/>
    <line x1="110.5" y1="16.5" x2="110.5" y2="274.5" class="grid" vector-effect="non-scaling-stroke"/>
    <line x1="130.5" y1="16.5" x2="130.5" y2="274.5" class="grid" vector-effect="non-scaling-stroke"/>
    <line x1="150.5" y1="16.5" x2="150.5" y2="274.5" class="grid" vector-effect="non-scaling-stroke"/>
    <g style="font-size: 13px;">
        <text x="28" y="25.5" class="axes" dy="0.25em" text-anchor="end">12</text>
        <text x="28" y="45.5" class="axes" dy="0.25em" text-anchor="end">11</text>
        <text x="28" y="65.5" class="axes" dy="0.25em" text-anchor="end">10</text>
        <text x="28" y="85.5" class="axes" dy="0.25em" text-anchor="end">9</text>
        <text x="28" y="105.5" class="axes" dy="0.25em" text-anchor="end">8</text>
        <text x="28" y="125.5" class="axes" dy="0.25em" text-anchor="end">7</text>
        <text x="28" y="145.5" class="axes" dy="0.25em" text-anchor="end">6</text>
        <text x="28" y="165.5" class="axes" dy="0.25em" text-anchor="end">5</text>
        <text x="28" y="185.5" class="axes" dy="0.25em" text-anchor="end">4</text>
        <text x="28" y="205.5" class="axes" dy="0.25em" text-anchor="end">3</text>
        <text x="28" y="225.5" class="axes" dy="0.25em" text-anchor="end">2</text>
        <text x="28" y="245.5" class="axes" dy="0.25em" text-anchor="end">1</text>
        <text x="28" y="265.5" class="axes" dy="0.25em" text-anchor="end">0</text>
        <text x="40.5" y="284.25" class="axes" dy="0.25em" text-anchor="middle">-1</text>
        <text x="60.5" y="284.25" class="axes" dy="0.25em" text-anchor="middle">0</text>
        <text x="80.5" y="284.25" class="axes" dy="0.25em" text-anchor="middle">1</text>
        <text x="100.5" y="284.25" class="axes" dy="0.25em" text-anchor="middle">2</text>
        <text x="120.5" y="284.25" class="axes" dy="0.25em" text-anchor="middle">3</text>
        <text x="140.5" y="284.25" class="axes" dy="0.25em" text-anchor="middle">4</text>
    </g>
    <use href="#ih" x="100.5" y="45.5"/>
    <use href="#ld" x="100.5" y="65.5"/>
    <use href="#sh" x="100.5" y="85.5"/>
    <use href="#o" x="100.5" y="125.5"/>
    <use href="#zh" x="100.5" y="165.5"/>
    <use href="#jd" x="100.5" y="205.5"/>
    <use href="#td" x="100.5" y="245.5"/>
</svg>