<?xml version="1.0"?>
<?xml-stylesheet type="text/css" href="svg.css"?>
<svg width="850" height="60.831721470019342359767891682785" viewBox="0 0 1551 111" xmlns="http://www.w3.org/2000/svg" xmlns:xlink="http://www.w3.org/1999/xlink">
    <defs>
        <polygon id="td" points="-30,-10 29,-10 29,9 9,9 9,29 -10,29 -10,9 -30,9" class="t"/>
        <polygon id="tl" points="-10,-30 9,-30 9,29 -10,29 -10,9 -30,9 -30,-10 -10,-10" class="t"/>
        <polygon id="tu" points="-10,-30 9,-30 9,-10 29,-10 29,9 -30,9 -30,-10 -10,-10" class="t"/>
        <polygon id="tr" points="-10,-30 9,-30 9,-10 29,-10 29,9 9,9 9,29 -10,29" class="t"/>
        <polygon id="jd" points="-30,-10 29,-10 29,29 10,29 10,9 -30,9" class="j"/>
        <polygon id="jl" points="-10,-30 9,-30 9,29 -30,29 -30,10 -10,10" class="j"/>
        <polygon id="ju" points="-30,-30 -11,-30 -11,-10 29,-10 29,9 -30,9" class="j"/>
        <polygon id="jr" points="-10,-30 29,-30 29,-11 9,-11 9,29 -10,29" class="j"/>
        <polygon id="zh" points="-30,-10 9,-10 9,10 29,10 29,29 -10,29 -10,9 -30,9" class="z"/>
        <polygon id="zv" points="10,-30 29,-30 29,9 9,9 9,29 -10,29 -10,-10 10,-10" class="z"/>
        <polygon id="o" points="-30,-10 9,-10 9,29 -30,29" class="o"/>
        <polygon id="sh" points="-10,-10 29,-10 29,9 9,9 9,29 -30,29 -30,10 -10,10" class="s"/>
        <polygon id="sv" points="-10,-30 9,-30 9,-10 29,-10 29,29 10,29 10,9 -10,9" class="s"/>
        <polygon id="ld" points="-30,-10 29,-10 29,9 -11,9 -11,29 -30,29" class="l"/>
        <polygon id="ll" points="-30,-30 9,-30 9,29 -10,29 -10,-11 -30,-11" class="l"/>
        <polygon id="lu" points="10,-30 29,-30 29,9 -30,9 -30,-10 10,-10" class="l"/>
        <polygon id="lr" points="-10,-30 9,-30 9,10 29,10 29,29 -10,29" class="l"/>
        <polygon id="ih" points="-50,-10 29,-10 29,9 -50,9" class="i"/>
        <polygon id="iv" points="-10,-50 9,-50 9,29 -10,29" class="i"/>
    </defs>
    <line x1="15.5" y1="35.5" x2="1535.5" y2="35.5" class="grid" vector-effect="non-scaling-stroke"/>
    <line x1="15.5" y1="55.5" x2="1535.5" y2="55.5" class="grid" vector-effect="non-scaling-stroke"/>
    <line x1="15.5" y1="75.5" x2="1535.5" y2="75.5" class="grid" vector-effect="non-scaling-stroke"/>
    <line x1="15.5" y1="36.5" x2="15.5" y2="74.5" class="grid" vector-effect="non-scaling-stroke"/>
    <line x1="35.5" y1="36.5" x2="35.5" y2="74.5" class="grid" vector-effect="non-scaling-stroke"/>
    <line x1="55.5" y1="36.5" x2="55.5" y2="74.5" class="grid" vector-effect="non-scaling-stroke"/>
    <line x1="75.5" y1="36.5" x2="75.5" y2="74.5" class="grid" vector-effect="non-scaling-stroke"/>
    <line x1="95.5" y1="36.5" x2="95.5" y2="74.5" class="grid" vector-effect="non-scaling-stroke"/>
    <line x1="115.5" y1="36.5" x2="115.5" y2="74.5" class="grid" vector-effect="non-scaling-stroke"/>
    <line x1="135.5" y1="36.5" x2="135.5" y2="74.5" class="grid" vector-effect="non-scaling-stroke"/>
    <line x1="155.5" y1="36.5" x2="155.5" y2="74.5" class="grid" vector-effect="non-scaling-stroke"/>
    <line x1="175.5" y1="36.5" x2="175.5" y2="74.5" class="grid" vector-effect="non-scaling-stroke"/>
    <line x1="195.5" y1="36.5" x2="195.5" y2="74.5" class="grid" vector-effect="non-scaling-stroke"/>
    <line x1="215.5" y1="36.5" x2="215.5" y2="74.5" class="grid" vector-effect="non-scaling-stroke"/>
    <line x1="235.5" y1="36.5" x2="235.5" y2="74.5" class="grid" vector-effect="non-scaling-stroke"/>
    <line x1="255.5" y1="36.5" x2="255.5" y2="74.5" class="grid" vector-effect="non-scaling-stroke"/>
    <line x1="275.5" y1="36.5" x2="275.5" y2="74.5" class="grid" vector-effect="non-scaling-stroke"/>
    <line x1="295.5" y1="36.5" x2="295.5" y2="74.5" class="grid" vector-effect="non-scaling-stroke"/>
    <line x1="315.5" y1="36.5" x2="315.5" y2="74.5" class="grid" vector-effect="non-scaling-stroke"/>
    <line x1="335.5" y1="36.5" x2="335.5" y2="74.5" class="grid" vector-effect="non-scaling-stroke"/>
    <line x1="355.5" y1="36.5" x2="355.5" y2="74.5" class="grid" vector-effect="non-scaling-stroke"/>
    <line x1="375.5" y1="36.5" x2="375.5" y2="74.5" class="grid" vector-effect="non-scaling-stroke"/>
    <line x1="395.5" y1="36.5" x2="395.5" y2="74.5" class="grid" vector-effect="non-scaling-stroke"/>
    <line x1="415.5" y1="36.5" x2="415.5" y2="74.5" class="grid" vector-effect="non-scaling-stroke"/>
    <line x1="435.5" y1="36.5" x2="435.5" y2="74.5" class="grid" vector-effect="non-scaling-stroke"/>
    <line x1="455.5" y1="36.5" x2="455.5" y2="74.5" class="grid" vector-effect="non-scaling-stroke"/>
    <line x1="475.5" y1="36.5" x2="475.5" y2="74.5" class="grid" vector-effect="non-scaling-stroke"/>
    <line x1="495.5" y1="36.5" x2="495.5" y2="74.5" class="grid" vector-effect="non-scaling-stroke"/>
    <line x1="515.5" y1="36.5" x2="515.5" y2="74.5" class="grid" vector-effect="non-scaling-stroke"/>
    <line x1="535.5" y1="36.5" x2="535.5" y2="74.5" class="grid" vector-effect="non-scaling-stroke"/>
    <line x1="555.5" y1="36.5" x2="555.5" y2="74.5" class="grid" vector-effect="non-scaling-stroke"/>
    <line x1="575.5" y1="36.5" x2="575.5" y2="74.5" class="grid" vector-effect="non-scaling-stroke"/>
    <line x1="595.5" y1="36.5" x2="595.5" y2="74.5" class="grid" vector-effect="non-scaling-stroke"/>
    <line x1="615.5" y1="36.5" x2="615.5" y2="74.5" class="grid" vector-effect="non-scaling-stroke"/>
    <line x1="635.5" y1="36.5" x2="635.5" y2="74.5" class="grid" vector-effect="non-scaling-stroke"/>
    <line x1="655.5" y1="36.5" x2="655.5" y2="74.5" class="grid" vector-effect="non-scaling-stroke"/>
    <line x1="675.5" y1="36.5" x2="675.5" y2="74.5" class="grid" vector-effect="non-scaling-stroke"/>
    <line x1="695.5" y1="36.5" x2="695.5" y2="74.5" class="grid" vector-effect="non-scaling-stroke"/>
    <line x1="715.5" y1="36.5" x2="715.5" y2="74.5" class="grid" vector-effect="non-scaling-stroke"/>
    <line x1="735.5" y1="36.5" x2="735.5" y2="74.5" class="grid" vector-effect="non-scaling-stroke"/>
    <line x1="755.5" y1="36.5" x2="755.5" y2="74.5" class="grid" vector-effect="non-scaling-stroke"/>
    <line x1="775.5" y1="36.5" x2="775.5" y2="74.5" class="grid" vector-effect="non-scaling-stroke"/>
    <line x1="795.5" y1="36.5" x2="795.5" y2="74.5" class="grid" vector-effect="non-scaling-stroke"/>
    <line x1="815.5" y1="36.5" x2="815.5" y2="74.5" class="grid" vector-effect="non-scaling-stroke"/>
    <line x1="835.5" y1="36.5" x2="835.5" y2="74.5" class="grid" vector-effect="non-scaling-stroke"/>
    <line x1="855.5" y1="36.5" x2="855.5" y2="74.5" class="grid" vector-effect="non-scaling-stroke"/>
    <line x1="875.5" y1="36.5" x2="875.5" y2="74.5" class="grid" vector-effect="non-scaling-stroke"/>
    <line x1="895.5" y1="36.5" x2="895.5" y2="74.5" class="grid" vector-effect="non-scaling-stroke"/>
    <line x1="915.5" y1="36.5" x2="915.5" y2="74.5" class="grid" vector-effect="non-scaling-stroke"/>
    <line x1="935.5" y1="36.5" x2="935.5" y2="74.5" class="grid" vector-effect="non-scaling-stroke"/>
    <line x1="955.5" y1="36.5" x2="955.5" y2="74.5" class="grid" vector-effect="non-scaling-stroke"/>
    <line x1="975.5" y1="36.5" x2="975.5" y2="74.5" class="grid" vector-effect="non-scaling-stroke"/>
    <line x1="995.5" y1="36.5" x2="995.5" y2="74.5" class="grid" vector-effect="non-scaling-stroke"/>
    <line x1="1015.5" y1="36.5" x2="1015.5" y2="74.5" class="grid" vector-effect="non-scaling-stroke"/>
    <line x1="1035.5" y1="36.5" x2="1035.5" y2="74.5" class="grid" vector-effect="non-scaling-stroke"/>
    <line x1="1055.5" y1="36.5" x2="1055.5" y2="74.5" class="grid" vector-effect="non-scaling-stroke"/>
    <line x1="1075.5" y1="36.5" x2="1075.5" y2="74.5" class="grid" vector-effect="non-scaling-stroke"/>
    <line x1="1095.5" y1="36.5" x2="1095.5" y2="74.5" class="grid" vector-effect="non-scaling-stroke"/>
    <line x1="1115.5" y1="36.5" x2="1115.5" y2="74.5" class="grid" vector-effect="non-scaling-stroke"/>
    <line x1="1135.5" y1="36.5" x2="1135.5" y2="74.5" class="grid" vector-effect="non-scaling-stroke"/>
    <line x1="1155.5" y1="36.5" x2="1155.5" y2="74.5" class="grid" vector-effect="non-scaling-stroke"/>
    <line x1="1175.5" y1="36.5" x2="1175.5" y2="74.5" class="grid" vector-effect="non-scaling-stroke"/>
    <line x1="1195.5" y1="36.5" x2="1195.5" y2="74.5" class="grid" vector-effect="non-scaling-stroke"/>
    <line x1="1215.5" y1="36.5" x2="1215.5" y2="74.5" class="grid" vector-effect="non-scaling-stroke"/>
    <line x1="1235.5" y1="36.5" x2="1235.5" y2="74.5" class="grid" vector-effect="non-scaling-stroke"/>
    <line x1="1255.5" y1="36.5" x2="1255.5" y2="74.5" class="grid" vector-effect="non-scaling-stroke"/>
    <line x1="1275.5" y1="36.5" x2="1275.5" y2="74.5" class="grid" vector-effect="non-scaling-stroke"/>
    <line x1="1295.5" y1="36.5" x2="1295.5" y2="74.5" class="grid" vector-effect="non-scaling-stroke"/>
    <line x1="1315.5" y1="36.5" x2="1315.5" y2="74.5" class="grid" vector-effect="non-scaling-stroke"/>
    <line x1="1335.5" y1="36.5" x2="1335.5" y2="74.5" class="grid" vector-effect="non-scaling-stroke"/>
    <line x1="1355.5" y1="36.5" x2="1355.5" y2="74.5" class="grid" vector-effect="non-scaling-stroke"/>
    <line x1="1375.5" y1="36.5" x2="1375.5" y2="74.5" class="grid" vector-effect="non-scaling-stroke"/>
    <line x1="1395.5" y1="36.5" x2="1395.5" y2="74.5" class="grid" vector-effect="non-scaling-stroke"/>
    <line x1="1415.5" y1="36.5" x2="1415.5" y2="74.5" class="grid" vector-effect="non-scaling-stroke"/>
    <line x1="1435.5" y1="36.5" x2="1435.5" y2="74.5" class="grid" vector-effect="non-scaling-stroke"/>
    <line x1="1455.5" y1="36.5" x2="1455.5" y2="74.5" class="grid" vector-effect="non-scaling-stroke"/>
    <line x1="1475.5" y1="36.5" x2="1475.5" y2="74.5" class="grid" vector-effect="non-scaling-stroke"/>
    <line x1="1495.5" y1="36.5" x2="1495.5" y2="74.5" class="grid" vector-effect="non-scaling-stroke"/>
    <line x1="1515.5" y1="36.5" x2="1515.5" y2="74.5" class="grid" vector-effect="non-scaling-stroke"/>
    <line x1="1535.5" y1="36.5" x2="1535.5" y2="74.5" class="grid" vector-effect="non-scaling-stroke"/>
    <g style="font-size: 20px;">
        <rect x="1435.5" y="35.5" width="79" height="39" class="terminal-stroke"/>
        <text x="1475.5" y="25.5" class="terminals" dy="0.25em" text-anchor="middle">0</text>
        <rect x="1255.5" y="35.5" width="39" height="39" class="terminal-stroke"/>
        <text x="1275.5" y="25.5" class="terminals" dy="0.25em" text-anchor="middle">1</text>
        <rect x="1035.5" y="35.5" width="79" height="39" class="terminal-stroke"/>
        <text x="1075.5" y="25.5" class="terminals" dy="0.25em" text-anchor="middle">0</text>
        <rect x="855.5" y="35.5" width="39" height="39" class="terminal-stroke"/>
        <text x="875.5" y="25.5" class="terminals" dy="0.25em" text-anchor="middle">1</text>
        <rect x="635.5" y="35.5" width="79" height="39" class="terminal-stroke"/>
        <text x="675.5" y="25.5" class="terminals" dy="0.25em" text-anchor="middle">0</text>
        <rect x="455.5" y="35.5" width="39" height="39" class="terminal-stroke"/>
        <text x="475.5" y="25.5" class="terminals" dy="0.25em" text-anchor="middle">1</text>
        <rect x="235.5" y="35.5" width="79" height="39" class="terminal-stroke"/>
        <text x="275.5" y="25.5" class="terminals" dy="0.25em" text-anchor="middle">0</text>
        <rect x="35.5" y="35.5" width="79" height="39" class="terminal-stroke"/>
        <text x="75.5" y="25.5" class="terminals" dy="0.25em" text-anchor="middle">0</text>
    </g>
    <use href="#o" x="1285.5" y="45.5"/>
    <use href="#o" x="885.5" y="45.5"/>
    <use href="#o" x="485.5" y="45.5"/>
    <use href="#ih" x="1485.5" y="65.5"/>
    <use href="#ih" x="1085.5" y="65.5"/>
    <use href="#ih" x="685.5" y="65.5"/>
    <use href="#ih" x="285.5" y="65.5"/>
    <use href="#ih" x="85.5" y="65.5"/>
</svg>