<?xml version="1.0" encoding="UTF-8" standalone="no"?>
<?xml-stylesheet type="text/css" href="svg.css"?>

<svg
   width="800"
   height="616.41201716738197424892703862661"
   viewBox="0 0 1864 1436.24"
   version="1.1"
   id="svg482"
   sodipodi:docname="function-f-of-g.svg"
   inkscape:version="1.1.2 (b8e25be833, 2022-02-05)"
   xmlns:inkscape="http://www.inkscape.org/namespaces/inkscape"
   xmlns:sodipodi="http://sodipodi.sourceforge.net/DTD/sodipodi-0.dtd"
   xmlns="http://www.w3.org/2000/svg"
   xmlns:svg="http://www.w3.org/2000/svg">
  <defs
     id="defs486">
    <marker
       style="overflow:visible"
       id="marker47908"
       refX="0"
       refY="0"
       orient="auto"
       inkscape:stockid="Arrow2Mend"
       inkscape:isstock="true">
      <path
         transform="scale(-0.6)"
         d="M 8.7185878,4.0337352 -2.2072895,0.01601326 8.7185884,-4.0017078 c -1.7454984,2.3720609 -1.7354408,5.6174519 -6e-7,8.035443 z"
         style="fill:#fffff0;fill-rule:evenodd;stroke:#fffff0;stroke-width:0.625;stroke-linecap:square;stroke-linejoin:round;stroke-miterlimit:4;stroke-dasharray:none;stroke-opacity:1"
         id="path47906" />
    </marker>
  </defs>
  <sodipodi:namedview
     id="namedview484"
     pagecolor="#2b2b2b"
     bordercolor="#666666"
     borderopacity="1.0"
     inkscape:pageshadow="2"
     inkscape:pageopacity="1"
     inkscape:pagecheckerboard="0"
     showgrid="false"
     inkscape:zoom="0.43007154"
     inkscape:cx="649.89188"
     inkscape:cy="1016.11"
     inkscape:window-width="1920"
     inkscape:window-height="1137"
     inkscape:window-x="-8"
     inkscape:window-y="-8"
     inkscape:window-maximized="1"
     inkscape:current-layer="svg482"
     fit-margin-right="40"
     fit-margin-bottom="40" />
  <g
     id="g58029"
     transform="translate(348.00031,23)">
    <line
       x1="15.5"
       y1="35.5"
       x2="1475.5"
       y2="35.5"
       class="grid"
       id="line4" />
    <line
       x1="15.5"
       y1="55.5"
       x2="1475.5"
       y2="55.5"
       class="grid"
       id="line6" />
    <line
       x1="15.5"
       y1="75.5"
       x2="1475.5"
       y2="75.5"
       class="grid"
       id="line8" />
    <line
       x1="15.5"
       y1="95.5"
       x2="1475.5"
       y2="95.5"
       class="grid"
       id="line10" />
    <line
       x1="15.5"
       y1="115.5"
       x2="1475.5"
       y2="115.5"
       class="grid"
       id="line12" />
    <line
       x1="15.5"
       y1="135.5"
       x2="1475.5"
       y2="135.5"
       class="grid"
       id="line14" />
    <line
       x1="15.5"
       y1="155.5"
       x2="1475.5"
       y2="155.5"
       class="grid"
       id="line16" />
    <line
       x1="15.5"
       y1="175.5"
       x2="1475.5"
       y2="175.5"
       class="grid"
       id="line18" />
    <line
       x1="15.5"
       y1="195.5"
       x2="1475.5"
       y2="195.5"
       class="grid"
       id="line20" />
    <line
       x1="15.5"
       y1="215.5"
       x2="1475.5"
       y2="215.5"
       class="grid"
       id="line22" />
    <line
       x1="15.5"
       y1="235.5"
       x2="1475.5"
       y2="235.5"
       class="grid"
       id="line24" />
    <line
       x1="15.5"
       y1="255.5"
       x2="1475.5"
       y2="255.5"
       class="grid"
       id="line26" />
    <line
       x1="15.5"
       y1="275.5"
       x2="1475.5"
       y2="275.5"
       class="grid"
       id="line28" />
    <line
       x1="15.5"
       y1="295.5"
       x2="1475.5"
       y2="295.5"
       class="grid"
       id="line30" />
    <line
       x1="15.5"
       y1="315.5"
       x2="1475.5"
       y2="315.5"
       class="grid"
       id="line32" />
    <line
       x1="15.5"
       y1="335.5"
       x2="1475.5"
       y2="335.5"
       class="grid"
       id="line34" />
    <line
       x1="15.5"
       y1="355.5"
       x2="1475.5"
       y2="355.5"
       class="grid"
       id="line36" />
    <line
       x1="15.5"
       y1="375.5"
       x2="1475.5"
       y2="375.5"
       class="grid"
       id="line38" />
    <line
       x1="15.5"
       y1="395.5"
       x2="1475.5"
       y2="395.5"
       class="grid"
       id="line40" />
    <line
       x1="15.5"
       y1="415.5"
       x2="1475.5"
       y2="415.5"
       class="grid"
       id="line42" />
    <line
       x1="15.5"
       y1="435.5"
       x2="1475.5"
       y2="435.5"
       class="grid"
       id="line44" />
    <line
       x1="15.5"
       y1="455.5"
       x2="1475.5"
       y2="455.5"
       class="grid"
       id="line46" />
    <line
       x1="15.5"
       y1="475.5"
       x2="1475.5"
       y2="475.5"
       class="grid"
       id="line48" />
    <line
       x1="15.5"
       y1="495.5"
       x2="1475.5"
       y2="495.5"
       class="grid"
       id="line50" />
    <line
       x1="15.5"
       y1="515.5"
       x2="1475.5"
       y2="515.5"
       class="grid"
       id="line52" />
    <line
       x1="15.5"
       y1="535.5"
       x2="1475.5"
       y2="535.5"
       class="grid"
       id="line54" />
    <line
       x1="15.5"
       y1="555.5"
       x2="1475.5"
       y2="555.5"
       class="grid"
       id="line56" />
    <line
       x1="15.5"
       y1="575.5"
       x2="1475.5"
       y2="575.5"
       class="grid"
       id="line58" />
    <line
       x1="15.5"
       y1="595.5"
       x2="1475.5"
       y2="595.5"
       class="grid"
       id="line60" />
    <line
       x1="15.5"
       y1="615.5"
       x2="1475.5"
       y2="615.5"
       class="grid"
       id="line62" />
    <line
       x1="15.5"
       y1="635.5"
       x2="1475.5"
       y2="635.5"
       class="grid"
       id="line64" />
    <line
       x1="15.5"
       y1="655.5"
       x2="1475.5"
       y2="655.5"
       class="grid"
       id="line66" />
    <line
       x1="15.5"
       y1="675.5"
       x2="1475.5"
       y2="675.5"
       class="grid"
       id="line68" />
    <line
       x1="15.5"
       y1="695.5"
       x2="1475.5"
       y2="695.5"
       class="grid"
       id="line70" />
    <line
       x1="15.5"
       y1="715.5"
       x2="1475.5"
       y2="715.5"
       class="grid"
       id="line72" />
    <line
       x1="15.5"
       y1="735.5"
       x2="1475.5"
       y2="735.5"
       class="grid"
       id="line74" />
    <line
       x1="15.5"
       y1="755.5"
       x2="1475.5"
       y2="755.5"
       class="grid"
       id="line76" />
    <line
       x1="15.5"
       y1="775.5"
       x2="1475.5"
       y2="775.5"
       class="grid"
       id="line78" />
    <line
       x1="15.5"
       y1="795.5"
       x2="1475.5"
       y2="795.5"
       class="grid"
       id="line80" />
    <line
       x1="15.5"
       y1="815.5"
       x2="1475.5"
       y2="815.5"
       class="grid"
       id="line82" />
    <line
       x1="15.5"
       y1="835.5"
       x2="1475.5"
       y2="835.5"
       class="grid"
       id="line84" />
    <line
       x1="15.5"
       y1="855.5"
       x2="1475.5"
       y2="855.5"
       class="grid"
       id="line86" />
    <line
       x1="15.5"
       y1="875.5"
       x2="1475.5"
       y2="875.5"
       class="grid"
       id="line88" />
    <line
       x1="15.5"
       y1="895.5"
       x2="1475.5"
       y2="895.5"
       class="grid"
       id="line90" />
    <line
       x1="15.5"
       y1="915.5"
       x2="1475.5"
       y2="915.5"
       class="grid"
       id="line92" />
    <line
       x1="15.5"
       y1="935.5"
       x2="1475.5"
       y2="935.5"
       class="grid"
       id="line94" />
    <line
       x1="15.5"
       y1="955.5"
       x2="1475.5"
       y2="955.5"
       class="grid"
       id="line96" />
    <line
       x1="15.5"
       y1="975.5"
       x2="1475.5"
       y2="975.5"
       class="grid"
       id="line98" />
    <line
       x1="15.5"
       y1="995.5"
       x2="1475.5"
       y2="995.5"
       class="grid"
       id="line100" />
    <line
       x1="15.5"
       y1="1015.5"
       x2="1475.5"
       y2="1015.5"
       class="grid"
       id="line102" />
    <line
       x1="15.5"
       y1="1035.5"
       x2="1475.5"
       y2="1035.5"
       class="grid"
       id="line104" />
    <line
       x1="15.5"
       y1="1055.5"
       x2="1475.5"
       y2="1055.5"
       class="grid"
       id="line106" />
    <line
       x1="15.5"
       y1="1075.5"
       x2="1475.5"
       y2="1075.5"
       class="grid"
       id="line108" />
    <line
       x1="15.5"
       y1="1095.5"
       x2="1475.5"
       y2="1095.5"
       class="grid"
       id="line110" />
    <line
       x1="15.5"
       y1="1115.5"
       x2="1475.5"
       y2="1115.5"
       class="grid"
       id="line112" />
    <line
       x1="15.5"
       y1="1135.5"
       x2="1475.5"
       y2="1135.5"
       class="grid"
       id="line114" />
    <line
       x1="15.5"
       y1="1155.5"
       x2="1475.5"
       y2="1155.5"
       class="grid"
       id="line116" />
    <line
       x1="15.5"
       y1="1175.5"
       x2="1475.5"
       y2="1175.5"
       class="grid"
       id="line118" />
    <line
       x1="15.5"
       y1="1195.5"
       x2="1475.5"
       y2="1195.5"
       class="grid"
       id="line120" />
    <line
       x1="15.5"
       y1="1215.5"
       x2="1475.5"
       y2="1215.5"
       class="grid"
       id="line122" />
    <line
       x1="15.5"
       y1="1235.5"
       x2="1475.5"
       y2="1235.5"
       class="grid"
       id="line124" />
    <line
       x1="15.5"
       y1="1255.5"
       x2="1475.5"
       y2="1255.5"
       class="grid"
       id="line126" />
    <line
       x1="15.5"
       y1="1275.5"
       x2="1475.5"
       y2="1275.5"
       class="grid"
       id="line128" />
    <line
       x1="15.5"
       y1="1295.5"
       x2="1475.5"
       y2="1295.5"
       class="grid"
       id="line130" />
    <line
       x1="15.5"
       y1="1315.5"
       x2="1475.5"
       y2="1315.5"
       class="grid"
       id="line132" />
    <line
       x1="15.5"
       y1="1335.5"
       x2="1475.5"
       y2="1335.5"
       class="grid"
       id="line134" />
    <line
       x1="15.5"
       y1="1355.5"
       x2="1475.5"
       y2="1355.5"
       class="grid"
       id="line136" />
    <line
       x1="15.5"
       y1="36.5"
       x2="15.5"
       y2="1354.5"
       class="grid"
       id="line138" />
    <line
       x1="35.5"
       y1="36.5"
       x2="35.5"
       y2="1354.5"
       class="grid"
       id="line140" />
    <line
       x1="55.5"
       y1="36.5"
       x2="55.5"
       y2="1354.5"
       class="grid"
       id="line142" />
    <line
       x1="75.5"
       y1="36.5"
       x2="75.5"
       y2="1354.5"
       class="grid"
       id="line144" />
    <line
       x1="95.5"
       y1="36.5"
       x2="95.5"
       y2="1354.5"
       class="grid"
       id="line146" />
    <line
       x1="115.5"
       y1="36.5"
       x2="115.5"
       y2="1354.5"
       class="grid"
       id="line148" />
    <line
       x1="135.5"
       y1="36.5"
       x2="135.5"
       y2="1354.5"
       class="grid"
       id="line150" />
    <line
       x1="155.5"
       y1="36.5"
       x2="155.5"
       y2="1354.5"
       class="grid"
       id="line152" />
    <line
       x1="175.5"
       y1="36.5"
       x2="175.5"
       y2="1354.5"
       class="grid"
       id="line154" />
    <line
       x1="195.5"
       y1="36.5"
       x2="195.5"
       y2="1354.5"
       class="grid"
       id="line156" />
    <line
       x1="215.5"
       y1="36.5"
       x2="215.5"
       y2="1354.5"
       class="grid"
       id="line158" />
    <line
       x1="235.5"
       y1="36.5"
       x2="235.5"
       y2="1354.5"
       class="grid"
       id="line160" />
    <line
       x1="255.5"
       y1="36.5"
       x2="255.5"
       y2="1354.5"
       class="grid"
       id="line162" />
    <line
       x1="275.5"
       y1="36.5"
       x2="275.5"
       y2="1354.5"
       class="grid"
       id="line164" />
    <line
       x1="295.5"
       y1="36.5"
       x2="295.5"
       y2="1354.5"
       class="grid"
       id="line166" />
    <line
       x1="315.5"
       y1="36.5"
       x2="315.5"
       y2="1354.5"
       class="grid"
       id="line168" />
    <line
       x1="335.5"
       y1="36.5"
       x2="335.5"
       y2="1354.5"
       class="grid"
       id="line170" />
    <line
       x1="355.5"
       y1="36.5"
       x2="355.5"
       y2="1354.5"
       class="grid"
       id="line172" />
    <line
       x1="375.5"
       y1="36.5"
       x2="375.5"
       y2="1354.5"
       class="grid"
       id="line174" />
    <line
       x1="395.5"
       y1="36.5"
       x2="395.5"
       y2="1354.5"
       class="grid"
       id="line176" />
    <line
       x1="415.5"
       y1="36.5"
       x2="415.5"
       y2="1354.5"
       class="grid"
       id="line178" />
    <line
       x1="435.5"
       y1="36.5"
       x2="435.5"
       y2="1354.5"
       class="grid"
       id="line180" />
    <line
       x1="455.5"
       y1="36.5"
       x2="455.5"
       y2="1354.5"
       class="grid"
       id="line182" />
    <line
       x1="475.5"
       y1="36.5"
       x2="475.5"
       y2="1354.5"
       class="grid"
       id="line184" />
    <line
       x1="495.5"
       y1="36.5"
       x2="495.5"
       y2="1354.5"
       class="grid"
       id="line186" />
    <line
       x1="515.5"
       y1="36.5"
       x2="515.5"
       y2="1354.5"
       class="grid"
       id="line188" />
    <line
       x1="535.5"
       y1="36.5"
       x2="535.5"
       y2="1354.5"
       class="grid"
       id="line190" />
    <line
       x1="555.5"
       y1="36.5"
       x2="555.5"
       y2="1354.5"
       class="grid"
       id="line192" />
    <line
       x1="575.5"
       y1="36.5"
       x2="575.5"
       y2="1354.5"
       class="grid"
       id="line194" />
    <line
       x1="595.5"
       y1="36.5"
       x2="595.5"
       y2="1354.5"
       class="grid"
       id="line196" />
    <line
       x1="615.5"
       y1="36.5"
       x2="615.5"
       y2="1354.5"
       class="grid"
       id="line198" />
    <line
       x1="635.5"
       y1="36.5"
       x2="635.5"
       y2="1354.5"
       class="grid"
       id="line200" />
    <line
       x1="655.5"
       y1="36.5"
       x2="655.5"
       y2="1354.5"
       class="grid"
       id="line202" />
    <line
       x1="675.5"
       y1="36.5"
       x2="675.5"
       y2="1354.5"
       class="grid"
       id="line204" />
    <line
       x1="695.5"
       y1="36.5"
       x2="695.5"
       y2="1354.5"
       class="grid"
       id="line206" />
    <line
       x1="715.5"
       y1="36.5"
       x2="715.5"
       y2="1354.5"
       class="grid"
       id="line208" />
    <line
       x1="735.5"
       y1="36.5"
       x2="735.5"
       y2="1354.5"
       class="grid"
       id="line210" />
    <line
       x1="755.5"
       y1="36.5"
       x2="755.5"
       y2="1354.5"
       class="grid"
       id="line212" />
    <line
       x1="775.5"
       y1="36.5"
       x2="775.5"
       y2="1354.5"
       class="grid"
       id="line214" />
    <line
       x1="795.5"
       y1="36.5"
       x2="795.5"
       y2="1354.5"
       class="grid"
       id="line216" />
    <line
       x1="815.5"
       y1="36.5"
       x2="815.5"
       y2="1354.5"
       class="grid"
       id="line218" />
    <line
       x1="835.5"
       y1="36.5"
       x2="835.5"
       y2="1354.5"
       class="grid"
       id="line220" />
    <line
       x1="855.5"
       y1="36.5"
       x2="855.5"
       y2="1354.5"
       class="grid"
       id="line222" />
    <line
       x1="875.5"
       y1="36.5"
       x2="875.5"
       y2="1354.5"
       class="grid"
       id="line224" />
    <line
       x1="895.5"
       y1="36.5"
       x2="895.5"
       y2="1354.5"
       class="grid"
       id="line226" />
    <line
       x1="915.5"
       y1="36.5"
       x2="915.5"
       y2="1354.5"
       class="grid"
       id="line228" />
    <line
       x1="935.5"
       y1="36.5"
       x2="935.5"
       y2="1354.5"
       class="grid"
       id="line230" />
    <line
       x1="955.5"
       y1="36.5"
       x2="955.5"
       y2="1354.5"
       class="grid"
       id="line232" />
    <line
       x1="975.5"
       y1="36.5"
       x2="975.5"
       y2="1354.5"
       class="grid"
       id="line234" />
    <line
       x1="995.5"
       y1="36.5"
       x2="995.5"
       y2="1354.5"
       class="grid"
       id="line236" />
    <line
       x1="1015.5"
       y1="36.5"
       x2="1015.5"
       y2="1354.5"
       class="grid"
       id="line238" />
    <line
       x1="1035.5"
       y1="36.5"
       x2="1035.5"
       y2="1354.5"
       class="grid"
       id="line240" />
    <line
       x1="1055.5"
       y1="36.5"
       x2="1055.5"
       y2="1354.5"
       class="grid"
       id="line242" />
    <line
       x1="1075.5"
       y1="36.5"
       x2="1075.5"
       y2="1354.5"
       class="grid"
       id="line244" />
    <line
       x1="1095.5"
       y1="36.5"
       x2="1095.5"
       y2="1354.5"
       class="grid"
       id="line246" />
    <line
       x1="1115.5"
       y1="36.5"
       x2="1115.5"
       y2="1354.5"
       class="grid"
       id="line248" />
    <line
       x1="1135.5"
       y1="36.5"
       x2="1135.5"
       y2="1354.5"
       class="grid"
       id="line250" />
    <line
       x1="1155.5"
       y1="36.5"
       x2="1155.5"
       y2="1354.5"
       class="grid"
       id="line252" />
    <line
       x1="1175.5"
       y1="36.5"
       x2="1175.5"
       y2="1354.5"
       class="grid"
       id="line254" />
    <line
       x1="1195.5"
       y1="36.5"
       x2="1195.5"
       y2="1354.5"
       class="grid"
       id="line256" />
    <line
       x1="1215.5"
       y1="36.5"
       x2="1215.5"
       y2="1354.5"
       class="grid"
       id="line258" />
    <line
       x1="1235.5"
       y1="36.5"
       x2="1235.5"
       y2="1354.5"
       class="grid"
       id="line260" />
    <line
       x1="1255.5"
       y1="36.5"
       x2="1255.5"
       y2="1354.5"
       class="grid"
       id="line262" />
    <line
       x1="1275.5"
       y1="36.5"
       x2="1275.5"
       y2="1354.5"
       class="grid"
       id="line264" />
    <line
       x1="1295.5"
       y1="36.5"
       x2="1295.5"
       y2="1354.5"
       class="grid"
       id="line266" />
    <line
       x1="1315.5"
       y1="36.5"
       x2="1315.5"
       y2="1354.5"
       class="grid"
       id="line268" />
    <line
       x1="1335.5"
       y1="36.5"
       x2="1335.5"
       y2="1354.5"
       class="grid"
       id="line270" />
    <line
       x1="1355.5"
       y1="36.5"
       x2="1355.5"
       y2="1354.5"
       class="grid"
       id="line272" />
    <line
       x1="1375.5"
       y1="36.5"
       x2="1375.5"
       y2="1354.5"
       class="grid"
       id="line274" />
    <line
       x1="1395.5"
       y1="36.5"
       x2="1395.5"
       y2="1354.5"
       class="grid"
       id="line276" />
    <line
       x1="1415.5"
       y1="36.5"
       x2="1415.5"
       y2="1354.5"
       class="grid"
       id="line278" />
    <line
       x1="1435.5"
       y1="36.5"
       x2="1435.5"
       y2="1354.5"
       class="grid"
       id="line280" />
    <line
       x1="1455.5"
       y1="36.5"
       x2="1455.5"
       y2="1354.5"
       class="grid"
       id="line282" />
    <line
       x1="1475.5"
       y1="36.5"
       x2="1475.5"
       y2="1354.5"
       class="grid"
       id="line284" />
    <g
       style="font-size:13px"
       id="g302">
      <g
         id="g292">
        <rect
           x="35.5"
           y="55.5"
           width="1419"
           height="639"
           class="component"
           id="rect286" />
        <rect
           x="35.5"
           y="55.5"
           width="1419"
           height="639"
           class="terminal-stroke"
           id="rect288" />
        <text
           class="component"
           text-anchor="middle"
           id="text290"
           rotate="0 0"
           style="font-size:300px"
           x="745.5"
           y="450.50003"><tspan
             style="font-style:normal;font-variant:normal;font-weight:normal;font-stretch:normal;font-size:300px;font-family:'Bentham', serif;"
             id="tspan13314">f</tspan></text>
      </g>
      <g
         id="g300">
        <rect
           x="35.5"
           y="695.5"
           width="1419"
           height="639"
           class="component"
           id="rect294" />
        <rect
           x="35.5"
           y="695.5"
           width="1419"
           height="639"
           class="terminal-stroke"
           id="rect296" />
        <text
           class="component"
           text-anchor="middle"
           id="text298"
           style="font-size:300px"
           x="745.50067"
           y="1041.8058"><tspan
             style="font-style:normal;font-variant:normal;font-weight:normal;font-stretch:normal;font-size:300px;font-family:'Bentham', serif;"
             id="tspan3976">g</tspan></text>
      </g>
    </g>
    <rect
       x="1435.5"
       y="675.5"
       width="19"
       height="39"
       class="terminal-stroke"
       id="rect304" />
    <rect
       x="1235.5"
       y="675.5"
       width="19"
       height="39"
       class="terminal-stroke"
       id="rect306" />
    <rect
       x="1035.5"
       y="675.5"
       width="19"
       height="39"
       class="terminal-stroke"
       id="rect308" />
    <rect
       x="835.5"
       y="675.5"
       width="19"
       height="39"
       class="terminal-stroke"
       id="rect310" />
    <rect
       x="635.5"
       y="675.5"
       width="19"
       height="39"
       class="terminal-stroke"
       id="rect312" />
    <rect
       x="435.5"
       y="675.5"
       width="19"
       height="39"
       class="terminal-stroke"
       id="rect314" />
    <rect
       x="235.5"
       y="675.5"
       width="19"
       height="39"
       class="terminal-stroke"
       id="rect316" />
    <rect
       x="35.5"
       y="675.5"
       width="19"
       height="39"
       class="terminal-stroke"
       id="rect318" />
    <rect
       x="1435.5"
       y="55.5"
       width="19"
       height="19"
       class="terminal-fill"
       id="rect320" />
    <rect
       x="1435.5"
       y="35.5"
       width="19"
       height="39"
       class="terminal-stroke"
       id="rect322" />
    <rect
       x="1235.5"
       y="55.5"
       width="19"
       height="19"
       class="terminal-fill"
       id="rect324" />
    <rect
       x="1235.5"
       y="35.5"
       width="19"
       height="39"
       class="terminal-stroke"
       id="rect326" />
    <rect
       x="1035.5"
       y="55.5"
       width="19"
       height="19"
       class="terminal-fill"
       id="rect328" />
    <rect
       x="1035.5"
       y="35.5"
       width="19"
       height="39"
       class="terminal-stroke"
       id="rect330" />
    <rect
       x="835.5"
       y="35.5"
       width="19"
       height="39"
       class="terminal-fill"
       id="rect332" />
    <rect
       x="835.5"
       y="35.5"
       width="19"
       height="39"
       class="terminal-stroke"
       id="rect334" />
    <rect
       x="635.5"
       y="55.5"
       width="19"
       height="19"
       class="terminal-fill"
       id="rect336" />
    <rect
       x="635.5"
       y="35.5"
       width="19"
       height="39"
       class="terminal-stroke"
       id="rect338" />
    <rect
       x="435.5"
       y="35.5"
       width="19"
       height="39"
       class="terminal-fill"
       id="rect340" />
    <rect
       x="435.5"
       y="35.5"
       width="19"
       height="39"
       class="terminal-stroke"
       id="rect342" />
    <rect
       x="235.5"
       y="35.5"
       width="19"
       height="39"
       class="terminal-fill"
       id="rect344" />
    <rect
       x="235.5"
       y="35.5"
       width="19"
       height="39"
       class="terminal-stroke"
       id="rect346" />
    <rect
       x="35.5"
       y="55.5"
       width="19"
       height="19"
       class="terminal-fill"
       id="rect348" />
    <rect
       x="35.5"
       y="35.5"
       width="19"
       height="39"
       class="terminal-stroke"
       id="rect350" />
    <rect
       x="1435.5"
       y="1315.5"
       width="19"
       height="39"
       class="terminal-stroke"
       id="rect352" />
    <rect
       x="1235.5"
       y="1315.5"
       width="19"
       height="39"
       class="terminal-stroke"
       id="rect354" />
    <rect
       x="1035.5"
       y="1315.5"
       width="19"
       height="39"
       class="terminal-stroke"
       id="rect356" />
    <rect
       x="835.5"
       y="1315.5"
       width="19"
       height="39"
       class="terminal-stroke"
       id="rect358" />
    <rect
       x="635.5"
       y="1315.5"
       width="19"
       height="39"
       class="terminal-stroke"
       id="rect360" />
    <rect
       x="435.5"
       y="1315.5"
       width="19"
       height="39"
       class="terminal-stroke"
       id="rect362" />
    <rect
       x="235.5"
       y="1315.5"
       width="19"
       height="39"
       class="terminal-stroke"
       id="rect364" />
    <rect
       x="35.5"
       y="1315.5"
       width="19"
       height="39"
       class="terminal-stroke"
       id="rect366" />
    <rect
       x="1435.5"
       y="675.5"
       width="19"
       height="39"
       class="terminal-fill"
       id="rect368" />
    <rect
       x="1435.5"
       y="675.5"
       width="19"
       height="39"
       class="terminal-stroke"
       id="rect370" />
    <rect
       x="1235.5"
       y="675.5"
       width="19"
       height="39"
       class="terminal-fill"
       id="rect372" />
    <rect
       x="1235.5"
       y="675.5"
       width="19"
       height="39"
       class="terminal-stroke"
       id="rect374" />
    <rect
       x="1035.5"
       y="675.5"
       width="19"
       height="39"
       class="terminal-fill"
       id="rect376" />
    <rect
       x="1035.5"
       y="675.5"
       width="19"
       height="39"
       class="terminal-stroke"
       id="rect378" />
    <rect
       x="835.5"
       y="695.5"
       width="19"
       height="19"
       class="terminal-fill"
       id="rect380" />
    <rect
       x="835.5"
       y="675.5"
       width="19"
       height="39"
       class="terminal-stroke"
       id="rect382" />
    <rect
       x="635.5"
       y="695.5"
       width="19"
       height="19"
       class="terminal-fill"
       id="rect384" />
    <rect
       x="635.5"
       y="675.5"
       width="19"
       height="39"
       class="terminal-stroke"
       id="rect386" />
    <rect
       x="435.5"
       y="675.5"
       width="19"
       height="39"
       class="terminal-fill"
       id="rect388" />
    <rect
       x="435.5"
       y="675.5"
       width="19"
       height="39"
       class="terminal-stroke"
       id="rect390" />
    <rect
       x="235.5"
       y="675.5"
       width="19"
       height="39"
       class="terminal-fill"
       id="rect392" />
    <rect
       x="235.5"
       y="675.5"
       width="19"
       height="39"
       class="terminal-stroke"
       id="rect394" />
    <rect
       x="35.5"
       y="695.5"
       width="19"
       height="19"
       class="terminal-fill"
       id="rect396" />
    <rect
       x="35.5"
       y="675.5"
       width="19"
       height="39"
       class="terminal-stroke"
       id="rect398" />
    <g
       style="font-size:20px"
       id="g480">
      <rect
         x="1435.5"
         y="1335.5"
         width="19"
         height="19"
         class="terminal-fill"
         id="rect400" />
      <rect
         x="1435.5"
         y="1315.5"
         width="19"
         height="39"
         class="terminal-stroke"
         id="rect402" />
      <text
         x="1445.5"
         y="1368"
         class="terminals"
         dy="0.25em"
         text-anchor="middle"
         id="text404">0</text>
      <rect
         x="1235.5"
         y="1315.5"
         width="19"
         height="39"
         class="terminal-fill"
         id="rect406" />
      <rect
         x="1235.5"
         y="1315.5"
         width="19"
         height="39"
         class="terminal-stroke"
         id="rect408" />
      <text
         x="1245.5"
         y="1368"
         class="terminals"
         dy="0.25em"
         text-anchor="middle"
         id="text410">1</text>
      <rect
         x="1035.5"
         y="1315.5"
         width="19"
         height="39"
         class="terminal-fill"
         id="rect412" />
      <rect
         x="1035.5"
         y="1315.5"
         width="19"
         height="39"
         class="terminal-stroke"
         id="rect414" />
      <text
         x="1045.5"
         y="1368"
         class="terminals"
         dy="0.25em"
         text-anchor="middle"
         id="text416">1</text>
      <rect
         x="835.5"
         y="1335.5"
         width="19"
         height="19"
         class="terminal-fill"
         id="rect418" />
      <rect
         x="835.5"
         y="1315.5"
         width="19"
         height="39"
         class="terminal-stroke"
         id="rect420" />
      <text
         x="845.5"
         y="1368"
         class="terminals"
         dy="0.25em"
         text-anchor="middle"
         id="text422">0</text>
      <rect
         x="635.5"
         y="1335.5"
         width="19"
         height="19"
         class="terminal-fill"
         id="rect424" />
      <rect
         x="635.5"
         y="1315.5"
         width="19"
         height="39"
         class="terminal-stroke"
         id="rect426" />
      <text
         x="645.5"
         y="1368"
         class="terminals"
         dy="0.25em"
         text-anchor="middle"
         id="text428">0</text>
      <rect
         x="435.5"
         y="1315.5"
         width="19"
         height="39"
         class="terminal-fill"
         id="rect430" />
      <rect
         x="435.5"
         y="1315.5"
         width="19"
         height="39"
         class="terminal-stroke"
         id="rect432" />
      <text
         x="445.5"
         y="1368"
         class="terminals"
         dy="0.25em"
         text-anchor="middle"
         id="text434">1</text>
      <rect
         x="235.5"
         y="1315.5"
         width="19"
         height="39"
         class="terminal-fill"
         id="rect436" />
      <rect
         x="235.5"
         y="1315.5"
         width="19"
         height="39"
         class="terminal-stroke"
         id="rect438" />
      <text
         x="245.5"
         y="1368"
         class="terminals"
         dy="0.25em"
         text-anchor="middle"
         id="text440">1</text>
      <rect
         x="35.5"
         y="1335.5"
         width="19"
         height="19"
         class="terminal-fill"
         id="rect442" />
      <rect
         x="35.5"
         y="1315.5"
         width="19"
         height="39"
         class="terminal-stroke"
         id="rect444" />
      <text
         x="45.5"
         y="1368"
         class="terminals"
         dy="0.25em"
         text-anchor="middle"
         id="text446">0</text>
      <rect
         x="1435.5"
         y="35.5"
         width="19"
         height="39"
         class="terminal-stroke"
         id="rect448" />
      <text
         x="1445.5"
         y="25.5"
         class="terminals"
         dy="0.25em"
         text-anchor="middle"
         id="text450">0</text>
      <rect
         x="1235.5"
         y="35.5"
         width="19"
         height="39"
         class="terminal-stroke"
         id="rect452" />
      <text
         x="1245.5"
         y="25.5"
         class="terminals"
         dy="0.25em"
         text-anchor="middle"
         id="text454">0</text>
      <rect
         x="1035.5"
         y="35.5"
         width="19"
         height="39"
         class="terminal-stroke"
         id="rect456" />
      <text
         x="1045.5"
         y="25.5"
         class="terminals"
         dy="0.25em"
         text-anchor="middle"
         id="text458">0</text>
      <rect
         x="835.5"
         y="35.5"
         width="19"
         height="39"
         class="terminal-stroke"
         id="rect460" />
      <text
         x="845.5"
         y="25.5"
         class="terminals"
         dy="0.25em"
         text-anchor="middle"
         id="text462">1</text>
      <rect
         x="635.5"
         y="35.5"
         width="19"
         height="39"
         class="terminal-stroke"
         id="rect464" />
      <text
         x="645.5"
         y="25.5"
         class="terminals"
         dy="0.25em"
         text-anchor="middle"
         id="text466">0</text>
      <rect
         x="435.5"
         y="35.5"
         width="19"
         height="39"
         class="terminal-stroke"
         id="rect468" />
      <text
         x="445.5"
         y="25.5"
         class="terminals"
         dy="0.25em"
         text-anchor="middle"
         id="text470">1</text>
      <rect
         x="235.5"
         y="35.5"
         width="19"
         height="39"
         class="terminal-stroke"
         id="rect472" />
      <text
         x="245.5"
         y="25.5"
         class="terminals"
         dy="0.25em"
         text-anchor="middle"
         id="text474">1</text>
      <rect
         x="35.5"
         y="35.5"
         width="19"
         height="39"
         class="terminal-stroke"
         id="rect476" />
      <text
         x="45.5"
         y="25.5"
         class="terminals"
         dy="0.25em"
         text-anchor="middle"
         id="text478">0</text>
    </g>
  </g>
  <path
     style="fill:none;stroke:#fffff0;stroke-width:8;stroke-linecap:butt;stroke-linejoin:miter;stroke-miterlimit:4;stroke-dasharray:none;stroke-opacity:1;marker-end:url(#marker47908)"
     d="m 239.25028,1358.6806 h 106.877"
     id="path47484"
     sodipodi:nodetypes="cc" />
  <path
     style="fill:none;stroke:#fffff0;stroke-width:8;stroke-linecap:butt;stroke-linejoin:miter;stroke-miterlimit:4;stroke-dasharray:none;stroke-opacity:1;marker-end:url(#marker47908)"
     d="m 239.25028,718.6806 h 106.877"
     id="path47484-1"
     sodipodi:nodetypes="cc" />
  <path
     style="fill:none;stroke:#fffff0;stroke-width:8;stroke-linecap:butt;stroke-linejoin:miter;stroke-miterlimit:4;stroke-dasharray:none;stroke-opacity:1;marker-end:url(#marker47908)"
     d="m 239.25031,78.5 h 106.877"
     id="path47484-1-3"
     sodipodi:nodetypes="cc" />
  <text
     xml:space="preserve"
     style="font-size:70px;line-height:1.25;font-family:'Bentham', serif;;letter-spacing:0px;word-spacing:0px;fill:#fffff0"
     x="184.43246"
     y="1379.4874"
     id="text53101"><tspan
       sodipodi:role="line"
       id="tspan53099"
       x="184.43246"
       y="1379.4874"
       style="font-size:70px">V</tspan></text>
  <text
     xml:space="preserve"
     style="font-size:70px;line-height:1.25;font-family:'Bentham', serif;;letter-spacing:0px;word-spacing:0px"
     x="104.32397"
     y="736.44556"
     id="text59793"><tspan
       sodipodi:role="line"
       id="tspan59791"
       x="104.32397"
       y="736.44556"
       style="font-size:70px;fill:#fffff0">g(V)</tspan></text>
  <text
     xml:space="preserve"
     style="font-size:70px;line-height:1.25;font-family:'Bentham', serif;;letter-spacing:0px;word-spacing:0px"
     x="35.618046"
     y="95.478821"
     id="text59793-1"><tspan
       sodipodi:role="line"
       id="tspan59791-6"
       x="35.618046"
       y="95.478821"
       style="font-size:70px;fill:#fffff0">f(g(V))</tspan></text>
</svg>
