<?xml version="1.0" encoding="UTF-8" standalone="no"?>
<svg
   xmlns:dc="http://purl.org/dc/elements/1.1/"
   xmlns:cc="http://creativecommons.org/ns#"
   xmlns:rdf="http://www.w3.org/1999/02/22-rdf-syntax-ns#"
   xmlns:svg="http://www.w3.org/2000/svg"
   xmlns="http://www.w3.org/2000/svg"
   xmlns:sodipodi="http://sodipodi.sourceforge.net/DTD/sodipodi-0.dtd"
   xmlns:inkscape="http://www.inkscape.org/namespaces/inkscape"
   width="380"
   height="100"
   id="svg6359"
   sodipodi:version="0.32"
   inkscape:version="1.0.1 (3bc2e813f5, 2020-09-07)"
   version="1.0"
   sodipodi:docname="half-subtractor.svg"
   inkscape:output_extension="org.inkscape.output.svg.inkscape">
  <defs
     id="defs6361">
    <inkscape:perspective
       sodipodi:type="inkscape:persp3d"
       inkscape:vp_x="0 : 526.18109 : 1"
       inkscape:vp_y="0 : 1000 : 0"
       inkscape:vp_z="744.09448 : 526.18109 : 1"
       inkscape:persp3d-origin="372.04724 : 350.78739 : 1"
       id="perspective6367" />
    <inkscape:perspective
       sodipodi:type="inkscape:persp3d"
       inkscape:vp_x="0 : 32 : 1"
       inkscape:vp_y="0 : 1000 : 0"
       inkscape:vp_z="64 : 32 : 1"
       inkscape:persp3d-origin="32 : 21.333333 : 1"
       id="perspective5533" />
    <inkscape:perspective
       sodipodi:type="inkscape:persp3d"
       inkscape:vp_x="0 : 50 : 1"
       inkscape:vp_y="0 : 1000 : 0"
       inkscape:vp_z="100 : 50 : 1"
       inkscape:persp3d-origin="50 : 33.333333 : 1"
       id="perspective3275" />
    <inkscape:perspective
       sodipodi:type="inkscape:persp3d"
       inkscape:vp_x="0 : 60 : 1"
       inkscape:vp_y="0 : 1000 : 0"
       inkscape:vp_z="150 : 60 : 1"
       inkscape:persp3d-origin="75 : 40 : 1"
       id="perspective2777" />
    <inkscape:perspective
       sodipodi:type="inkscape:persp3d"
       inkscape:vp_x="0 : 526.18109 : 1"
       inkscape:vp_y="0 : 1000 : 0"
       inkscape:vp_z="744.09448 : 526.18109 : 1"
       inkscape:persp3d-origin="372.04724 : 350.78739 : 1"
       id="perspective2819" />
    <inkscape:perspective
       id="perspective2806"
       inkscape:persp3d-origin="0.5 : 0.33333333 : 1"
       inkscape:vp_z="1 : 0.5 : 1"
       inkscape:vp_y="0 : 1000 : 0"
       inkscape:vp_x="0 : 0.5 : 1"
       sodipodi:type="inkscape:persp3d" />
    <inkscape:perspective
       id="perspective2714"
       inkscape:persp3d-origin="25 : 10 : 1"
       inkscape:vp_z="50 : 15 : 1"
       inkscape:vp_y="0 : 1000 : 0"
       inkscape:vp_x="0 : 15 : 1"
       sodipodi:type="inkscape:persp3d" />
    <inkscape:perspective
       sodipodi:type="inkscape:persp3d"
       inkscape:vp_x="0 : 32 : 1"
       inkscape:vp_y="0 : 1000 : 0"
       inkscape:vp_z="64 : 32 : 1"
       inkscape:persp3d-origin="32 : 21.333333 : 1"
       id="perspective6738" />
    <inkscape:perspective
       sodipodi:type="inkscape:persp3d"
       inkscape:vp_x="0 : 50 : 1"
       inkscape:vp_y="0 : 1000 : 0"
       inkscape:vp_z="100 : 50 : 1"
       inkscape:persp3d-origin="50 : 33.333333 : 1"
       id="perspective6736" />
    <inkscape:perspective
       sodipodi:type="inkscape:persp3d"
       inkscape:vp_x="0 : 60 : 1"
       inkscape:vp_y="0 : 1000 : 0"
       inkscape:vp_z="150 : 60 : 1"
       inkscape:persp3d-origin="75 : 40 : 1"
       id="perspective6734" />
    <inkscape:perspective
       sodipodi:type="inkscape:persp3d"
       inkscape:vp_x="0 : 526.18109 : 1"
       inkscape:vp_y="0 : 1000 : 0"
       inkscape:vp_z="744.09448 : 526.18109 : 1"
       inkscape:persp3d-origin="372.04724 : 350.78739 : 1"
       id="perspective6732" />
    <inkscape:perspective
       id="perspective6730"
       inkscape:persp3d-origin="0.5 : 0.33333333 : 1"
       inkscape:vp_z="1 : 0.5 : 1"
       inkscape:vp_y="0 : 1000 : 0"
       inkscape:vp_x="0 : 0.5 : 1"
       sodipodi:type="inkscape:persp3d" />
    <inkscape:perspective
       id="perspective6728"
       inkscape:persp3d-origin="25 : 10 : 1"
       inkscape:vp_z="50 : 15 : 1"
       inkscape:vp_y="0 : 1000 : 0"
       inkscape:vp_x="0 : 15 : 1"
       sodipodi:type="inkscape:persp3d" />
    <inkscape:perspective
       sodipodi:type="inkscape:persp3d"
       inkscape:vp_x="0 : 25 : 1"
       inkscape:vp_y="0 : 1000 : 0"
       inkscape:vp_z="50 : 25 : 1"
       inkscape:persp3d-origin="25 : 16.666667 : 1"
       id="perspective2557" />
    <inkscape:perspective
       sodipodi:type="inkscape:persp3d"
       inkscape:vp_x="0 : 32 : 1"
       inkscape:vp_y="0 : 1000 : 0"
       inkscape:vp_z="64 : 32 : 1"
       inkscape:persp3d-origin="32 : 21.333333 : 1"
       id="perspective6846" />
    <inkscape:perspective
       sodipodi:type="inkscape:persp3d"
       inkscape:vp_x="0 : 50 : 1"
       inkscape:vp_y="0 : 1000 : 0"
       inkscape:vp_z="100 : 50 : 1"
       inkscape:persp3d-origin="50 : 33.333333 : 1"
       id="perspective6844" />
    <inkscape:perspective
       sodipodi:type="inkscape:persp3d"
       inkscape:vp_x="0 : 60 : 1"
       inkscape:vp_y="0 : 1000 : 0"
       inkscape:vp_z="150 : 60 : 1"
       inkscape:persp3d-origin="75 : 40 : 1"
       id="perspective6842" />
    <inkscape:perspective
       sodipodi:type="inkscape:persp3d"
       inkscape:vp_x="0 : 526.18109 : 1"
       inkscape:vp_y="0 : 1000 : 0"
       inkscape:vp_z="744.09448 : 526.18109 : 1"
       inkscape:persp3d-origin="372.04724 : 350.78739 : 1"
       id="perspective6840" />
    <inkscape:perspective
       id="perspective6838"
       inkscape:persp3d-origin="0.5 : 0.33333333 : 1"
       inkscape:vp_z="1 : 0.5 : 1"
       inkscape:vp_y="0 : 1000 : 0"
       inkscape:vp_x="0 : 0.5 : 1"
       sodipodi:type="inkscape:persp3d" />
    <inkscape:perspective
       id="perspective6836"
       inkscape:persp3d-origin="25 : 10 : 1"
       inkscape:vp_z="50 : 15 : 1"
       inkscape:vp_y="0 : 1000 : 0"
       inkscape:vp_x="0 : 15 : 1"
       sodipodi:type="inkscape:persp3d" />
    <inkscape:perspective
       sodipodi:type="inkscape:persp3d"
       inkscape:vp_x="0 : 32 : 1"
       inkscape:vp_y="0 : 1000 : 0"
       inkscape:vp_z="64 : 32 : 1"
       inkscape:persp3d-origin="32 : 21.333333 : 1"
       id="perspective9092" />
    <inkscape:perspective
       sodipodi:type="inkscape:persp3d"
       inkscape:vp_x="0 : 50 : 1"
       inkscape:vp_y="0 : 1000 : 0"
       inkscape:vp_z="100 : 50 : 1"
       inkscape:persp3d-origin="50 : 33.333333 : 1"
       id="perspective9090" />
    <inkscape:perspective
       sodipodi:type="inkscape:persp3d"
       inkscape:vp_x="0 : 60 : 1"
       inkscape:vp_y="0 : 1000 : 0"
       inkscape:vp_z="150 : 60 : 1"
       inkscape:persp3d-origin="75 : 40 : 1"
       id="perspective9088" />
    <inkscape:perspective
       sodipodi:type="inkscape:persp3d"
       inkscape:vp_x="0 : 526.18109 : 1"
       inkscape:vp_y="0 : 1000 : 0"
       inkscape:vp_z="744.09448 : 526.18109 : 1"
       inkscape:persp3d-origin="372.04724 : 350.78739 : 1"
       id="perspective9086" />
    <inkscape:perspective
       id="perspective9084"
       inkscape:persp3d-origin="0.5 : 0.33333333 : 1"
       inkscape:vp_z="1 : 0.5 : 1"
       inkscape:vp_y="0 : 1000 : 0"
       inkscape:vp_x="0 : 0.5 : 1"
       sodipodi:type="inkscape:persp3d" />
    <inkscape:perspective
       id="perspective9082"
       inkscape:persp3d-origin="25 : 10 : 1"
       inkscape:vp_z="50 : 15 : 1"
       inkscape:vp_y="0 : 1000 : 0"
       inkscape:vp_x="0 : 15 : 1"
       sodipodi:type="inkscape:persp3d" />
    <inkscape:perspective
       sodipodi:type="inkscape:persp3d"
       inkscape:vp_x="0 : 25 : 1"
       inkscape:vp_y="0 : 1000 : 0"
       inkscape:vp_z="50 : 25 : 1"
       inkscape:persp3d-origin="25 : 16.666667 : 1"
       id="perspective8883" />
    <inkscape:perspective
       sodipodi:type="inkscape:persp3d"
       inkscape:vp_x="0 : 32 : 1"
       inkscape:vp_y="0 : 1000 : 0"
       inkscape:vp_z="64 : 32 : 1"
       inkscape:persp3d-origin="32 : 21.333333 : 1"
       id="perspective8881" />
    <inkscape:perspective
       sodipodi:type="inkscape:persp3d"
       inkscape:vp_x="0 : 50 : 1"
       inkscape:vp_y="0 : 1000 : 0"
       inkscape:vp_z="100 : 50 : 1"
       inkscape:persp3d-origin="50 : 33.333333 : 1"
       id="perspective8879" />
    <inkscape:perspective
       sodipodi:type="inkscape:persp3d"
       inkscape:vp_x="0 : 60 : 1"
       inkscape:vp_y="0 : 1000 : 0"
       inkscape:vp_z="150 : 60 : 1"
       inkscape:persp3d-origin="75 : 40 : 1"
       id="perspective8877" />
    <inkscape:perspective
       sodipodi:type="inkscape:persp3d"
       inkscape:vp_x="0 : 526.18109 : 1"
       inkscape:vp_y="0 : 1000 : 0"
       inkscape:vp_z="744.09448 : 526.18109 : 1"
       inkscape:persp3d-origin="372.04724 : 350.78739 : 1"
       id="perspective8875" />
    <inkscape:perspective
       id="perspective8873"
       inkscape:persp3d-origin="0.5 : 0.33333333 : 1"
       inkscape:vp_z="1 : 0.5 : 1"
       inkscape:vp_y="0 : 1000 : 0"
       inkscape:vp_x="0 : 0.5 : 1"
       sodipodi:type="inkscape:persp3d" />
    <inkscape:perspective
       id="perspective8871"
       inkscape:persp3d-origin="25 : 10 : 1"
       inkscape:vp_z="50 : 15 : 1"
       inkscape:vp_y="0 : 1000 : 0"
       inkscape:vp_x="0 : 15 : 1"
       sodipodi:type="inkscape:persp3d" />
  </defs>
  <sodipodi:namedview
     id="base"
     pagecolor="#ffffff"
     bordercolor="#666666"
     borderopacity="1.0"
     gridtolerance="10000"
     guidetolerance="10"
     objecttolerance="10"
     inkscape:pageopacity="0.0"
     inkscape:pageshadow="2"
     inkscape:zoom="2.8284272"
     inkscape:cx="135.96968"
     inkscape:cy="-8.0868795"
     inkscape:document-units="px"
     inkscape:current-layer="layer1"
     showgrid="true"
     inkscape:window-width="1920"
     inkscape:window-height="1137"
     inkscape:window-x="1912"
     inkscape:window-y="-8"
     inkscape:document-rotation="0"
     inkscape:snap-others="false"
     inkscape:snap-nodes="false"
     inkscape:window-maximized="1">
    <inkscape:grid
       type="xygrid"
       id="grid6453"
       visible="true"
       enabled="true" />
  </sodipodi:namedview>
  <metadata
     id="metadata6364">
    <rdf:RDF>
      <cc:Work
         rdf:about="">
        <dc:format>image/svg+xml</dc:format>
        <dc:type
           rdf:resource="http://purl.org/dc/dcmitype/StillImage" />
        <dc:title></dc:title>
      </cc:Work>
    </rdf:RDF>
  </metadata>
  <g
     inkscape:label="Layer 1"
     inkscape:groupmode="layer"
     id="layer1">
    <circle
       style="display:inline;overflow:visible;visibility:visible;fill:none;fill-opacity:1;stroke:#000000;stroke-width:2;stroke-linejoin:miter;stroke-opacity:1;marker:none;enable-background:accumulate"
       id="path4008"
       transform="translate(108.0625,0.03125)"
       cx="75"
       cy="25"
       r="4" />
    <path
       style="fill:none;stroke:#000000;stroke-width:2;stroke-linecap:butt;stroke-linejoin:miter;stroke-opacity:1"
       d="m 269,50 h 21"
       id="path6851"
       sodipodi:nodetypes="cc" />
    <text
       xml:space="preserve"
       style="font-style:italic;font-variant:normal;font-weight:normal;font-stretch:normal;line-height:0%;font-family:'DejaVu Serif';-inkscape-font-specification:'DejaVu Serif Italic';text-align:end;writing-mode:lr-tb;text-anchor:end;fill:#000000;fill-opacity:1;stroke:none;stroke-width:1px;stroke-linecap:butt;stroke-linejoin:miter;stroke-opacity:1"
       x="110.8125"
       y="51.53125"
       id="text6874"><tspan
         sodipodi:role="line"
         id="tspan6876"
         x="115.3125"
         y="51.53125"
         style="font-size:18px;line-height:1"> </tspan></text>
    <circle
       style="display:inline;overflow:visible;visibility:visible;fill:#000000;fill-opacity:1;stroke:none;stroke-width:2;stroke-linejoin:miter;stroke-miterlimit:4;stroke-dasharray:none;stroke-opacity:1;marker:none;enable-background:accumulate"
       id="path7571"
       transform="matrix(1.25,0,0,1.25,-11.25,18.75)"
       cx="105"
       cy="25"
       r="2" />
    <circle
       style="display:inline;overflow:visible;visibility:visible;fill:none;fill-opacity:1;stroke:#000000;stroke-width:2;stroke-linejoin:miter;stroke-opacity:1;marker:none;enable-background:accumulate"
       id="path8976"
       transform="translate(108.1875,49.96875)"
       cx="75"
       cy="25"
       r="4" />
    <path
       style="display:inline;overflow:visible;visibility:visible;fill:none;fill-opacity:1;stroke:#000000;stroke-width:2;stroke-linejoin:miter;stroke-miterlimit:4;stroke-dasharray:none;stroke-opacity:1;marker:none;enable-background:accumulate"
       d="m 188.24816,24.79197 12.8125,0.0312 v 15.03831 l 22,-0.0383"
       id="path8978"
       sodipodi:nodetypes="cccc" />
    <path
       style="display:inline;overflow:visible;visibility:visible;fill:none;fill-opacity:1;stroke:#000000;stroke-width:2;stroke-linejoin:miter;stroke-miterlimit:4;stroke-dasharray:none;stroke-opacity:1;marker:none;enable-background:accumulate"
       d="m 189.94454,130.50788 h 12 v -15 h 22"
       id="path8980"
       sodipodi:nodetypes="cccc" />
    <path
       style="display:inline;overflow:visible;visibility:visible;fill:none;fill-opacity:1;stroke:#000000;stroke-width:2;stroke-linejoin:miter;stroke-miterlimit:4;stroke-dasharray:none;stroke-opacity:1;marker:none;enable-background:accumulate"
       d="M 15.076771,15 140.25787,15.03125"
       id="path8984"
       sodipodi:nodetypes="cc" />
    <circle
       style="display:inline;overflow:visible;visibility:visible;fill:#000000;fill-opacity:1;stroke:none;stroke-width:2;stroke-linejoin:miter;stroke-miterlimit:4;stroke-dasharray:none;stroke-opacity:1;marker:none;enable-background:accumulate"
       id="path8986"
       transform="matrix(1.25,0,0,1.25,-99.25,53.75)"
       cx="105"
       cy="25"
       r="2" />
    <path
       style="display:inline;overflow:visible;visibility:visible;fill:none;fill-opacity:1;stroke:#000000;stroke-width:2;stroke-linejoin:miter;stroke-miterlimit:4;stroke-dasharray:none;stroke-opacity:1;marker:none;enable-background:accumulate"
       d="M 15.038458,85 H 140.03846"
       id="path8990"
       sodipodi:nodetypes="cc" />
    <path
       style="display:inline;overflow:visible;visibility:visible;opacity:1;fill:none;fill-opacity:1;stroke:#000000;stroke-width:2;stroke-linecap:butt;stroke-linejoin:miter;stroke-miterlimit:4;stroke-dasharray:none;stroke-dashoffset:0;stroke-opacity:1;marker:none;enable-background:accumulate"
       d="M 32,15 V 40 H 57"
       id="path2636"
       sodipodi:nodetypes="ccc" />
    <path
       style="display:inline;overflow:visible;visibility:visible;opacity:1;fill:none;fill-opacity:1;stroke:#000000;stroke-width:2;stroke-linecap:butt;stroke-linejoin:miter;stroke-miterlimit:4;stroke-dasharray:none;stroke-dashoffset:0;stroke-opacity:1;marker:none;enable-background:accumulate"
       d="M 57,60 H 32 v 25"
       id="path2638"
       sodipodi:nodetypes="ccc" />
    <path
       style="display:inline;overflow:visible;visibility:visible;opacity:1;fill:none;fill-opacity:1;stroke:#000000;stroke-width:2;stroke-linecap:butt;stroke-linejoin:miter;stroke-miterlimit:4;stroke-dasharray:none;stroke-dashoffset:0;stroke-opacity:1;marker:none;enable-background:accumulate"
       d="m 140,35 h -20 v 30 h 20"
       id="path2640" />
    <path
       style="display:inline;overflow:visible;visibility:visible;opacity:1;fill:none;fill-opacity:1;stroke:#000000;stroke-width:2;stroke-linecap:butt;stroke-linejoin:miter;stroke-miterlimit:4;stroke-dasharray:none;stroke-dashoffset:0;stroke-opacity:1;marker:none;enable-background:accumulate"
       d="m 118.8617,50 h -15"
       id="path2642"
       sodipodi:nodetypes="cc" />
    <circle
       transform="matrix(1.25,0,0,1.25,-99.25,-16.25)"
       id="path2644"
       style="display:inline;overflow:visible;visibility:visible;fill:#000000;fill-opacity:1;stroke:none;stroke-width:2;stroke-linejoin:miter;stroke-miterlimit:4;stroke-dasharray:none;stroke-opacity:1;marker:none;enable-background:accumulate"
       cx="105"
       cy="25"
       r="2" />
    <path
       sodipodi:nodetypes="ccsccccscccccccccsccsc"
       id="path4973"
       d="m 50.34375,30 2,2.4375 c 0,0 5.65625,7.000049 5.65625,17.5625 0,10.562451 -5.65625,17.5625 -5.65625,17.5625 l -2,2.4375 H 53.5 h 14 c 2.408076,10e-7 7.689699,0.02451 13.625,-2.40625 5.500757,-2.252799 11.573507,-6.637246 16.53365,-14.854888 L 96.5,50 97.660889,47.267184 C 87.337765,30.200133 72.082887,30 67.5,30 h -14 z m 5.875,3 H 67.5 C 72.184173,33 85.78685,32.869793 95.46875,50 90.701964,58.429075 84.947469,62.68391 79.75,64.8125 74.389339,67.007924 69.908075,67.000001 67.5,67 H 56.25 C 58.123588,63.891566 61,57.95065 61,50 61,42.026646 58.091469,36.099815 56.21875,33 Z"
       style="fill:#000000;fill-opacity:1;fill-rule:evenodd;stroke:none;stroke-width:3;stroke-linecap:butt;stroke-linejoin:miter;stroke-opacity:1" />
    <circle
       transform="translate(25.25,25)"
       id="path2604"
       style="display:inline;overflow:visible;visibility:visible;fill:none;fill-opacity:1;stroke:#000000;stroke-width:2;stroke-linejoin:miter;stroke-opacity:1;marker:none;enable-background:accumulate"
       cx="75"
       cy="25"
       r="4" />
    <path
       sodipodi:nodetypes="ccsccccscccccccccsccsc"
       id="path8893"
       d="m 132.84375,5 2,2.4375 c 0,0 5.65625,7.000049 5.65625,17.5625 0,10.562451 -5.65625,17.5625 -5.65625,17.5625 l -2,2.4375 H 136 150 c 2.40808,10e-7 7.6897,0.02451 13.625,-2.40625 5.50076,-2.252799 11.57351,-6.637246 16.53365,-14.854888 L 179,25 180.16089,22.267184 C 169.83776,5.200133 154.58289,5 150,5 h -14 z m 5.875,3 H 150 c 4.68417,0 18.28685,-0.130207 27.96875,17 C 173.20196,33.429075 167.44747,37.68391 162.25,39.8125 156.88934,42.007924 152.40807,42.000001 150,42 h -11.25 c 1.87359,-3.108434 4.75,-9.04935 4.75,-17 0,-7.973354 -2.90853,-13.900185 -4.78125,-17 z"
       style="fill:#000000;fill-opacity:1;fill-rule:evenodd;stroke:none;stroke-width:3;stroke-linecap:butt;stroke-linejoin:miter;stroke-opacity:1" />
    <path
       sodipodi:nodetypes="ccsccccscccccccccsccsc"
       id="path8895"
       d="m 132.84375,55 2,2.4375 c 0,0 5.65625,7.000049 5.65625,17.5625 0,10.562451 -5.65625,17.5625 -5.65625,17.5625 l -2,2.4375 H 136 150 c 2.40808,10e-7 7.6897,0.02451 13.625,-2.40625 5.50076,-2.252799 11.57351,-6.637246 16.53365,-14.854888 L 179,75 180.16089,72.267184 C 169.83777,55.200133 154.58289,55 150,55 h -14 z m 5.875,3 H 150 c 4.68418,0 18.28685,-0.130207 27.96875,17 C 173.20197,83.429075 167.44747,87.68391 162.25,89.8125 156.88934,92.007924 152.40808,92.000001 150,92 h -11.25 c 1.87359,-3.108434 4.75,-9.04935 4.75,-17 0,-7.973354 -2.90853,-13.900185 -4.78125,-17 z"
       style="fill:#000000;fill-opacity:1;fill-rule:evenodd;stroke:none;stroke-width:3;stroke-linecap:butt;stroke-linejoin:miter;stroke-opacity:1" />
    <path
       style="fill:none;stroke:#000000;stroke-width:2;stroke-linecap:butt;stroke-linejoin:miter;stroke-opacity:1"
       d="m 349.125,50.0625 h 15.98762"
       id="path8932"
       sodipodi:nodetypes="cc" />
    <circle
       style="display:inline;overflow:visible;visibility:visible;fill:none;fill-opacity:1;stroke:#000000;stroke-width:2;stroke-linejoin:miter;stroke-opacity:1;marker:none;enable-background:accumulate"
       id="path8934"
       transform="translate(269.125,25.062504)"
       cx="76"
       cy="25"
       r="4" />
    <g
       id="g899"
       transform="translate(-95.63619,87.327686)">
      <circle
         style="display:inline;overflow:visible;visibility:visible;fill:none;fill-opacity:1;stroke:#000000;stroke-width:2;stroke-linejoin:miter;stroke-opacity:1;marker:none;enable-background:accumulate"
         id="path2671"
         transform="translate(189,25.000004)"
         cx="76"
         cy="25"
         r="4" />
      <path
         sodipodi:nodetypes="ccsccccscccccccccsccsc"
         id="path8904"
         d="m 214.75,29.9375 2,2.4375 c 0,0 5.65625,7.000049 5.65625,17.5625 0,10.562451 -5.65625,17.5625 -5.65625,17.5625 l -2,2.4375 h 3.15625 14 c 2.40807,10e-7 7.6897,0.02451 13.625,-2.40625 5.50076,-2.252799 11.57351,-6.637246 16.53365,-14.854888 l -1.15865,-2.738862 1.16089,-2.732816 C 251.74401,30.137633 236.48914,29.9375 231.90625,29.9375 h -14 z m 5.875,3 h 11.28125 c 4.68417,0 18.28685,-0.130207 27.96875,17 -4.76679,8.429075 -10.52128,12.68391 -15.71875,14.8125 -5.36066,2.195424 -9.84193,2.187501 -12.25,2.1875 h -11.25 c 1.87359,-3.108434 4.75,-9.04935 4.75,-17 0,-7.973354 -2.90853,-13.900185 -4.78125,-17 z"
         style="fill:#000000;fill-opacity:1;fill-rule:evenodd;stroke:none;stroke-width:3;stroke-linecap:butt;stroke-linejoin:miter;stroke-opacity:1" />
    </g>
    <path
       sodipodi:nodetypes="ccsccccscccccccccsccsc"
       id="path8940"
       d="m 294.875,30 2,2.4375 c 0,0 5.65625,7.000049 5.65625,17.5625 0,10.562451 -5.65625,17.5625 -5.65625,17.5625 l -2,2.4375 h 3.15625 14 c 2.40807,10e-7 7.6897,0.02451 13.625,-2.40625 5.50076,-2.252799 11.57351,-6.637246 16.53365,-14.854888 L 341.03125,50 342.19214,47.267184 C 331.86901,30.200133 316.61414,30 312.03125,30 h -14 z m 5.875,3 h 11.28125 c 4.68417,0 18.28685,-0.130207 27.96875,17 -4.76679,8.429075 -10.52128,12.68391 -15.71875,14.8125 -5.36066,2.195424 -9.84193,2.187501 -12.25,2.1875 h -11.25 c 1.87359,-3.108434 4.75,-9.04935 4.75,-17 0,-7.973354 -2.90853,-13.900185 -4.78125,-17 z"
       style="fill:#000000;fill-opacity:1;fill-rule:evenodd;stroke:none;stroke-width:3;stroke-linecap:butt;stroke-linejoin:miter;stroke-opacity:1" />
    <path
       style="display:inline;overflow:visible;visibility:visible;opacity:1;fill:none;fill-opacity:1;stroke:#000000;stroke-width:2;stroke-linecap:butt;stroke-linejoin:miter;stroke-miterlimit:4;stroke-dasharray:none;stroke-dashoffset:0;stroke-opacity:1;marker:none;enable-background:accumulate"
       d="M 302.25,40 H 290 v 20 h 12.25"
       id="path8942"
       sodipodi:nodetypes="cccc" />
    <circle
       style="display:inline;overflow:visible;visibility:visible;fill:#000000;fill-opacity:1;stroke:none;stroke-width:2;stroke-linejoin:miter;stroke-miterlimit:4;stroke-dasharray:none;stroke-opacity:1;marker:none;enable-background:accumulate"
       id="path8944"
       transform="matrix(1.25,0,0,1.25,158.75,18.75)"
       cx="105"
       cy="25"
       r="2" />
    <g
       id="g99"
       transform="translate(195.58408,2)">
      <g
         transform="translate(26.5,-39.5)"
         id="g97">
        <path
           id="path95"
           d="m -7.4062497,87.500004 2,2.4375 c 0,0 5.65625,7.000049 5.65625,17.562496 0,10.56245 -5.65625,17.5625 -5.65625,17.5625 l -2,2.4375 h 3.15625 H 9.75 c 2.408076,0 7.689699,0.0245 13.625,-2.40625 5.935301,-2.43076 12.536536,-7.34326 17.6875,-16.875 L 39.75,107.5 41.0625,106.78125 C 30.759387,87.715594 14.506574,87.500004 9.75,87.500004 H -4.2499997 Z m 5.875,3 H 9.75 c 4.684173,0 18.28685,-0.130207 27.96875,16.999996 C 32.951964,115.92908 27.197469,120.18391 22,122.3125 16.639339,124.50793 12.158075,124.5 9.75,124.5 H -1.4999997 C 0.3735887,121.39157 3.25,115.45065 3.25,107.5 3.25,99.52665 0.3414689,93.599819 -1.5312497,90.500004 Z"
           style="fill:#000000;fill-opacity:1;fill-rule:evenodd;stroke:none;stroke-width:3;stroke-linecap:butt;stroke-linejoin:miter;stroke-opacity:1" />
      </g>
    </g>
    <path
       style="fill:none;stroke:#000000;stroke-width:2;stroke-linecap:butt;stroke-linejoin:miter;stroke-opacity:1"
       d="m 187.85613,75 h 15.98762"
       id="path8932-5"
       sodipodi:nodetypes="cc" />
  </g>
</svg>
