<?xml version="1.0"?>
<?xml-stylesheet type="text/css" href="svg.css"?>
<svg width="978" height="156.57173310594755915583031336602" viewBox="0 0 4691 751" xmlns="http://www.w3.org/2000/svg" xmlns:xlink="http://www.w3.org/1999/xlink">
    <defs>
        <polygon id="td" points="-30,-10 29,-10 29,9 9,9 9,29 -10,29 -10,9 -30,9" class="t"/>
        <polygon id="tl" points="-10,-30 9,-30 9,29 -10,29 -10,9 -30,9 -30,-10 -10,-10" class="t"/>
        <polygon id="tu" points="-10,-30 9,-30 9,-10 29,-10 29,9 -30,9 -30,-10 -10,-10" class="t"/>
        <polygon id="tr" points="-10,-30 9,-30 9,-10 29,-10 29,9 9,9 9,29 -10,29" class="t"/>
        <polygon id="jd" points="-30,-10 29,-10 29,29 10,29 10,9 -30,9" class="j"/>
        <polygon id="jl" points="-10,-30 9,-30 9,29 -30,29 -30,10 -10,10" class="j"/>
        <polygon id="ju" points="-30,-30 -11,-30 -11,-10 29,-10 29,9 -30,9" class="j"/>
        <polygon id="jr" points="-10,-30 29,-30 29,-11 9,-11 9,29 -10,29" class="j"/>
        <polygon id="zh" points="-30,-10 9,-10 9,10 29,10 29,29 -10,29 -10,9 -30,9" class="z"/>
        <polygon id="zv" points="10,-30 29,-30 29,9 9,9 9,29 -10,29 -10,-10 10,-10" class="z"/>
        <polygon id="o" points="-30,-10 9,-10 9,29 -30,29" class="o"/>
        <polygon id="sh" points="-10,-10 29,-10 29,9 9,9 9,29 -30,29 -30,10 -10,10" class="s"/>
        <polygon id="sv" points="-10,-30 9,-30 9,-10 29,-10 29,29 10,29 10,9 -10,9" class="s"/>
        <polygon id="ld" points="-30,-10 29,-10 29,9 -11,9 -11,29 -30,29" class="l"/>
        <polygon id="ll" points="-30,-30 9,-30 9,29 -10,29 -10,-11 -30,-11" class="l"/>
        <polygon id="lu" points="10,-30 29,-30 29,9 -30,9 -30,-10 10,-10" class="l"/>
        <polygon id="lr" points="-10,-30 9,-30 9,10 29,10 29,29 -10,29" class="l"/>
        <polygon id="ih" points="-50,-10 29,-10 29,9 -50,9" class="i"/>
        <polygon id="iv" points="-10,-50 9,-50 9,29 -10,29" class="i"/>
    </defs>
    <line x1="15.5" y1="35.5" x2="4675.5" y2="35.5" class="grid"/>
    <line x1="15.5" y1="55.5" x2="4675.5" y2="55.5" class="grid"/>
    <line x1="15.5" y1="75.5" x2="4675.5" y2="75.5" class="grid"/>
    <line x1="15.5" y1="95.5" x2="4675.5" y2="95.5" class="grid"/>
    <line x1="15.5" y1="115.5" x2="4675.5" y2="115.5" class="grid"/>
    <line x1="15.5" y1="135.5" x2="4675.5" y2="135.5" class="grid"/>
    <line x1="15.5" y1="155.5" x2="4675.5" y2="155.5" class="grid"/>
    <line x1="15.5" y1="175.5" x2="4675.5" y2="175.5" class="grid"/>
    <line x1="15.5" y1="195.5" x2="4675.5" y2="195.5" class="grid"/>
    <line x1="15.5" y1="215.5" x2="4675.5" y2="215.5" class="grid"/>
    <line x1="15.5" y1="235.5" x2="4675.5" y2="235.5" class="grid"/>
    <line x1="15.5" y1="255.5" x2="4675.5" y2="255.5" class="grid"/>
    <line x1="15.5" y1="275.5" x2="4675.5" y2="275.5" class="grid"/>
    <line x1="15.5" y1="295.5" x2="4675.5" y2="295.5" class="grid"/>
    <line x1="15.5" y1="315.5" x2="4675.5" y2="315.5" class="grid"/>
    <line x1="15.5" y1="335.5" x2="4675.5" y2="335.5" class="grid"/>
    <line x1="15.5" y1="355.5" x2="4675.5" y2="355.5" class="grid"/>
    <line x1="15.5" y1="375.5" x2="4675.5" y2="375.5" class="grid"/>
    <line x1="15.5" y1="395.5" x2="4675.5" y2="395.5" class="grid"/>
    <line x1="15.5" y1="415.5" x2="4675.5" y2="415.5" class="grid"/>
    <line x1="15.5" y1="435.5" x2="4675.5" y2="435.5" class="grid"/>
    <line x1="15.5" y1="455.5" x2="4675.5" y2="455.5" class="grid"/>
    <line x1="15.5" y1="475.5" x2="4675.5" y2="475.5" class="grid"/>
    <line x1="15.5" y1="495.5" x2="4675.5" y2="495.5" class="grid"/>
    <line x1="15.5" y1="515.5" x2="4675.5" y2="515.5" class="grid"/>
    <line x1="15.5" y1="535.5" x2="4675.5" y2="535.5" class="grid"/>
    <line x1="15.5" y1="555.5" x2="4675.5" y2="555.5" class="grid"/>
    <line x1="15.5" y1="575.5" x2="4675.5" y2="575.5" class="grid"/>
    <line x1="15.5" y1="595.5" x2="4675.5" y2="595.5" class="grid"/>
    <line x1="15.5" y1="615.5" x2="4675.5" y2="615.5" class="grid"/>
    <line x1="15.5" y1="635.5" x2="4675.5" y2="635.5" class="grid"/>
    <line x1="15.5" y1="655.5" x2="4675.5" y2="655.5" class="grid"/>
    <line x1="15.5" y1="675.5" x2="4675.5" y2="675.5" class="grid"/>
    <line x1="15.5" y1="695.5" x2="4675.5" y2="695.5" class="grid"/>
    <line x1="15.5" y1="715.5" x2="4675.5" y2="715.5" class="grid"/>
    <line x1="15.5" y1="36.5" x2="15.5" y2="714.5" class="grid"/>
    <line x1="35.5" y1="36.5" x2="35.5" y2="714.5" class="grid"/>
    <line x1="55.5" y1="36.5" x2="55.5" y2="714.5" class="grid"/>
    <line x1="75.5" y1="36.5" x2="75.5" y2="714.5" class="grid"/>
    <line x1="95.5" y1="36.5" x2="95.5" y2="714.5" class="grid"/>
    <line x1="115.5" y1="36.5" x2="115.5" y2="714.5" class="grid"/>
    <line x1="135.5" y1="36.5" x2="135.5" y2="714.5" class="grid"/>
    <line x1="155.5" y1="36.5" x2="155.5" y2="714.5" class="grid"/>
    <line x1="175.5" y1="36.5" x2="175.5" y2="714.5" class="grid"/>
    <line x1="195.5" y1="36.5" x2="195.5" y2="714.5" class="grid"/>
    <line x1="215.5" y1="36.5" x2="215.5" y2="714.5" class="grid"/>
    <line x1="235.5" y1="36.5" x2="235.5" y2="714.5" class="grid"/>
    <line x1="255.5" y1="36.5" x2="255.5" y2="714.5" class="grid"/>
    <line x1="275.5" y1="36.5" x2="275.5" y2="714.5" class="grid"/>
    <line x1="295.5" y1="36.5" x2="295.5" y2="714.5" class="grid"/>
    <line x1="315.5" y1="36.5" x2="315.5" y2="714.5" class="grid"/>
    <line x1="335.5" y1="36.5" x2="335.5" y2="714.5" class="grid"/>
    <line x1="355.5" y1="36.5" x2="355.5" y2="714.5" class="grid"/>
    <line x1="375.5" y1="36.5" x2="375.5" y2="714.5" class="grid"/>
    <line x1="395.5" y1="36.5" x2="395.5" y2="714.5" class="grid"/>
    <line x1="415.5" y1="36.5" x2="415.5" y2="714.5" class="grid"/>
    <line x1="435.5" y1="36.5" x2="435.5" y2="714.5" class="grid"/>
    <line x1="455.5" y1="36.5" x2="455.5" y2="714.5" class="grid"/>
    <line x1="475.5" y1="36.5" x2="475.5" y2="714.5" class="grid"/>
    <line x1="495.5" y1="36.5" x2="495.5" y2="714.5" class="grid"/>
    <line x1="515.5" y1="36.5" x2="515.5" y2="714.5" class="grid"/>
    <line x1="535.5" y1="36.5" x2="535.5" y2="714.5" class="grid"/>
    <line x1="555.5" y1="36.5" x2="555.5" y2="714.5" class="grid"/>
    <line x1="575.5" y1="36.5" x2="575.5" y2="714.5" class="grid"/>
    <line x1="595.5" y1="36.5" x2="595.5" y2="714.5" class="grid"/>
    <line x1="615.5" y1="36.5" x2="615.5" y2="714.5" class="grid"/>
    <line x1="635.5" y1="36.5" x2="635.5" y2="714.5" class="grid"/>
    <line x1="655.5" y1="36.5" x2="655.5" y2="714.5" class="grid"/>
    <line x1="675.5" y1="36.5" x2="675.5" y2="714.5" class="grid"/>
    <line x1="695.5" y1="36.5" x2="695.5" y2="714.5" class="grid"/>
    <line x1="715.5" y1="36.5" x2="715.5" y2="714.5" class="grid"/>
    <line x1="735.5" y1="36.5" x2="735.5" y2="714.5" class="grid"/>
    <line x1="755.5" y1="36.5" x2="755.5" y2="714.5" class="grid"/>
    <line x1="775.5" y1="36.5" x2="775.5" y2="714.5" class="grid"/>
    <line x1="795.5" y1="36.5" x2="795.5" y2="714.5" class="grid"/>
    <line x1="815.5" y1="36.5" x2="815.5" y2="714.5" class="grid"/>
    <line x1="835.5" y1="36.5" x2="835.5" y2="714.5" class="grid"/>
    <line x1="855.5" y1="36.5" x2="855.5" y2="714.5" class="grid"/>
    <line x1="875.5" y1="36.5" x2="875.5" y2="714.5" class="grid"/>
    <line x1="895.5" y1="36.5" x2="895.5" y2="714.5" class="grid"/>
    <line x1="915.5" y1="36.5" x2="915.5" y2="714.5" class="grid"/>
    <line x1="935.5" y1="36.5" x2="935.5" y2="714.5" class="grid"/>
    <line x1="955.5" y1="36.5" x2="955.5" y2="714.5" class="grid"/>
    <line x1="975.5" y1="36.5" x2="975.5" y2="714.5" class="grid"/>
    <line x1="995.5" y1="36.5" x2="995.5" y2="714.5" class="grid"/>
    <line x1="1015.5" y1="36.5" x2="1015.5" y2="714.5" class="grid"/>
    <line x1="1035.5" y1="36.5" x2="1035.5" y2="714.5" class="grid"/>
    <line x1="1055.5" y1="36.5" x2="1055.5" y2="714.5" class="grid"/>
    <line x1="1075.5" y1="36.5" x2="1075.5" y2="714.5" class="grid"/>
    <line x1="1095.5" y1="36.5" x2="1095.5" y2="714.5" class="grid"/>
    <line x1="1115.5" y1="36.5" x2="1115.5" y2="714.5" class="grid"/>
    <line x1="1135.5" y1="36.5" x2="1135.5" y2="714.5" class="grid"/>
    <line x1="1155.5" y1="36.5" x2="1155.5" y2="714.5" class="grid"/>
    <line x1="1175.5" y1="36.5" x2="1175.5" y2="714.5" class="grid"/>
    <line x1="1195.5" y1="36.5" x2="1195.5" y2="714.5" class="grid"/>
    <line x1="1215.5" y1="36.5" x2="1215.5" y2="714.5" class="grid"/>
    <line x1="1235.5" y1="36.5" x2="1235.5" y2="714.5" class="grid"/>
    <line x1="1255.5" y1="36.5" x2="1255.5" y2="714.5" class="grid"/>
    <line x1="1275.5" y1="36.5" x2="1275.5" y2="714.5" class="grid"/>
    <line x1="1295.5" y1="36.5" x2="1295.5" y2="714.5" class="grid"/>
    <line x1="1315.5" y1="36.5" x2="1315.5" y2="714.5" class="grid"/>
    <line x1="1335.5" y1="36.5" x2="1335.5" y2="714.5" class="grid"/>
    <line x1="1355.5" y1="36.5" x2="1355.5" y2="714.5" class="grid"/>
    <line x1="1375.5" y1="36.5" x2="1375.5" y2="714.5" class="grid"/>
    <line x1="1395.5" y1="36.5" x2="1395.5" y2="714.5" class="grid"/>
    <line x1="1415.5" y1="36.5" x2="1415.5" y2="714.5" class="grid"/>
    <line x1="1435.5" y1="36.5" x2="1435.5" y2="714.5" class="grid"/>
    <line x1="1455.5" y1="36.5" x2="1455.5" y2="714.5" class="grid"/>
    <line x1="1475.5" y1="36.5" x2="1475.5" y2="714.5" class="grid"/>
    <line x1="1495.5" y1="36.5" x2="1495.5" y2="714.5" class="grid"/>
    <line x1="1515.5" y1="36.5" x2="1515.5" y2="714.5" class="grid"/>
    <line x1="1535.5" y1="36.5" x2="1535.5" y2="714.5" class="grid"/>
    <line x1="1555.5" y1="36.5" x2="1555.5" y2="714.5" class="grid"/>
    <line x1="1575.5" y1="36.5" x2="1575.5" y2="714.5" class="grid"/>
    <line x1="1595.5" y1="36.5" x2="1595.5" y2="714.5" class="grid"/>
    <line x1="1615.5" y1="36.5" x2="1615.5" y2="714.5" class="grid"/>
    <line x1="1635.5" y1="36.5" x2="1635.5" y2="714.5" class="grid"/>
    <line x1="1655.5" y1="36.5" x2="1655.5" y2="714.5" class="grid"/>
    <line x1="1675.5" y1="36.5" x2="1675.5" y2="714.5" class="grid"/>
    <line x1="1695.5" y1="36.5" x2="1695.5" y2="714.5" class="grid"/>
    <line x1="1715.5" y1="36.5" x2="1715.5" y2="714.5" class="grid"/>
    <line x1="1735.5" y1="36.5" x2="1735.5" y2="714.5" class="grid"/>
    <line x1="1755.5" y1="36.5" x2="1755.5" y2="714.5" class="grid"/>
    <line x1="1775.5" y1="36.5" x2="1775.5" y2="714.5" class="grid"/>
    <line x1="1795.5" y1="36.5" x2="1795.5" y2="714.5" class="grid"/>
    <line x1="1815.5" y1="36.5" x2="1815.5" y2="714.5" class="grid"/>
    <line x1="1835.5" y1="36.5" x2="1835.5" y2="714.5" class="grid"/>
    <line x1="1855.5" y1="36.5" x2="1855.5" y2="714.5" class="grid"/>
    <line x1="1875.5" y1="36.5" x2="1875.5" y2="714.5" class="grid"/>
    <line x1="1895.5" y1="36.5" x2="1895.5" y2="714.5" class="grid"/>
    <line x1="1915.5" y1="36.5" x2="1915.5" y2="714.5" class="grid"/>
    <line x1="1935.5" y1="36.5" x2="1935.5" y2="714.5" class="grid"/>
    <line x1="1955.5" y1="36.5" x2="1955.5" y2="714.5" class="grid"/>
    <line x1="1975.5" y1="36.5" x2="1975.5" y2="714.5" class="grid"/>
    <line x1="1995.5" y1="36.5" x2="1995.5" y2="714.5" class="grid"/>
    <line x1="2015.5" y1="36.5" x2="2015.5" y2="714.5" class="grid"/>
    <line x1="2035.5" y1="36.5" x2="2035.5" y2="714.5" class="grid"/>
    <line x1="2055.5" y1="36.5" x2="2055.5" y2="714.5" class="grid"/>
    <line x1="2075.5" y1="36.5" x2="2075.5" y2="714.5" class="grid"/>
    <line x1="2095.5" y1="36.5" x2="2095.5" y2="714.5" class="grid"/>
    <line x1="2115.5" y1="36.5" x2="2115.5" y2="714.5" class="grid"/>
    <line x1="2135.5" y1="36.5" x2="2135.5" y2="714.5" class="grid"/>
    <line x1="2155.5" y1="36.5" x2="2155.5" y2="714.5" class="grid"/>
    <line x1="2175.5" y1="36.5" x2="2175.5" y2="714.5" class="grid"/>
    <line x1="2195.5" y1="36.5" x2="2195.5" y2="714.5" class="grid"/>
    <line x1="2215.5" y1="36.5" x2="2215.5" y2="714.5" class="grid"/>
    <line x1="2235.5" y1="36.5" x2="2235.5" y2="714.5" class="grid"/>
    <line x1="2255.5" y1="36.5" x2="2255.5" y2="714.5" class="grid"/>
    <line x1="2275.5" y1="36.5" x2="2275.5" y2="714.5" class="grid"/>
    <line x1="2295.5" y1="36.5" x2="2295.5" y2="714.5" class="grid"/>
    <line x1="2315.5" y1="36.5" x2="2315.5" y2="714.5" class="grid"/>
    <line x1="2335.5" y1="36.5" x2="2335.5" y2="714.5" class="grid"/>
    <line x1="2355.5" y1="36.5" x2="2355.5" y2="714.5" class="grid"/>
    <line x1="2375.5" y1="36.5" x2="2375.5" y2="714.5" class="grid"/>
    <line x1="2395.5" y1="36.5" x2="2395.5" y2="714.5" class="grid"/>
    <line x1="2415.5" y1="36.5" x2="2415.5" y2="714.5" class="grid"/>
    <line x1="2435.5" y1="36.5" x2="2435.5" y2="714.5" class="grid"/>
    <line x1="2455.5" y1="36.5" x2="2455.5" y2="714.5" class="grid"/>
    <line x1="2475.5" y1="36.5" x2="2475.5" y2="714.5" class="grid"/>
    <line x1="2495.5" y1="36.5" x2="2495.5" y2="714.5" class="grid"/>
    <line x1="2515.5" y1="36.5" x2="2515.5" y2="714.5" class="grid"/>
    <line x1="2535.5" y1="36.5" x2="2535.5" y2="714.5" class="grid"/>
    <line x1="2555.5" y1="36.5" x2="2555.5" y2="714.5" class="grid"/>
    <line x1="2575.5" y1="36.5" x2="2575.5" y2="714.5" class="grid"/>
    <line x1="2595.5" y1="36.5" x2="2595.5" y2="714.5" class="grid"/>
    <line x1="2615.5" y1="36.5" x2="2615.5" y2="714.5" class="grid"/>
    <line x1="2635.5" y1="36.5" x2="2635.5" y2="714.5" class="grid"/>
    <line x1="2655.5" y1="36.5" x2="2655.5" y2="714.5" class="grid"/>
    <line x1="2675.5" y1="36.5" x2="2675.5" y2="714.5" class="grid"/>
    <line x1="2695.5" y1="36.5" x2="2695.5" y2="714.5" class="grid"/>
    <line x1="2715.5" y1="36.5" x2="2715.5" y2="714.5" class="grid"/>
    <line x1="2735.5" y1="36.5" x2="2735.5" y2="714.5" class="grid"/>
    <line x1="2755.5" y1="36.5" x2="2755.5" y2="714.5" class="grid"/>
    <line x1="2775.5" y1="36.5" x2="2775.5" y2="714.5" class="grid"/>
    <line x1="2795.5" y1="36.5" x2="2795.5" y2="714.5" class="grid"/>
    <line x1="2815.5" y1="36.5" x2="2815.5" y2="714.5" class="grid"/>
    <line x1="2835.5" y1="36.5" x2="2835.5" y2="714.5" class="grid"/>
    <line x1="2855.5" y1="36.5" x2="2855.5" y2="714.5" class="grid"/>
    <line x1="2875.5" y1="36.5" x2="2875.5" y2="714.5" class="grid"/>
    <line x1="2895.5" y1="36.5" x2="2895.5" y2="714.5" class="grid"/>
    <line x1="2915.5" y1="36.5" x2="2915.5" y2="714.5" class="grid"/>
    <line x1="2935.5" y1="36.5" x2="2935.5" y2="714.5" class="grid"/>
    <line x1="2955.5" y1="36.5" x2="2955.5" y2="714.5" class="grid"/>
    <line x1="2975.5" y1="36.5" x2="2975.5" y2="714.5" class="grid"/>
    <line x1="2995.5" y1="36.5" x2="2995.5" y2="714.5" class="grid"/>
    <line x1="3015.5" y1="36.5" x2="3015.5" y2="714.5" class="grid"/>
    <line x1="3035.5" y1="36.5" x2="3035.5" y2="714.5" class="grid"/>
    <line x1="3055.5" y1="36.5" x2="3055.5" y2="714.5" class="grid"/>
    <line x1="3075.5" y1="36.5" x2="3075.5" y2="714.5" class="grid"/>
    <line x1="3095.5" y1="36.5" x2="3095.5" y2="714.5" class="grid"/>
    <line x1="3115.5" y1="36.5" x2="3115.5" y2="714.5" class="grid"/>
    <line x1="3135.5" y1="36.5" x2="3135.5" y2="714.5" class="grid"/>
    <line x1="3155.5" y1="36.5" x2="3155.5" y2="714.5" class="grid"/>
    <line x1="3175.5" y1="36.5" x2="3175.5" y2="714.5" class="grid"/>
    <line x1="3195.5" y1="36.5" x2="3195.5" y2="714.5" class="grid"/>
    <line x1="3215.5" y1="36.5" x2="3215.5" y2="714.5" class="grid"/>
    <line x1="3235.5" y1="36.5" x2="3235.5" y2="714.5" class="grid"/>
    <line x1="3255.5" y1="36.5" x2="3255.5" y2="714.5" class="grid"/>
    <line x1="3275.5" y1="36.5" x2="3275.5" y2="714.5" class="grid"/>
    <line x1="3295.5" y1="36.5" x2="3295.5" y2="714.5" class="grid"/>
    <line x1="3315.5" y1="36.5" x2="3315.5" y2="714.5" class="grid"/>
    <line x1="3335.5" y1="36.5" x2="3335.5" y2="714.5" class="grid"/>
    <line x1="3355.5" y1="36.5" x2="3355.5" y2="714.5" class="grid"/>
    <line x1="3375.5" y1="36.5" x2="3375.5" y2="714.5" class="grid"/>
    <line x1="3395.5" y1="36.5" x2="3395.5" y2="714.5" class="grid"/>
    <line x1="3415.5" y1="36.5" x2="3415.5" y2="714.5" class="grid"/>
    <line x1="3435.5" y1="36.5" x2="3435.5" y2="714.5" class="grid"/>
    <line x1="3455.5" y1="36.5" x2="3455.5" y2="714.5" class="grid"/>
    <line x1="3475.5" y1="36.5" x2="3475.5" y2="714.5" class="grid"/>
    <line x1="3495.5" y1="36.5" x2="3495.5" y2="714.5" class="grid"/>
    <line x1="3515.5" y1="36.5" x2="3515.5" y2="714.5" class="grid"/>
    <line x1="3535.5" y1="36.5" x2="3535.5" y2="714.5" class="grid"/>
    <line x1="3555.5" y1="36.5" x2="3555.5" y2="714.5" class="grid"/>
    <line x1="3575.5" y1="36.5" x2="3575.5" y2="714.5" class="grid"/>
    <line x1="3595.5" y1="36.5" x2="3595.5" y2="714.5" class="grid"/>
    <line x1="3615.5" y1="36.5" x2="3615.5" y2="714.5" class="grid"/>
    <line x1="3635.5" y1="36.5" x2="3635.5" y2="714.5" class="grid"/>
    <line x1="3655.5" y1="36.5" x2="3655.5" y2="714.5" class="grid"/>
    <line x1="3675.5" y1="36.5" x2="3675.5" y2="714.5" class="grid"/>
    <line x1="3695.5" y1="36.5" x2="3695.5" y2="714.5" class="grid"/>
    <line x1="3715.5" y1="36.5" x2="3715.5" y2="714.5" class="grid"/>
    <line x1="3735.5" y1="36.5" x2="3735.5" y2="714.5" class="grid"/>
    <line x1="3755.5" y1="36.5" x2="3755.5" y2="714.5" class="grid"/>
    <line x1="3775.5" y1="36.5" x2="3775.5" y2="714.5" class="grid"/>
    <line x1="3795.5" y1="36.5" x2="3795.5" y2="714.5" class="grid"/>
    <line x1="3815.5" y1="36.5" x2="3815.5" y2="714.5" class="grid"/>
    <line x1="3835.5" y1="36.5" x2="3835.5" y2="714.5" class="grid"/>
    <line x1="3855.5" y1="36.5" x2="3855.5" y2="714.5" class="grid"/>
    <line x1="3875.5" y1="36.5" x2="3875.5" y2="714.5" class="grid"/>
    <line x1="3895.5" y1="36.5" x2="3895.5" y2="714.5" class="grid"/>
    <line x1="3915.5" y1="36.5" x2="3915.5" y2="714.5" class="grid"/>
    <line x1="3935.5" y1="36.5" x2="3935.5" y2="714.5" class="grid"/>
    <line x1="3955.5" y1="36.5" x2="3955.5" y2="714.5" class="grid"/>
    <line x1="3975.5" y1="36.5" x2="3975.5" y2="714.5" class="grid"/>
    <line x1="3995.5" y1="36.5" x2="3995.5" y2="714.5" class="grid"/>
    <line x1="4015.5" y1="36.5" x2="4015.5" y2="714.5" class="grid"/>
    <line x1="4035.5" y1="36.5" x2="4035.5" y2="714.5" class="grid"/>
    <line x1="4055.5" y1="36.5" x2="4055.5" y2="714.5" class="grid"/>
    <line x1="4075.5" y1="36.5" x2="4075.5" y2="714.5" class="grid"/>
    <line x1="4095.5" y1="36.5" x2="4095.5" y2="714.5" class="grid"/>
    <line x1="4115.5" y1="36.5" x2="4115.5" y2="714.5" class="grid"/>
    <line x1="4135.5" y1="36.5" x2="4135.5" y2="714.5" class="grid"/>
    <line x1="4155.5" y1="36.5" x2="4155.5" y2="714.5" class="grid"/>
    <line x1="4175.5" y1="36.5" x2="4175.5" y2="714.5" class="grid"/>
    <line x1="4195.5" y1="36.5" x2="4195.5" y2="714.5" class="grid"/>
    <line x1="4215.5" y1="36.5" x2="4215.5" y2="714.5" class="grid"/>
    <line x1="4235.5" y1="36.5" x2="4235.5" y2="714.5" class="grid"/>
    <line x1="4255.5" y1="36.5" x2="4255.5" y2="714.5" class="grid"/>
    <line x1="4275.5" y1="36.5" x2="4275.5" y2="714.5" class="grid"/>
    <line x1="4295.5" y1="36.5" x2="4295.5" y2="714.5" class="grid"/>
    <line x1="4315.5" y1="36.5" x2="4315.5" y2="714.5" class="grid"/>
    <line x1="4335.5" y1="36.5" x2="4335.5" y2="714.5" class="grid"/>
    <line x1="4355.5" y1="36.5" x2="4355.5" y2="714.5" class="grid"/>
    <line x1="4375.5" y1="36.5" x2="4375.5" y2="714.5" class="grid"/>
    <line x1="4395.5" y1="36.5" x2="4395.5" y2="714.5" class="grid"/>
    <line x1="4415.5" y1="36.5" x2="4415.5" y2="714.5" class="grid"/>
    <line x1="4435.5" y1="36.5" x2="4435.5" y2="714.5" class="grid"/>
    <line x1="4455.5" y1="36.5" x2="4455.5" y2="714.5" class="grid"/>
    <line x1="4475.5" y1="36.5" x2="4475.5" y2="714.5" class="grid"/>
    <line x1="4495.5" y1="36.5" x2="4495.5" y2="714.5" class="grid"/>
    <line x1="4515.5" y1="36.5" x2="4515.5" y2="714.5" class="grid"/>
    <line x1="4535.5" y1="36.5" x2="4535.5" y2="714.5" class="grid"/>
    <line x1="4555.5" y1="36.5" x2="4555.5" y2="714.5" class="grid"/>
    <line x1="4575.5" y1="36.5" x2="4575.5" y2="714.5" class="grid"/>
    <line x1="4595.5" y1="36.5" x2="4595.5" y2="714.5" class="grid"/>
    <line x1="4615.5" y1="36.5" x2="4615.5" y2="714.5" class="grid"/>
    <line x1="4635.5" y1="36.5" x2="4635.5" y2="714.5" class="grid"/>
    <line x1="4655.5" y1="36.5" x2="4655.5" y2="714.5" class="grid"/>
    <line x1="4675.5" y1="36.5" x2="4675.5" y2="714.5" class="grid"/>
    <g style="font-style:normal;font-variant:normal;font-weight:normal;font-stretch:normal;font-size:300px;font-family:'Bentham', serif;">        
        <g>
            <rect x="1455.5" y="55.5" width="1779" height="639" class="component"/>
            <rect x="1455.5" y="55.5" width="1779" height="639" class="terminal-stroke"/>
            <text transform="translate(2345.5 375.5)" class="component" dy="0.25em" text-anchor="middle"><tspan style="font-style:normal;font-variant:normal;font-weight:normal;font-stretch:normal;font-size:300px;font-family:'Bentham', serif;">f</tspan></text>
        </g>        
    </g>
        <rect x="3035.5" y="35.5" width="19" height="39" class="terminal-fill"/>
        <rect x="3035.5" y="35.5" width="19" height="39" class="terminal-stroke"/>
        <rect x="2835.5" y="35.5" width="19" height="39" class="terminal-fill"/>
        <rect x="2835.5" y="35.5" width="19" height="39" class="terminal-stroke"/>
        <rect x="2635.5" y="35.5" width="19" height="39" class="terminal-fill"/>
        <rect x="2635.5" y="35.5" width="19" height="39" class="terminal-stroke"/>
        <rect x="2435.5" y="55.5" width="19" height="19" class="terminal-fill"/>
        <rect x="2435.5" y="35.5" width="19" height="39" class="terminal-stroke"/>
        <rect x="2235.5" y="55.5" width="19" height="19" class="terminal-fill"/>
        <rect x="2235.5" y="35.5" width="19" height="39" class="terminal-stroke"/>
        <rect x="2035.5" y="35.5" width="19" height="39" class="terminal-fill"/>
        <rect x="2035.5" y="35.5" width="19" height="39" class="terminal-stroke"/>
        <rect x="1835.5" y="35.5" width="19" height="39" class="terminal-fill"/>
        <rect x="1835.5" y="35.5" width="19" height="39" class="terminal-stroke"/>
        <rect x="1635.5" y="55.5" width="19" height="19" class="terminal-fill"/>
        <rect x="1635.5" y="35.5" width="19" height="39" class="terminal-stroke"/>    
    <g style="font-size: 20px;">
        <rect x="3035.5" y="695.5" width="19" height="19" class="terminal-fill"/>
        <rect x="3035.5" y="675.5" width="19" height="39" class="terminal-stroke"/>
        <text x="3045.5" y="728" class="terminals" dy="0.25em" text-anchor="middle">0</text>
        <rect x="2835.5" y="675.5" width="19" height="39" class="terminal-fill"/>
        <rect x="2835.5" y="675.5" width="19" height="39" class="terminal-stroke"/>
        <text x="2845.5" y="728" class="terminals" dy="0.25em" text-anchor="middle">1</text>
        <rect x="2635.5" y="675.5" width="19" height="39" class="terminal-fill"/>
        <rect x="2635.5" y="675.5" width="19" height="39" class="terminal-stroke"/>
        <text x="2645.5" y="728" class="terminals" dy="0.25em" text-anchor="middle">1</text>
        <rect x="2435.5" y="695.5" width="19" height="19" class="terminal-fill"/>
        <rect x="2435.5" y="675.5" width="19" height="39" class="terminal-stroke"/>
        <text x="2445.5" y="728" class="terminals" dy="0.25em" text-anchor="middle">0</text>
        <rect x="2235.5" y="695.5" width="19" height="19" class="terminal-fill"/>
        <rect x="2235.5" y="675.5" width="19" height="39" class="terminal-stroke"/>
        <text x="2245.5" y="728" class="terminals" dy="0.25em" text-anchor="middle">0</text>
        <rect x="2035.5" y="675.5" width="19" height="39" class="terminal-fill"/>
        <rect x="2035.5" y="675.5" width="19" height="39" class="terminal-stroke"/>
        <text x="2045.5" y="728" class="terminals" dy="0.25em" text-anchor="middle">1</text>
        <rect x="1835.5" y="675.5" width="19" height="39" class="terminal-fill"/>
        <rect x="1835.5" y="675.5" width="19" height="39" class="terminal-stroke"/>
        <text x="1845.5" y="728" class="terminals" dy="0.25em" text-anchor="middle">1</text>
        <rect x="1635.5" y="695.5" width="19" height="19" class="terminal-fill"/>
        <rect x="1635.5" y="675.5" width="19" height="39" class="terminal-stroke"/>
        <text x="1645.5" y="728" class="terminals" dy="0.25em" text-anchor="middle">0</text>
        
        <rect x="3035.5" y="35.5" width="19" height="39" class="terminal-stroke"/>
        <text x="3045.5" y="25.5" class="terminals" dy="0.25em" text-anchor="middle">0</text>
        <rect x="2835.5" y="35.5" width="19" height="39" class="terminal-stroke"/>
        <text x="2845.5" y="25.5" class="terminals" dy="0.25em" text-anchor="middle">1</text>
        <rect x="2635.5" y="35.5" width="19" height="39" class="terminal-stroke"/>
        <text x="2645.5" y="25.5" class="terminals" dy="0.25em" text-anchor="middle">1</text>
        <rect x="2435.5" y="35.5" width="19" height="39" class="terminal-stroke"/>
        <text x="2445.5" y="25.5" class="terminals" dy="0.25em" text-anchor="middle">0</text>
        <rect x="2235.5" y="35.5" width="19" height="39" class="terminal-stroke"/>
        <text x="2245.5" y="25.5" class="terminals" dy="0.25em" text-anchor="middle">0</text>
        <rect x="2035.5" y="35.5" width="19" height="39" class="terminal-stroke"/>
        <text x="2045.5" y="25.5" class="terminals" dy="0.25em" text-anchor="middle">1</text>
        <rect x="1835.5" y="35.5" width="19" height="39" class="terminal-stroke"/>
        <text x="1845.5" y="25.5" class="terminals" dy="0.25em" text-anchor="middle">1</text>
        <rect x="1635.5" y="35.5" width="19" height="39" class="terminal-stroke"/>
        <text x="1645.5" y="25.5" class="terminals" dy="0.25em" text-anchor="middle">0</text>        
        
        <rect x="4635.5" y="695.5" width="19" height="19" class="terminal-fill"/>
        <rect x="4635.5" y="675.5" width="19" height="39" class="terminal-stroke"/>
        <text x="4645.5" y="728" class="terminals" dy="0.25em" text-anchor="middle">0</text>
        <rect x="4435.5" y="695.5" width="19" height="19" class="terminal-fill"/>
        <rect x="4435.5" y="675.5" width="19" height="39" class="terminal-stroke"/>
        <text x="4445.5" y="728" class="terminals" dy="0.25em" text-anchor="middle">0</text>
        <rect x="4235.5" y="695.5" width="19" height="19" class="terminal-fill"/>
        <rect x="4235.5" y="675.5" width="19" height="39" class="terminal-stroke"/>
        <text x="4245.5" y="728" class="terminals" dy="0.25em" text-anchor="middle">0</text>
        <rect x="4035.5" y="695.5" width="19" height="19" class="terminal-fill"/>
        <rect x="4035.5" y="675.5" width="19" height="39" class="terminal-stroke"/>
        <text x="4045.5" y="728" class="terminals" dy="0.25em" text-anchor="middle">0</text>
        <rect x="3835.5" y="695.5" width="19" height="19" class="terminal-fill"/>
        <rect x="3835.5" y="675.5" width="19" height="39" class="terminal-stroke"/>
        <text x="3845.5" y="728" class="terminals" dy="0.25em" text-anchor="middle">0</text>
        <rect x="3635.5" y="695.5" width="19" height="19" class="terminal-fill"/>
        <rect x="3635.5" y="675.5" width="19" height="39" class="terminal-stroke"/>
        <text x="3645.5" y="728" class="terminals" dy="0.25em" text-anchor="middle">0</text>
        <rect x="3435.5" y="695.5" width="19" height="19" class="terminal-fill"/>
        <rect x="3435.5" y="675.5" width="19" height="39" class="terminal-stroke"/>
        <text x="3445.5" y="728" class="terminals" dy="0.25em" text-anchor="middle">0</text>
        <rect x="3235.5" y="695.5" width="19" height="19" class="terminal-fill"/>
        <rect x="3235.5" y="675.5" width="19" height="39" class="terminal-stroke"/>
        <text x="3245.5" y="728" class="terminals" dy="0.25em" text-anchor="middle">0</text>
               
        <rect x="1435.5" y="695.5" width="19" height="19" class="terminal-fill"/>
        <rect x="1435.5" y="675.5" width="19" height="39" class="terminal-stroke"/>
        <text x="1445.5" y="728" class="terminals" dy="0.25em" text-anchor="middle">0</text>
        <rect x="1235.5" y="695.5" width="19" height="19" class="terminal-fill"/>
        <rect x="1235.5" y="675.5" width="19" height="39" class="terminal-stroke"/>
        <text x="1245.5" y="728" class="terminals" dy="0.25em" text-anchor="middle">0</text>
        <rect x="1035.5" y="695.5" width="19" height="19" class="terminal-fill"/>
        <rect x="1035.5" y="675.5" width="19" height="39" class="terminal-stroke"/>
        <text x="1045.5" y="728" class="terminals" dy="0.25em" text-anchor="middle">0</text>
        <rect x="835.5" y="695.5" width="19" height="19" class="terminal-fill"/>
        <rect x="835.5" y="675.5" width="19" height="39" class="terminal-stroke"/>
        <text x="845.5" y="728" class="terminals" dy="0.25em" text-anchor="middle">0</text>
        <rect x="635.5" y="695.5" width="19" height="19" class="terminal-fill"/>
        <rect x="635.5" y="675.5" width="19" height="39" class="terminal-stroke"/>
        <text x="645.5" y="728" class="terminals" dy="0.25em" text-anchor="middle">0</text>
        <rect x="435.5" y="695.5" width="19" height="19" class="terminal-fill"/>
        <rect x="435.5" y="675.5" width="19" height="39" class="terminal-stroke"/>
        <text x="445.5" y="728" class="terminals" dy="0.25em" text-anchor="middle">0</text>
        <rect x="235.5" y="695.5" width="19" height="19" class="terminal-fill"/>
        <rect x="235.5" y="675.5" width="19" height="39" class="terminal-stroke"/>
        <text x="245.5" y="728" class="terminals" dy="0.25em" text-anchor="middle">0</text>
        <rect x="35.5" y="695.5" width="19" height="19" class="terminal-fill"/>
        <rect x="35.5" y="675.5" width="19" height="39" class="terminal-stroke"/>
        <text x="45.5" y="728" class="terminals" dy="0.25em" text-anchor="middle">0</text>
                        
        <rect x="4635.5" y="35.5" width="19" height="39" class="terminal-stroke"/>
        <text x="4645.5" y="25.5" class="terminals" dy="0.25em" text-anchor="middle">0</text>
        <rect x="4435.5" y="35.5" width="19" height="39" class="terminal-stroke"/>
        <text x="4445.5" y="25.5" class="terminals" dy="0.25em" text-anchor="middle">0</text>
        <rect x="4235.5" y="35.5" width="19" height="39" class="terminal-stroke"/>
        <text x="4245.5" y="25.5" class="terminals" dy="0.25em" text-anchor="middle">0</text>
        <rect x="4035.5" y="35.5" width="19" height="39" class="terminal-stroke"/>
        <text x="4045.5" y="25.5" class="terminals" dy="0.25em" text-anchor="middle">0</text>
        <rect x="3835.5" y="35.5" width="19" height="39" class="terminal-stroke"/>
        <text x="3845.5" y="25.5" class="terminals" dy="0.25em" text-anchor="middle">0</text>
        <rect x="3635.5" y="35.5" width="19" height="39" class="terminal-stroke"/>
        <text x="3645.5" y="25.5" class="terminals" dy="0.25em" text-anchor="middle">0</text>
        <rect x="3435.5" y="35.5" width="19" height="39" class="terminal-stroke"/>
        <text x="3445.5" y="25.5" class="terminals" dy="0.25em" text-anchor="middle">0</text>
        <rect x="3235.5" y="35.5" width="19" height="39" class="terminal-stroke"/>
        <text x="3245.5" y="25.5" class="terminals" dy="0.25em" text-anchor="middle">0</text>
                
        <rect x="1435.5" y="35.5" width="19" height="39" class="terminal-stroke"/>
        <text x="1445.5" y="25.5" class="terminals" dy="0.25em" text-anchor="middle">0</text>
        <rect x="1235.5" y="35.5" width="19" height="39" class="terminal-stroke"/>
        <text x="1245.5" y="25.5" class="terminals" dy="0.25em" text-anchor="middle">0</text>
        <rect x="1035.5" y="35.5" width="19" height="39" class="terminal-stroke"/>
        <text x="1045.5" y="25.5" class="terminals" dy="0.25em" text-anchor="middle">0</text>
        <rect x="835.5" y="35.5" width="19" height="39" class="terminal-stroke"/>
        <text x="845.5" y="25.5" class="terminals" dy="0.25em" text-anchor="middle">0</text>
        <rect x="635.5" y="35.5" width="19" height="39" class="terminal-stroke"/>
        <text x="645.5" y="25.5" class="terminals" dy="0.25em" text-anchor="middle">0</text>
        <rect x="435.5" y="35.5" width="19" height="39" class="terminal-stroke"/>
        <text x="445.5" y="25.5" class="terminals" dy="0.25em" text-anchor="middle">0</text>
        <rect x="235.5" y="35.5" width="19" height="39" class="terminal-stroke"/>
        <text x="245.5" y="25.5" class="terminals" dy="0.25em" text-anchor="middle">0</text>
        <rect x="35.5" y="35.5" width="19" height="39" class="terminal-stroke"/>
        <text x="45.5" y="25.5" class="terminals" dy="0.25em" text-anchor="middle">0</text>
    </g>
    <use href="#iv" x="4645.5" y="105.5"/>
    <use href="#iv" x="4645.5" y="185.5"/>
    <use href="#iv" x="4645.5" y="265.5"/>
    <use href="#iv" x="4645.5" y="345.5"/>
    <use href="#iv" x="4645.5" y="425.5"/>
    <use href="#iv" x="4645.5" y="505.5"/>
    <use href="#iv" x="4645.5" y="585.5"/>
    <use href="#iv" x="4645.5" y="665.5"/>
    
    <use href="#iv" x="4445.5" y="105.5"/>
    <use href="#iv" x="4445.5" y="185.5"/>
    <use href="#iv" x="4445.5" y="265.5"/>
    <use href="#iv" x="4445.5" y="345.5"/>
    <use href="#iv" x="4445.5" y="425.5"/>
    <use href="#iv" x="4445.5" y="505.5"/>
    <use href="#iv" x="4445.5" y="585.5"/>
    <use href="#iv" x="4445.5" y="665.5"/>
    
    <use href="#iv" x="4245.5" y="105.5"/>
    <use href="#iv" x="4245.5" y="185.5"/>
    <use href="#iv" x="4245.5" y="265.5"/>
    <use href="#iv" x="4245.5" y="345.5"/>
    <use href="#iv" x="4245.5" y="425.5"/>
    <use href="#iv" x="4245.5" y="505.5"/>
    <use href="#iv" x="4245.5" y="585.5"/>
    <use href="#iv" x="4245.5" y="665.5"/>
    
    <use href="#iv" x="4045.5" y="105.5"/>
    <use href="#iv" x="4045.5" y="185.5"/>
    <use href="#iv" x="4045.5" y="265.5"/>
    <use href="#iv" x="4045.5" y="345.5"/>
    <use href="#iv" x="4045.5" y="425.5"/>
    <use href="#iv" x="4045.5" y="505.5"/>
    <use href="#iv" x="4045.5" y="585.5"/>
    <use href="#iv" x="4045.5" y="665.5"/>
    
    <use href="#iv" x="3845.5" y="105.5"/>
    <use href="#iv" x="3845.5" y="185.5"/>
    <use href="#iv" x="3845.5" y="265.5"/>
    <use href="#iv" x="3845.5" y="345.5"/>
    <use href="#iv" x="3845.5" y="425.5"/>
    <use href="#iv" x="3845.5" y="505.5"/>
    <use href="#iv" x="3845.5" y="585.5"/>
    <use href="#iv" x="3845.5" y="665.5"/>
    
    <use href="#iv" x="3645.5" y="105.5"/>
    <use href="#iv" x="3645.5" y="185.5"/>
    <use href="#iv" x="3645.5" y="265.5"/>
    <use href="#iv" x="3645.5" y="345.5"/>
    <use href="#iv" x="3645.5" y="425.5"/>
    <use href="#iv" x="3645.5" y="505.5"/>
    <use href="#iv" x="3645.5" y="585.5"/>
    <use href="#iv" x="3645.5" y="665.5"/>
    
    <use href="#iv" x="3445.5" y="105.5"/>
    <use href="#iv" x="3445.5" y="185.5"/>
    <use href="#iv" x="3445.5" y="265.5"/>
    <use href="#iv" x="3445.5" y="345.5"/>
    <use href="#iv" x="3445.5" y="425.5"/>
    <use href="#iv" x="3445.5" y="505.5"/>
    <use href="#iv" x="3445.5" y="585.5"/>
    <use href="#iv" x="3445.5" y="665.5"/>
    
    <use href="#iv" x="3245.5" y="105.5"/>
    <use href="#iv" x="3245.5" y="185.5"/>
    <use href="#iv" x="3245.5" y="265.5"/>
    <use href="#iv" x="3245.5" y="345.5"/>
    <use href="#iv" x="3245.5" y="425.5"/>
    <use href="#iv" x="3245.5" y="505.5"/>
    <use href="#iv" x="3245.5" y="585.5"/>
    <use href="#iv" x="3245.5" y="665.5"/>
    
    <use href="#iv" x="1445.5" y="105.5"/>
    <use href="#iv" x="1445.5" y="185.5"/>
    <use href="#iv" x="1445.5" y="265.5"/>
    <use href="#iv" x="1445.5" y="345.5"/>
    <use href="#iv" x="1445.5" y="425.5"/>
    <use href="#iv" x="1445.5" y="505.5"/>
    <use href="#iv" x="1445.5" y="585.5"/>
    <use href="#iv" x="1445.5" y="665.5"/>
    
    <use href="#iv" x="1245.5" y="105.5"/>
    <use href="#iv" x="1245.5" y="185.5"/>
    <use href="#iv" x="1245.5" y="265.5"/>
    <use href="#iv" x="1245.5" y="345.5"/>
    <use href="#iv" x="1245.5" y="425.5"/>
    <use href="#iv" x="1245.5" y="505.5"/>
    <use href="#iv" x="1245.5" y="585.5"/>
    <use href="#iv" x="1245.5" y="665.5"/>
    
    <use href="#iv" x="1045.5" y="105.5"/>
    <use href="#iv" x="1045.5" y="185.5"/>
    <use href="#iv" x="1045.5" y="265.5"/>
    <use href="#iv" x="1045.5" y="345.5"/>
    <use href="#iv" x="1045.5" y="425.5"/>
    <use href="#iv" x="1045.5" y="505.5"/>
    <use href="#iv" x="1045.5" y="585.5"/>
    <use href="#iv" x="1045.5" y="665.5"/>
    
    <use href="#iv" x="845.5" y="105.5"/>
    <use href="#iv" x="845.5" y="185.5"/>
    <use href="#iv" x="845.5" y="265.5"/>
    <use href="#iv" x="845.5" y="345.5"/>
    <use href="#iv" x="845.5" y="425.5"/>
    <use href="#iv" x="845.5" y="505.5"/>
    <use href="#iv" x="845.5" y="585.5"/>
    <use href="#iv" x="845.5" y="665.5"/>
    
    <use href="#iv" x="645.5" y="105.5"/>
    <use href="#iv" x="645.5" y="185.5"/>
    <use href="#iv" x="645.5" y="265.5"/>
    <use href="#iv" x="645.5" y="345.5"/>
    <use href="#iv" x="645.5" y="425.5"/>
    <use href="#iv" x="645.5" y="505.5"/>
    <use href="#iv" x="645.5" y="585.5"/>
    <use href="#iv" x="645.5" y="665.5"/>
    
    <use href="#iv" x="445.5" y="105.5"/>
    <use href="#iv" x="445.5" y="185.5"/>
    <use href="#iv" x="445.5" y="265.5"/>
    <use href="#iv" x="445.5" y="345.5"/>
    <use href="#iv" x="445.5" y="425.5"/>
    <use href="#iv" x="445.5" y="505.5"/>
    <use href="#iv" x="445.5" y="585.5"/>
    <use href="#iv" x="445.5" y="665.5"/>
    
    <use href="#iv" x="245.5" y="105.5"/>
    <use href="#iv" x="245.5" y="185.5"/>
    <use href="#iv" x="245.5" y="265.5"/>
    <use href="#iv" x="245.5" y="345.5"/>
    <use href="#iv" x="245.5" y="425.5"/>
    <use href="#iv" x="245.5" y="505.5"/>
    <use href="#iv" x="245.5" y="585.5"/>
    <use href="#iv" x="245.5" y="665.5"/>
    
    <use href="#iv" x="45.5" y="105.5"/>
    <use href="#iv" x="45.5" y="185.5"/>
    <use href="#iv" x="45.5" y="265.5"/>
    <use href="#iv" x="45.5" y="345.5"/>
    <use href="#iv" x="45.5" y="425.5"/>
    <use href="#iv" x="45.5" y="505.5"/>
    <use href="#iv" x="45.5" y="585.5"/>
    <use href="#iv" x="45.5" y="665.5"/>    
</svg>
