<?xml version="1.0"?>
<?xml-stylesheet type="text/css" href="svg.css"?>
<svg width="746" height="171" xmlns="http://www.w3.org/2000/svg" xmlns:xlink="http://www.w3.org/1999/xlink">
    <defs>
        <polygon id="td" points="-30,-10 29,-10 29,9 9,9 9,29 -10,29 -10,9 -30,9" class="t"/>
        <polygon id="tl" points="-10,-30 9,-30 9,29 -10,29 -10,9 -30,9 -30,-10 -10,-10" class="t"/>
        <polygon id="tu" points="-10,-30 9,-30 9,-10 29,-10 29,9 -30,9 -30,-10 -10,-10" class="t"/>
        <polygon id="tr" points="-10,-30 9,-30 9,-10 29,-10 29,9 9,9 9,29 -10,29" class="t"/>
        <polygon id="jd" points="-30,-10 29,-10 29,29 10,29 10,9 -30,9" class="j"/>
        <polygon id="jl" points="-10,-30 9,-30 9,29 -30,29 -30,10 -10,10" class="j"/>
        <polygon id="ju" points="-30,-30 -11,-30 -11,-10 29,-10 29,9 -30,9" class="j"/>
        <polygon id="jr" points="-10,-30 29,-30 29,-11 9,-11 9,29 -10,29" class="j"/>
        <polygon id="zh" points="-30,-10 9,-10 9,10 29,10 29,29 -10,29 -10,9 -30,9" class="z"/>
        <polygon id="zv" points="10,-30 29,-30 29,9 9,9 9,29 -10,29 -10,-10 10,-10" class="z"/>
        <polygon id="o" points="-30,-10 9,-10 9,29 -30,29" class="o"/>
        <polygon id="sh" points="-10,-10 29,-10 29,9 9,9 9,29 -30,29 -30,10 -10,10" class="s"/>
        <polygon id="sv" points="-10,-30 9,-30 9,-10 29,-10 29,29 10,29 10,9 -10,9" class="s"/>
        <polygon id="ld" points="-30,-10 29,-10 29,9 -11,9 -11,29 -30,29" class="l"/>
        <polygon id="ll" points="-30,-30 9,-30 9,29 -10,29 -10,-11 -30,-11" class="l"/>
        <polygon id="lu" points="10,-30 29,-30 29,9 -30,9 -30,-10 10,-10" class="l"/>
        <polygon id="lr" points="-10,-30 9,-30 9,10 29,10 29,29 -10,29" class="l"/>
        <polygon id="ih" points="-50,-10 29,-10 29,9 -50,9" class="i"/>
        <polygon id="iv" points="-10,-50 9,-50 9,29 -10,29" class="i"/>
    </defs>
    <line x1="15.5" y1="35.5" x2="175.5" y2="35.5" class="grid" vector-effect="non-scaling-stroke"/>
    <line x1="15.5" y1="55.5" x2="175.5" y2="55.5" class="grid" vector-effect="non-scaling-stroke"/>
    <line x1="15.5" y1="75.5" x2="175.5" y2="75.5" class="grid" vector-effect="non-scaling-stroke"/>
    <line x1="15.5" y1="95.5" x2="175.5" y2="95.5" class="grid" vector-effect="non-scaling-stroke"/>
    <line x1="15.5" y1="115.5" x2="175.5" y2="115.5" class="grid" vector-effect="non-scaling-stroke"/>
    <line x1="15.5" y1="135.5" x2="175.5" y2="135.5" class="grid" vector-effect="non-scaling-stroke"/>
    <line x1="15.5" y1="36.5" x2="15.5" y2="134.5" class="grid" vector-effect="non-scaling-stroke"/>
    <line x1="35.5" y1="36.5" x2="35.5" y2="134.5" class="grid" vector-effect="non-scaling-stroke"/>
    <line x1="55.5" y1="36.5" x2="55.5" y2="134.5" class="grid" vector-effect="non-scaling-stroke"/>
    <line x1="75.5" y1="36.5" x2="75.5" y2="134.5" class="grid" vector-effect="non-scaling-stroke"/>
    <line x1="95.5" y1="36.5" x2="95.5" y2="134.5" class="grid" vector-effect="non-scaling-stroke"/>
    <line x1="115.5" y1="36.5" x2="115.5" y2="134.5" class="grid" vector-effect="non-scaling-stroke"/>
    <line x1="135.5" y1="36.5" x2="135.5" y2="134.5" class="grid" vector-effect="non-scaling-stroke"/>
    <line x1="155.5" y1="36.5" x2="155.5" y2="134.5" class="grid" vector-effect="non-scaling-stroke"/>
    <line x1="175.5" y1="36.5" x2="175.5" y2="134.5" class="grid" vector-effect="non-scaling-stroke"/>
    <g style="font-size: 20px;">
        <rect x="95.5" y="115.5" width="19" height="19" class="terminal-fill"/>
        <rect x="95.5" y="95.5" width="19" height="39" class="terminal-stroke"/>
        <text x="105.5" y="148" class="terminals" dy="0.25em" text-anchor="middle">0</text>
        <rect x="75.5" y="115.5" width="19" height="19" class="terminal-fill"/>
        <rect x="75.5" y="95.5" width="19" height="39" class="terminal-stroke"/>
        <text x="85.5" y="148" class="terminals" dy="0.25em" text-anchor="middle">0</text>
        <rect x="75.5" y="35.5" width="39" height="39" class="terminal-stroke"/>
        <text x="95.5" y="25.5" class="terminals" dy="0.25em" text-anchor="middle">1</text>
    </g>
    <use href="#o" x="105.5" y="45.5"/>
    <use href="#o" x="125.5" y="85.5"/>
    <use href="#o" x="85.5" y="85.5"/>
    <line x1="200.5" y1="35.5" x2="360.5" y2="35.5" class="grid" vector-effect="non-scaling-stroke"/>
    <line x1="200.5" y1="55.5" x2="360.5" y2="55.5" class="grid" vector-effect="non-scaling-stroke"/>
    <line x1="200.5" y1="75.5" x2="360.5" y2="75.5" class="grid" vector-effect="non-scaling-stroke"/>
    <line x1="200.5" y1="95.5" x2="360.5" y2="95.5" class="grid" vector-effect="non-scaling-stroke"/>
    <line x1="200.5" y1="115.5" x2="360.5" y2="115.5" class="grid" vector-effect="non-scaling-stroke"/>
    <line x1="200.5" y1="135.5" x2="360.5" y2="135.5" class="grid" vector-effect="non-scaling-stroke"/>
    <line x1="200.5" y1="36.5" x2="200.5" y2="134.5" class="grid" vector-effect="non-scaling-stroke"/>
    <line x1="220.5" y1="36.5" x2="220.5" y2="134.5" class="grid" vector-effect="non-scaling-stroke"/>
    <line x1="240.5" y1="36.5" x2="240.5" y2="134.5" class="grid" vector-effect="non-scaling-stroke"/>
    <line x1="260.5" y1="36.5" x2="260.5" y2="134.5" class="grid" vector-effect="non-scaling-stroke"/>
    <line x1="280.5" y1="36.5" x2="280.5" y2="134.5" class="grid" vector-effect="non-scaling-stroke"/>
    <line x1="300.5" y1="36.5" x2="300.5" y2="134.5" class="grid" vector-effect="non-scaling-stroke"/>
    <line x1="320.5" y1="36.5" x2="320.5" y2="134.5" class="grid" vector-effect="non-scaling-stroke"/>
    <line x1="340.5" y1="36.5" x2="340.5" y2="134.5" class="grid" vector-effect="non-scaling-stroke"/>
    <line x1="360.5" y1="36.5" x2="360.5" y2="134.5" class="grid" vector-effect="non-scaling-stroke"/>
    <g style="font-size: 20px;">
        <rect x="280.5" y="95.5" width="19" height="39" class="terminal-fill"/>
        <rect x="280.5" y="95.5" width="19" height="39" class="terminal-stroke"/>
        <text x="290.5" y="148" class="terminals" dy="0.25em" text-anchor="middle">1</text>
        <rect x="260.5" y="115.5" width="19" height="19" class="terminal-fill"/>
        <rect x="260.5" y="95.5" width="19" height="39" class="terminal-stroke"/>
        <text x="270.5" y="148" class="terminals" dy="0.25em" text-anchor="middle">0</text>
        <rect x="260.5" y="35.5" width="39" height="39" class="terminal-stroke"/>
        <text x="280.5" y="25.5" class="terminals" dy="0.25em" text-anchor="middle">1</text>
    </g>
    <use href="#o" x="290.5" y="45.5"/>
    <use href="#o" x="330.5" y="105.5"/>
    <use href="#o" x="270.5" y="85.5"/>
    <line x1="385.5" y1="35.5" x2="545.5" y2="35.5" class="grid" vector-effect="non-scaling-stroke"/>
    <line x1="385.5" y1="55.5" x2="545.5" y2="55.5" class="grid" vector-effect="non-scaling-stroke"/>
    <line x1="385.5" y1="75.5" x2="545.5" y2="75.5" class="grid" vector-effect="non-scaling-stroke"/>
    <line x1="385.5" y1="95.5" x2="545.5" y2="95.5" class="grid" vector-effect="non-scaling-stroke"/>
    <line x1="385.5" y1="115.5" x2="545.5" y2="115.5" class="grid" vector-effect="non-scaling-stroke"/>
    <line x1="385.5" y1="135.5" x2="545.5" y2="135.5" class="grid" vector-effect="non-scaling-stroke"/>
    <line x1="385.5" y1="36.5" x2="385.5" y2="134.5" class="grid" vector-effect="non-scaling-stroke"/>
    <line x1="405.5" y1="36.5" x2="405.5" y2="134.5" class="grid" vector-effect="non-scaling-stroke"/>
    <line x1="425.5" y1="36.5" x2="425.5" y2="134.5" class="grid" vector-effect="non-scaling-stroke"/>
    <line x1="445.5" y1="36.5" x2="445.5" y2="134.5" class="grid" vector-effect="non-scaling-stroke"/>
    <line x1="465.5" y1="36.5" x2="465.5" y2="134.5" class="grid" vector-effect="non-scaling-stroke"/>
    <line x1="485.5" y1="36.5" x2="485.5" y2="134.5" class="grid" vector-effect="non-scaling-stroke"/>
    <line x1="505.5" y1="36.5" x2="505.5" y2="134.5" class="grid" vector-effect="non-scaling-stroke"/>
    <line x1="525.5" y1="36.5" x2="525.5" y2="134.5" class="grid" vector-effect="non-scaling-stroke"/>
    <line x1="545.5" y1="36.5" x2="545.5" y2="134.5" class="grid" vector-effect="non-scaling-stroke"/>
    <g style="font-size: 20px;">
        <rect x="465.5" y="115.5" width="19" height="19" class="terminal-fill"/>
        <rect x="465.5" y="95.5" width="19" height="39" class="terminal-stroke"/>
        <text x="475.5" y="148" class="terminals" dy="0.25em" text-anchor="middle">0</text>
        <rect x="445.5" y="95.5" width="19" height="39" class="terminal-fill"/>
        <rect x="445.5" y="95.5" width="19" height="39" class="terminal-stroke"/>
        <text x="455.5" y="148" class="terminals" dy="0.25em" text-anchor="middle">1</text>
        <rect x="445.5" y="35.5" width="39" height="39" class="terminal-stroke"/>
        <text x="465.5" y="25.5" class="terminals" dy="0.25em" text-anchor="middle">1</text>
    </g>
    <use href="#o" x="475.5" y="45.5"/>
    <use href="#o" x="495.5" y="85.5"/>
    <use href="#o" x="435.5" y="105.5"/>
    <line x1="570.5" y1="35.5" x2="730.5" y2="35.5" class="grid" vector-effect="non-scaling-stroke"/>
    <line x1="570.5" y1="55.5" x2="730.5" y2="55.5" class="grid" vector-effect="non-scaling-stroke"/>
    <line x1="570.5" y1="75.5" x2="730.5" y2="75.5" class="grid" vector-effect="non-scaling-stroke"/>
    <line x1="570.5" y1="95.5" x2="730.5" y2="95.5" class="grid" vector-effect="non-scaling-stroke"/>
    <line x1="570.5" y1="115.5" x2="730.5" y2="115.5" class="grid" vector-effect="non-scaling-stroke"/>
    <line x1="570.5" y1="135.5" x2="730.5" y2="135.5" class="grid" vector-effect="non-scaling-stroke"/>
    <line x1="570.5" y1="36.5" x2="570.5" y2="134.5" class="grid" vector-effect="non-scaling-stroke"/>
    <line x1="590.5" y1="36.5" x2="590.5" y2="134.5" class="grid" vector-effect="non-scaling-stroke"/>
    <line x1="610.5" y1="36.5" x2="610.5" y2="134.5" class="grid" vector-effect="non-scaling-stroke"/>
    <line x1="630.5" y1="36.5" x2="630.5" y2="134.5" class="grid" vector-effect="non-scaling-stroke"/>
    <line x1="650.5" y1="36.5" x2="650.5" y2="134.5" class="grid" vector-effect="non-scaling-stroke"/>
    <line x1="670.5" y1="36.5" x2="670.5" y2="134.5" class="grid" vector-effect="non-scaling-stroke"/>
    <line x1="690.5" y1="36.5" x2="690.5" y2="134.5" class="grid" vector-effect="non-scaling-stroke"/>
    <line x1="710.5" y1="36.5" x2="710.5" y2="134.5" class="grid" vector-effect="non-scaling-stroke"/>
    <line x1="730.5" y1="36.5" x2="730.5" y2="134.5" class="grid" vector-effect="non-scaling-stroke"/>
    <g style="font-size: 20px;">
        <rect x="650.5" y="95.5" width="19" height="39" class="terminal-fill"/>
        <rect x="650.5" y="95.5" width="19" height="39" class="terminal-stroke"/>
        <text x="660.5" y="148" class="terminals" dy="0.25em" text-anchor="middle">1</text>
        <rect x="630.5" y="95.5" width="19" height="39" class="terminal-fill"/>
        <rect x="630.5" y="95.5" width="19" height="39" class="terminal-stroke"/>
        <text x="640.5" y="148" class="terminals" dy="0.25em" text-anchor="middle">1</text>
        <rect x="630.5" y="35.5" width="39" height="39" class="terminal-stroke"/>
        <text x="650.5" y="25.5" class="terminals" dy="0.25em" text-anchor="middle">0</text>
    </g>
    <use href="#o" x="660.5" y="65.5"/>
    <use href="#o" x="700.5" y="105.5"/>
    <use href="#o" x="620.5" y="105.5"/>
</svg>