<?xml version="1.0"?>
<?xml-stylesheet type="text/css" href="svg.css"?>
<svg width="851" height="311" xmlns="http://www.w3.org/2000/svg" xmlns:xlink="http://www.w3.org/1999/xlink">
    <defs>
        <polygon id="td" points="-30,-10 29,-10 29,9 9,9 9,29 -10,29 -10,9 -30,9" class="t"/>
        <polygon id="tl" points="-10,-30 9,-30 9,29 -10,29 -10,9 -30,9 -30,-10 -10,-10" class="t"/>
        <polygon id="tu" points="-10,-30 9,-30 9,-10 29,-10 29,9 -30,9 -30,-10 -10,-10" class="t"/>
        <polygon id="tr" points="-10,-30 9,-30 9,-10 29,-10 29,9 9,9 9,29 -10,29" class="t"/>
        <polygon id="jd" points="-30,-10 29,-10 29,29 10,29 10,9 -30,9" class="j"/>
        <polygon id="jl" points="-10,-30 9,-30 9,29 -30,29 -30,10 -10,10" class="j"/>
        <polygon id="ju" points="-30,-30 -11,-30 -11,-10 29,-10 29,9 -30,9" class="j"/>
        <polygon id="jr" points="-10,-30 29,-30 29,-11 9,-11 9,29 -10,29" class="j"/>
        <polygon id="zh" points="-30,-10 9,-10 9,10 29,10 29,29 -10,29 -10,9 -30,9" class="z"/>
        <polygon id="zv" points="10,-30 29,-30 29,9 9,9 9,29 -10,29 -10,-10 10,-10" class="z"/>
        <polygon id="o" points="-30,-10 9,-10 9,29 -30,29" class="o"/>
        <polygon id="sh" points="-10,-10 29,-10 29,9 9,9 9,29 -30,29 -30,10 -10,10" class="s"/>
        <polygon id="sv" points="-10,-30 9,-30 9,-10 29,-10 29,29 10,29 10,9 -10,9" class="s"/>
        <polygon id="ld" points="-30,-10 29,-10 29,9 -11,9 -11,29 -30,29" class="l"/>
        <polygon id="ll" points="-30,-30 9,-30 9,29 -10,29 -10,-11 -30,-11" class="l"/>
        <polygon id="lu" points="10,-30 29,-30 29,9 -30,9 -30,-10 10,-10" class="l"/>
        <polygon id="lr" points="-10,-30 9,-30 9,10 29,10 29,29 -10,29" class="l"/>
        <polygon id="ih" points="-50,-10 29,-10 29,9 -50,9" class="i"/>
        <polygon id="iv" points="-10,-50 9,-50 9,29 -10,29" class="i"/>
    </defs>
    <line x1="15.5" y1="15.5" x2="835.5" y2="15.5" class="grid" vector-effect="non-scaling-stroke"/>
    <line x1="15.5" y1="35.5" x2="835.5" y2="35.5" class="grid" vector-effect="non-scaling-stroke"/>
    <line x1="15.5" y1="55.5" x2="835.5" y2="55.5" class="grid" vector-effect="non-scaling-stroke"/>
    <line x1="15.5" y1="75.5" x2="835.5" y2="75.5" class="grid" vector-effect="non-scaling-stroke"/>
    <line x1="15.5" y1="95.5" x2="835.5" y2="95.5" class="grid" vector-effect="non-scaling-stroke"/>
    <line x1="15.5" y1="115.5" x2="835.5" y2="115.5" class="grid" vector-effect="non-scaling-stroke"/>
    <line x1="15.5" y1="135.5" x2="835.5" y2="135.5" class="grid" vector-effect="non-scaling-stroke"/>
    <line x1="15.5" y1="155.5" x2="835.5" y2="155.5" class="grid" vector-effect="non-scaling-stroke"/>
    <line x1="15.5" y1="175.5" x2="835.5" y2="175.5" class="grid" vector-effect="non-scaling-stroke"/>
    <line x1="15.5" y1="195.5" x2="835.5" y2="195.5" class="grid" vector-effect="non-scaling-stroke"/>
    <line x1="15.5" y1="215.5" x2="835.5" y2="215.5" class="grid" vector-effect="non-scaling-stroke"/>
    <line x1="15.5" y1="235.5" x2="835.5" y2="235.5" class="grid" vector-effect="non-scaling-stroke"/>
    <line x1="15.5" y1="255.5" x2="835.5" y2="255.5" class="grid" vector-effect="non-scaling-stroke"/>
    <line x1="15.5" y1="275.5" x2="835.5" y2="275.5" class="grid" vector-effect="non-scaling-stroke"/>
    <line x1="15.5" y1="295.5" x2="835.5" y2="295.5" class="grid" vector-effect="non-scaling-stroke"/>
    <line x1="15.5" y1="16.5" x2="15.5" y2="294.5" class="grid" vector-effect="non-scaling-stroke"/>
    <line x1="35.5" y1="16.5" x2="35.5" y2="294.5" class="grid" vector-effect="non-scaling-stroke"/>
    <line x1="55.5" y1="16.5" x2="55.5" y2="294.5" class="grid" vector-effect="non-scaling-stroke"/>
    <line x1="75.5" y1="16.5" x2="75.5" y2="294.5" class="grid" vector-effect="non-scaling-stroke"/>
    <line x1="95.5" y1="16.5" x2="95.5" y2="294.5" class="grid" vector-effect="non-scaling-stroke"/>
    <line x1="115.5" y1="16.5" x2="115.5" y2="294.5" class="grid" vector-effect="non-scaling-stroke"/>
    <line x1="135.5" y1="16.5" x2="135.5" y2="294.5" class="grid" vector-effect="non-scaling-stroke"/>
    <line x1="155.5" y1="16.5" x2="155.5" y2="294.5" class="grid" vector-effect="non-scaling-stroke"/>
    <line x1="175.5" y1="16.5" x2="175.5" y2="294.5" class="grid" vector-effect="non-scaling-stroke"/>
    <line x1="195.5" y1="16.5" x2="195.5" y2="294.5" class="grid" vector-effect="non-scaling-stroke"/>
    <line x1="215.5" y1="16.5" x2="215.5" y2="294.5" class="grid" vector-effect="non-scaling-stroke"/>
    <line x1="235.5" y1="16.5" x2="235.5" y2="294.5" class="grid" vector-effect="non-scaling-stroke"/>
    <line x1="255.5" y1="16.5" x2="255.5" y2="294.5" class="grid" vector-effect="non-scaling-stroke"/>
    <line x1="275.5" y1="16.5" x2="275.5" y2="294.5" class="grid" vector-effect="non-scaling-stroke"/>
    <line x1="295.5" y1="16.5" x2="295.5" y2="294.5" class="grid" vector-effect="non-scaling-stroke"/>
    <line x1="315.5" y1="16.5" x2="315.5" y2="294.5" class="grid" vector-effect="non-scaling-stroke"/>
    <line x1="335.5" y1="16.5" x2="335.5" y2="294.5" class="grid" vector-effect="non-scaling-stroke"/>
    <line x1="355.5" y1="16.5" x2="355.5" y2="294.5" class="grid" vector-effect="non-scaling-stroke"/>
    <line x1="375.5" y1="16.5" x2="375.5" y2="294.5" class="grid" vector-effect="non-scaling-stroke"/>
    <line x1="395.5" y1="16.5" x2="395.5" y2="294.5" class="grid" vector-effect="non-scaling-stroke"/>
    <line x1="415.5" y1="16.5" x2="415.5" y2="294.5" class="grid" vector-effect="non-scaling-stroke"/>
    <line x1="435.5" y1="16.5" x2="435.5" y2="294.5" class="grid" vector-effect="non-scaling-stroke"/>
    <line x1="455.5" y1="16.5" x2="455.5" y2="294.5" class="grid" vector-effect="non-scaling-stroke"/>
    <line x1="475.5" y1="16.5" x2="475.5" y2="294.5" class="grid" vector-effect="non-scaling-stroke"/>
    <line x1="495.5" y1="16.5" x2="495.5" y2="294.5" class="grid" vector-effect="non-scaling-stroke"/>
    <line x1="515.5" y1="16.5" x2="515.5" y2="294.5" class="grid" vector-effect="non-scaling-stroke"/>
    <line x1="535.5" y1="16.5" x2="535.5" y2="294.5" class="grid" vector-effect="non-scaling-stroke"/>
    <line x1="555.5" y1="16.5" x2="555.5" y2="294.5" class="grid" vector-effect="non-scaling-stroke"/>
    <line x1="575.5" y1="16.5" x2="575.5" y2="294.5" class="grid" vector-effect="non-scaling-stroke"/>
    <line x1="595.5" y1="16.5" x2="595.5" y2="294.5" class="grid" vector-effect="non-scaling-stroke"/>
    <line x1="615.5" y1="16.5" x2="615.5" y2="294.5" class="grid" vector-effect="non-scaling-stroke"/>
    <line x1="635.5" y1="16.5" x2="635.5" y2="294.5" class="grid" vector-effect="non-scaling-stroke"/>
    <line x1="655.5" y1="16.5" x2="655.5" y2="294.5" class="grid" vector-effect="non-scaling-stroke"/>
    <line x1="675.5" y1="16.5" x2="675.5" y2="294.5" class="grid" vector-effect="non-scaling-stroke"/>
    <line x1="695.5" y1="16.5" x2="695.5" y2="294.5" class="grid" vector-effect="non-scaling-stroke"/>
    <line x1="715.5" y1="16.5" x2="715.5" y2="294.5" class="grid" vector-effect="non-scaling-stroke"/>
    <line x1="735.5" y1="16.5" x2="735.5" y2="294.5" class="grid" vector-effect="non-scaling-stroke"/>
    <line x1="755.5" y1="16.5" x2="755.5" y2="294.5" class="grid" vector-effect="non-scaling-stroke"/>
    <line x1="775.5" y1="16.5" x2="775.5" y2="294.5" class="grid" vector-effect="non-scaling-stroke"/>
    <line x1="795.5" y1="16.5" x2="795.5" y2="294.5" class="grid" vector-effect="non-scaling-stroke"/>
    <line x1="815.5" y1="16.5" x2="815.5" y2="294.5" class="grid" vector-effect="non-scaling-stroke"/>
    <line x1="835.5" y1="16.5" x2="835.5" y2="294.5" class="grid" vector-effect="non-scaling-stroke"/>
    <use href="#iv" x="785.5" y="105.5"/>
    <use href="#iv" x="785.5" y="185.5"/>
    <use href="#iv" x="785.5" y="265.5"/>
    <use href="#iv" x="705.5" y="125.5"/>
    <use href="#iv" x="705.5" y="205.5"/>
    <use href="#jl" x="705.5" y="265.5"/>
    <use href="#iv" x="625.5" y="145.5"/>
    <use href="#iv" x="625.5" y="225.5"/>
    <use href="#o" x="625.5" y="265.5"/>
    <use href="#iv" x="545.5" y="165.5"/>
    <use href="#iv" x="545.5" y="245.5"/>
    <use href="#lr" x="525.5" y="265.5"/>
    <use href="#iv" x="465.5" y="185.5"/>
    <use href="#iv" x="465.5" y="265.5"/>
    <use href="#iv" x="385.5" y="205.5"/>
    <use href="#jl" x="385.5" y="265.5"/>
    <use href="#iv" x="305.5" y="225.5"/>
    <use href="#o" x="305.5" y="265.5"/>
    <use href="#iv" x="225.5" y="245.5"/>
    <use href="#lr" x="205.5" y="265.5"/>
    <use href="#iv" x="145.5" y="265.5"/>
    <use href="#jl" x="65.5" y="265.5"/>
</svg>
