<?xml version="1.0"?>
<?xml-stylesheet type="text/css" href="svg.css"?>
<svg
   xmlns:dc="http://purl.org/dc/elements/1.1/"
   xmlns:cc="http://creativecommons.org/ns#"
   xmlns:rdf="http://www.w3.org/1999/02/22-rdf-syntax-ns#"
   xmlns:svg="http://www.w3.org/2000/svg"
   xmlns="http://www.w3.org/2000/svg"
   xmlns:sodipodi="http://sodipodi.sourceforge.net/DTD/sodipodi-0.dtd"
   xmlns:inkscape="http://www.inkscape.org/namespaces/inkscape"
   width="180"
   height="450"
   viewBox="0 0 47.625 119.0625"
   version="1.1"
   id="svg927"
   inkscape:version="1.0.1 (3bc2e813f5, 2020-09-07)"
   sodipodi:docname="mux-schematic.svg"
   style="background-color: white">
  <defs
     id="defs921" />
  <sodipodi:namedview
     id="base"
     pagecolor="#ffffff"
     bordercolor="#666666"
     borderopacity="1.0"
     inkscape:pageopacity="0.0"
     inkscape:pageshadow="2"
     inkscape:zoom="1.4"
     inkscape:cx="-91.353417"
     inkscape:cy="305.37627"
     inkscape:document-units="px"
     inkscape:current-layer="layer1"
     inkscape:document-rotation="0"
     showgrid="false"
     inkscape:window-width="1920"
     inkscape:window-height="1137"
     inkscape:window-x="1912"
     inkscape:window-y="-8"
     inkscape:window-maximized="1"
     units="px"
     inkscape:snap-grids="false" />
  <metadata
     id="metadata924">
    <rdf:RDF>
      <cc:Work
         rdf:about="">
        <dc:format>image/svg+xml</dc:format>
        <dc:type
           rdf:resource="http://purl.org/dc/dcmitype/StillImage" />
        <dc:title></dc:title>
      </cc:Work>
    </rdf:RDF>
  </metadata>
  <g
     inkscape:label="Layer 1"
     inkscape:groupmode="layer"
     id="layer1">
    <g
       id="g1787"
       transform="translate(0,-0.94494048)">
      <circle
         style="display:inline;overflow:visible;visibility:visible;fill:none;fill-opacity:1;stroke:#000000;stroke-width:1.04363;stroke-linejoin:miter;stroke-opacity:1;marker:none;enable-background:accumulate"
         id="path4008"
         cx="-60.431629"
         cy="10.452646"
         r="2.0872679"
         transform="rotate(-90)" />
      <path
         style="fill:none;stroke:#000000;stroke-width:1.04363;stroke-linecap:butt;stroke-linejoin:miter;stroke-opacity:1"
         d="m 23.481769,15.58798 3e-6,-8.3425966"
         id="path6851"
         sodipodi:nodetypes="cc" />
      <circle
         style="display:inline;overflow:visible;visibility:visible;fill:none;fill-opacity:1;stroke:#000000;stroke-width:1.04363;stroke-linejoin:miter;stroke-opacity:1;marker:none;enable-background:accumulate"
         id="path2671"
         cx="-17.675261"
         cy="23.481781"
         r="2.0872679"
         transform="rotate(-90)" />
      <path
         style="display:inline;overflow:visible;visibility:visible;fill:none;fill-opacity:1;stroke:#000000;stroke-width:1.04363;stroke-linejoin:miter;stroke-miterlimit:4;stroke-dasharray:none;stroke-opacity:1;marker:none;enable-background:accumulate"
         d="m 10.42004,58.279147 0.01578,-6.685793 h 7.847234 l -0.01992,-11.479967"
         id="path8978"
         sodipodi:nodetypes="cccc" />
      <path
         style="display:inline;overflow:visible;visibility:visible;fill:none;fill-opacity:1;stroke:#000000;stroke-width:1.04363;stroke-linejoin:miter;stroke-miterlimit:4;stroke-dasharray:none;stroke-opacity:1;marker:none;enable-background:accumulate"
         d="M 36.527188,61.897129 V 51.593354 H 28.699932 V 40.113387"
         id="path8980"
         sodipodi:nodetypes="cccc" />
      <path
         style="display:inline;overflow:visible;visibility:visible;fill:none;fill-opacity:1;stroke:#000000;stroke-width:1.04363;stroke-linejoin:miter;stroke-miterlimit:4;stroke-dasharray:none;stroke-opacity:1;marker:none;enable-background:accumulate"
         d="M 5.2181666,113.0371 5.2339444,82.767831"
         id="path8984"
         sodipodi:nodetypes="cc" />
      <path
         sodipodi:nodetypes="ccccccsccccsssssccc"
         id="path2884"
         d="M 3.029904e-6,83.424206 H 0.74546343 20.127236 20.872677 v -0.745461 -9.939366 c 0,-5.879785 -4.696373,-10.436347 -10.436327,-10.436347 -5.7399741,0 -10.436346970096,4.556562 -10.436346970096,10.436347 0,0 0,0 0,9.939366 z M 1.4909041,81.933305 c 0,-4.162611 0,-6.815585 0,-7.951506 0,-0.62121 0,-0.931815 0,-1.087128 0,-0.07771 0,-0.120305 0,-0.13983 0,-0.0099 0,-0.01381 0,-0.01578 0,-5.093263 3.9866689,-8.696946 8.9454459,-8.696946 4.958777,0 8.945426,3.852163 8.945426,8.945446 v 8.945446 z"
         style="fill:#000000;fill-opacity:1;stroke:none;stroke-width:1.56545;marker:none;enable-background:accumulate" />
      <path
         sodipodi:nodetypes="ccccccsccccsssssccc"
         id="path9105"
         d="m 13.045422,40.635197 h 0.74546 19.381773 0.745461 V 39.889756 29.95039 c 0,-5.879785 -4.696393,-10.436347 -10.436347,-10.436347 -5.739974,0 -10.436347,4.556562 -10.436347,10.436347 0,0 0,0 0,9.939366 z m 1.490921,-1.490901 c 0,-4.162591 0,-6.815565 0,-7.951486 0,-0.62121 0,-0.931815 0,-1.087128 0,-0.07771 0,-0.120305 0,-0.13983 0,-0.0099 0,-0.01381 0,-0.01578 0,-5.093282 3.986649,-8.696946 8.945426,-8.696946 4.958777,0 8.945426,3.852144 8.945426,8.945426 v 8.945466 z"
         style="fill:#000000;fill-opacity:1;stroke:none;stroke-width:1.56545;marker:none;enable-background:accumulate" />
      <g
         id="g99"
         transform="matrix(0,-0.52181701,0.52181701,0,0.98104532,95.61439)">
        <g
           transform="translate(26.5,-39.5)"
           id="g97">
          <path
             id="path95"
             d="m -7.4062497,87.500004 2,2.4375 c 0,0 5.65625,7.000049 5.65625,17.562496 0,10.56245 -5.65625,17.5625 -5.65625,17.5625 l -2,2.4375 h 3.15625 H 9.75 c 2.408076,0 7.689699,0.0245 13.625,-2.40625 5.935301,-2.43076 12.536536,-7.34326 17.6875,-16.875 L 39.75,107.5 41.0625,106.78125 C 30.759387,87.715594 14.506574,87.500004 9.75,87.500004 H -4.2499997 Z m 5.875,3 H 9.75 c 4.684173,0 18.28685,-0.130207 27.96875,16.999996 C 32.951964,115.92908 27.197469,120.18391 22,122.3125 16.639339,124.50793 12.158075,124.5 9.75,124.5 H -1.4999997 C 0.3735887,121.39157 3.25,115.45065 3.25,107.5 3.25,99.52665 0.3414689,93.599819 -1.5312497,90.500004 Z"
             style="fill:#000000;fill-opacity:1;fill-rule:evenodd;stroke:none;stroke-width:3;stroke-linecap:butt;stroke-linejoin:miter;stroke-opacity:1" />
        </g>
      </g>
      <g
         id="g1601"
         transform="matrix(0,-1.9722218,1.9722218,0,-352.09603,341.20498)">
        <circle
           style="display:inline;overflow:visible;visibility:visible;fill:none;fill-opacity:1;stroke:#000000;stroke-width:0.529167;stroke-linejoin:miter;stroke-opacity:1;marker:none;enable-background:accumulate"
           id="path8976"
           cx="126.19211"
           cy="199.31599"
           r="1.0583333" />
        <path
           style="display:inline;overflow:visible;visibility:visible;fill:#000000;fill-opacity:1;stroke:none;stroke-width:8.1;stroke-linejoin:miter;stroke-miterlimit:4;stroke-dasharray:none;stroke-opacity:1;marker:none;enable-background:accumulate"
           d="m 119.79586,195.91097 v 0.36267 6.02863 0.36266 l 0.28539,-0.16013 5.28772,-2.93493 -0.0465,-0.58966 -5.24117,-2.9091 z m 0.57114,0.9926 4.30663,2.36768 -4.30663,2.41779 z"
           id="path2638-8"
           sodipodi:nodetypes="ccccccccccccc" />
      </g>
      <path
         style="fill:none;stroke:#000000;stroke-width:1.04363;stroke-linecap:butt;stroke-linejoin:miter;stroke-opacity:1"
         d="M 40.881755,90.072151 V 81.729554"
         id="path6851-8"
         sodipodi:nodetypes="cc" />
      <path
         style="fill:none;stroke:#000000;stroke-width:1.04363;stroke-linecap:butt;stroke-linejoin:miter;stroke-opacity:1"
         d="M 40.880808,113.03715 V 104.6943"
         id="path6851-8-0"
         sodipodi:nodetypes="cc" />
      <path
         style="fill:none;stroke:#000000;stroke-width:1.04363;stroke-linecap:butt;stroke-linejoin:miter;stroke-opacity:1"
         d="M 32.005527,90.072107 V 81.72953"
         id="path6851-8-4"
         sodipodi:nodetypes="cc" />
      <path
         style="fill:none;stroke:#000000;stroke-width:1.04352;stroke-linecap:square;stroke-linejoin:miter;stroke-miterlimit:4;stroke-dasharray:none;stroke-opacity:1"
         d="m 15.234364,82.824936 v 7.247171 h 16.771163"
         id="path6851-8-4-3"
         sodipodi:nodetypes="cc" />
      <path
         d="m 24.776826,90.144409 a 1.2955712,1.2955712 0 1 1 -2.591141,0 1.2955712,1.2955712 0 1 1 2.591141,0 z"
         id="path8345"
         style="display:inline;overflow:visible;visibility:visible;fill:#000000;fill-opacity:1;stroke:none;stroke-width:1.29557;stroke-linejoin:miter;stroke-miterlimit:4;stroke-dasharray:none;stroke-opacity:1;marker:none;enable-background:accumulate" />
      <path
         style="fill:none;stroke:#000000;stroke-width:1.04363;stroke-linecap:butt;stroke-linejoin:miter;stroke-opacity:1"
         d="M 23.481772,113.03715 V 90.90505"
         id="path6851-8-0-4"
         sodipodi:nodetypes="cc" />
    </g>
    <text x="14.4" y="5" style="font-family: 'Bentham', serif; fill: black; font-size: 5.2916664px;">AS + B<tspan style="text-decoration: overline;">S</tspan></text>
    <text x="3.35" y="116.75" style="font-family: 'Bentham', serif; fill: black; font-size: 5.2916664px;">A</text>
    <text x="21.9" y="116.75" style="font-family: 'Bentham', serif; fill: black; font-size: 5.2916664px;">S</text>
    <text x="39.35" y="116.75" style="font-family: 'Bentham', serif; fill: black; font-size: 5.2916664px;">B</text>
  </g>
</svg>
