<?xml version="1.0"?>
<?xml-stylesheet type="text/css" href="svg.css"?>
<svg width="506" height="211" xmlns="http://www.w3.org/2000/svg" xmlns:xlink="http://www.w3.org/1999/xlink">
    <defs>
        <polygon id="td" points="-30,-10 29,-10 29,9 9,9 9,29 -10,29 -10,9 -30,9" class="t"/>
        <polygon id="tl" points="-10,-30 9,-30 9,29 -10,29 -10,9 -30,9 -30,-10 -10,-10" class="t"/>
        <polygon id="tu" points="-10,-30 9,-30 9,-10 29,-10 29,9 -30,9 -30,-10 -10,-10" class="t"/>
        <polygon id="tr" points="-10,-30 9,-30 9,-10 29,-10 29,9 9,9 9,29 -10,29" class="t"/>
        <polygon id="jd" points="-30,-10 29,-10 29,29 10,29 10,9 -30,9" class="j"/>
        <polygon id="jl" points="-10,-30 9,-30 9,29 -30,29 -30,10 -10,10" class="j"/>
        <polygon id="ju" points="-30,-30 -11,-30 -11,-10 29,-10 29,9 -30,9" class="j"/>
        <polygon id="jr" points="-10,-30 29,-30 29,-11 9,-11 9,29 -10,29" class="j"/>
        <polygon id="zh" points="-30,-10 9,-10 9,10 29,10 29,29 -10,29 -10,9 -30,9" class="z"/>
        <polygon id="zv" points="10,-30 29,-30 29,9 9,9 9,29 -10,29 -10,-10 10,-10" class="z"/>
        <polygon id="o" points="-30,-10 9,-10 9,29 -30,29" class="o"/>
        <polygon id="sh" points="-10,-10 29,-10 29,9 9,9 9,29 -30,29 -30,10 -10,10" class="s"/>
        <polygon id="sv" points="-10,-30 9,-30 9,-10 29,-10 29,29 10,29 10,9 -10,9" class="s"/>
        <polygon id="ld" points="-30,-10 29,-10 29,9 -11,9 -11,29 -30,29" class="l"/>
        <polygon id="ll" points="-30,-30 9,-30 9,29 -10,29 -10,-11 -30,-11" class="l"/>
        <polygon id="lu" points="10,-30 29,-30 29,9 -30,9 -30,-10 10,-10" class="l"/>
        <polygon id="lr" points="-10,-30 9,-30 9,10 29,10 29,29 -10,29" class="l"/>
        <polygon id="ih" points="-50,-10 29,-10 29,9 -50,9" class="i"/>
        <polygon id="iv" points="-10,-50 9,-50 9,29 -10,29" class="i"/>
    </defs>
    <line x1="15.5" y1="35.5" x2="115.5" y2="35.5" class="grid" vector-effect="non-scaling-stroke"/>
    <line x1="15.5" y1="55.5" x2="115.5" y2="55.5" class="grid" vector-effect="non-scaling-stroke"/>
    <line x1="15.5" y1="75.5" x2="115.5" y2="75.5" class="grid" vector-effect="non-scaling-stroke"/>
    <line x1="15.5" y1="95.5" x2="115.5" y2="95.5" class="grid" vector-effect="non-scaling-stroke"/>
    <line x1="15.5" y1="115.5" x2="115.5" y2="115.5" class="grid" vector-effect="non-scaling-stroke"/>
    <line x1="15.5" y1="135.5" x2="115.5" y2="135.5" class="grid" vector-effect="non-scaling-stroke"/>
    <line x1="15.5" y1="155.5" x2="115.5" y2="155.5" class="grid" vector-effect="non-scaling-stroke"/>
    <line x1="15.5" y1="175.5" x2="115.5" y2="175.5" class="grid" vector-effect="non-scaling-stroke"/>
    <line x1="15.5" y1="36.5" x2="15.5" y2="174.5" class="grid" vector-effect="non-scaling-stroke"/>
    <line x1="35.5" y1="36.5" x2="35.5" y2="174.5" class="grid" vector-effect="non-scaling-stroke"/>
    <line x1="55.5" y1="36.5" x2="55.5" y2="174.5" class="grid" vector-effect="non-scaling-stroke"/>
    <line x1="75.5" y1="36.5" x2="75.5" y2="174.5" class="grid" vector-effect="non-scaling-stroke"/>
    <line x1="95.5" y1="36.5" x2="95.5" y2="174.5" class="grid" vector-effect="non-scaling-stroke"/>
    <line x1="115.5" y1="36.5" x2="115.5" y2="174.5" class="grid" vector-effect="non-scaling-stroke"/>
    <g style="font-size: 20px;">
        <rect x="75.5" y="155.5" width="19" height="19" class="terminal-fill"/>
        <rect x="75.5" y="135.5" width="19" height="39" class="terminal-stroke"/>
        <text x="85.5" y="188" class="terminals" dy="0.25em" text-anchor="middle">0</text>
        <rect x="35.5" y="155.5" width="39" height="19" class="terminal-fill"/>
        <rect x="35.5" y="135.5" width="39" height="39" class="terminal-stroke"/>
        <text x="55.5" y="188" class="terminals" dy="0.25em" text-anchor="middle">0</text>
        <rect x="35.5" y="35.5" width="59" height="39" class="terminal-stroke"/>
        <text x="65.5" y="25.5" class="terminals" dy="0.25em" text-anchor="middle">1</text>
    </g>
    <use href="#jd" x="65.5" y="45.5"/>
    <use href="#o" x="85.5" y="85.5"/>
    <use href="#lu" x="65.5" y="145.5"/>
    <line x1="140.5" y1="35.5" x2="240.5" y2="35.5" class="grid" vector-effect="non-scaling-stroke"/>
    <line x1="140.5" y1="55.5" x2="240.5" y2="55.5" class="grid" vector-effect="non-scaling-stroke"/>
    <line x1="140.5" y1="75.5" x2="240.5" y2="75.5" class="grid" vector-effect="non-scaling-stroke"/>
    <line x1="140.5" y1="95.5" x2="240.5" y2="95.5" class="grid" vector-effect="non-scaling-stroke"/>
    <line x1="140.5" y1="115.5" x2="240.5" y2="115.5" class="grid" vector-effect="non-scaling-stroke"/>
    <line x1="140.5" y1="135.5" x2="240.5" y2="135.5" class="grid" vector-effect="non-scaling-stroke"/>
    <line x1="140.5" y1="155.5" x2="240.5" y2="155.5" class="grid" vector-effect="non-scaling-stroke"/>
    <line x1="140.5" y1="175.5" x2="240.5" y2="175.5" class="grid" vector-effect="non-scaling-stroke"/>
    <line x1="140.5" y1="36.5" x2="140.5" y2="174.5" class="grid" vector-effect="non-scaling-stroke"/>
    <line x1="160.5" y1="36.5" x2="160.5" y2="174.5" class="grid" vector-effect="non-scaling-stroke"/>
    <line x1="180.5" y1="36.5" x2="180.5" y2="174.5" class="grid" vector-effect="non-scaling-stroke"/>
    <line x1="200.5" y1="36.5" x2="200.5" y2="174.5" class="grid" vector-effect="non-scaling-stroke"/>
    <line x1="220.5" y1="36.5" x2="220.5" y2="174.5" class="grid" vector-effect="non-scaling-stroke"/>
    <line x1="240.5" y1="36.5" x2="240.5" y2="174.5" class="grid" vector-effect="non-scaling-stroke"/>
    <g style="font-size: 20px;">
        <rect x="200.5" y="135.5" width="19" height="39" class="terminal-fill"/>
        <rect x="200.5" y="135.5" width="19" height="39" class="terminal-stroke"/>
        <text x="210.5" y="188" class="terminals" dy="0.25em" text-anchor="middle">1</text>
        <rect x="160.5" y="155.5" width="39" height="19" class="terminal-fill"/>
        <rect x="160.5" y="135.5" width="39" height="39" class="terminal-stroke"/>
        <text x="180.5" y="188" class="terminals" dy="0.25em" text-anchor="middle">0</text>
        <rect x="160.5" y="35.5" width="59" height="39" class="terminal-stroke"/>
        <text x="190.5" y="25.5" class="terminals" dy="0.25em" text-anchor="middle">0</text>
    </g>
    <use href="#jd" x="190.5" y="65.5"/>
    <use href="#o" x="190.5" y="85.5"/>
    <use href="#lu" x="190.5" y="125.5"/>
    <line x1="265.5" y1="35.5" x2="365.5" y2="35.5" class="grid" vector-effect="non-scaling-stroke"/>
    <line x1="265.5" y1="55.5" x2="365.5" y2="55.5" class="grid" vector-effect="non-scaling-stroke"/>
    <line x1="265.5" y1="75.5" x2="365.5" y2="75.5" class="grid" vector-effect="non-scaling-stroke"/>
    <line x1="265.5" y1="95.5" x2="365.5" y2="95.5" class="grid" vector-effect="non-scaling-stroke"/>
    <line x1="265.5" y1="115.5" x2="365.5" y2="115.5" class="grid" vector-effect="non-scaling-stroke"/>
    <line x1="265.5" y1="135.5" x2="365.5" y2="135.5" class="grid" vector-effect="non-scaling-stroke"/>
    <line x1="265.5" y1="155.5" x2="365.5" y2="155.5" class="grid" vector-effect="non-scaling-stroke"/>
    <line x1="265.5" y1="175.5" x2="365.5" y2="175.5" class="grid" vector-effect="non-scaling-stroke"/>
    <line x1="265.5" y1="36.5" x2="265.5" y2="174.5" class="grid" vector-effect="non-scaling-stroke"/>
    <line x1="285.5" y1="36.5" x2="285.5" y2="174.5" class="grid" vector-effect="non-scaling-stroke"/>
    <line x1="305.5" y1="36.5" x2="305.5" y2="174.5" class="grid" vector-effect="non-scaling-stroke"/>
    <line x1="325.5" y1="36.5" x2="325.5" y2="174.5" class="grid" vector-effect="non-scaling-stroke"/>
    <line x1="345.5" y1="36.5" x2="345.5" y2="174.5" class="grid" vector-effect="non-scaling-stroke"/>
    <line x1="365.5" y1="36.5" x2="365.5" y2="174.5" class="grid" vector-effect="non-scaling-stroke"/>
    <g style="font-size: 20px;">
        <rect x="325.5" y="155.5" width="19" height="19" class="terminal-fill"/>
        <rect x="325.5" y="135.5" width="19" height="39" class="terminal-stroke"/>
        <text x="335.5" y="188" class="terminals" dy="0.25em" text-anchor="middle">0</text>
        <rect x="285.5" y="135.5" width="39" height="39" class="terminal-fill"/>
        <rect x="285.5" y="135.5" width="39" height="39" class="terminal-stroke"/>
        <text x="305.5" y="188" class="terminals" dy="0.25em" text-anchor="middle">1</text>
        <rect x="285.5" y="35.5" width="59" height="39" class="terminal-stroke"/>
        <text x="315.5" y="25.5" class="terminals" dy="0.25em" text-anchor="middle">0</text>
    </g>
    <use href="#jd" x="315.5" y="65.5"/>
    <use href="#o" x="315.5" y="85.5"/>
    <use href="#lu" x="315.5" y="125.5"/>
    <line x1="390.5" y1="35.5" x2="490.5" y2="35.5" class="grid" vector-effect="non-scaling-stroke"/>
    <line x1="390.5" y1="55.5" x2="490.5" y2="55.5" class="grid" vector-effect="non-scaling-stroke"/>
    <line x1="390.5" y1="75.5" x2="490.5" y2="75.5" class="grid" vector-effect="non-scaling-stroke"/>
    <line x1="390.5" y1="95.5" x2="490.5" y2="95.5" class="grid" vector-effect="non-scaling-stroke"/>
    <line x1="390.5" y1="115.5" x2="490.5" y2="115.5" class="grid" vector-effect="non-scaling-stroke"/>
    <line x1="390.5" y1="135.5" x2="490.5" y2="135.5" class="grid" vector-effect="non-scaling-stroke"/>
    <line x1="390.5" y1="155.5" x2="490.5" y2="155.5" class="grid" vector-effect="non-scaling-stroke"/>
    <line x1="390.5" y1="175.5" x2="490.5" y2="175.5" class="grid" vector-effect="non-scaling-stroke"/>
    <line x1="390.5" y1="36.5" x2="390.5" y2="174.5" class="grid" vector-effect="non-scaling-stroke"/>
    <line x1="410.5" y1="36.5" x2="410.5" y2="174.5" class="grid" vector-effect="non-scaling-stroke"/>
    <line x1="430.5" y1="36.5" x2="430.5" y2="174.5" class="grid" vector-effect="non-scaling-stroke"/>
    <line x1="450.5" y1="36.5" x2="450.5" y2="174.5" class="grid" vector-effect="non-scaling-stroke"/>
    <line x1="470.5" y1="36.5" x2="470.5" y2="174.5" class="grid" vector-effect="non-scaling-stroke"/>
    <line x1="490.5" y1="36.5" x2="490.5" y2="174.5" class="grid" vector-effect="non-scaling-stroke"/>
    <g style="font-size: 20px;">
        <rect x="450.5" y="135.5" width="19" height="39" class="terminal-fill"/>
        <rect x="450.5" y="135.5" width="19" height="39" class="terminal-stroke"/>
        <text x="460.5" y="188" class="terminals" dy="0.25em" text-anchor="middle">1</text>
        <rect x="410.5" y="135.5" width="39" height="39" class="terminal-fill"/>
        <rect x="410.5" y="135.5" width="39" height="39" class="terminal-stroke"/>
        <text x="430.5" y="188" class="terminals" dy="0.25em" text-anchor="middle">1</text>
        <rect x="410.5" y="35.5" width="59" height="39" class="terminal-stroke"/>
        <text x="440.5" y="25.5" class="terminals" dy="0.25em" text-anchor="middle">0</text>
    </g>
    <use href="#jd" x="440.5" y="65.5"/>
    <use href="#o" x="440.5" y="85.5"/>
    <use href="#lu" x="440.5" y="125.5"/>
</svg>