<?xml version="1.0"?>
<?xml-stylesheet type="text/css" href="svg.css"?>
<svg width="400" height="174" xmlns="http://www.w3.org/2000/svg" xmlns:xlink="http://www.w3.org/1999/xlink">
    <defs>
        <polygon id="td" points="-30,-10 29,-10 29,9 9,9 9,29 -10,29 -10,9 -30,9" class="t"/>
        <polygon id="tl" points="-10,-30 9,-30 9,29 -10,29 -10,9 -30,9 -30,-10 -10,-10" class="t"/>
        <polygon id="tu" points="-10,-30 9,-30 9,-10 29,-10 29,9 -30,9 -30,-10 -10,-10" class="t"/>
        <polygon id="tr" points="-10,-30 9,-30 9,-10 29,-10 29,9 9,9 9,29 -10,29" class="t"/>
        <polygon id="jd" points="-30,-10 29,-10 29,29 10,29 10,9 -30,9" class="j"/>
        <polygon id="jl" points="-10,-30 9,-30 9,29 -30,29 -30,10 -10,10" class="j"/>
        <polygon id="ju" points="-30,-30 -11,-30 -11,-10 29,-10 29,9 -30,9" class="j"/>
        <polygon id="jr" points="-10,-30 29,-30 29,-11 9,-11 9,29 -10,29" class="j"/>
        <polygon id="zh" points="-30,-10 9,-10 9,10 29,10 29,29 -10,29 -10,9 -30,9" class="z"/>
        <polygon id="zv" points="10,-30 29,-30 29,9 9,9 9,29 -10,29 -10,-10 10,-10" class="z"/>
        <polygon id="o" points="-30,-10 9,-10 9,29 -30,29" class="o"/>
        <polygon id="sh" points="-10,-10 29,-10 29,9 9,9 9,29 -30,29 -30,10 -10,10" class="s"/>
        <polygon id="sv" points="-10,-30 9,-30 9,-10 29,-10 29,29 10,29 10,9 -10,9" class="s"/>
        <polygon id="ld" points="-30,-10 29,-10 29,9 -11,9 -11,29 -30,29" class="l"/>
        <polygon id="ll" points="-30,-30 9,-30 9,29 -10,29 -10,-11 -30,-11" class="l"/>
        <polygon id="lu" points="10,-30 29,-30 29,9 -30,9 -30,-10 10,-10" class="l"/>
        <polygon id="lr" points="-10,-30 9,-30 9,10 29,10 29,29 -10,29" class="l"/>
        <polygon id="ih" points="-50,-10 29,-10 29,9 -50,9" class="i"/>
        <polygon id="iv" points="-10,-50 9,-50 9,29 -10,29" class="i"/>
        <g id="grid">
            <line x1="23.5" y1="25.5" x2="183.5" y2="25.5" class="grid" vector-effect="non-scaling-stroke"/>
            <line x1="23.5" y1="45.5" x2="183.5" y2="45.5" class="grid" vector-effect="non-scaling-stroke"/>
            <line x1="23.5" y1="65.5" x2="183.5" y2="65.5" class="grid" vector-effect="non-scaling-stroke"/>
            <line x1="23.5" y1="85.5" x2="183.5" y2="85.5" class="grid" vector-effect="non-scaling-stroke"/>
            <line x1="23.5" y1="105.5" x2="183.5" y2="105.5" class="grid" vector-effect="non-scaling-stroke"/>
            <line x1="23.5" y1="125.5" x2="183.5" y2="125.5" class="grid" vector-effect="non-scaling-stroke"/>
            <line x1="23.5" y1="145.5" x2="183.5" y2="145.5" class="grid" vector-effect="non-scaling-stroke"/>
            <line x1="23.5" y1="16.5" x2="23.5" y2="144.5" class="grid" vector-effect="non-scaling-stroke"/>
            <line x1="43.5" y1="16.5" x2="43.5" y2="144.5" class="grid" vector-effect="non-scaling-stroke"/>
            <line x1="63.5" y1="16.5" x2="63.5" y2="144.5" class="grid" vector-effect="non-scaling-stroke"/>
            <line x1="83.5" y1="16.5" x2="83.5" y2="144.5" class="grid" vector-effect="non-scaling-stroke"/>
            <line x1="103.5" y1="16.5" x2="103.5" y2="144.5" class="grid" vector-effect="non-scaling-stroke"/>
            <line x1="123.5" y1="16.5" x2="123.5" y2="144.5" class="grid" vector-effect="non-scaling-stroke"/>
            <line x1="143.5" y1="16.5" x2="143.5" y2="144.5" class="grid" vector-effect="non-scaling-stroke"/>
            <line x1="163.5" y1="16.5" x2="163.5" y2="144.5" class="grid" vector-effect="non-scaling-stroke"/>
            <line x1="183.5" y1="16.5" x2="183.5" y2="144.5" class="grid" vector-effect="non-scaling-stroke"/>
            <g style="font-size: 13px;">
                <text transform="translate(21 35.5)" class="axes" dominant-baseline="middle" text-anchor="end">5</text>
                <text transform="translate(21 55.5)" class="axes" dominant-baseline="middle" text-anchor="end">4</text>
                <text transform="translate(21 75.5)" class="axes" dominant-baseline="middle" text-anchor="end">3</text>
                <text transform="translate(21 95.5)" class="axes" dominant-baseline="middle" text-anchor="end">2</text>
                <text transform="translate(21 115.5)" class="axes" dominant-baseline="middle" text-anchor="end">1</text>
                <text transform="translate(21 135.5)" class="axes" dominant-baseline="middle" text-anchor="end">0</text>
                <text transform="translate(33.5 154.25)" class="axes" dominant-baseline="middle" text-anchor="middle">-3</text>
                <text transform="translate(53.5 154.25)" class="axes" dominant-baseline="middle" text-anchor="middle">-2</text>
                <text transform="translate(73.5 154.25)" class="axes" dominant-baseline="middle" text-anchor="middle">-1</text>
                <text transform="translate(93.5 154.25)" class="axes" dominant-baseline="middle" text-anchor="middle">0</text>
                <text transform="translate(113.5 154.25)" class="axes" dominant-baseline="middle" text-anchor="middle">1</text>
                <text transform="translate(133.5 154.25)" class="axes" dominant-baseline="middle" text-anchor="middle">2</text>
                <text transform="translate(153.5 154.25)" class="axes" dominant-baseline="middle" text-anchor="middle">3</text>
                <text transform="translate(173.5 154.25)" class="axes" dominant-baseline="middle" text-anchor="middle">4</text>
            </g>        
        </g>
    </defs>
    <use href="#grid" x="0" y="0"/>
    <use href="#grid" x="200" y="0"/>
    
    <use href="#ju" x="333.5" y="135.5"/>

    <use href="#o" x="93.5" y="35.5">
        <animate attributeName="x" values="93.5; 93.5; 93.5; 93.5; 113.5; 113.5; 113.5; 113.5; 113.5" keyTimes="0; 0.125; 0.25; 0.375; 0.5; 0.625; 0.75; 0.875; 1" dur="8s" calcMode="discrete" repeatCount="indefinite"/>
        <animate attributeName="y" values="35.5; 55.5; 75.5; 95.5;  95.5; 115.5; 115.5; 115.5; 115.5" keyTimes="0; 0.125; 0.25; 0.375; 0.5; 0.625; 0.75; 0.875; 1" dur="8s" calcMode="discrete" repeatCount="indefinite"/>        
    </use>    
        
    <use href="#o" x="293.5" y="35.5">
        <animate id="firstx" begin="0s;fourthx.end" attributeName="x" values="293.5; 293.5; 293.5; 293.5; 293.5" keyTimes="0; 0.25; 0.5; 0.75; 1" dur="4s" calcMode="discrete"/>
        <animate id="firsty" begin="0s;fourthy.end" attributeName="y" values="35.5; 55.5; 75.5; 95.5; 95.5" keyTimes="0; 0.25; 0.5; 0.75; 1" dur="4s" calcMode="discrete"/>
                
        <animate id="secondx" begin="firstx.end" attributeName="x" values="293.5; 296.5; 293.5" keyTimes="0; 0.5; 1" keySplines="0 0.5 0.5 1; 0.5 0 1 0.5" dur="0.15s" calcMode="spline"/>
        <animate id="secondy" begin="firsty.end" attributeName="y" values="95.5; 95.5; 95.5" keyTimes="0; 0.5; 1" dur="0.15s" calcMode="discrete"/>
        
        <animate id="thirdx" begin="secondx.end" attributeName="x" values="293.5; 293.5" keyTimes="0; 1" dur="0.85s" calcMode="discrete"/>
        <animate id="thirdy" begin="secondy.end" attributeName="y" values="95.5; 95.5" keyTimes="0; 1" dur="0.85s" calcMode="discrete"/>
        
        <animate id="fourthx" begin="thirdx.end" attributeName="x" values="293.5; 293.5; 293.5; 293.5" keyTimes="0; 0.33333333; 0.66666667; 1" dur="3s" calcMode="discrete"/>
        <animate id="fourthy" begin="thirdy.end" attributeName="y" values="115.5; 115.5; 115.5; 115.5" keyTimes="0; 0.33333333; 0.33333333; 1" dur="3s" calcMode="discrete"/>
    </use>
</svg>