<?xml version="1.0"?>
<?xml-stylesheet type="text/css" href="svg.css"?>
<svg width="246" height="454" xmlns="http://www.w3.org/2000/svg" xmlns:xlink="http://www.w3.org/1999/xlink">
    <line x1="30.5" y1="25.5" x2="230.5" y2="25.5" class="grid"/>
    <line x1="30.5" y1="45.5" x2="230.5" y2="45.5" class="grid"/>
    <line x1="30.5" y1="65.5" x2="230.5" y2="65.5" class="grid"/>
    <line x1="30.5" y1="85.5" x2="230.5" y2="85.5" class="grid"/>
    <line x1="30.5" y1="105.5" x2="230.5" y2="105.5" class="grid"/>
    <line x1="30.5" y1="125.5" x2="230.5" y2="125.5" class="grid"/>
    <line x1="30.5" y1="145.5" x2="230.5" y2="145.5" class="grid"/>
    <line x1="30.5" y1="165.5" x2="230.5" y2="165.5" class="grid"/>
    <line x1="30.5" y1="185.5" x2="230.5" y2="185.5" class="grid"/>
    <line x1="30.5" y1="205.5" x2="230.5" y2="205.5" class="grid"/>
    <line x1="30.5" y1="225.5" x2="230.5" y2="225.5" class="grid"/>
    <line x1="30.5" y1="245.5" x2="230.5" y2="245.5" class="grid"/>
    <line x1="30.5" y1="265.5" x2="230.5" y2="265.5" class="grid"/>
    <line x1="30.5" y1="285.5" x2="230.5" y2="285.5" class="grid"/>
    <line x1="30.5" y1="305.5" x2="230.5" y2="305.5" class="grid"/>
    <line x1="30.5" y1="325.5" x2="230.5" y2="325.5" class="grid"/>
    <line x1="30.5" y1="345.5" x2="230.5" y2="345.5" class="grid"/>
    <line x1="30.5" y1="365.5" x2="230.5" y2="365.5" class="grid"/>
    <line x1="30.5" y1="385.5" x2="230.5" y2="385.5" class="grid"/>
    <line x1="30.5" y1="405.5" x2="230.5" y2="405.5" class="grid"/>
    <line x1="30.5" y1="425.5" x2="230.5" y2="425.5" class="grid"/>
    <line x1="30.5" y1="16.5" x2="30.5" y2="424.5" class="grid"/>
    <line x1="50.5" y1="16.5" x2="50.5" y2="424.5" class="grid"/>
    <line x1="70.5" y1="16.5" x2="70.5" y2="424.5" class="grid"/>
    <line x1="90.5" y1="16.5" x2="90.5" y2="424.5" class="grid"/>
    <line x1="110.5" y1="16.5" x2="110.5" y2="424.5" class="grid"/>
    <line x1="130.5" y1="16.5" x2="130.5" y2="424.5" class="grid-axis"/>
    <line x1="150.5" y1="16.5" x2="150.5" y2="424.5" class="grid"/>
    <line x1="170.5" y1="16.5" x2="170.5" y2="424.5" class="grid"/>
    <line x1="190.5" y1="16.5" x2="190.5" y2="424.5" class="grid"/>
    <line x1="210.5" y1="16.5" x2="210.5" y2="424.5" class="grid"/>
    <line x1="230.5" y1="16.5" x2="230.5" y2="424.5" class="grid"/>
    <g style="font-size: 13px;">
        <text transform="translate(28 35.5)" class="axes" dy="0.25em" text-anchor="end">19</text>
        <text transform="translate(28 55.5)" class="axes" dy="0.25em" text-anchor="end">18</text>
        <text transform="translate(28 75.5)" class="axes" dy="0.25em" text-anchor="end">17</text>
        <text transform="translate(28 95.5)" class="axes" dy="0.25em" text-anchor="end">16</text>
        <text transform="translate(28 115.5)" class="axes" dy="0.25em" text-anchor="end">15</text>
        <text transform="translate(28 135.5)" class="axes" dy="0.25em" text-anchor="end">14</text>
        <text transform="translate(28 155.5)" class="axes" dy="0.25em" text-anchor="end">13</text>
        <text transform="translate(28 175.5)" class="axes" dy="0.25em" text-anchor="end">12</text>
        <text transform="translate(28 195.5)" class="axes" dy="0.25em" text-anchor="end">11</text>
        <text transform="translate(28 215.5)" class="axes" dy="0.25em" text-anchor="end">10</text>
        <text transform="translate(28 235.5)" class="axes" dy="0.25em" text-anchor="end">9</text>
        <text transform="translate(28 255.5)" class="axes" dy="0.25em" text-anchor="end">8</text>
        <text transform="translate(28 275.5)" class="axes" dy="0.25em" text-anchor="end">7</text>
        <text transform="translate(28 295.5)" class="axes" dy="0.25em" text-anchor="end">6</text>
        <text transform="translate(28 315.5)" class="axes" dy="0.25em" text-anchor="end">5</text>
        <text transform="translate(28 335.5)" class="axes" dy="0.25em" text-anchor="end">4</text>
        <text transform="translate(28 355.5)" class="axes" dy="0.25em" text-anchor="end">3</text>
        <text transform="translate(28 375.5)" class="axes" dy="0.25em" text-anchor="end">2</text>
        <text transform="translate(28 395.5)" class="axes" dy="0.25em" text-anchor="end">1</text>
        <text transform="translate(28 415.5)" class="axes" dy="0.25em" text-anchor="end">0</text>
        <text transform="translate(40.5 434.25)" class="axes" dy="0.25em" text-anchor="middle">-5</text>
        <text transform="translate(60.5 434.25)" class="axes" dy="0.25em" text-anchor="middle">-4</text>
        <text transform="translate(80.5 434.25)" class="axes" dy="0.25em" text-anchor="middle">-3</text>
        <text transform="translate(100.5 434.25)" class="axes" dy="0.25em" text-anchor="middle">-2</text>
        <text transform="translate(120.5 434.25)" class="axes" dy="0.25em" text-anchor="middle">-1</text>
        <text transform="translate(140.5 434.25)" class="axes" dy="0.25em" text-anchor="middle">0</text>
        <text transform="translate(160.5 434.25)" class="axes" dy="0.25em" text-anchor="middle">1</text>
        <text transform="translate(180.5 434.25)" class="axes" dy="0.25em" text-anchor="middle">2</text>
        <text transform="translate(200.5 434.25)" class="axes" dy="0.25em" text-anchor="middle">3</text>
        <text transform="translate(220.5 434.25)" class="axes" dy="0.25em" text-anchor="middle">4</text>
    </g>
</svg>