<?xml version="1.0"?>
<?xml-stylesheet type="text/css" href="svg.css"?>
<svg width="496" height="841" xmlns="http://www.w3.org/2000/svg" xmlns:xlink="http://www.w3.org/1999/xlink">
    <defs>
        <polygon id="td" points="-30,-10 29,-10 29,9 9,9 9,29 -10,29 -10,9 -30,9" class="t"/>
        <polygon id="tl" points="-10,-30 9,-30 9,29 -10,29 -10,9 -30,9 -30,-10 -10,-10" class="t"/>
        <polygon id="tu" points="-10,-30 9,-30 9,-10 29,-10 29,9 -30,9 -30,-10 -10,-10" class="t"/>
        <polygon id="tr" points="-10,-30 9,-30 9,-10 29,-10 29,9 9,9 9,29 -10,29" class="t"/>
        <polygon id="jd" points="-30,-10 29,-10 29,29 10,29 10,9 -30,9" class="j"/>
        <polygon id="jl" points="-10,-30 9,-30 9,29 -30,29 -30,10 -10,10" class="j"/>
        <polygon id="ju" points="-30,-30 -11,-30 -11,-10 29,-10 29,9 -30,9" class="j"/>
        <polygon id="jr" points="-10,-30 29,-30 29,-11 9,-11 9,29 -10,29" class="j"/>
        <polygon id="zh" points="-30,-10 9,-10 9,10 29,10 29,29 -10,29 -10,9 -30,9" class="z"/>
        <polygon id="zv" points="10,-30 29,-30 29,9 9,9 9,29 -10,29 -10,-10 10,-10" class="z"/>
        <polygon id="o" points="-30,-10 9,-10 9,29 -30,29" class="o"/>
        <polygon id="sh" points="-10,-10 29,-10 29,9 9,9 9,29 -30,29 -30,10 -10,10" class="s"/>
        <polygon id="sv" points="-10,-30 9,-30 9,-10 29,-10 29,29 10,29 10,9 -10,9" class="s"/>
        <polygon id="ld" points="-30,-10 29,-10 29,9 -11,9 -11,29 -30,29" class="l"/>
        <polygon id="ll" points="-30,-30 9,-30 9,29 -10,29 -10,-11 -30,-11" class="l"/>
        <polygon id="lu" points="10,-30 29,-30 29,9 -30,9 -30,-10 10,-10" class="l"/>
        <polygon id="lr" points="-10,-30 9,-30 9,10 29,10 29,29 -10,29" class="l"/>
        <polygon id="ih" points="-50,-10 29,-10 29,9 -50,9" class="i"/>
        <polygon id="iv" points="-10,-50 9,-50 9,29 -10,29" class="i"/>
    </defs>
    <g style="font-size: 16px;">
        <line x1="33.5" y1="33.5" x2="133.5" y2="33.5" class="grid"/>
        <line x1="33.5" y1="53.5" x2="133.5" y2="53.5" class="grid"/>
        <line x1="33.5" y1="73.5" x2="133.5" y2="73.5" class="grid"/>
        <line x1="33.5" y1="93.5" x2="133.5" y2="93.5" class="grid"/>
        <line x1="33.5" y1="113.5" x2="133.5" y2="113.5" class="grid"/>
        <line x1="33.5" y1="133.5" x2="133.5" y2="133.5" class="grid"/>
        <line x1="33.5" y1="33.5" x2="33.5" y2="133.5" class="grid"/>
        <line x1="53.5" y1="33.5" x2="53.5" y2="133.5" class="grid"/>
        <line x1="73.5" y1="33.5" x2="73.5" y2="133.5" class="grid"/>
        <line x1="93.5" y1="33.5" x2="93.5" y2="133.5" class="grid"/>
        <line x1="113.5" y1="33.5" x2="113.5" y2="133.5" class="grid"/>
        <line x1="133.5" y1="33.5" x2="133.5" y2="133.5" class="grid"/>
        <use href="#td" x="83.5" y="83.5"/>
        <circle cx="83" cy="83" r="5.0" class="grid-center"/>
        <text x="83.5" y="21.5" dy="0.25em" class="axes" text-anchor="middle">0</text>
        <line x1="148.5" y1="33.5" x2="248.5" y2="33.5" class="grid"/>
        <line x1="148.5" y1="53.5" x2="248.5" y2="53.5" class="grid"/>
        <line x1="148.5" y1="73.5" x2="248.5" y2="73.5" class="grid"/>
        <line x1="148.5" y1="93.5" x2="248.5" y2="93.5" class="grid"/>
        <line x1="148.5" y1="113.5" x2="248.5" y2="113.5" class="grid"/>
        <line x1="148.5" y1="133.5" x2="248.5" y2="133.5" class="grid"/>
        <line x1="148.5" y1="33.5" x2="148.5" y2="133.5" class="grid"/>
        <line x1="168.5" y1="33.5" x2="168.5" y2="133.5" class="grid"/>
        <line x1="188.5" y1="33.5" x2="188.5" y2="133.5" class="grid"/>
        <line x1="208.5" y1="33.5" x2="208.5" y2="133.5" class="grid"/>
        <line x1="228.5" y1="33.5" x2="228.5" y2="133.5" class="grid"/>
        <line x1="248.5" y1="33.5" x2="248.5" y2="133.5" class="grid"/>
        <use href="#tl" x="198.5" y="83.5"/>
        <circle cx="198" cy="83" r="5.0" class="grid-center"/>
        <text x="198.5" y="21.5" dy="0.25em" class="axes" text-anchor="middle">1</text>
        <line x1="263.5" y1="33.5" x2="363.5" y2="33.5" class="grid"/>
        <line x1="263.5" y1="53.5" x2="363.5" y2="53.5" class="grid"/>
        <line x1="263.5" y1="73.5" x2="363.5" y2="73.5" class="grid"/>
        <line x1="263.5" y1="93.5" x2="363.5" y2="93.5" class="grid"/>
        <line x1="263.5" y1="113.5" x2="363.5" y2="113.5" class="grid"/>
        <line x1="263.5" y1="133.5" x2="363.5" y2="133.5" class="grid"/>
        <line x1="263.5" y1="33.5" x2="263.5" y2="133.5" class="grid"/>
        <line x1="283.5" y1="33.5" x2="283.5" y2="133.5" class="grid"/>
        <line x1="303.5" y1="33.5" x2="303.5" y2="133.5" class="grid"/>
        <line x1="323.5" y1="33.5" x2="323.5" y2="133.5" class="grid"/>
        <line x1="343.5" y1="33.5" x2="343.5" y2="133.5" class="grid"/>
        <line x1="363.5" y1="33.5" x2="363.5" y2="133.5" class="grid"/>
        <use href="#tu" x="313.5" y="83.5"/>
        <circle cx="313" cy="83" r="5.0" class="grid-center"/>
        <text x="313.5" y="21.5" dy="0.25em" class="axes" text-anchor="middle">2</text>
        <line x1="378.5" y1="33.5" x2="478.5" y2="33.5" class="grid"/>
        <line x1="378.5" y1="53.5" x2="478.5" y2="53.5" class="grid"/>
        <line x1="378.5" y1="73.5" x2="478.5" y2="73.5" class="grid"/>
        <line x1="378.5" y1="93.5" x2="478.5" y2="93.5" class="grid"/>
        <line x1="378.5" y1="113.5" x2="478.5" y2="113.5" class="grid"/>
        <line x1="378.5" y1="133.5" x2="478.5" y2="133.5" class="grid"/>
        <line x1="378.5" y1="33.5" x2="378.5" y2="133.5" class="grid"/>
        <line x1="398.5" y1="33.5" x2="398.5" y2="133.5" class="grid"/>
        <line x1="418.5" y1="33.5" x2="418.5" y2="133.5" class="grid"/>
        <line x1="438.5" y1="33.5" x2="438.5" y2="133.5" class="grid"/>
        <line x1="458.5" y1="33.5" x2="458.5" y2="133.5" class="grid"/>
        <line x1="478.5" y1="33.5" x2="478.5" y2="133.5" class="grid"/>
        <use href="#tr" x="428.5" y="83.5"/>
        <circle cx="428" cy="83" r="5.0" class="grid-center"/>
        <text x="428.5" y="21.5" dy="0.25em" class="axes" text-anchor="middle">3</text>
        <line x1="33.5" y1="148.5" x2="133.5" y2="148.5" class="grid"/>
        <line x1="33.5" y1="168.5" x2="133.5" y2="168.5" class="grid"/>
        <line x1="33.5" y1="188.5" x2="133.5" y2="188.5" class="grid"/>
        <line x1="33.5" y1="208.5" x2="133.5" y2="208.5" class="grid"/>
        <line x1="33.5" y1="228.5" x2="133.5" y2="228.5" class="grid"/>
        <line x1="33.5" y1="248.5" x2="133.5" y2="248.5" class="grid"/>
        <line x1="33.5" y1="148.5" x2="33.5" y2="248.5" class="grid"/>
        <line x1="53.5" y1="148.5" x2="53.5" y2="248.5" class="grid"/>
        <line x1="73.5" y1="148.5" x2="73.5" y2="248.5" class="grid"/>
        <line x1="93.5" y1="148.5" x2="93.5" y2="248.5" class="grid"/>
        <line x1="113.5" y1="148.5" x2="113.5" y2="248.5" class="grid"/>
        <line x1="133.5" y1="148.5" x2="133.5" y2="248.5" class="grid"/>
        <use href="#jd" x="83.5" y="198.5"/>
        <circle cx="83" cy="198" r="5.0" class="grid-center"/>
        <line x1="148.5" y1="148.5" x2="248.5" y2="148.5" class="grid"/>
        <line x1="148.5" y1="168.5" x2="248.5" y2="168.5" class="grid"/>
        <line x1="148.5" y1="188.5" x2="248.5" y2="188.5" class="grid"/>
        <line x1="148.5" y1="208.5" x2="248.5" y2="208.5" class="grid"/>
        <line x1="148.5" y1="228.5" x2="248.5" y2="228.5" class="grid"/>
        <line x1="148.5" y1="248.5" x2="248.5" y2="248.5" class="grid"/>
        <line x1="148.5" y1="148.5" x2="148.5" y2="248.5" class="grid"/>
        <line x1="168.5" y1="148.5" x2="168.5" y2="248.5" class="grid"/>
        <line x1="188.5" y1="148.5" x2="188.5" y2="248.5" class="grid"/>
        <line x1="208.5" y1="148.5" x2="208.5" y2="248.5" class="grid"/>
        <line x1="228.5" y1="148.5" x2="228.5" y2="248.5" class="grid"/>
        <line x1="248.5" y1="148.5" x2="248.5" y2="248.5" class="grid"/>
        <use href="#jl" x="198.5" y="198.5"/>
        <circle cx="198" cy="198" r="5.0" class="grid-center"/>
        <line x1="263.5" y1="148.5" x2="363.5" y2="148.5" class="grid"/>
        <line x1="263.5" y1="168.5" x2="363.5" y2="168.5" class="grid"/>
        <line x1="263.5" y1="188.5" x2="363.5" y2="188.5" class="grid"/>
        <line x1="263.5" y1="208.5" x2="363.5" y2="208.5" class="grid"/>
        <line x1="263.5" y1="228.5" x2="363.5" y2="228.5" class="grid"/>
        <line x1="263.5" y1="248.5" x2="363.5" y2="248.5" class="grid"/>
        <line x1="263.5" y1="148.5" x2="263.5" y2="248.5" class="grid"/>
        <line x1="283.5" y1="148.5" x2="283.5" y2="248.5" class="grid"/>
        <line x1="303.5" y1="148.5" x2="303.5" y2="248.5" class="grid"/>
        <line x1="323.5" y1="148.5" x2="323.5" y2="248.5" class="grid"/>
        <line x1="343.5" y1="148.5" x2="343.5" y2="248.5" class="grid"/>
        <line x1="363.5" y1="148.5" x2="363.5" y2="248.5" class="grid"/>
        <use href="#ju" x="313.5" y="198.5"/>
        <circle cx="313" cy="198" r="5.0" class="grid-center"/>
        <line x1="378.5" y1="148.5" x2="478.5" y2="148.5" class="grid"/>
        <line x1="378.5" y1="168.5" x2="478.5" y2="168.5" class="grid"/>
        <line x1="378.5" y1="188.5" x2="478.5" y2="188.5" class="grid"/>
        <line x1="378.5" y1="208.5" x2="478.5" y2="208.5" class="grid"/>
        <line x1="378.5" y1="228.5" x2="478.5" y2="228.5" class="grid"/>
        <line x1="378.5" y1="248.5" x2="478.5" y2="248.5" class="grid"/>
        <line x1="378.5" y1="148.5" x2="378.5" y2="248.5" class="grid"/>
        <line x1="398.5" y1="148.5" x2="398.5" y2="248.5" class="grid"/>
        <line x1="418.5" y1="148.5" x2="418.5" y2="248.5" class="grid"/>
        <line x1="438.5" y1="148.5" x2="438.5" y2="248.5" class="grid"/>
        <line x1="458.5" y1="148.5" x2="458.5" y2="248.5" class="grid"/>
        <line x1="478.5" y1="148.5" x2="478.5" y2="248.5" class="grid"/>
        <use href="#jr" x="428.5" y="198.5"/>
        <circle cx="428" cy="198" r="5.0" class="grid-center"/>
        <line x1="33.5" y1="263.5" x2="133.5" y2="263.5" class="grid"/>
        <line x1="33.5" y1="283.5" x2="133.5" y2="283.5" class="grid"/>
        <line x1="33.5" y1="303.5" x2="133.5" y2="303.5" class="grid"/>
        <line x1="33.5" y1="323.5" x2="133.5" y2="323.5" class="grid"/>
        <line x1="33.5" y1="343.5" x2="133.5" y2="343.5" class="grid"/>
        <line x1="33.5" y1="363.5" x2="133.5" y2="363.5" class="grid"/>
        <line x1="33.5" y1="263.5" x2="33.5" y2="363.5" class="grid"/>
        <line x1="53.5" y1="263.5" x2="53.5" y2="363.5" class="grid"/>
        <line x1="73.5" y1="263.5" x2="73.5" y2="363.5" class="grid"/>
        <line x1="93.5" y1="263.5" x2="93.5" y2="363.5" class="grid"/>
        <line x1="113.5" y1="263.5" x2="113.5" y2="363.5" class="grid"/>
        <line x1="133.5" y1="263.5" x2="133.5" y2="363.5" class="grid"/>
        <use href="#zh" x="83.5" y="313.5"/>
        <circle cx="83" cy="313" r="5.0" class="grid-center"/>
        <line x1="148.5" y1="263.5" x2="248.5" y2="263.5" class="grid"/>
        <line x1="148.5" y1="283.5" x2="248.5" y2="283.5" class="grid"/>
        <line x1="148.5" y1="303.5" x2="248.5" y2="303.5" class="grid"/>
        <line x1="148.5" y1="323.5" x2="248.5" y2="323.5" class="grid"/>
        <line x1="148.5" y1="343.5" x2="248.5" y2="343.5" class="grid"/>
        <line x1="148.5" y1="363.5" x2="248.5" y2="363.5" class="grid"/>
        <line x1="148.5" y1="263.5" x2="148.5" y2="363.5" class="grid"/>
        <line x1="168.5" y1="263.5" x2="168.5" y2="363.5" class="grid"/>
        <line x1="188.5" y1="263.5" x2="188.5" y2="363.5" class="grid"/>
        <line x1="208.5" y1="263.5" x2="208.5" y2="363.5" class="grid"/>
        <line x1="228.5" y1="263.5" x2="228.5" y2="363.5" class="grid"/>
        <line x1="248.5" y1="263.5" x2="248.5" y2="363.5" class="grid"/>
        <use href="#zv" x="198.5" y="313.5"/>
        <circle cx="198" cy="313" r="5.0" class="grid-center"/>
        <line x1="263.5" y1="263.5" x2="363.5" y2="263.5" class="grid"/>
        <line x1="263.5" y1="283.5" x2="363.5" y2="283.5" class="grid"/>
        <line x1="263.5" y1="303.5" x2="363.5" y2="303.5" class="grid"/>
        <line x1="263.5" y1="323.5" x2="363.5" y2="323.5" class="grid"/>
        <line x1="263.5" y1="343.5" x2="363.5" y2="343.5" class="grid"/>
        <line x1="263.5" y1="363.5" x2="363.5" y2="363.5" class="grid"/>
        <line x1="263.5" y1="263.5" x2="263.5" y2="363.5" class="grid"/>
        <line x1="283.5" y1="263.5" x2="283.5" y2="363.5" class="grid"/>
        <line x1="303.5" y1="263.5" x2="303.5" y2="363.5" class="grid"/>
        <line x1="323.5" y1="263.5" x2="323.5" y2="363.5" class="grid"/>
        <line x1="343.5" y1="263.5" x2="343.5" y2="363.5" class="grid"/>
        <line x1="363.5" y1="263.5" x2="363.5" y2="363.5" class="grid"/>
        <use href="#zh" x="313.5" y="313.5"/>
        <circle cx="313" cy="313" r="5.0" class="grid-center"/>
        <line x1="378.5" y1="263.5" x2="478.5" y2="263.5" class="grid"/>
        <line x1="378.5" y1="283.5" x2="478.5" y2="283.5" class="grid"/>
        <line x1="378.5" y1="303.5" x2="478.5" y2="303.5" class="grid"/>
        <line x1="378.5" y1="323.5" x2="478.5" y2="323.5" class="grid"/>
        <line x1="378.5" y1="343.5" x2="478.5" y2="343.5" class="grid"/>
        <line x1="378.5" y1="363.5" x2="478.5" y2="363.5" class="grid"/>
        <line x1="378.5" y1="263.5" x2="378.5" y2="363.5" class="grid"/>
        <line x1="398.5" y1="263.5" x2="398.5" y2="363.5" class="grid"/>
        <line x1="418.5" y1="263.5" x2="418.5" y2="363.5" class="grid"/>
        <line x1="438.5" y1="263.5" x2="438.5" y2="363.5" class="grid"/>
        <line x1="458.5" y1="263.5" x2="458.5" y2="363.5" class="grid"/>
        <line x1="478.5" y1="263.5" x2="478.5" y2="363.5" class="grid"/>
        <use href="#zv" x="428.5" y="313.5"/>
        <circle cx="428" cy="313" r="5.0" class="grid-center"/>
        <line x1="33.5" y1="378.5" x2="133.5" y2="378.5" class="grid"/>
        <line x1="33.5" y1="398.5" x2="133.5" y2="398.5" class="grid"/>
        <line x1="33.5" y1="418.5" x2="133.5" y2="418.5" class="grid"/>
        <line x1="33.5" y1="438.5" x2="133.5" y2="438.5" class="grid"/>
        <line x1="33.5" y1="458.5" x2="133.5" y2="458.5" class="grid"/>
        <line x1="33.5" y1="478.5" x2="133.5" y2="478.5" class="grid"/>
        <line x1="33.5" y1="378.5" x2="33.5" y2="478.5" class="grid"/>
        <line x1="53.5" y1="378.5" x2="53.5" y2="478.5" class="grid"/>
        <line x1="73.5" y1="378.5" x2="73.5" y2="478.5" class="grid"/>
        <line x1="93.5" y1="378.5" x2="93.5" y2="478.5" class="grid"/>
        <line x1="113.5" y1="378.5" x2="113.5" y2="478.5" class="grid"/>
        <line x1="133.5" y1="378.5" x2="133.5" y2="478.5" class="grid"/>
        <use href="#o" x="83.5" y="428.5"/>
        <circle cx="83" cy="428" r="5.0" class="grid-center"/>
        <line x1="148.5" y1="378.5" x2="248.5" y2="378.5" class="grid"/>
        <line x1="148.5" y1="398.5" x2="248.5" y2="398.5" class="grid"/>
        <line x1="148.5" y1="418.5" x2="248.5" y2="418.5" class="grid"/>
        <line x1="148.5" y1="438.5" x2="248.5" y2="438.5" class="grid"/>
        <line x1="148.5" y1="458.5" x2="248.5" y2="458.5" class="grid"/>
        <line x1="148.5" y1="478.5" x2="248.5" y2="478.5" class="grid"/>
        <line x1="148.5" y1="378.5" x2="148.5" y2="478.5" class="grid"/>
        <line x1="168.5" y1="378.5" x2="168.5" y2="478.5" class="grid"/>
        <line x1="188.5" y1="378.5" x2="188.5" y2="478.5" class="grid"/>
        <line x1="208.5" y1="378.5" x2="208.5" y2="478.5" class="grid"/>
        <line x1="228.5" y1="378.5" x2="228.5" y2="478.5" class="grid"/>
        <line x1="248.5" y1="378.5" x2="248.5" y2="478.5" class="grid"/>
        <use href="#o" x="198.5" y="428.5"/>
        <circle cx="198" cy="428" r="5.0" class="grid-center"/>
        <line x1="263.5" y1="378.5" x2="363.5" y2="378.5" class="grid"/>
        <line x1="263.5" y1="398.5" x2="363.5" y2="398.5" class="grid"/>
        <line x1="263.5" y1="418.5" x2="363.5" y2="418.5" class="grid"/>
        <line x1="263.5" y1="438.5" x2="363.5" y2="438.5" class="grid"/>
        <line x1="263.5" y1="458.5" x2="363.5" y2="458.5" class="grid"/>
        <line x1="263.5" y1="478.5" x2="363.5" y2="478.5" class="grid"/>
        <line x1="263.5" y1="378.5" x2="263.5" y2="478.5" class="grid"/>
        <line x1="283.5" y1="378.5" x2="283.5" y2="478.5" class="grid"/>
        <line x1="303.5" y1="378.5" x2="303.5" y2="478.5" class="grid"/>
        <line x1="323.5" y1="378.5" x2="323.5" y2="478.5" class="grid"/>
        <line x1="343.5" y1="378.5" x2="343.5" y2="478.5" class="grid"/>
        <line x1="363.5" y1="378.5" x2="363.5" y2="478.5" class="grid"/>
        <use href="#o" x="313.5" y="428.5"/>
        <circle cx="313" cy="428" r="5.0" class="grid-center"/>
        <line x1="378.5" y1="378.5" x2="478.5" y2="378.5" class="grid"/>
        <line x1="378.5" y1="398.5" x2="478.5" y2="398.5" class="grid"/>
        <line x1="378.5" y1="418.5" x2="478.5" y2="418.5" class="grid"/>
        <line x1="378.5" y1="438.5" x2="478.5" y2="438.5" class="grid"/>
        <line x1="378.5" y1="458.5" x2="478.5" y2="458.5" class="grid"/>
        <line x1="378.5" y1="478.5" x2="478.5" y2="478.5" class="grid"/>
        <line x1="378.5" y1="378.5" x2="378.5" y2="478.5" class="grid"/>
        <line x1="398.5" y1="378.5" x2="398.5" y2="478.5" class="grid"/>
        <line x1="418.5" y1="378.5" x2="418.5" y2="478.5" class="grid"/>
        <line x1="438.5" y1="378.5" x2="438.5" y2="478.5" class="grid"/>
        <line x1="458.5" y1="378.5" x2="458.5" y2="478.5" class="grid"/>
        <line x1="478.5" y1="378.5" x2="478.5" y2="478.5" class="grid"/>
        <use href="#o" x="428.5" y="428.5"/>
        <circle cx="428" cy="428" r="5.0" class="grid-center"/>
        <line x1="33.5" y1="493.5" x2="133.5" y2="493.5" class="grid"/>
        <line x1="33.5" y1="513.5" x2="133.5" y2="513.5" class="grid"/>
        <line x1="33.5" y1="533.5" x2="133.5" y2="533.5" class="grid"/>
        <line x1="33.5" y1="553.5" x2="133.5" y2="553.5" class="grid"/>
        <line x1="33.5" y1="573.5" x2="133.5" y2="573.5" class="grid"/>
        <line x1="33.5" y1="593.5" x2="133.5" y2="593.5" class="grid"/>
        <line x1="33.5" y1="493.5" x2="33.5" y2="593.5" class="grid"/>
        <line x1="53.5" y1="493.5" x2="53.5" y2="593.5" class="grid"/>
        <line x1="73.5" y1="493.5" x2="73.5" y2="593.5" class="grid"/>
        <line x1="93.5" y1="493.5" x2="93.5" y2="593.5" class="grid"/>
        <line x1="113.5" y1="493.5" x2="113.5" y2="593.5" class="grid"/>
        <line x1="133.5" y1="493.5" x2="133.5" y2="593.5" class="grid"/>
        <use href="#sh" x="83.5" y="543.5"/>
        <circle cx="83" cy="543" r="5.0" class="grid-center"/>
        <line x1="148.5" y1="493.5" x2="248.5" y2="493.5" class="grid"/>
        <line x1="148.5" y1="513.5" x2="248.5" y2="513.5" class="grid"/>
        <line x1="148.5" y1="533.5" x2="248.5" y2="533.5" class="grid"/>
        <line x1="148.5" y1="553.5" x2="248.5" y2="553.5" class="grid"/>
        <line x1="148.5" y1="573.5" x2="248.5" y2="573.5" class="grid"/>
        <line x1="148.5" y1="593.5" x2="248.5" y2="593.5" class="grid"/>
        <line x1="148.5" y1="493.5" x2="148.5" y2="593.5" class="grid"/>
        <line x1="168.5" y1="493.5" x2="168.5" y2="593.5" class="grid"/>
        <line x1="188.5" y1="493.5" x2="188.5" y2="593.5" class="grid"/>
        <line x1="208.5" y1="493.5" x2="208.5" y2="593.5" class="grid"/>
        <line x1="228.5" y1="493.5" x2="228.5" y2="593.5" class="grid"/>
        <line x1="248.5" y1="493.5" x2="248.5" y2="593.5" class="grid"/>
        <use href="#sv" x="198.5" y="543.5"/>
        <circle cx="198" cy="543" r="5.0" class="grid-center"/>
        <line x1="263.5" y1="493.5" x2="363.5" y2="493.5" class="grid"/>
        <line x1="263.5" y1="513.5" x2="363.5" y2="513.5" class="grid"/>
        <line x1="263.5" y1="533.5" x2="363.5" y2="533.5" class="grid"/>
        <line x1="263.5" y1="553.5" x2="363.5" y2="553.5" class="grid"/>
        <line x1="263.5" y1="573.5" x2="363.5" y2="573.5" class="grid"/>
        <line x1="263.5" y1="593.5" x2="363.5" y2="593.5" class="grid"/>
        <line x1="263.5" y1="493.5" x2="263.5" y2="593.5" class="grid"/>
        <line x1="283.5" y1="493.5" x2="283.5" y2="593.5" class="grid"/>
        <line x1="303.5" y1="493.5" x2="303.5" y2="593.5" class="grid"/>
        <line x1="323.5" y1="493.5" x2="323.5" y2="593.5" class="grid"/>
        <line x1="343.5" y1="493.5" x2="343.5" y2="593.5" class="grid"/>
        <line x1="363.5" y1="493.5" x2="363.5" y2="593.5" class="grid"/>
        <use href="#sh" x="313.5" y="543.5"/>
        <circle cx="313" cy="543" r="5.0" class="grid-center"/>
        <line x1="378.5" y1="493.5" x2="478.5" y2="493.5" class="grid"/>
        <line x1="378.5" y1="513.5" x2="478.5" y2="513.5" class="grid"/>
        <line x1="378.5" y1="533.5" x2="478.5" y2="533.5" class="grid"/>
        <line x1="378.5" y1="553.5" x2="478.5" y2="553.5" class="grid"/>
        <line x1="378.5" y1="573.5" x2="478.5" y2="573.5" class="grid"/>
        <line x1="378.5" y1="593.5" x2="478.5" y2="593.5" class="grid"/>
        <line x1="378.5" y1="493.5" x2="378.5" y2="593.5" class="grid"/>
        <line x1="398.5" y1="493.5" x2="398.5" y2="593.5" class="grid"/>
        <line x1="418.5" y1="493.5" x2="418.5" y2="593.5" class="grid"/>
        <line x1="438.5" y1="493.5" x2="438.5" y2="593.5" class="grid"/>
        <line x1="458.5" y1="493.5" x2="458.5" y2="593.5" class="grid"/>
        <line x1="478.5" y1="493.5" x2="478.5" y2="593.5" class="grid"/>
        <use href="#sv" x="428.5" y="543.5"/>
        <circle cx="428" cy="543" r="5.0" class="grid-center"/>
        <line x1="33.5" y1="608.5" x2="133.5" y2="608.5" class="grid"/>
        <line x1="33.5" y1="628.5" x2="133.5" y2="628.5" class="grid"/>
        <line x1="33.5" y1="648.5" x2="133.5" y2="648.5" class="grid"/>
        <line x1="33.5" y1="668.5" x2="133.5" y2="668.5" class="grid"/>
        <line x1="33.5" y1="688.5" x2="133.5" y2="688.5" class="grid"/>
        <line x1="33.5" y1="708.5" x2="133.5" y2="708.5" class="grid"/>
        <line x1="33.5" y1="608.5" x2="33.5" y2="708.5" class="grid"/>
        <line x1="53.5" y1="608.5" x2="53.5" y2="708.5" class="grid"/>
        <line x1="73.5" y1="608.5" x2="73.5" y2="708.5" class="grid"/>
        <line x1="93.5" y1="608.5" x2="93.5" y2="708.5" class="grid"/>
        <line x1="113.5" y1="608.5" x2="113.5" y2="708.5" class="grid"/>
        <line x1="133.5" y1="608.5" x2="133.5" y2="708.5" class="grid"/>
        <use href="#ld" x="83.5" y="658.5"/>
        <circle cx="83" cy="658" r="5.0" class="grid-center"/>
        <line x1="148.5" y1="608.5" x2="248.5" y2="608.5" class="grid"/>
        <line x1="148.5" y1="628.5" x2="248.5" y2="628.5" class="grid"/>
        <line x1="148.5" y1="648.5" x2="248.5" y2="648.5" class="grid"/>
        <line x1="148.5" y1="668.5" x2="248.5" y2="668.5" class="grid"/>
        <line x1="148.5" y1="688.5" x2="248.5" y2="688.5" class="grid"/>
        <line x1="148.5" y1="708.5" x2="248.5" y2="708.5" class="grid"/>
        <line x1="148.5" y1="608.5" x2="148.5" y2="708.5" class="grid"/>
        <line x1="168.5" y1="608.5" x2="168.5" y2="708.5" class="grid"/>
        <line x1="188.5" y1="608.5" x2="188.5" y2="708.5" class="grid"/>
        <line x1="208.5" y1="608.5" x2="208.5" y2="708.5" class="grid"/>
        <line x1="228.5" y1="608.5" x2="228.5" y2="708.5" class="grid"/>
        <line x1="248.5" y1="608.5" x2="248.5" y2="708.5" class="grid"/>
        <use href="#ll" x="198.5" y="658.5"/>
        <circle cx="198" cy="658" r="5.0" class="grid-center"/>
        <line x1="263.5" y1="608.5" x2="363.5" y2="608.5" class="grid"/>
        <line x1="263.5" y1="628.5" x2="363.5" y2="628.5" class="grid"/>
        <line x1="263.5" y1="648.5" x2="363.5" y2="648.5" class="grid"/>
        <line x1="263.5" y1="668.5" x2="363.5" y2="668.5" class="grid"/>
        <line x1="263.5" y1="688.5" x2="363.5" y2="688.5" class="grid"/>
        <line x1="263.5" y1="708.5" x2="363.5" y2="708.5" class="grid"/>
        <line x1="263.5" y1="608.5" x2="263.5" y2="708.5" class="grid"/>
        <line x1="283.5" y1="608.5" x2="283.5" y2="708.5" class="grid"/>
        <line x1="303.5" y1="608.5" x2="303.5" y2="708.5" class="grid"/>
        <line x1="323.5" y1="608.5" x2="323.5" y2="708.5" class="grid"/>
        <line x1="343.5" y1="608.5" x2="343.5" y2="708.5" class="grid"/>
        <line x1="363.5" y1="608.5" x2="363.5" y2="708.5" class="grid"/>
        <use href="#lu" x="313.5" y="658.5"/>
        <circle cx="313" cy="658" r="5.0" class="grid-center"/>
        <line x1="378.5" y1="608.5" x2="478.5" y2="608.5" class="grid"/>
        <line x1="378.5" y1="628.5" x2="478.5" y2="628.5" class="grid"/>
        <line x1="378.5" y1="648.5" x2="478.5" y2="648.5" class="grid"/>
        <line x1="378.5" y1="668.5" x2="478.5" y2="668.5" class="grid"/>
        <line x1="378.5" y1="688.5" x2="478.5" y2="688.5" class="grid"/>
        <line x1="378.5" y1="708.5" x2="478.5" y2="708.5" class="grid"/>
        <line x1="378.5" y1="608.5" x2="378.5" y2="708.5" class="grid"/>
        <line x1="398.5" y1="608.5" x2="398.5" y2="708.5" class="grid"/>
        <line x1="418.5" y1="608.5" x2="418.5" y2="708.5" class="grid"/>
        <line x1="438.5" y1="608.5" x2="438.5" y2="708.5" class="grid"/>
        <line x1="458.5" y1="608.5" x2="458.5" y2="708.5" class="grid"/>
        <line x1="478.5" y1="608.5" x2="478.5" y2="708.5" class="grid"/>
        <use href="#lr" x="428.5" y="658.5"/>
        <circle cx="428" cy="658" r="5.0" class="grid-center"/>
        <line x1="33.5" y1="723.5" x2="133.5" y2="723.5" class="grid"/>
        <line x1="33.5" y1="743.5" x2="133.5" y2="743.5" class="grid"/>
        <line x1="33.5" y1="763.5" x2="133.5" y2="763.5" class="grid"/>
        <line x1="33.5" y1="783.5" x2="133.5" y2="783.5" class="grid"/>
        <line x1="33.5" y1="803.5" x2="133.5" y2="803.5" class="grid"/>
        <line x1="33.5" y1="823.5" x2="133.5" y2="823.5" class="grid"/>
        <line x1="33.5" y1="723.5" x2="33.5" y2="823.5" class="grid"/>
        <line x1="53.5" y1="723.5" x2="53.5" y2="823.5" class="grid"/>
        <line x1="73.5" y1="723.5" x2="73.5" y2="823.5" class="grid"/>
        <line x1="93.5" y1="723.5" x2="93.5" y2="823.5" class="grid"/>
        <line x1="113.5" y1="723.5" x2="113.5" y2="823.5" class="grid"/>
        <line x1="133.5" y1="723.5" x2="133.5" y2="823.5" class="grid"/>
        <use href="#ih" x="83.5" y="773.5"/>
        <circle cx="83" cy="773" r="5.0" class="grid-center"/>
        <line x1="148.5" y1="723.5" x2="248.5" y2="723.5" class="grid"/>
        <line x1="148.5" y1="743.5" x2="248.5" y2="743.5" class="grid"/>
        <line x1="148.5" y1="763.5" x2="248.5" y2="763.5" class="grid"/>
        <line x1="148.5" y1="783.5" x2="248.5" y2="783.5" class="grid"/>
        <line x1="148.5" y1="803.5" x2="248.5" y2="803.5" class="grid"/>
        <line x1="148.5" y1="823.5" x2="248.5" y2="823.5" class="grid"/>
        <line x1="148.5" y1="723.5" x2="148.5" y2="823.5" class="grid"/>
        <line x1="168.5" y1="723.5" x2="168.5" y2="823.5" class="grid"/>
        <line x1="188.5" y1="723.5" x2="188.5" y2="823.5" class="grid"/>
        <line x1="208.5" y1="723.5" x2="208.5" y2="823.5" class="grid"/>
        <line x1="228.5" y1="723.5" x2="228.5" y2="823.5" class="grid"/>
        <line x1="248.5" y1="723.5" x2="248.5" y2="823.5" class="grid"/>
        <use href="#iv" x="198.5" y="773.5"/>
        <circle cx="198" cy="773" r="5.0" class="grid-center"/>
        <line x1="263.5" y1="723.5" x2="363.5" y2="723.5" class="grid"/>
        <line x1="263.5" y1="743.5" x2="363.5" y2="743.5" class="grid"/>
        <line x1="263.5" y1="763.5" x2="363.5" y2="763.5" class="grid"/>
        <line x1="263.5" y1="783.5" x2="363.5" y2="783.5" class="grid"/>
        <line x1="263.5" y1="803.5" x2="363.5" y2="803.5" class="grid"/>
        <line x1="263.5" y1="823.5" x2="363.5" y2="823.5" class="grid"/>
        <line x1="263.5" y1="723.5" x2="263.5" y2="823.5" class="grid"/>
        <line x1="283.5" y1="723.5" x2="283.5" y2="823.5" class="grid"/>
        <line x1="303.5" y1="723.5" x2="303.5" y2="823.5" class="grid"/>
        <line x1="323.5" y1="723.5" x2="323.5" y2="823.5" class="grid"/>
        <line x1="343.5" y1="723.5" x2="343.5" y2="823.5" class="grid"/>
        <line x1="363.5" y1="723.5" x2="363.5" y2="823.5" class="grid"/>
        <use href="#ih" x="313.5" y="773.5"/>
        <circle cx="313" cy="773" r="5.0" class="grid-center"/>
        <line x1="378.5" y1="723.5" x2="478.5" y2="723.5" class="grid"/>
        <line x1="378.5" y1="743.5" x2="478.5" y2="743.5" class="grid"/>
        <line x1="378.5" y1="763.5" x2="478.5" y2="763.5" class="grid"/>
        <line x1="378.5" y1="783.5" x2="478.5" y2="783.5" class="grid"/>
        <line x1="378.5" y1="803.5" x2="478.5" y2="803.5" class="grid"/>
        <line x1="378.5" y1="823.5" x2="478.5" y2="823.5" class="grid"/>
        <line x1="378.5" y1="723.5" x2="378.5" y2="823.5" class="grid"/>
        <line x1="398.5" y1="723.5" x2="398.5" y2="823.5" class="grid"/>
        <line x1="418.5" y1="723.5" x2="418.5" y2="823.5" class="grid"/>
        <line x1="438.5" y1="723.5" x2="438.5" y2="823.5" class="grid"/>
        <line x1="458.5" y1="723.5" x2="458.5" y2="823.5" class="grid"/>
        <line x1="478.5" y1="723.5" x2="478.5" y2="823.5" class="grid"/>
        <use href="#iv" x="428.5" y="773.5"/>
        <circle cx="428" cy="773" r="5.0" class="grid-center"/>
    </g>
    <g style="font-size: 16px;">
        <text x="26.5" y="83.5" dy="0.25em" class="axes" text-anchor="end">0</text>
        <text x="26.5" y="198.5" dy="0.25em" class="axes" text-anchor="end">1</text>
        <text x="26.5" y="313.5" dy="0.25em" class="axes" text-anchor="end">2</text>
        <text x="26.5" y="428.5" dy="0.25em" class="axes" text-anchor="end">3</text>
        <text x="26.5" y="543.5" dy="0.25em" class="axes" text-anchor="end">4</text>
        <text x="26.5" y="658.5" dy="0.25em" class="axes" text-anchor="end">5</text>
        <text x="26.5" y="773.5" dy="0.25em" class="axes" text-anchor="end">6</text>
    </g>
</svg>