<?xml version="1.0"?>
<?xml-stylesheet type="text/css" href="svg.css"?>
<svg width="906" height="431" xmlns="http://www.w3.org/2000/svg" xmlns:xlink="http://www.w3.org/1999/xlink">
    <defs>
        <polygon id="td" points="-30,-10 29,-10 29,9 9,9 9,29 -10,29 -10,9 -30,9" class="t"/>
        <polygon id="tl" points="-10,-30 9,-30 9,29 -10,29 -10,9 -30,9 -30,-10 -10,-10" class="t"/>
        <polygon id="tu" points="-10,-30 9,-30 9,-10 29,-10 29,9 -30,9 -30,-10 -10,-10" class="t"/>
        <polygon id="tr" points="-10,-30 9,-30 9,-10 29,-10 29,9 9,9 9,29 -10,29" class="t"/>
        <polygon id="jd" points="-30,-10 29,-10 29,29 10,29 10,9 -30,9" class="j"/>
        <polygon id="jl" points="-10,-30 9,-30 9,29 -30,29 -30,10 -10,10" class="j"/>
        <polygon id="ju" points="-30,-30 -11,-30 -11,-10 29,-10 29,9 -30,9" class="j"/>
        <polygon id="jr" points="-10,-30 29,-30 29,-11 9,-11 9,29 -10,29" class="j"/>
        <polygon id="zh" points="-30,-10 9,-10 9,10 29,10 29,29 -10,29 -10,9 -30,9" class="z"/>
        <polygon id="zv" points="10,-30 29,-30 29,9 9,9 9,29 -10,29 -10,-10 10,-10" class="z"/>
        <polygon id="o" points="-30,-10 9,-10 9,29 -30,29" class="o"/>
        <polygon id="sh" points="-10,-10 29,-10 29,9 9,9 9,29 -30,29 -30,10 -10,10" class="s"/>
        <polygon id="sv" points="-10,-30 9,-30 9,-10 29,-10 29,29 10,29 10,9 -10,9" class="s"/>
        <polygon id="ld" points="-30,-10 29,-10 29,9 -11,9 -11,29 -30,29" class="l"/>
        <polygon id="ll" points="-30,-30 9,-30 9,29 -10,29 -10,-11 -30,-11" class="l"/>
        <polygon id="lu" points="10,-30 29,-30 29,9 -30,9 -30,-10 10,-10" class="l"/>
        <polygon id="lr" points="-10,-30 9,-30 9,10 29,10 29,29 -10,29" class="l"/>
        <polygon id="ih" points="-50,-10 29,-10 29,9 -50,9" class="i"/>
        <polygon id="iv" points="-10,-50 9,-50 9,29 -10,29" class="i"/>
    </defs>
    <line x1="15.5" y1="35.5" x2="215.5" y2="35.5" class="grid" vector-effect="non-scaling-stroke"/>
    <line x1="15.5" y1="55.5" x2="215.5" y2="55.5" class="grid" vector-effect="non-scaling-stroke"/>
    <line x1="15.5" y1="75.5" x2="215.5" y2="75.5" class="grid" vector-effect="non-scaling-stroke"/>
    <line x1="15.5" y1="95.5" x2="215.5" y2="95.5" class="grid" vector-effect="non-scaling-stroke"/>
    <line x1="15.5" y1="115.5" x2="215.5" y2="115.5" class="grid" vector-effect="non-scaling-stroke"/>
    <line x1="15.5" y1="135.5" x2="215.5" y2="135.5" class="grid" vector-effect="non-scaling-stroke"/>
    <line x1="15.5" y1="155.5" x2="215.5" y2="155.5" class="grid" vector-effect="non-scaling-stroke"/>
    <line x1="15.5" y1="175.5" x2="215.5" y2="175.5" class="grid" vector-effect="non-scaling-stroke"/>
    <line x1="15.5" y1="195.5" x2="215.5" y2="195.5" class="grid" vector-effect="non-scaling-stroke"/>
    <line x1="15.5" y1="215.5" x2="215.5" y2="215.5" class="grid" vector-effect="non-scaling-stroke"/>
    <line x1="15.5" y1="235.5" x2="215.5" y2="235.5" class="grid" vector-effect="non-scaling-stroke"/>
    <line x1="15.5" y1="255.5" x2="215.5" y2="255.5" class="grid" vector-effect="non-scaling-stroke"/>
    <line x1="15.5" y1="275.5" x2="215.5" y2="275.5" class="grid" vector-effect="non-scaling-stroke"/>
    <line x1="15.5" y1="295.5" x2="215.5" y2="295.5" class="grid" vector-effect="non-scaling-stroke"/>
    <line x1="15.5" y1="315.5" x2="215.5" y2="315.5" class="grid" vector-effect="non-scaling-stroke"/>
    <line x1="15.5" y1="335.5" x2="215.5" y2="335.5" class="grid" vector-effect="non-scaling-stroke"/>
    <line x1="15.5" y1="355.5" x2="215.5" y2="355.5" class="grid" vector-effect="non-scaling-stroke"/>
    <line x1="15.5" y1="375.5" x2="215.5" y2="375.5" class="grid" vector-effect="non-scaling-stroke"/>
    <line x1="15.5" y1="395.5" x2="215.5" y2="395.5" class="grid" vector-effect="non-scaling-stroke"/>
    <line x1="15.5" y1="36.5" x2="15.5" y2="394.5" class="grid" vector-effect="non-scaling-stroke"/>
    <line x1="35.5" y1="36.5" x2="35.5" y2="394.5" class="grid" vector-effect="non-scaling-stroke"/>
    <line x1="55.5" y1="36.5" x2="55.5" y2="394.5" class="grid" vector-effect="non-scaling-stroke"/>
    <line x1="75.5" y1="36.5" x2="75.5" y2="394.5" class="grid" vector-effect="non-scaling-stroke"/>
    <line x1="95.5" y1="36.5" x2="95.5" y2="394.5" class="grid" vector-effect="non-scaling-stroke"/>
    <line x1="115.5" y1="36.5" x2="115.5" y2="394.5" class="grid" vector-effect="non-scaling-stroke"/>
    <line x1="135.5" y1="36.5" x2="135.5" y2="394.5" class="grid" vector-effect="non-scaling-stroke"/>
    <line x1="155.5" y1="36.5" x2="155.5" y2="394.5" class="grid" vector-effect="non-scaling-stroke"/>
    <line x1="175.5" y1="36.5" x2="175.5" y2="394.5" class="grid" vector-effect="non-scaling-stroke"/>
    <line x1="195.5" y1="36.5" x2="195.5" y2="394.5" class="grid" vector-effect="non-scaling-stroke"/>
    <line x1="215.5" y1="36.5" x2="215.5" y2="394.5" class="grid" vector-effect="non-scaling-stroke"/>
    <g style="font-size: 20px;">
        <rect x="115.5" y="375.5" width="79" height="19" class="terminal-fill"/>
        <rect x="115.5" y="355.5" width="79" height="39" class="terminal-stroke"/>
        <text x="155.5" y="408" class="terminals" dy="0.25em" text-anchor="middle">0</text>
        <rect x="35.5" y="375.5" width="79" height="19" class="terminal-fill"/>
        <rect x="35.5" y="355.5" width="79" height="39" class="terminal-stroke"/>
        <text x="75.5" y="408" class="terminals" dy="0.25em" text-anchor="middle">0</text>
        <rect x="95.5" y="35.5" width="59" height="39" class="terminal-stroke"/>
        <text x="125.5" y="25.5" class="terminals" dy="0.25em" text-anchor="middle">1</text>
    </g>
    <use href="#jd" x="125.5" y="45.5"/>
    <use href="#o" x="145.5" y="85.5"/>
    <use href="#lu" x="125.5" y="145.5"/>
    <use href="#ih" x="125.5" y="165.5"/>
    <use href="#ld" x="65.5" y="185.5"/>
    <use href="#o" x="85.5" y="205.5"/>
    <use href="#ju" x="65.5" y="245.5"/>
    <use href="#jd" x="165.5" y="185.5"/>
    <use href="#o" x="165.5" y="205.5"/>
    <use href="#lu" x="165.5" y="245.5"/>
    <use href="#ju" x="145.5" y="265.5"/>
    <use href="#lu" x="85.5" y="265.5"/>
    <use href="#o" x="125.5" y="285.5"/>
    <use href="#o" x="125.5" y="325.5"/>
    <use href="#iv" x="185.5" y="325.5"/>
    <use href="#iv" x="45.5" y="325.5"/>
    <use href="#ih" x="165.5" y="365.5"/>
    <use href="#ih" x="85.5" y="365.5"/>
    <line x1="240.5" y1="35.5" x2="440.5" y2="35.5" class="grid" vector-effect="non-scaling-stroke"/>
    <line x1="240.5" y1="55.5" x2="440.5" y2="55.5" class="grid" vector-effect="non-scaling-stroke"/>
    <line x1="240.5" y1="75.5" x2="440.5" y2="75.5" class="grid" vector-effect="non-scaling-stroke"/>
    <line x1="240.5" y1="95.5" x2="440.5" y2="95.5" class="grid" vector-effect="non-scaling-stroke"/>
    <line x1="240.5" y1="115.5" x2="440.5" y2="115.5" class="grid" vector-effect="non-scaling-stroke"/>
    <line x1="240.5" y1="135.5" x2="440.5" y2="135.5" class="grid" vector-effect="non-scaling-stroke"/>
    <line x1="240.5" y1="155.5" x2="440.5" y2="155.5" class="grid" vector-effect="non-scaling-stroke"/>
    <line x1="240.5" y1="175.5" x2="440.5" y2="175.5" class="grid" vector-effect="non-scaling-stroke"/>
    <line x1="240.5" y1="195.5" x2="440.5" y2="195.5" class="grid" vector-effect="non-scaling-stroke"/>
    <line x1="240.5" y1="215.5" x2="440.5" y2="215.5" class="grid" vector-effect="non-scaling-stroke"/>
    <line x1="240.5" y1="235.5" x2="440.5" y2="235.5" class="grid" vector-effect="non-scaling-stroke"/>
    <line x1="240.5" y1="255.5" x2="440.5" y2="255.5" class="grid" vector-effect="non-scaling-stroke"/>
    <line x1="240.5" y1="275.5" x2="440.5" y2="275.5" class="grid" vector-effect="non-scaling-stroke"/>
    <line x1="240.5" y1="295.5" x2="440.5" y2="295.5" class="grid" vector-effect="non-scaling-stroke"/>
    <line x1="240.5" y1="315.5" x2="440.5" y2="315.5" class="grid" vector-effect="non-scaling-stroke"/>
    <line x1="240.5" y1="335.5" x2="440.5" y2="335.5" class="grid" vector-effect="non-scaling-stroke"/>
    <line x1="240.5" y1="355.5" x2="440.5" y2="355.5" class="grid" vector-effect="non-scaling-stroke"/>
    <line x1="240.5" y1="375.5" x2="440.5" y2="375.5" class="grid" vector-effect="non-scaling-stroke"/>
    <line x1="240.5" y1="395.5" x2="440.5" y2="395.5" class="grid" vector-effect="non-scaling-stroke"/>
    <line x1="240.5" y1="36.5" x2="240.5" y2="394.5" class="grid" vector-effect="non-scaling-stroke"/>
    <line x1="260.5" y1="36.5" x2="260.5" y2="394.5" class="grid" vector-effect="non-scaling-stroke"/>
    <line x1="280.5" y1="36.5" x2="280.5" y2="394.5" class="grid" vector-effect="non-scaling-stroke"/>
    <line x1="300.5" y1="36.5" x2="300.5" y2="394.5" class="grid" vector-effect="non-scaling-stroke"/>
    <line x1="320.5" y1="36.5" x2="320.5" y2="394.5" class="grid" vector-effect="non-scaling-stroke"/>
    <line x1="340.5" y1="36.5" x2="340.5" y2="394.5" class="grid" vector-effect="non-scaling-stroke"/>
    <line x1="360.5" y1="36.5" x2="360.5" y2="394.5" class="grid" vector-effect="non-scaling-stroke"/>
    <line x1="380.5" y1="36.5" x2="380.5" y2="394.5" class="grid" vector-effect="non-scaling-stroke"/>
    <line x1="400.5" y1="36.5" x2="400.5" y2="394.5" class="grid" vector-effect="non-scaling-stroke"/>
    <line x1="420.5" y1="36.5" x2="420.5" y2="394.5" class="grid" vector-effect="non-scaling-stroke"/>
    <line x1="440.5" y1="36.5" x2="440.5" y2="394.5" class="grid" vector-effect="non-scaling-stroke"/>
    <g style="font-size: 20px;">
        <rect x="340.5" y="355.5" width="79" height="39" class="terminal-fill"/>
        <rect x="340.5" y="355.5" width="79" height="39" class="terminal-stroke"/>
        <text x="380.5" y="408" class="terminals" dy="0.25em" text-anchor="middle">1</text>
        <rect x="260.5" y="375.5" width="79" height="19" class="terminal-fill"/>
        <rect x="260.5" y="355.5" width="79" height="39" class="terminal-stroke"/>
        <text x="300.5" y="408" class="terminals" dy="0.25em" text-anchor="middle">0</text>
        <rect x="320.5" y="35.5" width="59" height="39" class="terminal-stroke"/>
        <text x="350.5" y="25.5" class="terminals" dy="0.25em" text-anchor="middle">0</text>
    </g>
    <use href="#jd" x="350.5" y="65.5"/>
    <use href="#o" x="350.5" y="85.5"/>
    <use href="#lu" x="350.5" y="125.5"/>
    <use href="#ih" x="350.5" y="145.5"/>
    <use href="#ld" x="290.5" y="165.5"/>
    <use href="#o" x="290.5" y="205.5"/>
    <use href="#ju" x="290.5" y="265.5"/>
    <use href="#jd" x="390.5" y="185.5"/>
    <use href="#o" x="390.5" y="205.5"/>
    <use href="#lu" x="390.5" y="245.5"/>
    <use href="#ju" x="370.5" y="285.5"/>
    <use href="#lu" x="310.5" y="285.5"/>
    <use href="#o" x="310.5" y="325.5"/>
    <use href="#o" x="350.5" y="305.5"/>
    <use href="#iv" x="410.5" y="305.5"/>
    <use href="#iv" x="270.5" y="325.5"/>
    <use href="#ih" x="390.5" y="345.5"/>
    <use href="#ih" x="310.5" y="365.5"/>
    <line x1="465.5" y1="35.5" x2="665.5" y2="35.5" class="grid" vector-effect="non-scaling-stroke"/>
    <line x1="465.5" y1="55.5" x2="665.5" y2="55.5" class="grid" vector-effect="non-scaling-stroke"/>
    <line x1="465.5" y1="75.5" x2="665.5" y2="75.5" class="grid" vector-effect="non-scaling-stroke"/>
    <line x1="465.5" y1="95.5" x2="665.5" y2="95.5" class="grid" vector-effect="non-scaling-stroke"/>
    <line x1="465.5" y1="115.5" x2="665.5" y2="115.5" class="grid" vector-effect="non-scaling-stroke"/>
    <line x1="465.5" y1="135.5" x2="665.5" y2="135.5" class="grid" vector-effect="non-scaling-stroke"/>
    <line x1="465.5" y1="155.5" x2="665.5" y2="155.5" class="grid" vector-effect="non-scaling-stroke"/>
    <line x1="465.5" y1="175.5" x2="665.5" y2="175.5" class="grid" vector-effect="non-scaling-stroke"/>
    <line x1="465.5" y1="195.5" x2="665.5" y2="195.5" class="grid" vector-effect="non-scaling-stroke"/>
    <line x1="465.5" y1="215.5" x2="665.5" y2="215.5" class="grid" vector-effect="non-scaling-stroke"/>
    <line x1="465.5" y1="235.5" x2="665.5" y2="235.5" class="grid" vector-effect="non-scaling-stroke"/>
    <line x1="465.5" y1="255.5" x2="665.5" y2="255.5" class="grid" vector-effect="non-scaling-stroke"/>
    <line x1="465.5" y1="275.5" x2="665.5" y2="275.5" class="grid" vector-effect="non-scaling-stroke"/>
    <line x1="465.5" y1="295.5" x2="665.5" y2="295.5" class="grid" vector-effect="non-scaling-stroke"/>
    <line x1="465.5" y1="315.5" x2="665.5" y2="315.5" class="grid" vector-effect="non-scaling-stroke"/>
    <line x1="465.5" y1="335.5" x2="665.5" y2="335.5" class="grid" vector-effect="non-scaling-stroke"/>
    <line x1="465.5" y1="355.5" x2="665.5" y2="355.5" class="grid" vector-effect="non-scaling-stroke"/>
    <line x1="465.5" y1="375.5" x2="665.5" y2="375.5" class="grid" vector-effect="non-scaling-stroke"/>
    <line x1="465.5" y1="395.5" x2="665.5" y2="395.5" class="grid" vector-effect="non-scaling-stroke"/>
    <line x1="465.5" y1="36.5" x2="465.5" y2="394.5" class="grid" vector-effect="non-scaling-stroke"/>
    <line x1="485.5" y1="36.5" x2="485.5" y2="394.5" class="grid" vector-effect="non-scaling-stroke"/>
    <line x1="505.5" y1="36.5" x2="505.5" y2="394.5" class="grid" vector-effect="non-scaling-stroke"/>
    <line x1="525.5" y1="36.5" x2="525.5" y2="394.5" class="grid" vector-effect="non-scaling-stroke"/>
    <line x1="545.5" y1="36.5" x2="545.5" y2="394.5" class="grid" vector-effect="non-scaling-stroke"/>
    <line x1="565.5" y1="36.5" x2="565.5" y2="394.5" class="grid" vector-effect="non-scaling-stroke"/>
    <line x1="585.5" y1="36.5" x2="585.5" y2="394.5" class="grid" vector-effect="non-scaling-stroke"/>
    <line x1="605.5" y1="36.5" x2="605.5" y2="394.5" class="grid" vector-effect="non-scaling-stroke"/>
    <line x1="625.5" y1="36.5" x2="625.5" y2="394.5" class="grid" vector-effect="non-scaling-stroke"/>
    <line x1="645.5" y1="36.5" x2="645.5" y2="394.5" class="grid" vector-effect="non-scaling-stroke"/>
    <line x1="665.5" y1="36.5" x2="665.5" y2="394.5" class="grid" vector-effect="non-scaling-stroke"/>
    <g style="font-size: 20px;">
        <rect x="565.5" y="375.5" width="79" height="19" class="terminal-fill"/>
        <rect x="565.5" y="355.5" width="79" height="39" class="terminal-stroke"/>
        <text x="605.5" y="408" class="terminals" dy="0.25em" text-anchor="middle">0</text>
        <rect x="485.5" y="355.5" width="79" height="39" class="terminal-fill"/>
        <rect x="485.5" y="355.5" width="79" height="39" class="terminal-stroke"/>
        <text x="525.5" y="408" class="terminals" dy="0.25em" text-anchor="middle">1</text>
        <rect x="545.5" y="35.5" width="59" height="39" class="terminal-stroke"/>
        <text x="575.5" y="25.5" class="terminals" dy="0.25em" text-anchor="middle">0</text>
    </g>
    <use href="#jd" x="575.5" y="65.5"/>
    <use href="#o" x="575.5" y="85.5"/>
    <use href="#lu" x="575.5" y="125.5"/>
    <use href="#ih" x="575.5" y="145.5"/>
    <use href="#ld" x="515.5" y="185.5"/>
    <use href="#o" x="535.5" y="205.5"/>
    <use href="#ju" x="515.5" y="245.5"/>
    <use href="#jd" x="615.5" y="165.5"/>
    <use href="#o" x="635.5" y="205.5"/>
    <use href="#lu" x="615.5" y="265.5"/>
    <use href="#ju" x="595.5" y="285.5"/>
    <use href="#lu" x="535.5" y="285.5"/>
    <use href="#o" x="535.5" y="305.5"/>
    <use href="#o" x="575.5" y="305.5"/>
    <use href="#iv" x="635.5" y="325.5"/>
    <use href="#iv" x="495.5" y="305.5"/>
    <use href="#ih" x="615.5" y="365.5"/>
    <use href="#ih" x="535.5" y="345.5"/>
    <line x1="690.5" y1="35.5" x2="890.5" y2="35.5" class="grid" vector-effect="non-scaling-stroke"/>
    <line x1="690.5" y1="55.5" x2="890.5" y2="55.5" class="grid" vector-effect="non-scaling-stroke"/>
    <line x1="690.5" y1="75.5" x2="890.5" y2="75.5" class="grid" vector-effect="non-scaling-stroke"/>
    <line x1="690.5" y1="95.5" x2="890.5" y2="95.5" class="grid" vector-effect="non-scaling-stroke"/>
    <line x1="690.5" y1="115.5" x2="890.5" y2="115.5" class="grid" vector-effect="non-scaling-stroke"/>
    <line x1="690.5" y1="135.5" x2="890.5" y2="135.5" class="grid" vector-effect="non-scaling-stroke"/>
    <line x1="690.5" y1="155.5" x2="890.5" y2="155.5" class="grid" vector-effect="non-scaling-stroke"/>
    <line x1="690.5" y1="175.5" x2="890.5" y2="175.5" class="grid" vector-effect="non-scaling-stroke"/>
    <line x1="690.5" y1="195.5" x2="890.5" y2="195.5" class="grid" vector-effect="non-scaling-stroke"/>
    <line x1="690.5" y1="215.5" x2="890.5" y2="215.5" class="grid" vector-effect="non-scaling-stroke"/>
    <line x1="690.5" y1="235.5" x2="890.5" y2="235.5" class="grid" vector-effect="non-scaling-stroke"/>
    <line x1="690.5" y1="255.5" x2="890.5" y2="255.5" class="grid" vector-effect="non-scaling-stroke"/>
    <line x1="690.5" y1="275.5" x2="890.5" y2="275.5" class="grid" vector-effect="non-scaling-stroke"/>
    <line x1="690.5" y1="295.5" x2="890.5" y2="295.5" class="grid" vector-effect="non-scaling-stroke"/>
    <line x1="690.5" y1="315.5" x2="890.5" y2="315.5" class="grid" vector-effect="non-scaling-stroke"/>
    <line x1="690.5" y1="335.5" x2="890.5" y2="335.5" class="grid" vector-effect="non-scaling-stroke"/>
    <line x1="690.5" y1="355.5" x2="890.5" y2="355.5" class="grid" vector-effect="non-scaling-stroke"/>
    <line x1="690.5" y1="375.5" x2="890.5" y2="375.5" class="grid" vector-effect="non-scaling-stroke"/>
    <line x1="690.5" y1="395.5" x2="890.5" y2="395.5" class="grid" vector-effect="non-scaling-stroke"/>
    <line x1="690.5" y1="36.5" x2="690.5" y2="394.5" class="grid" vector-effect="non-scaling-stroke"/>
    <line x1="710.5" y1="36.5" x2="710.5" y2="394.5" class="grid" vector-effect="non-scaling-stroke"/>
    <line x1="730.5" y1="36.5" x2="730.5" y2="394.5" class="grid" vector-effect="non-scaling-stroke"/>
    <line x1="750.5" y1="36.5" x2="750.5" y2="394.5" class="grid" vector-effect="non-scaling-stroke"/>
    <line x1="770.5" y1="36.5" x2="770.5" y2="394.5" class="grid" vector-effect="non-scaling-stroke"/>
    <line x1="790.5" y1="36.5" x2="790.5" y2="394.5" class="grid" vector-effect="non-scaling-stroke"/>
    <line x1="810.5" y1="36.5" x2="810.5" y2="394.5" class="grid" vector-effect="non-scaling-stroke"/>
    <line x1="830.5" y1="36.5" x2="830.5" y2="394.5" class="grid" vector-effect="non-scaling-stroke"/>
    <line x1="850.5" y1="36.5" x2="850.5" y2="394.5" class="grid" vector-effect="non-scaling-stroke"/>
    <line x1="870.5" y1="36.5" x2="870.5" y2="394.5" class="grid" vector-effect="non-scaling-stroke"/>
    <line x1="890.5" y1="36.5" x2="890.5" y2="394.5" class="grid" vector-effect="non-scaling-stroke"/>
    <g style="font-size: 20px;">
        <rect x="790.5" y="355.5" width="79" height="39" class="terminal-fill"/>
        <rect x="790.5" y="355.5" width="79" height="39" class="terminal-stroke"/>
        <text x="830.5" y="408" class="terminals" dy="0.25em" text-anchor="middle">1</text>
        <rect x="710.5" y="355.5" width="79" height="39" class="terminal-fill"/>
        <rect x="710.5" y="355.5" width="79" height="39" class="terminal-stroke"/>
        <text x="750.5" y="408" class="terminals" dy="0.25em" text-anchor="middle">1</text>
        <rect x="770.5" y="35.5" width="59" height="39" class="terminal-stroke"/>
        <text x="800.5" y="25.5" class="terminals" dy="0.25em" text-anchor="middle">1</text>
    </g>
    <use href="#jd" x="800.5" y="45.5"/>
    <use href="#o" x="820.5" y="85.5"/>
    <use href="#lu" x="800.5" y="145.5"/>
    <use href="#ih" x="800.5" y="165.5"/>
    <use href="#ld" x="740.5" y="185.5"/>
    <use href="#o" x="760.5" y="205.5"/>
    <use href="#ju" x="740.5" y="245.5"/>
    <use href="#jd" x="840.5" y="185.5"/>
    <use href="#o" x="840.5" y="205.5"/>
    <use href="#lu" x="840.5" y="245.5"/>
    <use href="#ju" x="820.5" y="285.5"/>
    <use href="#lu" x="760.5" y="285.5"/>
    <use href="#o" x="760.5" y="305.5"/>
    <use href="#o" x="800.5" y="305.5"/>
    <use href="#iv" x="860.5" y="305.5"/>
    <use href="#iv" x="720.5" y="305.5"/>
    <use href="#ih" x="840.5" y="345.5"/>
    <use href="#ih" x="760.5" y="345.5"/>
</svg>