<?xml version="1.0"?>
<?xml-stylesheet type="text/css" href="svg.css"?>
<svg
   xmlns:dc="http://purl.org/dc/elements/1.1/"
   xmlns:cc="http://creativecommons.org/ns#"
   xmlns:rdf="http://www.w3.org/1999/02/22-rdf-syntax-ns#"
   xmlns:svg="http://www.w3.org/2000/svg"
   xmlns="http://www.w3.org/2000/svg"
   xmlns:sodipodi="http://sodipodi.sourceforge.net/DTD/sodipodi-0.dtd"
   xmlns:inkscape="http://www.inkscape.org/namespaces/inkscape"
   width="138.55901"
   height="442"
   viewBox="0 0 36.660402 116.94582639638291133450869031577"
   version="1.1"
   id="svg8"
   inkscape:version="1.0.1 (3bc2e813f5, 2020-09-07)"
   sodipodi:docname="xor-schematic.svg"
   style="background-color: white">
  <defs
     id="defs2" />
  <sodipodi:namedview
     id="base"
     pagecolor="#ffffff"
     bordercolor="#666666"
     borderopacity="1.0"
     inkscape:pageopacity="0.0"
     inkscape:pageshadow="2"
     inkscape:zoom="2.5532288"
     inkscape:cx="36.638192"
     inkscape:cy="154.97973"
     inkscape:document-units="px"
     inkscape:current-layer="layer1"
     inkscape:document-rotation="0"
     showgrid="false"
     inkscape:window-width="1920"
     inkscape:window-height="1137"
     inkscape:window-x="1912"
     inkscape:window-y="-8"
     inkscape:window-maximized="1"
     units="px"
     inkscape:snap-nodes="false" />
  <metadata
     id="metadata5">
    <rdf:RDF>
      <cc:Work
         rdf:about="">
        <dc:format>image/svg+xml</dc:format>
        <dc:type
           rdf:resource="http://purl.org/dc/dcmitype/StillImage" />
        <dc:title />
      </cc:Work>
    </rdf:RDF>
  </metadata>
  <g
     inkscape:label="Layer 1"
     inkscape:groupmode="layer"
     id="layer1">
    <circle
       style="display:inline;overflow:visible;visibility:visible;fill:none;fill-opacity:1;stroke:#000000;stroke-width:0.814673;stroke-linejoin:miter;stroke-opacity:1;marker:none;enable-background:accumulate"
       id="path4008"
       transform="rotate(-90)"
       cx="-43.681969"
       cy="8.1594591"
       r="1.6293459" />
    <circle
       style="display:inline;overflow:visible;visibility:visible;fill:#000000;fill-opacity:1;stroke:none;stroke-width:1.01834;stroke-linejoin:miter;stroke-miterlimit:4;stroke-dasharray:none;stroke-opacity:1;marker:none;enable-background:accumulate"
       id="path7571"
       transform="rotate(-90)"
       cx="-69.369629"
       cy="18.330141"
       r="1.0183412" />
    <circle
       style="display:inline;overflow:visible;visibility:visible;fill:none;fill-opacity:1;stroke:#000000;stroke-width:0.814673;stroke-linejoin:miter;stroke-opacity:1;marker:none;enable-background:accumulate"
       id="path8976"
       transform="rotate(-90)"
       cx="-43.63105"
       cy="28.500824"
       r="1.6293459" />
    <path
       style="display:inline;overflow:visible;visibility:visible;fill:none;fill-opacity:1;stroke:#000000;stroke-width:0.814673;stroke-linejoin:miter;stroke-miterlimit:4;stroke-dasharray:none;stroke-opacity:1;marker:none;enable-background:accumulate"
       d="m 8.1339997,42.001705 0.01273,-5.218999 h 6.1256513 l -0.0156,-8.961402"
       id="path8978"
       sodipodi:nodetypes="cccc" />
    <path
       style="display:inline;overflow:visible;visibility:visible;fill:none;fill-opacity:1;stroke:#000000;stroke-width:0.814673;stroke-linejoin:miter;stroke-miterlimit:4;stroke-dasharray:none;stroke-opacity:1;marker:none;enable-background:accumulate"
       d="M 28.513553,41.670744 V 36.782706 H 22.403506 V 27.821304"
       id="path8980"
       sodipodi:nodetypes="cccc" />
    <path
       style="display:inline;overflow:visible;visibility:visible;fill:none;fill-opacity:1;stroke:#000000;stroke-width:0.814673;stroke-linejoin:miter;stroke-miterlimit:4;stroke-dasharray:none;stroke-opacity:1;marker:none;enable-background:accumulate"
       d="M 4.0733646,112.10868 4.0860939,61.117854"
       id="path8984"
       sodipodi:nodetypes="cc" />
    <circle
       style="display:inline;overflow:visible;visibility:visible;fill:#000000;fill-opacity:1;stroke:none;stroke-width:1.01834;stroke-linejoin:miter;stroke-miterlimit:4;stroke-dasharray:none;stroke-opacity:1;marker:none;enable-background:accumulate"
       id="path8986"
       transform="rotate(-90)"
       cx="-105.21523"
       cy="32.586918"
       r="1.0183412" />
    <path
       style="display:inline;overflow:visible;visibility:visible;fill:none;fill-opacity:1;stroke:#000000;stroke-width:0.814673;stroke-linejoin:miter;stroke-miterlimit:4;stroke-dasharray:none;stroke-opacity:1;marker:none;enable-background:accumulate"
       d="M 32.586918,112.12429 V 61.207228"
       id="path8990"
       sodipodi:nodetypes="cc" />
    <path
       style="display:inline;overflow:visible;visibility:visible;fill:none;fill-opacity:1;stroke:#000000;stroke-width:0.814673;stroke-linecap:butt;stroke-linejoin:miter;stroke-miterlimit:4;stroke-dasharray:none;stroke-dashoffset:0;stroke-opacity:1;marker:none;enable-background:accumulate"
       d="M 4.0733646,105.21523 H 14.256776 V 95.031821"
       id="path2636"
       sodipodi:nodetypes="ccc" />
    <path
       style="display:inline;overflow:visible;visibility:visible;fill:none;fill-opacity:1;stroke:#000000;stroke-width:0.814673;stroke-linecap:butt;stroke-linejoin:miter;stroke-miterlimit:4;stroke-dasharray:none;stroke-dashoffset:0;stroke-opacity:1;marker:none;enable-background:accumulate"
       d="M 22.403506,95.031821 V 105.21523 H 32.586918"
       id="path2638"
       sodipodi:nodetypes="ccc" />
    <path
       style="display:inline;overflow:visible;visibility:visible;fill:none;fill-opacity:1;stroke:#000000;stroke-width:0.814673;stroke-linecap:butt;stroke-linejoin:miter;stroke-miterlimit:4;stroke-dasharray:none;stroke-dashoffset:0;stroke-opacity:1;marker:none;enable-background:accumulate"
       d="m 12.220094,61.222894 v 8.14673 h 12.220094 v -8.14673"
       id="path2640" />
    <path
       style="display:inline;overflow:visible;visibility:visible;fill:none;fill-opacity:1;stroke:#000000;stroke-width:0.814673;stroke-linecap:butt;stroke-linejoin:miter;stroke-miterlimit:4;stroke-dasharray:none;stroke-dashoffset:0;stroke-opacity:1;marker:none;enable-background:accumulate"
       d="m 18.330141,69.833295 v 6.110047"
       id="path2642"
       sodipodi:nodetypes="cc" />
    <circle
       transform="rotate(-90)"
       id="path2644"
       style="display:inline;overflow:visible;visibility:visible;fill:#000000;fill-opacity:1;stroke:none;stroke-width:1.01834;stroke-linejoin:miter;stroke-miterlimit:4;stroke-dasharray:none;stroke-opacity:1;marker:none;enable-background:accumulate"
       cx="-105.21523"
       cy="4.0733647"
       r="1.0183412" />
    <path
       sodipodi:nodetypes="ccsccccscccccccccsccsc"
       id="path4973"
       d="m 10.183412,97.743155 0.992882,-0.814673 c 0,0 2.851376,-2.303997 7.153847,-2.303997 4.302472,0 7.153847,2.303997 7.153847,2.303997 l 0.992882,0.814673 v -1.285656 -5.702711 c 10e-7,-0.980897 0.01,-3.132295 -0.980153,-5.549959 C 24.57907,82.96417 22.793125,80.490517 19.445779,78.47007 l -1.115638,0.471961 -1.113176,-0.472873 c -6.952032,4.204985 -7.033553,10.418853 -7.033553,12.28563 v 5.702711 z m 1.222009,-2.393102 v -4.595265 c 0,-1.908034 -0.05304,-7.448901 6.92472,-11.392692 3.43347,1.941686 5.166619,4.285702 6.033672,6.402821 0.894276,2.183592 0.891048,4.008975 0.891048,4.989871 v 4.582536 c -1.266178,-0.763181 -3.68613,-1.934849 -6.92472,-1.934849 -3.247838,0 -5.662052,1.184751 -6.92472,1.947578 z"
       style="fill:#000000;fill-opacity:1;fill-rule:evenodd;stroke:none;stroke-width:1.22201;stroke-linecap:butt;stroke-linejoin:miter;stroke-opacity:1" />
    <circle
       transform="rotate(-90)"
       id="path2604"
       style="display:inline;overflow:visible;visibility:visible;fill:none;fill-opacity:1;stroke:#000000;stroke-width:0.814673;stroke-linejoin:miter;stroke-opacity:1;marker:none;enable-background:accumulate"
       cx="-77.414513"
       cy="18.330141"
       r="1.6293459" />
    <path
       sodipodi:nodetypes="ccsccccscccccccccsccsc"
       id="path8893"
       d="M -5e-8,64.137896 0.9928826,63.323223 c 0,0 2.8513752,-2.303997 7.1538467,-2.303997 4.3024717,0 7.1538467,2.303997 7.1538467,2.303997 l 0.992883,0.814673 V 62.85224 57.149529 c 0,-0.980898 0.01,-3.132295 -0.980154,-5.549959 -0.917647,-2.24066 -2.703592,-4.714313 -6.0509373,-6.734759 L 8.1467293,45.336772 7.0335537,44.863899 C 0.08152142,49.068886 -5e-8,55.282751 -5e-8,57.149529 V 62.85224 Z M 1.2220094,61.744794 v -4.595265 c 0,-1.908033 -0.053038,-7.4489 6.9247199,-11.392691 3.4334697,1.941687 5.1666187,4.285701 6.0336717,6.40282 0.894276,2.183592 0.891049,4.008977 0.891048,4.989871 v 4.582536 c -1.266178,-0.763182 -3.68613,-1.934848 -6.9247197,-1.934848 -3.2478378,0 -5.6620522,1.18475 -6.9247199,1.947577 z"
       style="fill:#000000;fill-opacity:1;fill-rule:evenodd;stroke:none;stroke-width:1.22201;stroke-linecap:butt;stroke-linejoin:miter;stroke-opacity:1" />
    <path
       sodipodi:nodetypes="ccsccccscccccccccsccsc"
       id="path8895"
       d="m 20.366823,64.137896 0.992883,-0.814673 c 0,0 2.851375,-2.303997 7.153847,-2.303997 4.302471,0 7.153847,2.303997 7.153847,2.303997 l 0.992882,0.814673 V 62.85224 57.149529 c 10e-7,-0.980898 0.01,-3.132295 -0.980153,-5.549959 -0.917647,-2.24066 -2.703592,-4.714313 -6.050938,-6.734759 l -1.115638,0.471961 -1.113176,-0.472873 c -6.952032,4.204983 -7.033554,10.418852 -7.033554,12.28563 v 5.702711 z m 1.22201,-2.393102 v -4.595265 c 0,-1.908037 -0.05304,-7.4489 6.92472,-11.392691 3.43347,1.941683 5.166619,4.285701 6.033671,6.40282 0.894277,2.183592 0.891049,4.008973 0.891049,4.989871 v 4.582536 c -1.266179,-0.763182 -3.68613,-1.934848 -6.92472,-1.934848 -3.247838,0 -5.662052,1.18475 -6.92472,1.947577 z"
       style="fill:#000000;fill-opacity:1;fill-rule:evenodd;stroke:none;stroke-width:1.22201;stroke-linecap:butt;stroke-linejoin:miter;stroke-opacity:1" />
    <path
       style="display:inline;overflow:visible;visibility:visible;fill:none;fill-opacity:1;stroke:#000000;stroke-width:0.814673;stroke-linecap:butt;stroke-linejoin:miter;stroke-miterlimit:4;stroke-dasharray:none;stroke-dashoffset:0;stroke-opacity:1;marker:none;enable-background:accumulate"
       d="M 18.330141,5.4177978 V 11.527845"
       id="path2642-6"
       sodipodi:nodetypes="cc" />
    <text
       xml:space="preserve"
       style="font-family: 'Bentham', serif; fill: black; font-size: 5.2916664px;"
       x="2.225"
       y="116.5"
       id="text854">A</text>
    <text
       xml:space="preserve"
       style="font-family: 'Bentham', serif; fill: black; font-size: 5.2916664px;"
       x="31"
       y="116.5"
       id="text858">B</text>
    <text
       xml:space="preserve"
       style="font-family: 'Bentham', serif; fill: black; font-size: 5.2916664px;"
       x="11"
       y="3.9"
       id="text862">A &#8853; B</text>
    <g
       id="g99"
       transform="matrix(0,-0.40733919,0.40733919,0,-9.3809552,38.26661)">
      <g
         transform="translate(26.5,-39.5)"
         id="g97">
        <path
           id="path95"
           d="m -7.4062497,87.500004 2,2.4375 c 0,0 5.65625,7.000049 5.65625,17.562496 0,10.56245 -5.65625,17.5625 -5.65625,17.5625 l -2,2.4375 h 3.15625 H 9.75 c 2.408076,0 7.689699,0.0245 13.625,-2.40625 5.935301,-2.43076 12.536536,-7.34326 17.6875,-16.875 L 39.75,107.5 41.0625,106.78125 C 30.759387,87.715594 14.506574,87.500004 9.75,87.500004 H -4.2499997 Z m 5.875,3 H 9.75 c 4.684173,0 18.28685,-0.130207 27.96875,16.999996 C 32.951964,115.92908 27.197469,120.18391 22,122.3125 16.639339,124.50793 12.158075,124.5 9.75,124.5 H -1.4999997 C 0.3735887,121.39157 3.25,115.45065 3.25,107.5 3.25,99.52665 0.3414689,93.599819 -1.5312497,90.500004 Z"
           style="fill:#000000;fill-opacity:1;fill-rule:evenodd;stroke:none;stroke-width:3;stroke-linecap:butt;stroke-linejoin:miter;stroke-opacity:1" />
      </g>
    </g>
  </g>
</svg>
